<svg xmlns="http://www.w3.org/2000/svg" xmlns:xlink="http://www.w3.org/1999/xlink" width="185.768" height="50" viewBox="0 0 185.768 50"><defs><style>.a{fill:#1cbfe0;}.a,.b,.c,.e,.f,.g,.h,.i,.j{fill-rule:evenodd;}.b{fill:#667a83;}.c{fill:#657982;}.d{clip-path:url(#a);}.e{fill:#fefefe;}.f{fill:#8edff2;}.g{fill:#c5cbce;}.h{fill:#bcc5c9;}.i{fill:#c5cdd0;}.j{fill:#b3bcc1;}</style><clipPath id="a"><path d="M276,0h14.358V21.753H276Zm0,0" transform="translate(-276)"/></clipPath></defs><g transform="translate(-0.208)"><path class="a" d="M39.318,20.47h-.141l-28.952-.049,0-9.573,29.265,0,0-9.845L.422,1,.5,30.128H39.279l.148,0C39.427,28.278,39.65,21.728,39.318,20.47Zm0,0" transform="translate(-0.081 -0.38)"/><path class="b" d="M234.215,21.193c.209.595.119.384.947.386l4.846-.029,6.2-17.361L248.69,10.9l-3.7.012-1.824,5.756c8.876.024,7.327-.68,8.359,2.2.284.791.546,1.522.828,2.338l.229.393,4.515-.015c.61.012,1.02.177,1.16-.274L250.731.285h-8.706c-.449.136-1.811,4.457-2.052,5.147-.619,1.78-1.233,3.489-1.884,5.271C237.567,12.128,234.708,20.674,234.215,21.193Zm0,0" transform="translate(-88.567 -0.108)"/><path class="b" d="M117.512,21.689c1.017-.34,4.285-.087,5.61-.119.692-.961,1.068-3.406,1.661-4.244L129.4,4.179c.536.723,2.012,5.472,2.464,6.72l-3.661.017-1.784,5.776h7.3c.461.245.428.522.612,1.071l1.41,3.807,5.669.01a19.987,19.987,0,0,0-1.024-3.239L133.89.3,125.21.285c-.483.141-1.782,4.416-2.047,5.147C122.249,7.974,117.5,20.914,117.512,21.689Zm0,0" transform="translate(-44.397 -0.108)"/><path class="b" d="M178.662,62.439l-1.576,4.739,5.732.024,4.105-11.457,2.192-5.9,2.357,6.669H188.63c-.459.245-.112.039-.5.456.017,1.311-1.335,3.8-1.536,5.322l7,0c.277,1.228,1.547,3.79,1.544,4.8l5.96.068-7.568-21.275-8.913.01Zm0,0" transform="translate(-66.945 -17.369)"/><path class="b" d="M153.573,49.963a4.805,4.805,0,0,1,3.783.806c.862.818.619,2.586.619,4.042,0,1.425.117,3.421-.012,4.778-.25,2.68-4.737,2.717-6.234,1.282-.876-.84-.617-2.544-.617-3.972C151.112,53.025,150.32,50.621,153.573,49.963Zm-1.488-4.9a10.982,10.982,0,0,1-2.068.789A6.937,6.937,0,0,0,146,50.179c-.493,1.712-.388,8.854-.16,10.9.814,2.12,1.2,2.882,2.719,4.006,3.357,2.486,9.653,2.423,12.9-.784a9.032,9.032,0,0,0,1.364-1.879c.736-2.45.561-3.758.561-6.414,0-2.078.255-4.654-.5-6.431-1.318-3.1-4.635-4.734-9.119-4.63Zm0,0" transform="translate(-55.047 -17.008)"/><path class="b" d="M169.018,10.4c-.68.447-2.789.352-3.678.117l-.019-4.865c.053-.277.053-.182.141-.333,1.988-.063,4.129-.388,5.027,1.093C171.458,8,170.608,10.192,169.018,10.4ZM159.957,21.2v.138a32.318,32.318,0,0,0,5.334.109l0-4.623a2.9,2.9,0,0,1,.145-1.491c3.819,0,6.225.114,8.57-2.025,1.923-1.758,2.673-4.763,1.875-8.14a7.609,7.609,0,0,0-2.093-3.105A6.948,6.948,0,0,0,170.246.4,73.314,73.314,0,0,0,159.957.281Zm0,0" transform="translate(-60.462 -0.058)"/><path class="b" d="M89.578,67.08h5.375c0-.626-.189-6.154.146-6.747,1.894-.01,7.832-.238,9.267.09l0-5.237-9.216-.022c-.367-.551-.192-3.523-.138-4.132,1.25-.318,7.6-.092,9.367-.092l0-5.111c-1.887.146-10.231.066-13.159.032-1.619-.019-1.445-.158-1.639.287Zm0,0" transform="translate(-33.825 -17.344)"/><path class="b" d="M95.995.474,94.643.739c-.68.634-2.387.855-3.688,2.62a6.912,6.912,0,0,0-1.374,4.89q.007,3.132,0,6.266a7.043,7.043,0,0,0,1.372,4.72c1.379,1.134,1.843,2.076,4.618,2.714,3.612.83,5.086-.447,6.242-.517.653-.75,2.243-.935,3.841-4.011l-4.756-2.153a3.349,3.349,0,0,1-4.632,1.513c-1.821-.942-1.277-3.108-1.277-5.548,0-2.311-.51-4.681,1.277-5.548,1.838-.889,4.241-.124,4.79,1.369l4.487-1.77a7.747,7.747,0,0,0-3.387-3.94C100.224.263,98.391.212,95.995.474Zm0,0" transform="translate(-33.825 -0.129)"/><path class="c" d="M220.343,50.952c.316.614.129,15.528.129,16.152l5.361,0v-14.2c0-.782-.119-1.539.17-1.925l5.509.061v-5.22l-.185,0-18.675.022,2.064,5.12Zm0,0" transform="translate(-80.406 -17.344)"/><path class="b" d="M218.715,21.708l.075-16.271,5.647-.007V.285L207.656.353l0,5.079,5.6,0,.034,16.181A36.81,36.81,0,0,1,218.715,21.708Zm0,0" transform="translate(-78.515 -0.108)"/><g class="d" transform="translate(171.618)"><path class="b" d="M276.292,21.689c1.274-.43,11.734,0,14.171-.129l-.536-1.848c-.272-.787-.7-3.045-1.311-3.467l-6.973-.029c0-1.738-.094-15.431.056-15.931h-5.5C276.2,3.262,276,20.244,276.292,21.689Zm0,0" transform="translate(-276.049 -0.108)"/></g><path class="c" d="M119.818,46.314l0,20.855h14.256c-.182-1.012-.811-1.964-.769-2.942-.489-.512-.51-1.549-.889-2.2-1.54-.469-5.5.252-7.208-.2l0-15.96-5.382.012Zm0,0" transform="translate(-45.269 -17.36)"/><path class="b" d="M192.268,21.643c1.01-.34,3.974-.109,5.239-.109L197.58.327c-.821-.306-4.222-.085-5.407-.09.012,3.593,0,7.186,0,10.779C192.173,13.384,191.877,19.735,192.268,21.643Zm0,0" transform="translate(-72.615 -0.062)"/><path class="a" d="M.437,73.505l9.784,0,0-9.655V63.7l-9.808.078Zm0,0" transform="translate(-0.079 -24.109)"/><path class="e" d="M156.848,52.97c-3.253.658-2.461,3.061-2.461,6.936,0,1.428-.26,3.132.617,3.972,1.5,1.435,5.985,1.4,6.234-1.282.129-1.357.012-3.353.012-4.778,0-1.457.243-3.224-.619-4.042A4.805,4.805,0,0,0,156.848,52.97Zm0,0" transform="translate(-58.322 -20.015)"/><path class="e" d="M172.368,13.5c1.59-.206,2.44-2.4,1.471-3.989-.9-1.481-3.039-1.156-5.027-1.093l0,5.164Zm0,0" transform="translate(-63.812 -3.157)"/><path class="e" d="M192.914,58.153l1.357.471c-.243.253-.1-.095-.182.3s-.058.092.036.459c.383-.418.037-.211.5-.456h2.843l-2.357-6.669Zm0,0" transform="translate(-72.936 -19.777)"/><path class="f" d="M39.237,20.47c.333,1.258.109,7.808.109,9.653l-.148,0-38.782,0L.341,1C.2,1.485.13,29.261.339,30.2l39.083.073c.2-.981.049-6.771.078-8.653C39.523,20.13,39.482,20.635,39.237,20.47Zm0,0" transform="translate(0 -0.38)"/><path class="g" d="M225.023,69.457l.044.8a20.371,20.371,0,0,0,5.523.046c.253-1,.076-13.945.1-16.2-.291.386-.173,1.143-.173,1.925v14.2l-5.361,0c0-.624.187-15.538-.129-16.152V69.457Zm0,0" transform="translate(-85.088 -20.466)"/><path class="h" d="M135.693,62.024c-.3-.384-.085-.235-1.559-.233h-5.5l0-14.984c0-.515.056-.556-.16-.94l0,15.96C130.192,62.277,134.154,61.556,135.693,62.024Zm0,0" transform="translate(-48.549 -17.36)"/><path class="i" d="M98.4,55.167l0-4.1,9.25,0c.316-.68.139-2.838.15-3.969a2.046,2.046,0,0,0-.165-1.262l0,5.111c-1.77,0-8.116-.226-9.367.092C98.209,51.644,98.034,54.616,98.4,55.167Zm0,0" transform="translate(-37.078 -17.347)"/><path class="j" d="M89.578,75.915c.507.323,5.132.153,5.511.075l.01-6.822c-.335.592-.15,6.12-.146,6.747Zm0,0" transform="translate(-33.825 -26.179)"/><path class="h" d="M172.283,13.542l-3.559.083,0-5.164c-.088.151-.088.056-.141.333l.019,4.865c.889.235,3,.33,3.681-.117Zm0,0" transform="translate(-63.728 -3.202)"/><path class="j" d="M159.957,30.59c.192.286-.323.209.413.26l5-.01.07-6.254a2.9,2.9,0,0,0-.145,1.491l0,4.623A32.318,32.318,0,0,1,159.957,30.59Zm0,0" transform="translate(-60.462 -9.305)"/></g></svg>