<svg xmlns="http://www.w3.org/2000/svg" width="202" height="56" viewBox="0 0 202 56"><defs><style>.a{fill:#981a1d;}.b,.c{fill:#fff;}.b{fill-rule:evenodd;}</style></defs><g transform="translate(-0.33 -0.094)"><rect class="a" width="202" height="56" transform="translate(0.33 0.093)"/><path class="b" d="M93.875,30h46.172V76.835H93.875Zm3.63,3.682h38.912v39.47H97.505V33.682" transform="translate(-79.052 -25.298)"/><path class="b" d="M143.4,80.473H174.11V88.2H143.4V80.473" transform="translate(-120.847 -67.891)"/><path class="b" d="M143.4,155.234h19.183v7.733H143.4v-7.733" transform="translate(-120.847 -130.981)"/><path class="b" d="M143.4,230h7.7v7.732h-7.7V230" transform="translate(-120.847 -194.075)"/><path class="c" d="M464.254,71.188h3.175V55.2h-3.175V71.188" transform="translate(-391.609 -46.56)"/><path class="c" d="M503.836,55.2V71.188h6.393c4.763,0,6.608-2.565,6.608-8.075,0-5.732-1.738-7.918-6.587-7.918Zm5.643,2.744c3.69,0,4.141.847,4.141,5.2,0,4.081-.708,5.309-3.8,5.309h-2.811V57.939h2.467" transform="translate(-425.012 -46.56)"/><path class="c" d="M603.063,71.188h3.175V64.43h6.673V61.686h-6.673V57.939h7.638V55.2H603.063V71.188" transform="translate(-508.748 -46.56)"/><path class="c" d="M690.587,63.992c-.257,2.119-1.265,2.811-3.389,2.811-2.961,0-3.819-1.851-3.819-5.175,0-4.283,1.159-5.911,3.777-5.911s3.067,1.093,3.432,2.52h3.175c-.515-3.658-2.832-5.331-6.607-5.331-4.785,0-6.995,2.677-6.995,8.431,0,5.889,2.339,8.276,6.973,8.276,4.741,0,6.415-2.5,6.63-5.621h-3.175" transform="translate(-573.809 -44.629)"/><path class="c" d="M821.715,71.188h3.175V64.43h6.673V61.686H824.89V57.939h7.638V55.2H821.715V71.188" transform="translate(-693.266 -46.56)"/><path class="c" d="M904.313,71.188h3.175V55.2h-3.175V71.188" transform="translate(-762.969 -46.56)"/><path class="c" d="M943.891,71.188h3.175V64.9h2.853l3.777,6.29h3.861L953.545,64.7c1.759-.424,3.005-1.584,3.005-4.706,0-4.707-2.79-4.8-5.987-4.8h-6.673Zm6.222-13.249c2.681,0,3.218.334,3.218,1.94,0,2.008-.858,2.275-3.411,2.275h-2.853V57.939h3.047" transform="translate(-796.368 -46.56)"/><path class="c" d="M1036.93,64.237c.194,3.324,1.566,5.376,6.587,5.376,2.3,0,6.007-.424,6.007-4.93,0-3.19-1.845-4.082-4.032-4.684l-3.433-.959c-.9-.245-1.566-.58-1.566-1.74,0-1.271.815-1.584,2.424-1.584,2.746,0,2.81.892,2.96,2.231h3.175c-.064-2.855-1.48-5.041-6.007-5.041-4.763,0-5.772,2.409-5.772,4.707,0,2.922,1.652,3.859,3.519,4.372l3.733,1.048c1.352.379,1.781.915,1.781,1.9,0,1.629-1.18,1.874-2.79,1.874-3.046,0-3.281-.892-3.411-2.566h-3.175" transform="translate(-874.882 -44.629)"/><path class="c" d="M1127.185,71.188h3.175V58.005h4.612V55.2H1122.55v2.81h4.635V71.188" transform="translate(-947.135 -46.56)"/><path class="c" d="M463.563,202.793v15.993h7.426c4.274,0,5.44-1.985,5.44-4.617,0-1.673-.475-3.189-2.375-3.948.669-.29,1.77-.8,1.77-3.279,0-3.033-1.662-4.149-4.706-4.149Zm6.174,2.744c2.7,0,3,.312,3,1.65,0,1.651-.475,1.9-2.4,1.9h-3.583v-3.547Zm.518,6.29c2.331,0,2.936.246,2.936,2.164,0,1.829-.648,2.052-3.562,2.052h-2.871v-4.216h3.5" transform="translate(-391.026 -171.116)"/><path class="c" d="M560.622,231.941c.151-1,.454-1.361,1.943-1.361,1.4,0,1.943.312,1.943,1.405v.713l-3.756.6a3.586,3.586,0,0,0-3.3,3.859c0,2.008.972,3.257,3.692,3.257a4.627,4.627,0,0,0,3.5-1.182v.892h2.872v-8.609c0-2.566-1.662-3.435-4.814-3.435-3.066,0-4.749.825-4.9,3.859Zm3.886,3.7c0,1.45-.453,2.476-2.288,2.476-1.339,0-1.77-.491-1.77-1.383,0-1.249.82-1.495,1.964-1.673l2.094-.357v.937" transform="translate(-470.255 -192.457)"/><path class="c" d="M646.353,240.127h3v-7.182c0-3.569-.756-4.863-3.67-4.863a4,4,0,0,0-3.8,1.807v-1.517h-2.85v11.755h3V234.55c0-2.766.238-3.926,2.375-3.926,1.921,0,1.943.937,1.943,2.744v6.758" transform="translate(-539.104 -192.457)"/><path class="c" d="M723.8,218.786h3v-3.725l1.3-1.383,2.763,5.108h3.475l-4.123-7.293,3.972-4.461h-3.691l-3.691,4.35v-8.588h-3v15.993" transform="translate(-610.637 -171.116)"/></g></svg>