<svg xmlns="http://www.w3.org/2000/svg" width="202.063" height="39.609" viewBox="0 0 202.063 39.609"><defs><style>.a{fill:#a20e37;}.a,.c,.d{fill-rule:evenodd;}.b,.d{fill:#fff;}.c{fill:#fbbc09;}</style></defs><g transform="translate(-520.756 -88.937)"><path class="a" d="M520.756,88.937H722.819v39.609H520.756Z" transform="translate(0 0)"/><path class="b" d="M598.6,115.155h.92l-.183,1h-.919Z" transform="translate(9.346 3.155)"/><path class="b" d="M600.119,115.155h.92l-.182,1h-.92Z" transform="translate(9.528 3.155)"/><path class="b" d="M601.636,115.155h.919l-.182,1h-.92l.183-1Z" transform="translate(9.711 3.155)"/><path class="b" d="M604.436,116.568c-.139.011-.314.017-.527.017a.84.84,0,0,1-.626-.176.7.7,0,0,1-.083-.6l.409-2.218h-.444l.128-.686h.445l.178-.98h.857l-.179.98h.517l-.129.686h-.517l-.378,2.054a.162.162,0,0,0,.045.167.389.389,0,0,0,.23.05l.206-.013-.132.723Z" transform="translate(9.917 2.766)"/><path class="b" d="M604.789,116.573l.907-4.92h.856l-.321,1.744.083-.094a1.258,1.258,0,0,1,.986-.468.869.869,0,0,1,.762.333,1.183,1.183,0,0,1,.125.921l-.458,2.483h-.854l.415-2.249a.778.778,0,0,0-.036-.515.389.389,0,0,0-.368-.168.763.763,0,0,0-.556.223,1.11,1.11,0,0,0-.3.619l-.384,2.091h-.856Z" transform="translate(10.112 2.734)"/><path class="b" d="M609.462,116.543a1.33,1.33,0,0,1-.975-.335,1.314,1.314,0,0,1-.339-.97c0-.09.008-.185.018-.287s.024-.206.042-.311a2.65,2.65,0,0,1,.669-1.42,1.655,1.655,0,0,1,1.228-.511,1.207,1.207,0,0,1,.926.335,1.392,1.392,0,0,1,.314.985c0,.1-.007.221-.018.343s-.032.251-.059.382l-.022.116h-2.224l0,.048a1.441,1.441,0,0,0-.013.19.734.734,0,0,0,.151.5.577.577,0,0,0,.451.165.766.766,0,0,0,.4-.1.6.6,0,0,0,.255-.276h.865a1.912,1.912,0,0,1-.677.843,1.694,1.694,0,0,1-.986.311m1.028-2.3h0l0-.127a.691.691,0,0,0-.133-.468.5.5,0,0,0-.4-.153.686.686,0,0,0-.569.3,1.56,1.56,0,0,0-.224.45h1.326Z" transform="translate(10.517 2.861)"/><path class="b" d="M612.672,116.446l.671-3.641h.832l-.1.522.119-.151a1.256,1.256,0,0,1,.983-.468.865.865,0,0,1,.762.333,1.177,1.177,0,0,1,.125.921l-.458,2.483h-.854l.415-2.249a.769.769,0,0,0-.036-.515.39.39,0,0,0-.368-.168.765.765,0,0,0-.556.223,1.118,1.118,0,0,0-.3.619l-.382,2.091h-.856Z" transform="translate(11.061 2.861)"/><path class="b" d="M616.8,116.543a.889.889,0,0,1-.627-.211.771.771,0,0,1-.228-.591,1.266,1.266,0,0,1,.008-.137c0-.052.013-.1.021-.151a1.387,1.387,0,0,1,.4-.762,1.37,1.37,0,0,1,.776-.378l.721-.115a.719.719,0,0,0,.19-.057.371.371,0,0,0,.174-.144.407.407,0,0,0,.057-.223.27.27,0,0,0-.081-.2.61.61,0,0,0-.4-.1.567.567,0,0,0-.375.13.823.823,0,0,0-.241.382h-.809a1.53,1.53,0,0,1,.549-.951,1.784,1.784,0,0,1,1.112-.324,1.274,1.274,0,0,1,.912.273.717.717,0,0,1,.206.543,1.246,1.246,0,0,1-.024.251l-.368,1.984a1.277,1.277,0,0,0-.026.37.23.23,0,0,0,.1.179v0l-.024.129H617.9a1.863,1.863,0,0,1,.006-.424,1.511,1.511,0,0,1-1.106.525m1.255-1.421.08-.443a.92.92,0,0,1-.269.115l-.344.076a1.269,1.269,0,0,0-.489.195.547.547,0,0,0-.189.342h0c0,.021-.007.045-.01.066s0,.043,0,.064a.314.314,0,0,0,.088.238.343.343,0,0,0,.246.083.926.926,0,0,0,.718-.361.623.623,0,0,0,.1-.167.933.933,0,0,0,.069-.207" transform="translate(11.455 2.861)"/><path class="b" d="M619.032,116.446l.671-3.641h.833l-.1.515.13-.174a1.132,1.132,0,0,1,.895-.438.778.778,0,0,1,.686.3.681.681,0,0,1,.122.293l.118-.155a1.07,1.07,0,0,1,.863-.438.861.861,0,0,1,.755.331.928.928,0,0,1,.158.569,1.679,1.679,0,0,1-.032.346l-.461,2.493h-.856l.43-2.36a.617.617,0,0,0-.027-.431.332.332,0,0,0-.311-.141.636.636,0,0,0-.475.185,1.029,1.029,0,0,0-.251.552l-.4,2.2h-.857l.43-2.332a.671.671,0,0,0-.031-.452.345.345,0,0,0-.324-.148.611.611,0,0,0-.464.185,1.058,1.058,0,0,0-.247.552l-.4,2.2h-.857Z" transform="translate(11.826 2.861)"/><path class="b" d="M625.227,116.543a1.329,1.329,0,0,1-.973-.335,1.314,1.314,0,0,1-.339-.97c0-.09.008-.185.018-.287s.024-.206.042-.311a2.64,2.64,0,0,1,.669-1.42,1.653,1.653,0,0,1,1.228-.511,1.2,1.2,0,0,1,.924.335,1.392,1.392,0,0,1,.314.985,3.355,3.355,0,0,1-.018.343c-.013.123-.031.251-.057.382l-.022.116h-2.224l-.006.048a1.441,1.441,0,0,0-.013.19.735.735,0,0,0,.153.5.574.574,0,0,0,.45.165.771.771,0,0,0,.4-.1.6.6,0,0,0,.253-.276h.865a1.9,1.9,0,0,1-.676.843,1.691,1.691,0,0,1-.986.311m1.028-2.3h0l0-.127a.7.7,0,0,0-.132-.468.507.507,0,0,0-.4-.153.688.688,0,0,0-.568.3,1.64,1.64,0,0,0-.224.45h1.326Z" transform="translate(12.414 2.861)"/><path class="b" d="M632.038,112.795l-1.769,3.614a5.376,5.376,0,0,1-.765,1.279,1.087,1.087,0,0,1-.8.272,2.75,2.75,0,0,1-.4-.024l.14-.763a.521.521,0,0,0,.168.014.606.606,0,0,0,.476-.151,1.678,1.678,0,0,0,.218-.436l-.514-3.8h.955l.2,2.717,1.183-2.717h.9Z" transform="translate(12.943 2.871)"/><path class="b" d="M632.927,116.543a1.332,1.332,0,0,1-.994-.373,1.4,1.4,0,0,1-.368-1.015,2.2,2.2,0,0,1,.013-.249c.01-.092.021-.182.038-.266a2.529,2.529,0,0,1,.709-1.41,1.827,1.827,0,0,1,1.311-.521,1.319,1.319,0,0,1,1,.377,1.421,1.421,0,0,1,.365,1.029,2.471,2.471,0,0,1-.015.253c-.01.092-.022.185-.039.272a2.443,2.443,0,0,1-.706,1.389,1.834,1.834,0,0,1-1.308.514m.15-.805a.8.8,0,0,0,.636-.288,1.827,1.827,0,0,0,.354-.867c.011-.063.021-.126.026-.188a1.614,1.614,0,0,0,.01-.171.778.778,0,0,0-.161-.524.571.571,0,0,0-.456-.186.8.8,0,0,0-.636.293,1.9,1.9,0,0,0-.357.884c-.01.059-.018.119-.025.179a.98.98,0,0,0-.007.168.753.753,0,0,0,.16.517.573.573,0,0,0,.456.183" transform="translate(13.334 2.861)"/><path class="b" d="M636.32,112.8l-.416,2.249a.773.773,0,0,0,.032.515.391.391,0,0,0,.368.168.754.754,0,0,0,.553-.224,1.1,1.1,0,0,0,.3-.618l.385-2.091h.86l-.671,3.641H636.9L637,115.9a1.213,1.213,0,0,1-.122.161,1.249,1.249,0,0,1-.982.468.831.831,0,0,1-.759-.367,1.121,1.121,0,0,1-.148-.6,2.259,2.259,0,0,1,.042-.412l.436-2.356h.857Z" transform="translate(13.746 2.871)"/><path class="b" d="M642.7,115.118h0a2.11,2.11,0,0,1-.679,1.041,1.653,1.653,0,0,1-1.078.385,1.184,1.184,0,0,1-.9-.328,1.318,1.318,0,0,1-.314-.947,2.994,2.994,0,0,1,.017-.3c.011-.108.027-.217.046-.325a2.633,2.633,0,0,1,.672-1.42,1.67,1.67,0,0,1,1.237-.511,1.162,1.162,0,0,1,.937.367,1.179,1.179,0,0,1,.258.8l-.013.224h-.865a.768.768,0,0,0-.123-.45.41.41,0,0,0-.342-.14.666.666,0,0,0-.553.293,2.145,2.145,0,0,0-.331.879c-.011.073-.021.147-.029.223a1.974,1.974,0,0,0-.013.206.8.8,0,0,0,.12.472.387.387,0,0,0,.336.168.682.682,0,0,0,.454-.176.978.978,0,0,0,.3-.461h.865Z" transform="translate(14.316 2.861)"/><path class="b" d="M643.486,116.543a.886.886,0,0,1-.628-.211.771.771,0,0,1-.228-.591c0-.041,0-.085.007-.137s.014-.1.022-.151a1.384,1.384,0,0,1,1.176-1.14l.723-.115a.72.72,0,0,0,.19-.057.378.378,0,0,0,.174-.144.406.406,0,0,0,.057-.223.27.27,0,0,0-.081-.2.612.612,0,0,0-.4-.1.567.567,0,0,0-.375.13.835.835,0,0,0-.242.382h-.808a1.529,1.529,0,0,1,.549-.951,1.78,1.78,0,0,1,1.112-.324,1.268,1.268,0,0,1,.91.273.706.706,0,0,1,.206.543,1.1,1.1,0,0,1-.022.251l-.368,1.984a1.274,1.274,0,0,0-.027.37.231.231,0,0,0,.1.179v0l-.024.129h-.927a1.86,1.86,0,0,1,.006-.424,1.512,1.512,0,0,1-1.106.525m1.255-1.421.08-.443a.921.921,0,0,1-.269.115l-.346.076a1.271,1.271,0,0,0-.487.195.54.54,0,0,0-.189.342h0c0,.021-.007.045-.01.066s0,.043,0,.064a.314.314,0,0,0,.088.238.343.343,0,0,0,.246.083.926.926,0,0,0,.718-.361.615.615,0,0,0,.1-.167.94.94,0,0,0,.069-.207" transform="translate(14.666 2.861)"/><path class="b" d="M645.718,116.446l.672-3.641h.832l-.1.522.12-.151a1.254,1.254,0,0,1,.983-.468.863.863,0,0,1,.76.333,1.183,1.183,0,0,1,.126.921l-.458,2.483H647.8l.415-2.249a.78.78,0,0,0-.035-.515.391.391,0,0,0-.368-.168.762.762,0,0,0-.556.223,1.11,1.11,0,0,0-.3.619l-.384,2.091h-.856Z" transform="translate(15.037 2.861)"/><path class="b" d="M650.627,116.573l.907-4.92h2.158a1.229,1.229,0,0,1,.835.255.932.932,0,0,1,.293.732c0,.059-.005.12-.013.186a1.966,1.966,0,0,1-.027.2,1.2,1.2,0,0,1-.549.8,1.039,1.039,0,0,1-.151.091.729.729,0,0,1,.167.1.887.887,0,0,1,.331.744c0,.052,0,.1-.009.162a1.677,1.677,0,0,1-.024.169,1.708,1.708,0,0,1-.634,1.087,2.017,2.017,0,0,1-1.276.392h-2.008Zm1.662-4.06-.2,1.062h1.077a.839.839,0,0,0,.5-.129.605.605,0,0,0,.227-.4c0-.029.007-.056.011-.083s0-.052,0-.081a.318.318,0,0,0-.127-.283.743.743,0,0,0-.41-.09H652.29Zm-.354,1.9-.237,1.3h1.053a.978.978,0,0,0,.594-.158.737.737,0,0,0,.273-.485c.007-.038.013-.073.017-.1a.385.385,0,0,0,0-.087.425.425,0,0,0-.143-.35.682.682,0,0,0-.434-.115h-1.126Z" transform="translate(15.628 2.734)"/><path class="b" d="M654.261,116.573l2.51-4.92h1.056l.615,4.92h-1l-.1-1.031h-1.626l-.487,1.031h-.969Zm2.812-3.836-.958,1.993h1.153l-.2-1.993h0Z" transform="translate(16.065 2.734)"/><path class="b" d="M659.32,116.573h-.854l.907-4.92h.962l1.133,3.484.644-3.484h.853l-.908,4.92h-.91l-1.179-3.537Z" transform="translate(16.571 2.734)"/><path class="b" d="M662.5,116.573l.907-4.92h.914l-.373,2.025,2.084-2.025h1.176L665.05,113.7l1.333,2.876H665.2l-.927-2.145-.556.528-.3,1.617H662.5Z" transform="translate(17.057 2.734)"/><path class="b" d="M669.355,112.8l-.416,2.249a.764.764,0,0,0,.032.515.391.391,0,0,0,.368.168.754.754,0,0,0,.553-.224,1.1,1.1,0,0,0,.3-.618l.385-2.091h.86l-.671,3.641h-.828l.094-.532a1.224,1.224,0,0,1-.122.161,1.249,1.249,0,0,1-.982.468.831.831,0,0,1-.759-.367,1.121,1.121,0,0,1-.148-.6,2.381,2.381,0,0,1,.041-.412l.437-2.356h.857Z" transform="translate(17.721 2.871)"/><path class="b" d="M671.85,112.805h.8l-.092.522.064-.077a1.407,1.407,0,0,1,1.062-.542.947.947,0,0,1,.774.337,1.43,1.43,0,0,1,.279.937c0,.091-.009.193-.018.308s-.027.225-.046.335a2.772,2.772,0,0,1-.643,1.371,1.437,1.437,0,0,1-1.078.546.851.851,0,0,1-.835-.515l-.006-.013-.343,1.857h-.856Zm1.011,2.949a.751.751,0,0,0,.58-.3,1.663,1.663,0,0,0,.343-.786c.013-.073.024-.144.032-.216a1.3,1.3,0,0,0,.009-.2.831.831,0,0,0-.144-.522.489.489,0,0,0-.41-.186.746.746,0,0,0-.573.3,1.573,1.573,0,0,0-.342.763h0a1.493,1.493,0,0,0,.028.851.474.474,0,0,0,.475.3" transform="translate(18.07 2.861)"/><path class="b" d="M675.96,116.543a1.332,1.332,0,0,1-.994-.373,1.4,1.4,0,0,1-.368-1.015,2.208,2.208,0,0,1,.013-.249,2.647,2.647,0,0,1,.038-.266,2.529,2.529,0,0,1,.709-1.41,1.827,1.827,0,0,1,1.311-.521,1.319,1.319,0,0,1,1,.377,1.421,1.421,0,0,1,.365,1.029,2.472,2.472,0,0,1-.016.253c-.01.092-.022.185-.039.272a2.442,2.442,0,0,1-.706,1.389,1.834,1.834,0,0,1-1.308.514m.15-.805a.8.8,0,0,0,.636-.288,1.828,1.828,0,0,0,.354-.867c.011-.063.021-.126.026-.188a1.614,1.614,0,0,0,.01-.171.778.778,0,0,0-.161-.524.571.571,0,0,0-.456-.186.8.8,0,0,0-.636.293,1.9,1.9,0,0,0-.357.884c-.011.059-.018.119-.025.179a.974.974,0,0,0-.007.168.753.753,0,0,0,.16.517.573.573,0,0,0,.456.183" transform="translate(18.512 2.861)"/><path class="b" d="M677.836,116.446l.671-3.641h.833l-.1.522.119-.151a1.259,1.259,0,0,1,.984-.468.864.864,0,0,1,.76.333,1.182,1.182,0,0,1,.126.921l-.459,2.483h-.854l.415-2.249a.781.781,0,0,0-.035-.515.394.394,0,0,0-.37-.168.767.767,0,0,0-.556.223,1.128,1.128,0,0,0-.3.619l-.382,2.091h-.856Z" transform="translate(18.902 2.861)"/><path class="b" d="M681.8,115.222l.192-2.358.22-1.189h.94l-.221,1.189-.681,2.358H681.8Zm-.3.381h.9l-.175.968h-.9Z" transform="translate(19.322 2.736)"/><path class="c" d="M556.458,95.873h5.662v22.01h-5.662v-5.415c-4.958,1.849-9.6,2.018-13.887-2.224-1.777-1.87-2.759-4.406-2.337-8.851a14.716,14.716,0,0,0-1.057-5.166h5.029c2.339,3.778-.728,8.2,2.878,11.278,4.9,3.218,9.176-.615,9.374-4.1V95.873Zm-5.624,2.371a4.845,4.845,0,1,1-4.854,4.845,4.858,4.858,0,0,1,4.854-4.845" transform="translate(2.217 0.835)"/><path class="d" d="M567.427,102.138a3.994,3.994,0,0,1,3.953,4.021,3.879,3.879,0,0,1-5.156,3.654v-1.829a2.042,2.042,0,0,0,3.166-1.678,2.109,2.109,0,1,0-4.217,0c0,2.468-.055,4.938-.055,7.408h-1.646v-7.555l.017-.375a3.888,3.888,0,0,1,3.937-3.645" transform="translate(5.14 1.589)"/><path class="d" d="M571.054,102.441h1.739v3.949a1.7,1.7,0,1,0,3.4,0v-3.949h1.742v4.053c.172,5.032-7.138,4.687-6.88,0Z" transform="translate(6.052 1.625)"/><path class="d" d="M578.017,109.942h1.739v-3.951a1.7,1.7,0,1,1,3.4,0v3.951H584.9v-4.054c.171-5.032-7.139-4.687-6.882,0Z" transform="translate(6.89 1.601)"/><path class="d" d="M599.81,110.613a3.994,3.994,0,0,0,3.953-4.021,3.88,3.88,0,0,0-5.156-3.655v1.829a2.043,2.043,0,0,1,3.166,1.679,2.109,2.109,0,1,1-4.217,0c0-2.468-.053-4.939-.053-7.41h-1.647v7.557l.018.374a3.887,3.887,0,0,0,3.935,3.647" transform="translate(9.037 1.215)"/><path class="d" d="M584.622,104.254v-1.8h3.449v7.277a4.047,4.047,0,0,1-3.78,4.2V112.3a2.671,2.671,0,0,0,1.986-2.6v-5.449h-1.655Z" transform="translate(7.645 1.627)"/><path class="d" d="M588.234,106.673a4.012,4.012,0,0,1,2.876-4.095,3.65,3.65,0,0,1,4.851,3.47v3.777h-1.609l.013-3.833a2.125,2.125,0,0,0-3.854-.825,2.09,2.09,0,0,0,.682,2.923,4.023,4.023,0,0,0,2.1.179V109.9a3.762,3.762,0,0,1-3.945-.9,4.152,4.152,0,0,1-1.112-2.332" transform="translate(8.118 1.621)"/><path class="d" d="M605.3,109.942h1.739v-3.951a1.7,1.7,0,1,1,3.4,0v3.951h1.742v-4.054c.172-5.032-7.139-4.687-6.88,0Z" transform="translate(10.173 1.601)"/><path class="d" d="M612.135,106.673a4.012,4.012,0,0,1,2.877-4.095,3.65,3.65,0,0,1,4.851,3.47v3.777h-1.609l.013-3.833a2.125,2.125,0,0,0-3.854-.825,2.09,2.09,0,0,0,.682,2.923,4.022,4.022,0,0,0,2.1.179V109.9a3.762,3.762,0,0,1-3.945-.9,4.152,4.152,0,0,1-1.112-2.332" transform="translate(10.994 1.621)"/><path class="d" d="M634.069,109.942h1.739v-3.951a1.7,1.7,0,1,1,3.4,0v3.951h1.742v-4.054c.172-5.032-7.139-4.687-6.88,0Z" transform="translate(13.635 1.601)"/><path class="d" d="M640.9,106.673a4.014,4.014,0,0,1,2.876-4.095,3.65,3.65,0,0,1,4.851,3.47v3.777h-1.608l.011-3.833a2.125,2.125,0,0,0-3.854-.825,2.09,2.09,0,0,0,.682,2.923,4.022,4.022,0,0,0,2.1.179V109.9a3.763,3.763,0,0,1-3.945-.9,4.152,4.152,0,0,1-1.112-2.332" transform="translate(14.456 1.621)"/><path class="d" d="M625.191,99.216a1.379,1.379,0,1,1-1.379,1.378,1.379,1.379,0,0,1,1.379-1.378" transform="translate(12.401 1.237)"/><path class="d" d="M624.246,102.508h1.947v7.4h-1.947Z" transform="translate(12.454 1.633)"/><path class="d" d="M619.878,100.209h1.865v2.6h2.271v1.79h-2.271v1.221c-.067,2.175.612,2.648,2.162,3.036l-.006,1.463c-2.991.258-4.05-1.543-4.022-4.5v-5.613Z" transform="translate(11.928 1.357)"/><path class="d" d="M630.45,102.479a3.858,3.858,0,1,1-3.858,3.858,3.865,3.865,0,0,1,3.858-3.858m0,1.853a2.005,2.005,0,1,1-2.005,2.005,2.01,2.01,0,0,1,2.005-2.005" transform="translate(12.736 1.63)"/><path class="d" d="M662.938,106.673a4.013,4.013,0,0,1,2.877-4.095,3.651,3.651,0,0,1,4.851,3.47v3.777h-1.609l.013-3.833a2.125,2.125,0,0,0-3.854-.825,2.09,2.09,0,0,0,.681,2.923,4.025,4.025,0,0,0,2.1.179V109.9a3.761,3.761,0,0,1-3.944-.9,4.153,4.153,0,0,1-1.112-2.332" transform="translate(17.108 1.621)"/><path class="d" d="M670.733,109.942h1.739v-3.951a1.7,1.7,0,1,1,3.4,0v3.951h1.744v-4.054c.171-5.032-7.139-4.687-6.88,0Z" transform="translate(18.047 1.601)"/><path class="d" d="M659.375,110.613a4,4,0,0,0,3.953-4.021,3.881,3.881,0,0,0-5.158-3.655v1.829a2.044,2.044,0,0,1,3.168,1.679,2.109,2.109,0,1,1-4.217,0c0-2.468-.055-4.939-.055-7.41H655.42v7.557l.018.374a3.889,3.889,0,0,0,3.937,3.647" transform="translate(16.205 1.215)"/><path class="d" d="M648.628,99.159h1.7v6.264c-.1,2.512,1.005,3.144,2.8,3.389l-.006,1.633c-3.34.288-4.521-1.723-4.49-5.022Z" transform="translate(15.387 1.23)"/><path class="d" d="M677.672,99.08h1.9v5.813a3.719,3.719,0,0,1,3.4-2.587,3.131,3.131,0,0,1,.325.017v1.825a2.479,2.479,0,0,0,0,4.914v1.594c-.108.01-.216.017-.325.017a3.721,3.721,0,0,1-3.4-2.588v2.238h-1.9V99.08Z" transform="translate(18.883 1.221)"/></g></svg>