<svg xmlns="http://www.w3.org/2000/svg" xmlns:xlink="http://www.w3.org/1999/xlink" width="148" height="148" viewBox="0 0 148 148"><defs><style>.a{fill:#fff;}.b{fill:#093d78;}.c{fill:#fefefe;}.d{fill:#00efd1;}.e{filter:url(#a);}</style><filter id="a" x="0" y="0" width="148" height="148" filterUnits="userSpaceOnUse"><feOffset dy="2" input="SourceAlpha"/><feGaussianBlur stdDeviation="5" result="b"/><feFlood flood-opacity="0.122"/><feComposite operator="in" in2="b"/><feComposite in="SourceGraphic"/></filter></defs><g transform="translate(-417 -8821)"><g class="e" transform="matrix(1, 0, 0, 1, 417, 8821)"><circle class="a" cx="59" cy="59" r="59" transform="translate(15 13)"/></g><g transform="translate(4.053 8718.296)"><path class="b" d="M455.871,178.373q0-11.845-.009-23.69a1.7,1.7,0,0,1,.512-1.291q3.984-4.122,7.929-8.28a1.469,1.469,0,0,1,1.161-.5q16.974.015,33.95.008c.941,0,1.18.244,1.18,1.208q0,13.175-.014,26.351c0,.6.18.712.735.709,4.75-.021,9.5-.013,14.251-.011a3.361,3.361,0,0,1,3.653,3.669q0,13.524,0,27.048a3.32,3.32,0,0,1-3.621,3.619q-9.31,0-18.622,0a3.326,3.326,0,0,1-3.594-3.468c-.012-.35-.094-.508-.459-.461a3.684,3.684,0,0,1-.443,0H457.138c-1.119,0-1.267-.15-1.267-1.281Z" transform="translate(-0.915 -0.904)"/><path class="c" d="M457.239,177.316c0-7.312.01-14.625-.017-21.936,0-.667.2-.794.813-.784,2.135.038,4.271.016,6.408.014.82,0,1.052-.236,1.053-1.066,0-2.342.012-4.684-.01-7.025,0-.432.112-.546.545-.546q15.62.019,31.24,0c.387,0,.523.084.523.5q-.02,12.509,0,25.018c0,.423-.142.517-.526.5-.615-.027-1.232-.018-1.848,0a3.216,3.216,0,0,0-3.172,3.2c-.021,3.842-.01,7.682-.005,11.524,0,.591.3.951.757.912.531-.043.723-.39.721-.891-.005-.945.029-1.892-.013-2.834-.025-.543.107-.718.691-.714,5.709.024,11.419.014,17.128.014,1.273,0,2.547.015,3.82-.009.4-.008.566.065.565.524-.016,6.08-.008,12.16-.013,18.24a1.779,1.779,0,0,1-1.955,1.948q-9.119.006-18.238,0a1.792,1.792,0,0,1-1.983-1.984c-.006-3.164,0-6.327,0-9.489a1.348,1.348,0,0,0-.078-.666.693.693,0,0,0-.753-.415.7.7,0,0,0-.638.714c-.018.451-.008.9-.008,1.356,0,2.033-.015,4.066.011,6.1.006.465-.12.576-.578.576q-16.914-.021-33.827,0c-.551,0-.615-.189-.614-.665Q457.251,188.377,457.239,177.316Z" transform="translate(0.061 0.062)"/><path class="c" d="M502.059,179.667c-3.491,0-6.982-.009-10.472.011-.476,0-.621-.11-.614-.6.031-1.889.009-3.779.014-5.668a1.787,1.787,0,0,1,1.968-1.994q9.148-.006,18.3,0a1.736,1.736,0,0,1,1.914,1.908c.009,1.931-.015,3.861.015,5.79.008.479-.144.569-.588.566C509.082,179.66,505.57,179.667,502.059,179.667Z" transform="translate(2.792 2.12)"/><path class="c" d="M458.143,153.034l5.658-5.86c.174.036.139.155.141.246q0,2.583,0,5.166c0,.218.056.455-.311.453C461.854,153.028,460.077,153.034,458.143,153.034Z" transform="translate(0.135 0.159)"/><path class="b" d="M468.945,157.59a9.627,9.627,0,0,0-1.589,1.5c-.108.124-.21.253-.318.376a.707.707,0,0,1-1.079.159c-.413-.342-.352-.743-.031-1.134a13.364,13.364,0,0,1,8.592-4.96,13.8,13.8,0,1,1-11.538,15.471,13.192,13.192,0,0,1,.307-5.252c.129-.5.363-.838.932-.744.471.079.642.493.493,1.126a12.334,12.334,0,1,0,24.179,4.687c.063-.543-.267-.388-.509-.388-3.327-.007-6.653.017-9.979-.011-2.6-.023-1.831.42-3.321-1.756-1.924-2.811-3.813-5.646-5.719-8.47C469.231,158,469.09,157.8,468.945,157.59Z" transform="translate(0.516 0.661)"/><path class="b" d="M480.131,184.633h-7.39a3.354,3.354,0,0,1-.552-.016.732.732,0,0,1-.01-1.446,2.643,2.643,0,0,1,.491-.016h14.9c.123,0,.248-.008.37,0a.734.734,0,0,1,.01,1.468c-.163.015-.329.006-.493.006Z" transform="translate(1.221 3.07)"/><path class="b" d="M480.137,190.334h-7.389a3.5,3.5,0,0,1-.553-.015.732.732,0,0,1-.022-1.446,2.473,2.473,0,0,1,.491-.017h14.9a2.849,2.849,0,0,1,.43.01.694.694,0,0,1,.662.749.687.687,0,0,1-.64.707,3.1,3.1,0,0,1-.492.013Z" transform="translate(1.221 3.531)"/><path class="b" d="M495.723,187.066c-.615,0-1.231,0-1.846,0a.753.753,0,0,1-.838-.841c0-1.128-.007-2.257,0-3.385a.751.751,0,0,1,.855-.823c1.231,0,2.462-.01,3.693,0,.6.006.86.269.867.869q.018,1.664,0,3.325c-.008.591-.276.841-.884.853S496.339,187.066,495.723,187.066Z" transform="translate(2.959 2.978)"/><path class="b" d="M507.244,187.066c-.615,0-1.231,0-1.846,0a.754.754,0,0,1-.843-.837q-.008-1.693,0-3.385a.751.751,0,0,1,.85-.828c1.231,0,2.462-.009,3.694,0,.6.005.865.266.872.864q.018,1.664,0,3.325c-.007.593-.275.845-.879.858S507.86,187.066,507.244,187.066Z" transform="translate(3.89 2.978)"/><path class="b" d="M495.742,198.81c-.6,0-1.19.008-1.786,0-.644-.01-.909-.258-.916-.884-.011-1.108-.005-2.216,0-3.324a.751.751,0,0,1,.838-.84q1.877-.008,3.755,0a.751.751,0,0,1,.826.852c0,1.108.01,2.216,0,3.324-.006.6-.269.857-.868.87C496.973,198.821,496.357,198.81,495.742,198.81Z" transform="translate(2.959 3.928)"/><path class="b" d="M507.286,193.758c.616,0,1.231,0,1.847,0a.753.753,0,0,1,.839.839q.008,1.694,0,3.387a.752.752,0,0,1-.853.825c-1.231,0-2.462.01-3.693,0-.6-.006-.861-.269-.868-.868q-.019-1.664,0-3.325c.008-.591.276-.842.883-.854S506.671,193.758,507.286,193.758Z" transform="translate(3.89 3.928)"/><path class="b" d="M501.469,182.014c.616,0,1.232,0,1.847,0a.752.752,0,0,1,.841.837q.01,1.693,0,3.387a.753.753,0,0,1-.852.827c-1.231,0-2.462.01-3.694,0-.6-.006-.864-.268-.87-.866q-.018-1.664,0-3.325c.008-.592.275-.844.881-.856S500.854,182.014,501.469,182.014Z" transform="translate(3.42 2.978)"/><path class="b" d="M501.423,193.758c.6,0,1.19-.006,1.786,0,.683.009.943.251.948.914.01,1.087.012,2.175,0,3.262-.007.6-.268.865-.866.871-1.231.012-2.462.005-3.693,0a.752.752,0,0,1-.855-.823c-.009-1.128-.007-2.257,0-3.385a.753.753,0,0,1,.838-.841C500.192,193.754,500.808,193.758,501.423,193.758Z" transform="translate(3.42 3.928)"/><path class="b" d="M495.758,192.882c-.616,0-1.232.01-1.847,0-.6-.013-.863-.269-.869-.867q-.019-1.662,0-3.325c.008-.591.275-.849.881-.854q1.816-.016,3.632,0c.637.005.9.264.9.9q.016,1.631,0,3.263c-.006.628-.269.876-.913.886C496.948,192.889,496.353,192.882,495.758,192.882Z" transform="translate(2.958 3.448)"/><path class="b" d="M507.273,192.882c-.616,0-1.232.01-1.847,0-.6-.013-.863-.269-.869-.867q-.019-1.662,0-3.325c.007-.591.275-.849.881-.854q1.816-.016,3.632,0c.637.005.9.264.9.9q.016,1.631,0,3.263c-.006.628-.269.876-.913.886C508.463,192.889,507.868,192.882,507.273,192.882Z" transform="translate(3.89 3.448)"/><path class="b" d="M501.424,192.881c-.616,0-1.231,0-1.847,0a.753.753,0,0,1-.838-.841c0-1.128-.007-2.257,0-3.385a.75.75,0,0,1,.854-.823c1.231,0,2.462-.01,3.693,0,.6.006.86.269.867.87q.019,1.662,0,3.324c-.008.591-.277.841-.885.853S502.039,192.881,501.424,192.881Z" transform="translate(3.42 3.448)"/><path class="b" d="M460.427,166.384c0,1.968,0,3.937,0,5.905a.806.806,0,0,1-.57.9c-.492.143-.9-.239-.909-.859-.01-1.312,0-2.624,0-3.937q0-3.875,0-7.749a.945.945,0,0,1,.317-.882.709.709,0,0,1,.759-.055.776.776,0,0,1,.408.769c-.007,1.148,0,2.3,0,3.444Z" transform="translate(0.2 1.167)"/><path class="b" d="M468.649,183.156c.348,0,.7-.009,1.044,0a.7.7,0,0,1,.763.716.683.683,0,0,1-.722.75c-.737.023-1.475.024-2.212,0a.671.671,0,0,1-.7-.708.688.688,0,0,1,.72-.75C467.91,183.138,468.28,183.158,468.649,183.156Z" transform="translate(0.838 3.07)"/><path class="b" d="M468.7,188.859c.348,0,.7-.017,1.044,0a.731.731,0,0,1-.005,1.461q-1.1.036-2.212,0a.675.675,0,0,1-.707-.7.687.687,0,0,1,.712-.758C467.922,188.838,468.314,188.859,468.7,188.859Z" transform="translate(0.838 3.531)"/><path class="b" d="M460.412,157.343a2.477,2.477,0,0,1-.005.491.708.708,0,0,1-.686.6.687.687,0,0,1-.663-.369,2.532,2.532,0,0,1,.044-1.669.7.7,0,0,1,.707-.277C460.28,156.189,460.432,156.491,460.412,157.343Z" transform="translate(0.2 0.882)"/><path class="b" d="M464.713,188.852c.523,0,.865.19.906.719.035.449-.31.751-.828.763-.55.013-.947-.292-.913-.746A.741.741,0,0,1,464.713,188.852Z" transform="translate(0.599 3.531)"/><path class="b" d="M464.673,184.633a.765.765,0,0,1-.8-.8c.043-.451.43-.714.987-.676a.715.715,0,0,1,.758.772C465.619,184.39,465.234,184.663,464.673,184.633Z" transform="translate(0.599 3.07)"/><path class="b" d="M502.038,172.892q4.034,0,8.069,0c.838,0,1.06.222,1.064,1.05q0,1.785,0,3.572c0,.824-.227,1.045-1.067,1.045q-8.131,0-16.261,0c-.8,0-1.028-.232-1.031-1.019q-.007-1.818,0-3.634c0-.786.235-1.013,1.037-1.014Q497.942,172.888,502.038,172.892Z" transform="translate(2.94 2.24)"/><path class="d" d="M476.164,154.731a12.269,12.269,0,0,1,7.635,2.683c.383.3.485.47.088.878q-3.726,3.809-7.392,7.677c-.337.355-.46.263-.691-.082q-2.957-4.43-5.949-8.834c-.259-.382-.181-.523.186-.732A12.319,12.319,0,0,1,476.164,154.731Z" transform="translate(1.071 0.771)"/><path class="d" d="M477.1,166.523c.387-.41.663-.707.944-1q3.16-3.283,6.322-6.565c.2-.2.339-.463.651-.075a12.264,12.264,0,0,1,2.8,7.215c.013.25.007.43-.335.429C484.08,166.52,480.677,166.523,477.1,166.523Z" transform="translate(1.67 1.09)"/><path class="c" d="M495.553,185.477c-1.148,0-1.148,0-1.148-1.086,0-1.009,0-1.009,1.1-1.009,1.24,0,1.24,0,1.24,1.178,0,.917,0,.917-.886.917Z" transform="translate(3.07 3.089)"/><path class="c" d="M507.094,185.479c-1.172,0-1.172,0-1.172-1.185a1.437,1.437,0,0,0,0-.245c-.089-.522.086-.746.652-.676a7.013,7.013,0,0,0,1.287,0c.333-.019.441.11.408.424a4.632,4.632,0,0,0,0,.491C508.263,185.479,508.263,185.479,507.094,185.479Z" transform="translate(3.999 3.087)"/><path class="c" d="M495.574,197.222c-1.167,0-1.167,0-1.167-1.189a1.93,1.93,0,0,0,0-.306c-.076-.475.1-.66.593-.61a7.028,7.028,0,0,0,1.288,0c.4-.034.511.129.465.491a3.335,3.335,0,0,0,0,.429C496.748,197.222,496.748,197.222,495.574,197.222Z" transform="translate(3.068 4.038)"/><path class="c" d="M507.139,195.126c1.122,0,1.122,0,1.122,1.05s0,1.045-1.126,1.045c-1.215,0-1.215,0-1.215-1.141C505.92,195.126,505.92,195.126,507.139,195.126Z" transform="translate(4.001 4.039)"/><path class="c" d="M501.357,185.477c-1.252,0-1.252,0-1.251-1.228,0-.867,0-.867.936-.867,1.532,0,1.5,0,1.543,1.442.015.552-.143.743-.677.657A3.618,3.618,0,0,0,501.357,185.477Z" transform="translate(3.531 3.089)"/><path class="c" d="M501.378,195.128c1.193,0,1.193,0,1.193,1.1,0,.992,0,.992-1,.992-1.472,0-1.444,0-1.484-1.44-.015-.546.133-.747.673-.66A3.866,3.866,0,0,0,501.378,195.128Z" transform="translate(3.53 4.037)"/><path class="c" d="M495.552,191.415c-1.147,0-1.147,0-1.147-1.149,0-1.069,0-1.069,1.042-1.069,1.3,0,1.3,0,1.3,1.3C496.746,191.415,496.746,191.415,495.552,191.415Z" transform="translate(3.07 3.559)"/><path class="c" d="M507.12,191.415c-1.2,0-1.2,0-1.2-1.157,0-1.061,0-1.061,1.173-1.061s1.168,0,1.168,1.126C508.261,191.415,508.261,191.415,507.12,191.415Z" transform="translate(4.001 3.559)"/><path class="c" d="M501.347,191.415c-1.241,0-1.241,0-1.241-1.054,0-1.164,0-1.164,1.254-1.164,1.211,0,1.211,0,1.211,1.146C502.57,191.415,502.57,191.415,501.347,191.415Z" transform="translate(3.531 3.559)"/><path class="d" d="M501.754,176.973c-2.339,0-4.679-.015-7.018.012-.474.005-.6-.136-.567-.586a13.306,13.306,0,0,0,0-1.661c-.021-.377.094-.494.479-.485,1.168.025,2.339.009,3.509.009,3.571,0,7.142.011,10.713-.012.5,0,.631.146.6.617a12.151,12.151,0,0,0,0,1.6c.024.4-.1.519-.51.516C506.557,176.963,504.156,176.973,501.754,176.973Z" transform="translate(3.05 2.35)"/></g></g></svg>