<svg xmlns="http://www.w3.org/2000/svg" width="71.372" height="74.735" viewBox="0 0 71.372 74.735"><defs><style>.a{fill:#fa7819;}</style></defs><g transform="translate(-388.58 -466.598)"><path class="a" d="M388.58,507.594a7.779,7.779,0,0,0,.222-1.546,20.743,20.743,0,0,1,2.831-7.786,18.682,18.682,0,0,1,3.883-4.857,24.221,24.221,0,0,1,5.261-3.235c2.981-1.435,6.085-2.587,9.1-3.932.581-.261,1.172-.5,1.751-.764.3-.136.457-.115.542.263q.7,3.115,1.454,6.221a50.469,50.469,0,0,0,8.129,18.022,15.436,15.436,0,0,0,1.982,2.384c.45.408.586.415,1.031,0a22.512,22.512,0,0,0,2.928-3.713,50,50,0,0,0,7.126-16.319c.547-2.144.995-4.311,1.472-6.468.113-.521.166-.563.671-.351,1.71.72,3.39,1.511,5.113,2.2,2.363.948,4.693,1.971,6.985,3.09a19,19,0,0,1,8.842,9.357,21.313,21.313,0,0,1,2.035,9.885,2.782,2.782,0,0,1-1.6,2.545,13.125,13.125,0,0,1-3.764,1.138c-3.323.653-6.678,1.105-10.031,1.574-2.681.376-5.372.7-8.067.946-2.388.217-4.783.371-7.183.436-.12,0-.272-.081-.367.076h-1.553a2.482,2.482,0,0,0-1.391,0h-3.438a2.713,2.713,0,0,0-1.474,0h-1.636c-.092-.157-.245-.072-.367-.078-1.32-.069-2.642-.108-3.96-.2-1.982-.134-3.964-.3-5.937-.54-2.065-.254-4.13-.5-6.193-.778-1.738-.235-3.468-.51-5.2-.775a45.8,45.8,0,0,1-6.182-1.237c-1.394-.413-2.642-1.015-3.016-2.614V510.3a5.6,5.6,0,0,0,.074-1.631c.012-.217.09-.457-.074-.66Z" transform="translate(0 24.572)"/><path class="a" d="M429.844,490.467c.263,3.4-1.269,6.15-3.244,8.72a7.507,7.507,0,0,0-1.186,2.058,15.872,15.872,0,0,1-4.873,7.206,11.043,11.043,0,0,1-7.391,2.667,11.3,11.3,0,0,1-6.966-2.732,15.241,15.241,0,0,1-4.735-6.957,7.48,7.48,0,0,0-1.278-2.252,15.918,15.918,0,0,1-3.092-6,11.912,11.912,0,0,1-.178-2.808c-.016-.625.018-1.253.044-1.881a1.485,1.485,0,0,1,.967-1.426c.316-.127.312-.4.332-.639q.069-.9.085-1.8c.037-1.991-.032-3.994.194-5.967a12.532,12.532,0,0,1,7-10.416,16.316,16.316,0,0,1,6.318-1.581,19.246,19.246,0,0,1,7.384.768A12.631,12.631,0,0,1,428,476.9a17.376,17.376,0,0,1,.369,3.694c.069,1.892.055,3.789.164,5.683.023.379.069.678.5.865a1.387,1.387,0,0,1,.808,1.322C429.855,489.131,429.844,489.8,429.844,490.467Z" transform="translate(10.872 0)"/><path class="a" d="M407.59,490.758c.759.009,1.041.208,1.234.976.293,1.17.521,2.356.833,3.521a2.1,2.1,0,0,1-.2,1.62q-1.471,2.859-3.117,5.621c-.162.272-.258.36-.459.016-1.2-2.035-2.335-4.1-3.362-6.228a.611.611,0,0,1-.053-.432c.351-1.463.7-2.926,1.036-4.393a.727.727,0,0,1,.773-.672C404.89,490.79,407.1,490.751,407.59,490.758Z" transform="translate(18.137 31.587)"/><path class="a" d="M405.759,487.675a30.578,30.578,0,0,1,3.184.078c.489.067.6.171.556.653a29.863,29.863,0,0,1-.882,4.592.415.415,0,0,1-.395.342,14.95,14.95,0,0,1-3.1.1,10.044,10.044,0,0,1-1.26-.106.474.474,0,0,1-.429-.365,33.967,33.967,0,0,1-.9-4.548c-.067-.551.058-.78.69-.757C404.067,487.7,404.914,487.675,405.759,487.675Z" transform="translate(18.225 27.547)"/></g></svg>