<svg xmlns="http://www.w3.org/2000/svg" xmlns:xlink="http://www.w3.org/1999/xlink" width="124.5" height="124.5" viewBox="0 0 124.5 124.5"><defs><style>.a{fill:#fff;}.b{fill:#093d78;}.c{filter:url(#a);}</style><filter id="a" x="0" y="0" width="124.5" height="124.5" filterUnits="userSpaceOnUse"><feOffset input="SourceAlpha"/><feGaussianBlur stdDeviation="5" result="b"/><feFlood flood-color="#093d78" flood-opacity="0.122"/><feComposite operator="in" in2="b"/><feComposite in="SourceGraphic"/></filter></defs><g transform="translate(15 15)"><g class="c" transform="matrix(1, 0, 0, 1, -15, -15)"><ellipse class="a" cx="47.25" cy="47.25" rx="47.25" ry="47.25" transform="translate(15 15)"/></g><g transform="translate(25.675 24.065)"><path class="b" d="M781.4,885.85c1.4,1.085,3,1.068,3.933-.04.854-1.018.607-2.618-.61-3.784a11.51,11.51,0,0,0-2.844-1.747,6.637,6.637,0,0,1-3.872-4.623,15.565,15.565,0,0,0,1.761,8.163A5.843,5.843,0,0,0,781.4,885.85Z" transform="translate(-777.977 -869.987)"/><path class="b" d="M803.57,893.854a2.472,2.472,0,0,0,1.482-2.979,5.8,5.8,0,0,0-1.443-2.813,8.84,8.84,0,0,1-2.479-5.9,15.856,15.856,0,0,0-1.576,6.65,6.78,6.78,0,0,0,.913,3.765A2.636,2.636,0,0,0,803.57,893.854Z" transform="translate(-773.299 -868.576)"/><path class="b" d="M798.631,904.781a2.6,2.6,0,0,0,1.25-3.23,7.322,7.322,0,0,0-1.589-2.755,7.681,7.681,0,0,1-2.165-5.754,12.656,12.656,0,0,0-1.6,5.624,7.44,7.44,0,0,0,.858,4.932A2.617,2.617,0,0,0,798.631,904.781Z" transform="translate(-774.404 -866.217)"/><path class="b" d="M787.847,898.7a4.655,4.655,0,0,0-2.526,2.488,2.211,2.211,0,0,0,.282,2.324,2.26,2.26,0,0,0,2.316.865,3.622,3.622,0,0,0,2.224-1.275c2.11-2.571,2.738-5.625,2.789-8.894C791.919,896.521,789.976,897.7,787.847,898.7Z" transform="translate(-776.429 -865.964)"/><path class="b" d="M803.652,895.777a2.525,2.525,0,0,0-1.684,3.136,2.645,2.645,0,0,0,3.068,1.61c2.624-.382,6.665-4.294,7.325-7.345-1.927,1.907-4.171,2.024-6.461,2.075A6.686,6.686,0,0,0,803.652,895.777Z" transform="translate(-772.798 -866.187)"/><path class="b" d="M785.358,903.6a2.585,2.585,0,0,0-.276-3.348,7.074,7.074,0,0,0-2.592-1.833,7.857,7.857,0,0,1-4.471-4.4,14.921,14.921,0,0,0,2.325,8.526,4.385,4.385,0,0,0,1.7,1.549A2.558,2.558,0,0,0,785.358,903.6Z" transform="translate(-777.968 -866.006)"/><path class="b" d="M800.418,901.659a2.413,2.413,0,0,0-1.1,2.516,2.27,2.27,0,0,0,1.868,1.8,4.308,4.308,0,0,0,3.558-.854,14.345,14.345,0,0,0,5.122-6.242,8.658,8.658,0,0,1-5.992,1.854A5.707,5.707,0,0,0,800.418,901.659Z" transform="translate(-773.359 -864.951)"/><path class="b" d="M782.421,892.1a2.349,2.349,0,0,0,2.9-.624,2.4,2.4,0,0,0-.074-3.1,6.827,6.827,0,0,0-2.879-2.168,8.254,8.254,0,0,1-4.358-4.2,14.7,14.7,0,0,0,2.481,8.587A3.913,3.913,0,0,0,782.421,892.1Z" transform="translate(-777.97 -868.608)"/><path class="b" d="M782.375,892.2a8.171,8.171,0,0,1-4.345-4.193,13.926,13.926,0,0,0,2.654,8.792,4.529,4.529,0,0,0,1.338,1.1,2.423,2.423,0,0,0,3.146-3.66A6.723,6.723,0,0,0,782.375,892.2Z" transform="translate(-777.966 -867.308)"/><path class="b" d="M808.31,885.28c1.456.62,2.641.017,3.335-1.833a23.956,23.956,0,0,0,1.147-8.549c-2.437,2.126-4.477,4.047-5.625,6.7C806.42,883.316,806.885,884.674,808.31,885.28Z" transform="translate(-771.724 -870.151)"/><path class="b" d="M785.8,882.454a2.415,2.415,0,0,0,3,3.742,4.284,4.284,0,0,0,1.843-1.6,14.239,14.239,0,0,0,2.274-8.34,8.012,8.012,0,0,1-4.33,4.159A7.116,7.116,0,0,0,785.8,882.454Z" transform="translate(-776.433 -869.857)"/><path class="b" d="M787.909,892.586a5.677,5.677,0,0,0-2.449,2.21,2.345,2.345,0,0,0,2.694,3.467,3.646,3.646,0,0,0,2.043-1.317c2.082-2.6,2.71-5.644,2.885-9.159C791.209,890.841,791.211,890.844,787.909,892.586Z" transform="translate(-776.431 -867.356)"/><path class="b" d="M788.686,886.158a7.292,7.292,0,0,0-2.911,2.119,2.415,2.415,0,0,0,3.058,3.7,3.8,3.8,0,0,0,1.262-.957c2.2-2.591,2.8-5.7,2.823-8.955A7.8,7.8,0,0,1,788.686,886.158Z" transform="translate(-776.432 -868.598)"/><path class="b" d="M810.14,889.748a4.149,4.149,0,0,0,1.242-.393,13.525,13.525,0,0,0,5.915-6.572c-1.973,1.535-4.225,1.719-6.536,1.756a6.136,6.136,0,0,0-1.846.358,2.642,2.642,0,0,0-2.03,3.083A2.677,2.677,0,0,0,810.14,889.748Z" transform="translate(-771.725 -868.441)"/><path class="b" d="M805.576,890.628a2.373,2.373,0,0,0,1.045,4.434,3.512,3.512,0,0,0,1.988-.29c3.041-1.393,4.86-3.934,6.326-6.814a9.15,9.15,0,0,1-6.183,1.835A5.4,5.4,0,0,0,805.576,890.628Z" transform="translate(-772.255 -867.319)"/><path class="b" d="M805.983,888.538a2.269,2.269,0,0,0,1.522-2.53,5.316,5.316,0,0,0-1.469-3.257,9.592,9.592,0,0,1-2.532-5.641,14.064,14.064,0,0,0-1.486,6.185,6.1,6.1,0,0,0,1.13,4.278A2.427,2.427,0,0,0,805.983,888.538Z" transform="translate(-772.766 -869.672)"/><path class="b" d="M785.524,882.153c1.58,0,2.411-.933,2.287-2.847A22.575,22.575,0,0,0,785.24,871a18.649,18.649,0,0,0-2.275,8.318C783.026,881.22,783.871,882.159,785.524,882.153Z" transform="translate(-776.897 -870.997)"/><path class="b" d="M801.2,899.292a2.55,2.55,0,0,0,1.24-3.2,6.559,6.559,0,0,0-1.455-2.65,10.34,10.34,0,0,1-2.137-3.76v-2.426l-.189-.016c-.1.241-.2.482-.305.723h0a13.513,13.513,0,0,0-1.18,4.618c-.167,1.876-.321,3.792.787,5.5A2.625,2.625,0,0,0,801.2,899.292Z" transform="translate(-773.839 -867.474)"/><path class="b" d="M785.206,903.389a2.092,2.092,0,0,1-1-.108c-.625-.148-.943.029-.877.716q.267,2.754.521,5.507a1.211,1.211,0,0,0,1.364,1.2c.818.007,1.062-.539,1.117-1.244.114-1.5.235-3,.377-4.819C786.894,903.776,786.823,902.888,785.206,903.389Z" transform="translate(-776.819 -864.007)"/><path class="b" d="M797.413,903.706c-.241-.145-.419.151-.5.386-.656,1.87-1.325,3.736-1.952,5.615a1.11,1.11,0,0,0,.735,1.4,1,1,0,0,0,1.449-.51c.638-1.139,1.291-2.271,1.939-3.4.359-.629.72-1.258,1.1-1.917-.05-.123-.073-.326-.153-.352A12.291,12.291,0,0,1,797.413,903.706Z" transform="translate(-774.308 -863.913)"/></g></g></svg>