<svg xmlns="http://www.w3.org/2000/svg" xmlns:xlink="http://www.w3.org/1999/xlink" width="106" height="106" viewBox="0 0 106 106"><defs><style>.a{fill:#fff;}.b,.c,.e{fill:none;}.b,.c,.d,.e{stroke:#093d78;stroke-miterlimit:10;}.b,.d,.e{stroke-width:2px;}.c{stroke-width:1.5px;}.d{fill:#00efd1;}.e{stroke-linecap:round;stroke-linejoin:round;}.f{filter:url(#a);}</style><filter id="a" x="0" y="0" width="106" height="106" filterUnits="userSpaceOnUse"><feOffset input="SourceAlpha"/><feGaussianBlur stdDeviation="3.5" result="b"/><feFlood flood-opacity="0.102"/><feComposite operator="in" in2="b"/><feComposite in="SourceGraphic"/></filter></defs><g transform="translate(-1014.5 -1440.5)"><g class="f" transform="matrix(1, 0, 0, 1, 1014.5, 1440.5)"><circle class="a" cx="42.5" cy="42.5" r="42.5" transform="translate(10.5 10.5)"/></g><g transform="translate(-579.909 1331.187)"><rect class="b" width="44.709" height="3.888" rx="0.039" transform="translate(1621.527 151.643)"/><rect class="b" width="45.946" height="4.574" rx="0.039" transform="translate(1620.909 180.881)"/><path class="b" d="M1623.557,181.687v-3.326a.032.032,0,0,1,.032-.032h40.73a.032.032,0,0,1,.032.032v3.366" transform="translate(-0.073 -1.055)"/><path class="b" d="M1623.59,183.032" transform="translate(-0.073 -1.183)"/><path class="c" d="M1632.375,152.086l11.82-8.145,11.82,8.145" transform="translate(-0.314 -0.113)"/><path class="b" d="M1626.175,151.455l17.714-11.642,17.986,11.83" transform="translate(-0.144)"/><line class="b" y2="21.745" transform="translate(1625.366 155.53)"/><line class="b" y2="21.745" transform="translate(1629.286 155.53)"/><line class="b" y2="21.745" transform="translate(1636.108 155.53)"/><line class="b" y2="21.745" transform="translate(1640.028 155.53)"/><line class="b" y2="21.745" transform="translate(1648.025 155.53)"/><line class="b" y2="21.745" transform="translate(1651.945 155.53)"/><line class="b" y2="21.745" transform="translate(1659.054 155.53)"/><line class="b" y2="21.745" transform="translate(1662.974 155.53)"/><path class="d" d="M1663.877,140.011h11.186s.261,7-.209,13.581c-.437,6.1-10.39,12.1-10.39,12.1s-9.954-6.023-10.388-12.1a113.714,113.714,0,0,1,0-13.525.062.062,0,0,1,.066-.055h10.915" transform="translate(-0.902 -0.005)"/><path class="e" d="M1659.344,151.979l3.8,3.468,6.816-6.445" transform="translate(-1.052 -0.252)"/></g></g></svg>