<svg xmlns="http://www.w3.org/2000/svg" xmlns:xlink="http://www.w3.org/1999/xlink" width="106" height="106" viewBox="0 0 106 106"><defs><style>.a{fill:#fff;}.b,.c{fill:none;}.b,.c,.d{stroke:#093d78;stroke-miterlimit:10;}.b,.d{stroke-width:2px;}.c{stroke-width:1.5px;}.d{fill:#00efd1;}.e{fill:#093d78;}.f{filter:url(#a);}</style><filter id="a" x="0" y="0" width="106" height="106" filterUnits="userSpaceOnUse"><feOffset input="SourceAlpha"/><feGaussianBlur stdDeviation="3.5" result="b"/><feFlood flood-opacity="0.102"/><feComposite operator="in" in2="b"/><feComposite in="SourceGraphic"/></filter></defs><g transform="translate(-765.5 -1971.5)"><g class="f" transform="matrix(1, 0, 0, 1, 765.5, 1971.5)"><circle class="a" cx="42.5" cy="42.5" r="42.5" transform="translate(10.5 10.5)"/></g><g transform="translate(-827.909 1862.187)"><rect class="b" width="43.111" height="3.749" rx="0.039" transform="translate(1621.505 151.22)"/><rect class="b" width="44.304" height="4.41" rx="0.039" transform="translate(1620.909 179.414)"/><path class="b" d="M1623.557,181.567V178.36a.031.031,0,0,1,.031-.031h39.275a.031.031,0,0,1,.031.031v3.246" transform="translate(-0.164 -2.393)"/><path class="b" d="M1623.59,183.032" transform="translate(-0.167 -2.686)"/><path class="c" d="M1632.375,151.795l11.4-7.854,11.4,7.854" transform="translate(-0.713 -0.256)"/><path class="b" d="M1626.175,151.039l17.081-11.226L1660.6,151.22" transform="translate(-0.327)"/><line class="b" y2="20.967" transform="translate(1625.207 154.969)"/><line class="b" y2="20.967" transform="translate(1628.987 154.969)"/><line class="b" y2="20.967" transform="translate(1635.564 154.969)"/><line class="b" y2="20.967" transform="translate(1639.345 154.969)"/><line class="b" y2="20.967" transform="translate(1647.056 154.969)"/><line class="b" y2="20.967" transform="translate(1650.836 154.969)"/><line class="b" y2="20.967" transform="translate(1657.691 154.969)"/><line class="b" y2="20.967" transform="translate(1661.471 154.969)"/><path class="d" d="M1663.519,140.011h10.786s.251,6.754-.2,13.1c-.421,5.879-10.018,11.665-10.018,11.665s-9.6-5.808-10.017-11.665a109.634,109.634,0,0,1,0-13.042.06.06,0,0,1,.064-.053h10.525" transform="translate(-2.048 -0.012)"/><g transform="translate(1657.686 144.503)"><path class="e" d="M1421.194,170.528h7.946v.017a12.3,12.3,0,0,1-.793,1.156h-2.122a2.774,2.774,0,0,1,.594,1.247h2.263c.028.006.041.017.041.033q-.76,1.141-.776,1.14h-1.47a3.36,3.36,0,0,1-.562,1.412,3.447,3.447,0,0,1-1.3,1.083,5.129,5.129,0,0,1-2.214.553v.016q0,.083,4.783,5.675h-2.107q-4.658-5.427-4.659-5.452v-1.1l.017-.041a7.078,7.078,0,0,0,.967.057q2.609,0,3.246-1.693a1.362,1.362,0,0,0,.1-.512h-4.725a.029.029,0,0,1-.033-.033q.785-1.14.8-1.14h3.75v-.016a2.2,2.2,0,0,0-1.248-1.016,3.887,3.887,0,0,0-1.189-.215h-2.1v-.041Q1421.168,170.528,1421.194,170.528Z" transform="translate(-1420.392 -170.528)"/></g></g></g></svg>