<svg xmlns="http://www.w3.org/2000/svg" width="60.448" height="68.919" viewBox="0 0 60.448 68.919"><defs><style>.a,.c{fill:#093d78;}.a{stroke:#093d78;}.b{fill:#00efd1;stroke:#00efd1;}</style></defs><g transform="translate(-186.486 -34.688)"><path class="a" d="M240.453,39.532H199.745a6.021,6.021,0,0,0-.808.056,6.054,6.054,0,0,0-1.672-2.544c-1.908-1.7-4.925-2.236-8.966-1.583a1.556,1.556,0,1,0,.494,3.072c3.031-.488,5.243-.2,6.4.833a3.693,3.693,0,0,1,1.038,3.078l-.006,49.341a6.855,6.855,0,0,0,6.8,6.9h39.917a1.556,1.556,0,1,0,0-3.113H203.022a3.74,3.74,0,0,1-3.684-3.784V85.618c.136.009.27.03.407.03h40.708a5.987,5.987,0,0,0,5.981-5.979V45.511A5.988,5.988,0,0,0,240.453,39.532Zm2.868,40.137a2.87,2.87,0,0,1-2.868,2.866H199.745a2.818,2.818,0,0,1-.407-.061l0-39.775a2.926,2.926,0,0,1,.4-.054h40.708a2.87,2.87,0,0,1,2.868,2.866Z" transform="translate(0)"/><g transform="translate(204.56 91.142)"><path class="a" d="M207.082,92.091a5.982,5.982,0,1,1,5.982-5.982A5.988,5.988,0,0,1,207.082,92.091Zm0-8.852a2.869,2.869,0,1,0,2.869,2.87A2.873,2.873,0,0,0,207.082,83.239Z" transform="translate(-201.1 -80.126)"/><circle class="b" cx="3.426" cy="3.426" r="3.426" transform="translate(2.556 2.557)"/></g><g transform="translate(228.19 91.142)"><path class="a" d="M226.06,92.091a5.982,5.982,0,1,1,5.983-5.982A5.988,5.988,0,0,1,226.06,92.091Zm0-8.852a2.869,2.869,0,1,0,2.87,2.87A2.873,2.873,0,0,0,226.06,83.239Z" transform="translate(-220.078 -80.126)"/><circle class="b" cx="3.426" cy="3.426" r="3.426" transform="translate(2.557 2.557)"/></g><path class="c" d="M219.07,209.98a1.5,1.5,0,0,0,1.5,1.5h5.861a1.882,1.882,0,0,1-.543.745,3.14,3.14,0,0,1-2.222.937h-3.095a1.523,1.523,0,0,0-1.027,2.62l7.734,7.314a1.493,1.493,0,1,0,2.054-2.168l-5.035-4.756A6.14,6.14,0,0,0,228,214.36a5.971,5.971,0,0,0,1.614-2.884h1.767a1.5,1.5,0,1,0,0-2.99h-1.77a4.135,4.135,0,0,0-.684-1.5h2.454a1.5,1.5,0,1,0,0-2.99H220.565a1.5,1.5,0,1,0,0,2.99h3.095a3.109,3.109,0,0,1,2.764,1.5h-5.859A1.5,1.5,0,0,0,219.07,209.98Z" transform="translate(-4.683 -150.612)"/></g></svg>