<svg xmlns="http://www.w3.org/2000/svg" xmlns:xlink="http://www.w3.org/1999/xlink" width="106" height="106" viewBox="0 0 106 106"><defs><style>.a{fill:#fff;}.b,.c{fill:#093d78;stroke:#093d78;stroke-miterlimit:10;stroke-width:0.5px;}.c{stroke-linecap:round;stroke-linejoin:round;}.d{fill:#00efd1;stroke:rgba(0,0,0,0);}.e{filter:url(#a);}</style><filter id="a" x="0" y="0" width="106" height="106" filterUnits="userSpaceOnUse"><feOffset input="SourceAlpha"/><feGaussianBlur stdDeviation="3.5" result="b"/><feFlood flood-opacity="0.102"/><feComposite operator="in" in2="b"/><feComposite in="SourceGraphic"/></filter></defs><g transform="translate(-1499.5 -2430.5)"><g class="e" transform="matrix(1, 0, 0, 1, 1499.5, 2430.5)"><circle class="a" cx="42.5" cy="42.5" r="42.5" transform="translate(10.5 10.5)"/></g><g transform="translate(-299.45 2103.671)"><path class="b" d="M1859.785,404.7h-17.419a10.951,10.951,0,0,1-10.912-10.9c-.231-11.005,9.673-26.706,15.475-27.06h8.911c2.449,0,5.6,2.446,8.656,6.711,4.432,6.194,8.368,18.581,6.563,23.876C1868.894,404.319,1865.894,404.7,1859.785,404.7Zm-12.8-36.763c-2.3.157-5.927,3.754-9.025,8.962-3.426,5.759-5.41,12.069-5.31,16.877a9.764,9.764,0,0,0,9.716,9.728h17.419a10.052,10.052,0,0,0,8.9-4.586,11.924,11.924,0,0,0,1.763-4.612,16.5,16.5,0,0,0-.171-4.53c-.507-4.686-3.585-11.2-6.751-15.629-2.783-3.888-5.655-6.21-7.683-6.21Z"/><path class="b" d="M1857.877,365.3h-12.472l-4.472-5.314c-.131-.189-.762-1.167-.291-1.891s1.569-.516,1.928-.446l.136.026c2.209.426,3.8.735,5.13-.027a15.674,15.674,0,0,0,1.665-1.152,5.023,5.023,0,0,1,2.054-1.157l.086-.012.086.012a5.032,5.032,0,0,1,2.054,1.156,15.777,15.777,0,0,0,1.664,1.153c1.326.762,2.922.453,5.131.027l.135-.026c.36-.07,1.456-.281,1.929.446s-.16,1.7-.291,1.891l-.034.044Zm-11.915-1.2h11.359l4.058-4.821a1.737,1.737,0,0,0,.231-.508,2.032,2.032,0,0,0-.672.049l-.136.026c-2.37.458-4.242.819-5.953-.165a16.458,16.458,0,0,1-1.793-1.237,1.558,1.558,0,0,0-2.83,0,16.554,16.554,0,0,1-1.793,1.237c-1.711.984-3.583.623-5.954.165l-.135-.026a2.034,2.034,0,0,0-.672-.049,1.747,1.747,0,0,0,.23.507Z"/><path class="c" d="M1847.778,375.387l-1.2-.012c0-.252.1-6.2,3.369-8.519l.693.976C1847.874,369.8,1847.778,375.332,1847.778,375.387Z"/><path class="c" d="M1855.538,375.387c0-.055-.1-5.589-2.865-7.555l.693-.976c3.267,2.32,3.367,8.267,3.369,8.519Z"/><g transform="translate(-20.666 -11.763)"><g transform="translate(1863.116 392.382)"><path class="d" d="M1881.089,400.174a.792.792,0,0,1-.461-.148l-8.161-5.879-8.1,5.878a.789.789,0,0,1-.927-1.278l8.559-6.213a.793.793,0,0,1,.927,0l8.623,6.214a.789.789,0,0,1-.462,1.43Z" transform="translate(-1863.116 -392.382)"/></g><g transform="translate(1874.743 392.481)"><path class="d" d="M1874.614,397.085h-1.58v-3.06h-.9v1.2h-1.58v-1.278a1.509,1.509,0,0,1,1.508-1.506h1.042a1.508,1.508,0,0,1,1.508,1.506Z" transform="translate(-1870.556 -392.445)"/></g><g transform="translate(1865.287 399.386)"><path class="d" d="M1877.324,396.9v8.4a.272.272,0,0,1-.272.272h-10.814a.194.194,0,0,1-.194-.192v-8.512l-1.539,1.1v7.407a1.735,1.735,0,0,0,1.733,1.733h10.814a1.814,1.814,0,0,0,1.811-1.813v-7.289Z" transform="translate(-1864.505 -396.864)"/></g><g transform="translate(1869.937 402.607)"><path class="d" d="M1871.007,405.535h-1.994a1.532,1.532,0,0,1-1.532-1.531v-3.547a1.532,1.532,0,0,1,1.532-1.532h1.994a1.533,1.533,0,0,1,1.533,1.532V404A1.533,1.533,0,0,1,1871.007,405.535Zm-1.994-5.426a.346.346,0,0,0-.347.347V404a.347.347,0,0,0,.347.347h1.994a.347.347,0,0,0,.347-.347v-3.547a.346.346,0,0,0-.347-.347Z" transform="translate(-1867.481 -398.925)"/></g></g></g></g></svg>