<svg xmlns="http://www.w3.org/2000/svg" xmlns:xlink="http://www.w3.org/1999/xlink" width="148" height="148" viewBox="0 0 148 148"><defs><style>.a{fill:#fff;}.b{fill:#093d78;}.c{fill:#fdfdfd;}.d{fill:#f9f9f9;}.e{fill:#00efd1;}.f{filter:url(#a);}</style><filter id="a" x="0" y="0" width="148" height="148" filterUnits="userSpaceOnUse"><feOffset dy="2" input="SourceAlpha"/><feGaussianBlur stdDeviation="5" result="b"/><feFlood flood-opacity="0.122"/><feComposite operator="in" in2="b"/><feComposite in="SourceGraphic"/></filter></defs><g transform="translate(-1047 -8049)"><g class="f" transform="matrix(1, 0, 0, 1, 1047, 8049)"><circle class="a" cx="59" cy="59" r="59" transform="translate(15 13)"/></g><g transform="translate(1255.069 7952.707)"><path class="b" d="M-165.65,178.405c0-2.378-.041-4.758.015-7.135a5.584,5.584,0,0,1,1.89-4.038c2-1.889,1.931-3.513-.144-5.2s-2.2-3.964-1.637-6.274c.534-2.171,2.393-2.468,4.27-2.293a2.049,2.049,0,0,0,2.389-1.632,22.487,22.487,0,0,1,3.545-6.149,12.521,12.521,0,0,1,10.369-5.016c6.97.051,13.947.2,20.908-.043,6.261-.22,10.538,2.549,13.518,7.777a22.42,22.42,0,0,1,1.679,3.417,2.037,2.037,0,0,0,2.384,1.645c1.878-.177,3.737.12,4.281,2.283.581,2.309.445,4.587-1.627,6.276s-2.172,3.329-.165,5.188a6.292,6.292,0,0,1,1.982,4.8c.053,4.335.045,8.671.04,13.007,0,.765.025,1.836-.617,2.121-2.408,1.065-2.634,3.614-3.985,5.369-2.46,3.195-6.027,2.68-9.4,2.258a5.676,5.676,0,0,1-4.967-4.811c-.273-1.258-.772-1.384-1.832-1.379q-11.092.056-22.186,0c-1.036-.005-1.518.113-1.852,1.354-1.041,3.86-3.271,5.112-8.248,5.056-4.276-.048-6.3-1.461-7.39-5.189-.134-.457.049-1.034-.642-1.218-2.708-.721-2.755-2.859-2.7-5.073.039-1.7.008-3.4.008-5.1Zm31.953-34.445c-3.568,0-7.14.106-10.7-.028a9.983,9.983,0,0,0-9.214,4.829,34.735,34.735,0,0,0-4.5,11c-1.249,4.882-1.248,4.815,3.63,4.33,14.747-1.465,29.488-1.748,44.191.527,1.221.189,1.738.1,1.453-1.3-1.081-5.344-2.435-10.582-5.681-15.1a9.4,9.4,0,0,0-8.217-4.263C-126.391,144.015-130.045,143.962-133.7,143.961Zm28.489,33.976c0-1.614-.1-3.236.023-4.84a3.991,3.991,0,0,0-3.133-4.564,21.6,21.6,0,0,0-3.177-.865c-13.179-1.956-26.4-1.7-39.636-.722a29.347,29.347,0,0,0-8.455,1.654,3.962,3.962,0,0,0-2.937,4.2c.1,3.565.068,7.135,0,10.7-.022,1.294.125,2.2,1.737,1.932,1.073-.179,1.4.243,1.464,1.375.245,4.663.409,4.318,5.279,4.216,2.8-.059,2.376-1.259,2.224-3.961-.126-2.223,2.62-1.777,4.664-1.682,3.612.17,2.221-.148,2.146-3.669-.047-2.227,1-3.319,3.2-3.266,4.414.106,9.951-.176,14.365-.278,2.148-.049,5.343,1.275,5.3,3.544-.066,3.567-2.018,3.714,1.547,3.717a4.247,4.247,0,0,0,.763-.006c1.631-.3,3.9-1.486,3.736.035-.155,1.48-.661,3.935.834,4.662,2.059,1,3.177,1.965,5.242,1.167,1.787-.689,1.7-2.521,1.7-4.178,0-.629-.467-1.84.843-1.64,2.7.412,2.288-1.366,2.277-2.943C-105.216,181-105.208,179.466-105.208,177.937Zm-28.628,4.284c-1.607,0-3.217.068-4.819-.022-1.248-.07-1.6.422-1.589,1.613.014,1.139.266,1.677,1.558,1.642,3.127-.083,6.258-.067,9.385-.006,1.2.023,1.861-.142,1.859-1.6,0-1.428-.589-1.708-1.827-1.642C-130.788,182.283-132.314,182.22-133.836,182.22Zm-27.735-22.751c.07-.935,1.336-1.693.306-2.677a.933.933,0,0,0-.9.078A1.728,1.728,0,0,0-161.571,159.469Zm55.555.244a2.163,2.163,0,0,0,.557-2.783.714.714,0,0,0-1.1-.061C-107.2,157.867-106.514,158.69-106.015,159.713Z"/><path class="c" d="M-131.527,143.486c3.838,0,7.677.058,11.514-.015a9.811,9.811,0,0,1,8.635,4.605c3.41,4.881,4.833,10.539,5.969,16.312.3,1.518-.244,1.612-1.527,1.408-15.448-2.458-30.938-2.151-46.435-.569-5.126.523-5.128.6-3.815-4.678a38.14,38.14,0,0,1,4.73-11.877c2.314-3.543,5.424-5.382,9.683-5.217C-139.029,143.6-135.276,143.486-131.527,143.486Z" transform="translate(-2.166 -0.775)"/><path class="b" d="M-150.953,189.673a25.727,25.727,0,0,1-2.879-.017,4.852,4.852,0,0,1-4.262-4.572,4.779,4.779,0,0,1,3.733-5.006,24.05,24.05,0,0,1,6.784-.1,2.475,2.475,0,0,1,1.952,1.193c1.24,2.107.99,4.424.359,6.575-.607,2.071-2.577,2.047-4.377,1.978-.436-.017-.873,0-1.31,0Zm-.24-3.23v.01c.35,0,.7-.005,1.05,0,1.047.017,2.015.233,2.031-1.491s-.779-1.841-2.071-1.753c-.959.065-1.925.023-2.888.026a1.494,1.494,0,0,0-1.677,1.595,1.594,1.594,0,0,0,1.715,1.609C-152.418,186.458-151.8,186.443-151.192,186.443Z" transform="translate(-2.116 -10.741)"/><path class="b" d="M-98.058,189.729c-1.089-.1-2.577.379-3.836-.353-2.739-1.594-1.769-4.334-1.687-6.647.069-1.928,1.585-2.806,3.468-2.841a47.767,47.767,0,0,1,4.975.05,4.848,4.848,0,0,1,4.644,5.027,4.9,4.9,0,0,1-4.915,4.759C-96.192,189.763-96.98,189.729-98.058,189.729Zm.7-6.475v-.012c-.612,0-1.227.036-1.836-.007-1.4-.1-1.2.869-1.227,1.743-.023.856-.015,1.574,1.184,1.506,1.221-.069,2.448-.006,3.672-.027a1.589,1.589,0,0,0,1.716-1.6,1.494,1.494,0,0,0-1.673-1.6C-96.131,183.251-96.743,183.253-97.355,183.253Z" transform="translate(-17.003 -10.758)"/><path class="d" d="M-149.925,187.729c-.613,0-1.226.015-1.838,0a1.594,1.594,0,0,1-1.715-1.609,1.494,1.494,0,0,1,1.677-1.595c.963,0,1.929.038,2.888-.026,1.292-.087,2.087.042,2.071,1.753s-.984,1.508-2.031,1.491c-.35-.006-.7,0-1.05,0Z" transform="translate(-3.384 -12.027)"/><path class="d" d="M-96.074,184.53c.613,0,1.224,0,1.836,0a1.494,1.494,0,0,1,1.673,1.6,1.589,1.589,0,0,1-1.716,1.6c-1.224.021-2.452-.042-3.672.027-1.2.068-1.207-.65-1.184-1.506.024-.874-.177-1.841,1.227-1.743.61.044,1.224.007,1.836.007Z" transform="translate(-18.284 -12.034)"/><path class="d" d="M-103.374,187.4c0,1.58-.009,3.159,0,4.739.012,1.629.435,3.466-2.352,3.04-1.354-.207-.872,1.044-.871,1.693.005,1.713.094,3.6-1.752,4.317a8.217,8.217,0,0,1-6.621-.117c-1.544-.75-1.7-2.38-1.539-3.909.165-1.571-.292-2.341-1.977-2.032a4.469,4.469,0,0,1-.789.007c-3.683-.005-3.787-.007-3.719-3.692.044-2.344-.939-3.069-3.159-3.019q-6.841.158-13.687,0c-2.265-.054-3.155.765-3.106,3.066.077,3.638-.031,3.77-3.764,3.595-2.111-.1-2.9.354-2.767,2.651.158,2.791-1.151,3.839-4.047,3.9-5.033.1-5.5-.259-5.755-5.077-.062-1.169-.4-1.6-1.513-1.42-1.665.277-1.817-.659-1.794-2,.065-3.685.1-7.373,0-11.057a4.093,4.093,0,0,1,3.033-4.336,30.331,30.331,0,0,1,8.736-1.709c13.67-1.014,27.334-1.274,40.948.747a22.262,22.262,0,0,1,3.282.893,4.125,4.125,0,0,1,3.238,4.717C-103.478,184.061-103.374,185.736-103.374,187.4Zm-48.81,1.032v.049c.437,0,.874-.014,1.31,0,1.8.069,3.77.094,4.377-1.978.631-2.15.881-4.468-.359-6.575a2.475,2.475,0,0,0-1.952-1.193,24.05,24.05,0,0,0-6.784.1,4.779,4.779,0,0,0-3.733,5.006,4.852,4.852,0,0,0,4.262,4.572A25.727,25.727,0,0,0-152.184,188.436Zm38.008.039c1.078,0,1.866.035,2.65-.006a4.9,4.9,0,0,0,4.915-4.759,4.848,4.848,0,0,0-4.644-5.027,47.779,47.779,0,0,0-4.975-.05c-1.883.036-3.4.914-3.468,2.841-.083,2.312-1.052,5.053,1.687,6.647C-116.753,188.854-115.264,188.373-114.175,188.475Z" transform="translate(-0.885 -9.504)"/><path class="e" d="M-124.321,197.793c1.615,0,3.233.066,4.844-.02,1.315-.071,1.938.227,1.939,1.741,0,1.553-.7,1.727-1.972,1.7-3.318-.065-6.64-.081-9.958.007-1.37.037-1.638-.533-1.653-1.742-.015-1.263.361-1.785,1.687-1.711C-127.734,197.865-126.025,197.793-124.321,197.793Z" transform="translate(-9.515 -15.67)"/></g></g></svg>