<svg xmlns="http://www.w3.org/2000/svg" width="67.332" height="75.758" viewBox="0 0 67.332 75.758"><defs><style>.a{fill:#00efd1;}.b{fill:#093d78;}.c{fill:#0c0c0c;}</style></defs><g transform="translate(-208.467 -120.934)"><path class="a" d="M246.66,172.149c-5.7,0-11.394-.078-17.087.031a5.161,5.161,0,0,1-5.374-5.369c.07-2.179,0-4.361.015-6.542a4.977,4.977,0,0,1,5.169-5.146q17.282-.009,34.564,0a4.928,4.928,0,0,1,5.191,5.2q.009,3.271,0,6.542a4.918,4.918,0,0,1-5.3,5.281Q255.253,172.163,246.66,172.149Zm3.317-10.645.139.035q0,2.778,0,5.558c0,2.2-.007,2.183,2.211,2.108.435-.015.625-.082.622-.58q-.035-4.975,0-9.95c0-.554-.21-.633-.682-.621-1.039.028-2.082.046-3.12,0-.564-.026-.787.16-.917.705-.448,1.88-.951,3.747-1.434,5.619a55.4,55.4,0,0,1-1.654-5.712c-.119-.5-.323-.62-.782-.607-.975.025-1.955.062-2.926-.007-.782-.056-1.047.129-1.027.98.064,2.7.023,5.4.023,8.1,0,2.115,0,2.092,2.133,2.085.591,0,.781-.142.763-.756-.046-1.624-.015-3.251-.015-4.877v-1.836c.766,2.279,1.357,4.555,1.943,6.834.079.3.061.585.542.636,2.044.215,2.133.169,2.641-1.821C248.94,165.424,249.464,163.465,249.977,161.5Zm16,7.687c.012-.148.041-.22.02-.275-1.292-3.448-2.6-6.892-3.872-10.347a.682.682,0,0,0-.788-.512c-.844.022-1.69.037-2.532,0a.778.778,0,0,0-.9.645c-.541,1.556-1.139,3.092-1.72,4.634-.724,1.926-1.45,3.85-2.207,5.859,1.113,0,2.086-.006,3.059,0,.317,0,.58-.015.6-.427.066-1.392.981-1.489,2.065-1.373a5.336,5.336,0,0,0,1.264,0,.975.975,0,0,1,1.267.928c.062.353,0,.894.666.878C263.924,169.173,264.952,169.191,265.973,169.191Zm-32.4.194c2.488.006,3.887-.729,4.754-2.425.7-1.366.7-1.366-.708-1.8a7.23,7.23,0,0,1-.833-.261c-.687-.306-1.064-.212-1.289.616a1.778,1.778,0,0,1-1.972,1.263,1.809,1.809,0,0,1-1.84-1.45,6.358,6.358,0,0,1,0-3.281,1.871,1.871,0,0,1,1.513-1.478c.82-.142,1.678-.077,2.066.7.4.812.877.745,1.543.525a6.537,6.537,0,0,1,1.238-.247c.646-.082.643-.358.431-.907-1.463-3.766-7.551-3.359-9.272-.954a6.7,6.7,0,0,0-.584,6.849A4.741,4.741,0,0,0,233.572,169.385Z" transform="translate(3.729 8.105)"/><path class="b" d="M267.851,160.308c-1.982-.009-3.964,0-5.981,0a8.068,8.068,0,0,1,.073-.825c1.327-6.842,2.624-13.69,4-20.522.943-4.665-.453-7.518-4.814-9.456a.965.965,0,0,1-.485-.409,7.526,7.526,0,0,0-7.033-3.667c-4.034.036-8.07,0-12.1.015a6.054,6.054,0,0,1-2.179-.4c-2.911-1.086-5.677-2.529-8.647-3.463a9.178,9.178,0,0,0-5.827-.281,9.53,9.53,0,0,0-4.487,3.609,1.246,1.246,0,0,1-.892.648,7.174,7.174,0,0,0-6.376,7.222q-.009,11.616,0,23.234a5.667,5.667,0,0,1-.062,1.066c-1.457,7.509-2.937,15.015-4.385,22.525-.777,4.029.946,7.136,4.765,8.7a1.234,1.234,0,0,1,.685.491,7.514,7.514,0,0,0,7.044,3.653c4-.035,8,0,12.007-.017a6.607,6.607,0,0,1,2.466.449c2.655,1.028,5.313,2.047,7.984,3.032a10.922,10.922,0,0,0,5.458.673,8.073,8.073,0,0,0,5.212-3.476c.261-.345.433-.758,1.013-.793a6.312,6.312,0,0,0,3.6-1.5,7.643,7.643,0,0,0,2.774-6.724c-.027-.709.137-.954.9-.932,1.885.056,3.776.045,5.661-.007a7.781,7.781,0,0,0,7.57-7.734q.028-3.613,0-7.225A7.83,7.83,0,0,0,267.851,160.308Zm-54.788,24.383a3.892,3.892,0,0,1-1.671-3.762c.492-2.667,1.027-5.326,1.545-7.988l.126-.031Zm48.683-51.584a4.236,4.236,0,0,1,1.52,4.22c-.416,2.416-.933,4.814-1.52,7.212Zm-29.466-7.68h-8.219C225.523,123.546,229.441,123.706,232.28,125.427Zm10.546,66.983h7.739C249.511,194.117,244.96,193.782,242.826,192.41Zm13.572-3.5a4.5,4.5,0,0,1-2.338.513q-16.693-.022-33.389-.014a4.364,4.364,0,0,1-4.639-4.692q-.007-12.058,0-24.115v-1.66c0-8.526.038-17.053-.022-25.579a4.708,4.708,0,0,1,4.947-4.946c11.031.108,22.065.09,33.1.009a4.56,4.56,0,0,1,4.6,4.553c-.082,8.818-.043,17.638-.012,26.458,0,.757-.21.886-.914.883q-12.253-.037-24.506-.012a7.867,7.867,0,0,0-8.193,8.234q-.009,3.173,0,6.346c.006,4.919,3.308,8.271,8.23,8.286,7.843.023,15.686.006,23.528.006,1.852,0,1.837,0,1.84,1.9A4.167,4.167,0,0,1,256.4,188.911Zm11.176-8.658q-8.592.015-17.184,0c-5.7,0-11.394-.079-17.087.03a5.161,5.161,0,0,1-5.374-5.369c.07-2.179,0-4.361.015-6.542a4.977,4.977,0,0,1,5.169-5.146q17.282-.009,34.564,0a4.928,4.928,0,0,1,5.191,5.2q.009,3.271,0,6.542A4.918,4.918,0,0,1,267.574,180.253Z"/><path class="b" d="M234.66,134.886c-4.355,0-8.709-.006-13.065,0a1.5,1.5,0,0,1-1.673-1.024,1.42,1.42,0,0,1,.914-1.785,3.279,3.279,0,0,1,1.251-.126q12.578,0,25.154,0c.163,0,.325,0,.487,0,1.136.042,1.755.594,1.731,1.536-.023.9-.61,1.388-1.734,1.391Q241.194,134.895,234.66,134.886Z" transform="translate(2.699 2.612)"/><path class="b" d="M234.7,145.183q6.582,0,13.164,0a1.437,1.437,0,0,1,1.6,1.337,1.417,1.417,0,0,1-1.179,1.553,2.168,2.168,0,0,1-.583.028q-13.017,0-26.037,0c-1.445,0-2.25-1.106-1.616-2.191a1.62,1.62,0,0,1,1.581-.74C225.985,145.19,230.341,145.183,234.7,145.183Z" transform="translate(2.694 5.748)"/><path class="b" d="M234.705,141.492q-6.484,0-12.968,0c-1.216,0-1.919-.551-1.908-1.456s.742-1.47,1.927-1.47q12.921,0,25.84-.006c.862,0,1.571.216,1.827,1.108a1.39,1.39,0,0,1-.625,1.608,1.958,1.958,0,0,1-1.222.214Q241.142,141.5,234.705,141.492Z" transform="translate(2.694 4.179)"/><path class="c" d="M246.871,160.944c-.513,1.961-1.037,3.92-1.54,5.884-.508,1.991-.6,2.036-2.641,1.821-.481-.051-.463-.332-.542-.636-.586-2.279-1.178-4.555-1.943-6.834v1.836c0,1.626-.031,3.252.015,4.877.017.614-.172.753-.763.756-2.133.007-2.133.031-2.133-2.085,0-2.7.041-5.4-.023-8.1-.02-.851.245-1.035,1.027-.98.971.069,1.951.032,2.926.007.459-.012.663.106.782.607a55.4,55.4,0,0,0,1.654,5.712c.482-1.872.986-3.738,1.434-5.619.13-.546.353-.731.917-.705,1.038.049,2.081.032,3.12,0,.471-.012.685.067.682.621q-.039,4.975,0,9.95c0,.5-.187.565-.622.58-2.218.075-2.216.088-2.211-2.108q.006-2.78,0-5.558Z" transform="translate(6.836 8.665)"/><path class="c" d="M260.265,168.629c-1.021,0-2.049-.019-3.075.007-.663.016-.6-.526-.666-.878a.975.975,0,0,0-1.267-.928,5.335,5.335,0,0,1-1.264,0c-1.084-.116-2-.019-2.065,1.373-.019.412-.282.429-.6.427-.974-.01-1.946,0-3.059,0,.757-2.009,1.483-3.933,2.207-5.859.58-1.543,1.179-3.078,1.72-4.634a.778.778,0,0,1,.9-.645c.842.041,1.689.026,2.532,0a.682.682,0,0,1,.788.512c1.274,3.455,2.581,6.9,3.872,10.347C260.306,168.409,260.277,168.481,260.265,168.629Zm-5.963-8.14c-.287.945-.49,1.618-.7,2.289-.51,1.66-.511,1.634,1.24,1.588.6-.015.6-.187.432-.677C254.938,162.721,254.673,161.727,254.3,160.489Z" transform="translate(9.437 8.667)"/><path class="c" d="M232.853,168.862a4.741,4.741,0,0,1-4.955-2.848,6.7,6.7,0,0,1,.584-6.849c1.721-2.4,7.809-2.812,9.272.954.213.549.215.825-.431.907a6.537,6.537,0,0,0-1.238.247c-.666.22-1.138.287-1.543-.525-.388-.776-1.246-.841-2.066-.7a1.871,1.871,0,0,0-1.513,1.478,6.358,6.358,0,0,0,0,3.281,1.809,1.809,0,0,0,1.84,1.45A1.778,1.778,0,0,0,234.778,165c.225-.828.6-.922,1.289-.616a7.23,7.23,0,0,0,.833.261c1.405.431,1.405.431.708,1.8C236.74,168.134,235.341,168.869,232.853,168.862Z" transform="translate(4.448 8.628)"/></g></svg>