<svg xmlns="http://www.w3.org/2000/svg" xmlns:xlink="http://www.w3.org/1999/xlink" width="125" height="125" viewBox="0 0 125 125"><defs><style>.a{fill:#fff;}.b{fill:#093d78;}.c{filter:url(#a);}</style><filter id="a" x="0" y="0" width="125" height="125" filterUnits="userSpaceOnUse"><feOffset input="SourceAlpha"/><feGaussianBlur stdDeviation="5" result="b"/><feFlood flood-color="#093d78" flood-opacity="0.122"/><feComposite operator="in" in2="b"/><feComposite in="SourceGraphic"/></filter></defs><g transform="translate(15.462 14.575)"><g class="c" transform="matrix(1, 0, 0, 1, -15.46, -14.58)"><circle class="a" cx="47.5" cy="47.5" r="47.5" transform="translate(15 15)"/></g><path class="b" d="M2292.41,428.254l-6.6-3.361,6.688-2.172a1.8,1.8,0,1,0-1.115-3.432l-10.011,3.253c-.034.011-.063.029-.1.042l-10.569-5.386,10.567-5.384c.032.013.061.031.095.042l10.012,3.253a1.8,1.8,0,0,0,1.115-3.432l-6.689-2.173,6.6-3.361a1.8,1.8,0,0,0-1.638-3.215l-6.6,3.361,2.173-6.687a1.8,1.8,0,0,0-3.433-1.115l-3.253,10.011c-.011.034-.014.068-.023.1l-11.085,5.648v-12.43c.026-.023.056-.04.08-.065l7.444-7.443a1.8,1.8,0,0,0-2.552-2.552l-4.973,4.973v-7.461a1.8,1.8,0,1,0-3.608,0v7.461l-4.972-4.972a1.8,1.8,0,0,0-2.552,2.552l7.444,7.443c.025.025.054.042.08.065V414.26l-11.061-5.635c-.009-.034-.011-.068-.022-.1l-3.252-10.011a1.8,1.8,0,0,0-3.433,1.115l2.172,6.688-6.647-3.388a1.8,1.8,0,0,0-1.639,3.216l6.648,3.387-6.687,2.172a1.8,1.8,0,1,0,1.115,3.432l10.011-3.253c.034-.011.062-.029.1-.042l10.518,5.359-10.521,5.36c-.033-.012-.061-.03-.095-.041l-10.013-3.253a1.8,1.8,0,0,0-1.115,3.432l6.688,2.172-6.647,3.387a1.8,1.8,0,1,0,1.638,3.215l6.647-3.387-2.173,6.688a1.8,1.8,0,1,0,3.433,1.115l3.254-10.012c.01-.033.013-.067.021-.1l11.064-5.638v12.431c-.026.023-.055.04-.08.065l-7.444,7.443a1.8,1.8,0,1,0,2.552,2.551l4.972-4.971v7.4a1.8,1.8,0,1,0,3.608,0v-7.4l4.973,4.972a1.8,1.8,0,1,0,2.552-2.551l-7.444-7.443c-.024-.025-.054-.043-.08-.066V420.148l11.089,5.651c.009.033.011.067.022.1l3.253,10.011a1.8,1.8,0,1,0,3.432-1.115l-2.173-6.687,6.6,3.36a1.8,1.8,0,1,0,1.638-3.215Z" transform="translate(-2219.677 -368.786)"/></g></svg>