<svg xmlns="http://www.w3.org/2000/svg" xmlns:xlink="http://www.w3.org/1999/xlink" width="126" height="125" viewBox="0 0 126 125"><defs><style>.a{fill:#fff;}.b{fill:#f7caa5;}.b,.c,.d{stroke:#093d78;stroke-miterlimit:10;stroke-width:3px;}.c{fill:none;}.d{fill:#00efd1;}.e{fill:#093d78;}.f{filter:url(#a);}</style><filter id="a" x="0" y="0" width="126" height="125" filterUnits="userSpaceOnUse"><feOffset input="SourceAlpha"/><feGaussianBlur stdDeviation="5" result="b"/><feFlood flood-color="#093d78" flood-opacity="0.122"/><feComposite operator="in" in2="b"/><feComposite in="SourceGraphic"/></filter></defs><g transform="translate(15.152 14.575)"><g class="f" transform="matrix(1, 0, 0, 1, -15.15, -14.58)"><ellipse class="a" cx="48" cy="47.5" rx="48" ry="47.5" transform="translate(15 15)"/></g><g transform="translate(16.557 24.392)"><path class="b" d="M2307.621,421.12l27.215-11.75a1.883,1.883,0,0,1,1.46-.013l28.823,11.835a.31.31,0,0,1,0,.578l-28.9,11.467a2.079,2.079,0,0,1-1.574-.017l-27.021-11.377A.391.391,0,0,1,2307.621,421.12Z" transform="translate(-2304.149 -409.216)"/><path class="c" d="M2319.175,429.547v12.695a2.549,2.549,0,0,0,.752,1.821c1.811,1.783,7.057,5.814,17.45,5.814,13.283,0,15.2-6.612,15.2-6.612v-12.6" transform="translate(-2306.027 -412.452)"/><ellipse class="d" cx="11.142" cy="11.142" rx="11.142" ry="11.142" transform="translate(39.605 24.215)"/><line class="c" y2="7.848" transform="translate(51.611 16.266)"/><line class="c" y2="8.882" transform="translate(4.139 12.907)"/><ellipse class="d" cx="4.139" cy="4.139" rx="4.139" ry="4.139" transform="translate(0 22.079)"/><g transform="translate(46.838 29.845)"><path class="e" d="M2359.958,444.711h7.1v.015a11.424,11.424,0,0,1-.708,1.033h-1.9a2.481,2.481,0,0,1,.531,1.115h2.023c.025,0,.037.014.037.029q-.68,1.019-.693,1.018h-1.315a3.015,3.015,0,0,1-.5,1.263,3.094,3.094,0,0,1-1.16.967,4.583,4.583,0,0,1-1.978.494v.015q0,.073,4.275,5.072h-1.883q-4.163-4.851-4.164-4.873v-.982l.015-.037a6.284,6.284,0,0,0,.864.052q2.332,0,2.9-1.513a1.21,1.21,0,0,0,.089-.458h-4.223a.026.026,0,0,1-.03-.029q.7-1.019.717-1.018h3.352v-.015a1.966,1.966,0,0,0-1.115-.908,3.477,3.477,0,0,0-1.063-.192h-1.875v-.037Q2359.935,444.711,2359.958,444.711Z" transform="translate(-2359.241 -444.711)"/></g></g></g></svg>