<svg xmlns="http://www.w3.org/2000/svg" width="169.439" height="108.284" viewBox="0 0 169.439 108.284"><defs><style>.a{fill:#ec4119;}.b{fill:#4ea135;}.c{fill:#6aa336;}.d{fill:#d05028;}.e{fill:#e6e6e6;}.f{fill:#fff;}</style></defs><g transform="translate(-17.208 -15.109)"><path class="a" d="M91.1,57.44C75.355,58.184,64.079,65.607,57.553,80a32.155,32.155,0,0,0-2.761,13.789c.014,1.258-.246,1.69-1.623,1.682q-17.044-.094-34.087,0c-1.436.008-1.888-.328-1.866-1.815C17.54,72.668,25.173,54.8,40.344,40.32c13.615-13,30.034-19.553,48.813-20.271.639-.025,1.281.013,1.923.022Q91.088,38.754,91.1,57.44Z" transform="translate(0.002 1.53)"/><path class="b" d="M121.693,90.066c-5.655,0-11.312-.034-16.967.026-1.237.013-1.715-.211-1.709-1.6a34.747,34.747,0,0,0-6.28-20.358,1.8,1.8,0,0,1,.177-2.643c5.215-6.152,10.08-12.589,15.278-18.76,2.344-2.782,4.62-5.654,6.774-8.6.69-.942,1.056-.843,1.8-.024a73.4,73.4,0,0,1,19.868,50.3c.014,1.28-.273,1.7-1.627,1.685-5.772-.077-11.545-.033-17.318-.033Z" transform="translate(24.522 6.933)"/><path class="b" d="M73.6,57.437q-.008-18.685-.016-37.369A69.9,69.9,0,0,1,98.771,24.36,74.449,74.449,0,0,1,122.4,38.253c1.043.895.852,1.291-.021,2.077Q109.419,52.014,96.5,63.749c-.523.473-.983,1.056-1.921.394A37.462,37.462,0,0,0,73.6,57.437Z" transform="translate(17.493 1.534)"/><path class="c" d="M74.843,97.957a4.69,4.69,0,0,1-4.739-3.08,4.93,4.93,0,0,1,1.19-5.78Q80.712,80.1,90.16,71.14q21.718-20.652,43.459-41.281c.594-.563,1.283-1.952,2.06-1.258.613.549-.73,1.351-1.246,1.964q-13.39,15.9-26.847,31.737Q93.822,78.55,80.084,94.818C78.617,96.566,77.224,98.16,74.843,97.957Zm.165-7.855a2.732,2.732,0,0,0-2.862,2.645,2.8,2.8,0,0,0,2.626,2.884A2.854,2.854,0,0,0,77.685,92.8,2.816,2.816,0,0,0,75.008,90.1Z" transform="translate(16.271 4.127)"/><path class="c" d="M124.167,91.882c0-2.8.051-5.6-.022-8.392-.03-1.164.364-1.608,1.5-1.457a7.989,7.989,0,0,0,1.048.007c4.3,0,5.238.922,5.254,5.181.012,3.438.026,6.876,0,10.316-.02,3.121-1.352,4.412-4.478,4.414-3.308,0-3.308,0-3.306-3.249Q124.167,95.291,124.167,91.882Zm2.472-.1c0,2.275-.01,4.551.008,6.825,0,.48-.236,1.156.539,1.268a1.744,1.744,0,0,0,1.764-.483,2.674,2.674,0,0,0,.531-1.806q-.006-5.511-.017-11.025a3.812,3.812,0,0,0-.421-1.851c-.438-.822-1.169-.66-1.836-.621-.839.05-.552.761-.558,1.217C126.619,87.46,126.635,89.619,126.639,91.777Z" transform="translate(33.178 20.755)"/><path class="c" d="M108.864,91.97c0-2.093-.054-4.188.014-6.279a3.752,3.752,0,0,1,3.805-3.911,3.672,3.672,0,0,1,4.062,3.789c.094,4.3.1,8.606-.013,12.9-.067,2.567-1.663,3.91-4.182,3.877-2.265-.029-3.556-1.371-3.7-3.927-.064-1.1-.021-2.209-.024-3.314,0-1.047,0-2.094,0-3.141Zm5.468.028h.013c0-1.922.025-3.846-.01-5.768-.018-1.048.012-2.282-1.452-2.356-1.506-.075-1.58,1.188-1.591,2.22q-.063,6.03.022,12.06c.013.966.051,2.162,1.487,2.115,1.331-.045,1.5-1.137,1.517-2.153C114.363,96.077,114.332,94.037,114.332,92Z" transform="translate(28.422 20.685)"/><path class="d" d="M24.5,92.031c0-2.04-.052-4.083.01-6.122a3.942,3.942,0,0,1,4.024-4.135,3.71,3.71,0,0,1,3.948,3.983c-.008,4.587.436,9.188-.265,13.763-.311,2.027-1.972,2.634-3.538,3.088a3.28,3.28,0,0,1-3.342-1.34,4.765,4.765,0,0,1-.815-3.117C24.451,96.114,24.5,94.071,24.5,92.031ZM30.065,92h-.016c0-1.977.025-3.954-.01-5.93-.02-1.077-.135-2.267-1.589-2.22-1.295.043-1.474,1.135-1.479,2.168q-.024,6.018.005,12.035c.005,1,.05,2.151,1.393,2.221,1.432.073,1.65-1.093,1.68-2.171C30.1,96.068,30.065,94.033,30.065,92Z" transform="translate(2.256 20.684)"/><path class="c" d="M124.465,92.025c0,2.094.083,4.19-.02,6.279-.132,2.653-1.7,4.085-4.236,4.061a3.374,3.374,0,0,1-3.624-3.268,106.426,106.426,0,0,1-.01-13.94,3.961,3.961,0,0,1,7.873.414C124.527,87.72,124.465,89.874,124.465,92.025Zm-2.459.208c0-2.1.017-4.2-.007-6.3-.012-1.055-.236-2.091-1.564-2.081-1.225.009-1.486,1.012-1.492,1.981-.028,4.142-.029,8.284.02,12.425.01.93.162,2.01,1.44,2.015,1.331.007,1.563-1.055,1.587-2.089C122.036,96.2,122,94.217,122.006,92.233Z" transform="translate(30.761 20.686)"/><path class="d" d="M40.028,92.372c0,2.208.081,4.42-.021,6.623-.118,2.552-3.729,4.41-6,3.156a2.884,2.884,0,0,1-1.693-2.417A136.386,136.386,0,0,1,32.267,85.1c.094-2.158,1.888-3.438,4.081-3.32a3.638,3.638,0,0,1,3.7,3.619c.081,2.323.018,4.65.018,6.976Zm-2.36-.231c0-2.091.039-4.184-.018-6.274-.025-.932-.155-1.976-1.428-2.019-1.368-.047-1.6,1.038-1.625,2.035-.066,2.846-.038,5.693-.026,8.54.005,1.452.018,2.9.1,4.353.047.794.359,1.52,1.335,1.526,1,.008,1.437-.645,1.561-1.543a12.211,12.211,0,0,0,.1-1.563C37.68,95.511,37.673,93.826,37.668,92.141Z" transform="translate(4.619 20.682)"/><path class="c" d="M101.2,92.425c0-2.271-.041-4.543.01-6.813.058-2.512,1.475-3.84,3.975-3.839q3.677,0,3.766,3.788c.013.582-.029,1.167.016,1.747.068.866-.342,1.084-1.144,1.084-.841,0-1.35-.168-1.268-1.152.052-.635-.012-1.28-.007-1.921.005-.887-.356-1.5-1.3-1.49a1.46,1.46,0,0,0-1.543,1.364,6.046,6.046,0,0,0-.064.87q-.006,5.853-.007,11.706c0,1.064.138,2.081,1.454,2.175,1.464.1,1.6-1.074,1.467-2.037-.168-1.191,1-2.814-1.047-3.535-.448-.159-.255-.963-.186-1.47.08-.575.592-.435.972-.47,2.657-.244,2.728-.177,2.732,2.463,0,1.98-.012,3.96.024,5.939.013.76-.271,1.538-1,1.106-.966-.574-1.513-.083-2.271.227a3.308,3.308,0,0,1-4.549-2.927c-.058-2.269-.013-4.541-.013-6.813Z" transform="translate(26.055 20.684)"/><path class="d" d="M39.9,91.9c0-2.858.033-5.715-.017-8.572-.017-1,.345-1.4,1.321-1.267a3.112,3.112,0,0,0,.35,0c1.93.052,4.337-.608,5.325,1.554a8.986,8.986,0,0,1-.238,7.524c-.138.305-.46.493-.2.895,1.364,2.094.963,4.461,1.031,6.757.017.583.075,1.165.071,1.747,0,.481.746,1.224-.3,1.373-.806.114-1.786.346-2.068-.949a26.75,26.75,0,0,1-.233-4.53,13.707,13.707,0,0,0-.178-2.255c-.2-.915-.723-1.664-1.8-1.563-1.295.121-.639,1.182-.667,1.785-.092,2.036-.041,4.08-.031,6.122,0,.787.066,1.448-1.124,1.471-1.242.025-1.287-.633-1.283-1.521.01-2.858,0-5.715,0-8.573Zm5.143-4.586a12.564,12.564,0,0,0-.168-2.106c-.223-.951-.991-1.2-1.9-1.135-1.093.084-.659.924-.683,1.461-.059,1.28.02,2.567-.031,3.847-.038.922.432,1.074,1.191,1.006C45.473,90.2,44.868,88.641,45.04,87.311Z" transform="translate(7.029 20.756)"/><path class="d" d="M17.229,91.994c0-2.851.039-5.7-.02-8.556-.022-1.026.221-1.544,1.343-1.409a14.9,14.9,0,0,0,1.745.017c3.76,0,4.695.963,4.659,4.786-.008.991.028,1.982-.034,2.968-.14,2.268-1.288,3.447-3.563,3.36-1.44-.056-1.775.44-1.7,1.768.106,1.916-.008,3.842.051,5.761.031,1.014-.377,1.289-1.338,1.291s-1.174-.387-1.162-1.254c.038-2.91.014-5.82.014-8.732Zm5.183-4.519h.038c0-.694.038-1.393-.008-2.085-.079-1.144-.856-1.312-1.832-1.343-1.192-.039-.913.777-.925,1.411-.025,1.39-.041,2.782.009,4.171.02.546-.36,1.355.694,1.462.98.1,1.8-.157,1.993-1.192A13.345,13.345,0,0,0,22.412,87.474Z" transform="translate(0 20.757)"/><path class="e" d="M74.417,75.494a2.816,2.816,0,0,1,2.677,2.7,2.854,2.854,0,0,1-2.913,2.834,2.8,2.8,0,0,1-2.626-2.884A2.732,2.732,0,0,1,74.417,75.494Z" transform="translate(16.862 18.735)"/><rect class="c" width="30.514" height="17.429" rx="3" transform="translate(156.132 15.109)"/><g transform="translate(160.809 19.133)"><path class="f" d="M133.258,18.257v.819a1.738,1.738,0,0,1-.076.561c-.051.143-.1.265-.145.366l-3.206,6.792a1.218,1.218,0,0,1-.372.457,1.054,1.054,0,0,1-.65.185h-1.423l3.276-6.571a3.349,3.349,0,0,1,.287-.486,4.162,4.162,0,0,1,.337-.409h-4.038a.405.405,0,0,1-.168-.035.436.436,0,0,1-.138-.094.477.477,0,0,1-.1-.139.371.371,0,0,1-.038-.16V18.257Z" transform="translate(-126.805 -18.156)"/><path class="f" d="M138.209,19.063a1.01,1.01,0,0,1-.063.366.753.753,0,0,1-.2.287.924.924,0,0,1-.355.189,1.852,1.852,0,0,1-.529.067H134.87l-.258,1.519c.172-.03.338-.052.5-.067s.314-.022.466-.022a3.423,3.423,0,0,1,1.279.221,2.7,2.7,0,0,1,.933.6,2.5,2.5,0,0,1,.57.895,3.1,3.1,0,0,1,.191,1.1,3.377,3.377,0,0,1-.261,1.346,3.125,3.125,0,0,1-.727,1.048,3.269,3.269,0,0,1-1.112.684,3.982,3.982,0,0,1-1.415.242,3.768,3.768,0,0,1-.854-.094,4.058,4.058,0,0,1-.761-.256,4.006,4.006,0,0,1-.659-.371,4.384,4.384,0,0,1-.548-.451l.6-.807a.646.646,0,0,1,.22-.191.573.573,0,0,1,.271-.067.671.671,0,0,1,.356.1l.366.228a2.765,2.765,0,0,0,.463.223,1.839,1.839,0,0,0,.656.1,1.585,1.585,0,0,0,.667-.128,1.2,1.2,0,0,0,.451-.354,1.45,1.45,0,0,0,.253-.523,2.508,2.508,0,0,0,.079-.639,1.316,1.316,0,0,0-.379-1.018,1.518,1.518,0,0,0-1.07-.349,3.3,3.3,0,0,0-1.211.232l-1.209-.328.781-4.592h4.7Z" transform="translate(-125.128 -18.156)"/><path class="f" d="M144.566,22.868a7.477,7.477,0,0,1-.258,2.085,4.306,4.306,0,0,1-.715,1.462,2.9,2.9,0,0,1-1.084.863,3.265,3.265,0,0,1-1.359.283,3.212,3.212,0,0,1-1.351-.283,2.868,2.868,0,0,1-1.074-.863,4.252,4.252,0,0,1-.709-1.462,7.533,7.533,0,0,1-.256-2.085,7.543,7.543,0,0,1,.256-2.086,4.252,4.252,0,0,1,.709-1.462,2.832,2.832,0,0,1,1.074-.86,3.231,3.231,0,0,1,1.351-.28,3.284,3.284,0,0,1,1.359.28,2.86,2.86,0,0,1,1.084.86,4.306,4.306,0,0,1,.715,1.462A7.487,7.487,0,0,1,144.566,22.868Zm-2.017,0a8.32,8.32,0,0,0-.121-1.561,3.16,3.16,0,0,0-.317-.954,1.144,1.144,0,0,0-.451-.476,1.108,1.108,0,0,0-.511-.13,1.089,1.089,0,0,0-.507.13,1.1,1.1,0,0,0-.44.476,3.254,3.254,0,0,0-.309.954,8.48,8.48,0,0,0-.117,1.561,8.446,8.446,0,0,0,.117,1.562,3.3,3.3,0,0,0,.309.955,1.1,1.1,0,0,0,.44.478,1.089,1.089,0,0,0,.507.13,1.108,1.108,0,0,0,.511-.13,1.145,1.145,0,0,0,.451-.478,3.208,3.208,0,0,0,.317-.955A8.287,8.287,0,0,0,142.549,22.868Z" transform="translate(-123.406 -18.18)"/></g></g></svg>