<svg xmlns="http://www.w3.org/2000/svg" xmlns:xlink="http://www.w3.org/1999/xlink" width="148" height="148" viewBox="0 0 148 148"><defs><style>.a{fill:#fff;}.b{fill:#093d78;}.c{fill:#fefefe;}.d{fill:#fdfdfe;}.e{fill:#fa7819;}.f{filter:url(#a);}</style><filter id="a" x="0" y="0" width="148" height="148" filterUnits="userSpaceOnUse"><feOffset dy="2" input="SourceAlpha"/><feGaussianBlur stdDeviation="5" result="b"/><feFlood flood-opacity="0.122"/><feComposite operator="in" in2="b"/><feComposite in="SourceGraphic"/></filter></defs><g transform="translate(-512 -8049)"><g class="f" transform="matrix(1, 0, 0, 1, 512, 8049)"><circle class="a" cx="59" cy="59" r="59" transform="translate(15 13)"/></g><g transform="translate(-1264.734 7949.449)"><path class="b" d="M1833.311,171.562q0-12.562,0-25.125c0-1.513.117-1.631,1.634-1.631,6.923,0,13.848.01,20.771-.018a2.356,2.356,0,0,1,1.844.791q4.954,5.072,9.966,10.086a1.95,1.95,0,0,1,.64,1.515q-.023,19.839-.008,39.678c0,.551.036,1.105-.591,1.369-.6.252-1.023-.087-1.444-.449-.749-.643-1.512-1.771-2.267-1.768s-1.533,1.113-2.262,1.78a1.335,1.335,0,0,1-2.066-.029c-.728-.658-1.411-1.809-2.267-1.759-.755.044-1.477,1.087-2.166,1.738a1.378,1.378,0,0,1-2.161,0c-.731-.65-1.385-1.833-2.264-1.754-.77.069-1.478,1.1-2.162,1.759a1.354,1.354,0,0,1-2.155-.021c-.689-.65-1.4-1.667-2.172-1.73-.79-.065-1.479,1.05-2.165,1.7a1.411,1.411,0,0,1-2.256.01c-.678-.656-1.444-1.7-2.167-1.7s-1.449,1.087-2.172,1.7c-.445.375-.86.788-1.54.477-.706-.324-.57-.931-.57-1.5Q1833.308,184.124,1833.311,171.562Z"/><path class="c" d="M1866.052,194.569c-.083.013-.133.037-.156.02-2.167-1.537-2.2-1.572-4.191.311-.775.732-1.259.835-2.1.038-2.4-2.277-2.119-2.229-4.523.018-.768.718-1.2.759-2,.017-2.531-2.346-2.1-2.308-4.6.024-.842.782-1.271.607-2-.068-2.4-2.223-2.1-2.253-4.528.027-.772.725-1.216.766-2.005.012-1.977-1.891-2.021-1.845-4.389-.376a2.063,2.063,0,0,1-.107-1.194q-.015-22.459-.031-44.917c0-1.09.21-1.48,1.4-1.466,5.723.068,11.447.056,17.17.007,1.006-.008,1.248.3,1.227,1.261-.061,2.736,0,5.474-.032,8.211-.014,1.122.473,1.565,1.573,1.553,2.82-.03,5.641.007,8.461-.023.684-.008.936.175.935.9q-.032,17.668-.02,35.336A1.113,1.113,0,0,1,1866.052,194.569Z" transform="translate(-0.059 -0.062)"/><path class="d" d="M1864.99,155.878c-2.137,0-4.164-.009-6.191.006-.521,0-.86-.066-.851-.726.029-2.09.011-4.182.011-6.223Z" transform="translate(-0.69 -0.116)"/><path class="b" d="M1850.769,190.771q-4.976,0-9.951,0a4.424,4.424,0,0,1-1.108-.08,1.07,1.07,0,0,1,.1-2.1,5.173,5.173,0,0,1,.869-.028h20.4c.165,0,.331,0,.5,0,.711-.01,1.257.254,1.294,1.024.04.844-.534,1.17-1.284,1.181-1.492.022-2.985.007-4.478.007Z" transform="translate(-0.156 -1.226)"/><path class="e" d="M8.042,13.738a2.3,2.3,0,1,0,2.3,2.3A2.3,2.3,0,0,0,8.042,13.738Zm0-6.893a2.3,2.3,0,1,0-2.3-2.3A2.3,2.3,0,0,0,8.042,6.845Zm6.893,1.723H1.149A1.149,1.149,0,0,0,0,9.717v1.149a1.149,1.149,0,0,0,1.149,1.149H14.935a1.149,1.149,0,0,0,1.149-1.149V9.717A1.149,1.149,0,0,0,14.935,8.569Z" transform="translate(1842.302 160.176)"/></g></g></svg>