<svg xmlns="http://www.w3.org/2000/svg" xmlns:xlink="http://www.w3.org/1999/xlink" width="164" height="164" viewBox="0 0 164 164"><defs><style>.a{fill:#fff;}.b{fill:#093d78;}.c{fill:#00efd1;}.d{filter:url(#a);}</style><filter id="a" x="0" y="0" width="164" height="164" filterUnits="userSpaceOnUse"><feOffset dy="2" input="SourceAlpha"/><feGaussianBlur stdDeviation="3" result="b"/><feFlood flood-opacity="0.251"/><feComposite operator="in" in2="b"/><feComposite in="SourceGraphic"/></filter></defs><g transform="translate(-1049 -11582)"><g class="d" transform="matrix(1, 0, 0, 1, 1049, 11582)"><circle class="a" cx="73" cy="73" r="73" transform="translate(9 7)"/></g><g transform="translate(521.182 11485.247)"><path class="b" d="M598.693,203.348c-1.688,2.472-4.986,1.728-6.707-.214a4.662,4.662,0,0,1-1.237-3.334c.009-.355.233-.654.208-1.046-2.034,1.479-3.958,1.072-5.8-.314-1.582-1.193-2.109-2.894-1.657-5.292a4.733,4.733,0,0,1-2.03.954,5.052,5.052,0,0,1-5.622-3.72,4.328,4.328,0,0,1,1.036-4.063c.782-.887,1.512-1.821,2.281-2.719.2-.238.177-.387-.018-.617-1.015-1.192-2.04-2.376-3-3.616a.657.657,0,0,1-.069-.834c.454-.843.879-1.7,1.293-2.565.157-.328.242-.328.477-.046,1.189,1.431,2.406,2.839,3.6,4.268.244.292.405.38.8.162a4.919,4.919,0,0,1,6.852,2.875,4.468,4.468,0,0,1-.566,3.975,4.592,4.592,0,0,1,5.459.79,4.534,4.534,0,0,1,1.489,5.244,4.123,4.123,0,0,1,5.164.265,4.389,4.389,0,0,1,1.841,5.245c2.506-1.456,5.345.8,5.834,2.763a2.571,2.571,0,0,1-.131,1.927c-.114.208-.065.308.106.424a4.531,4.531,0,0,0,3.408.964,2.982,2.982,0,0,0,2.037-1.835.628.628,0,0,0-.289-.71c-1.8-1.335-3.594-2.686-5.389-4.033-.792-.594-1.59-1.18-2.374-1.786a1.4,1.4,0,0,1-.22-2,1.354,1.354,0,0,1,1.985-.442c2.016,1.4,4.017,2.811,6.024,4.218l5.717,4.01a2.364,2.364,0,0,0,2.686.286,2.826,2.826,0,0,0,1.544-2.754,2.124,2.124,0,0,0-.938-1.618q-3.616-2.6-7.224-5.218-2.724-1.975-5.438-3.965a1.561,1.561,0,0,1-.411-2.284,1.761,1.761,0,0,1,2.257-.344c1.711,1.19,3.4,2.408,5.1,3.617q4.758,3.389,9.511,6.784a2.768,2.768,0,0,0,3.808-.271,2.622,2.622,0,0,0-.309-3.634c-2.624-1.859-5.224-3.754-7.839-5.627q-4.217-3.022-8.438-6.037a2.09,2.09,0,0,1-.928-2.164,1.76,1.76,0,0,1,2.758-.607c1.413.983,2.812,1.986,4.212,2.988,1.654,1.184,3.3,2.382,4.955,3.565,2.516,1.8,5.069,3.549,7.545,5.4a3.531,3.531,0,0,0,4.222-.261,3.019,3.019,0,0,0,1.048-3.27,2.574,2.574,0,0,0-.785-1.261q-4.867-4.229-9.737-8.456c-3.712-3.237-7.4-6.5-11.124-9.719-1.411-1.219-2.787-2.469-4.07-3.819a3,3,0,0,0-1.52-.748,5.937,5.937,0,0,0-4.122.13,4.711,4.711,0,0,0-2.3,2.192,7.691,7.691,0,0,0-.44,1.8,10.11,10.11,0,0,1-2.765,4.931,8.038,8.038,0,0,1-4.043,2.437,7.9,7.9,0,0,1-4.664-.133,3.231,3.231,0,0,1-1.947-2.784,2.065,2.065,0,0,1,.271-.888,12.805,12.805,0,0,0,1.26-3.572,22.7,22.7,0,0,0,.338-3.525,8.6,8.6,0,0,1,1.418-4.609c.246-.4.468-.813.7-1.22.084-.146.27-.279.187-.455s-.313-.1-.474-.1c-1.917,0-3.833,0-5.75,0a4.078,4.078,0,0,0-.417,0c-.413.046-.38-.134-.238-.415.569-1.117,1.14-2.232,1.683-3.361.149-.307.366-.31.636-.31q5.411.005,10.82.006a1.458,1.458,0,0,0,.8-.183,18.308,18.308,0,0,1,6.435-2.315,20.388,20.388,0,0,1,6.445-.108,19.4,19.4,0,0,1,3.162.651,68.986,68.986,0,0,0,6.807,1.769,18.028,18.028,0,0,0,4.041.382.771.771,0,0,1,.827.522c1.748,3.683,3.517,7.356,5.277,11.032q3.193,6.673,6.39,13.345a.985.985,0,0,1,0,.932c-.537,1.149-1.039,2.315-1.582,3.462a.633.633,0,0,0,.118.787,7.427,7.427,0,0,1,1.763,5.005c-.033,1.924-1.621,4.712-3.817,5.408a11.535,11.535,0,0,1-2.491.492c-.454.039-.465.239-.486.592a6.194,6.194,0,0,1-1.61,4.224,5.366,5.366,0,0,1-2.97,1.5,7.769,7.769,0,0,1-2.024.152c-.4-.033-.568.114-.683.511a7.408,7.408,0,0,1-2.3,3.717,5.132,5.132,0,0,1-4.827.814,6.963,6.963,0,0,1-2.23-.979c-.461-.307-.611-.181-.859.253a6.591,6.591,0,0,1-2.459,2.495,5.43,5.43,0,0,1-4.86.257,12.3,12.3,0,0,1-2.627-1.476.369.369,0,0,0-.6.1c-.241.319-.505.619-.764.925a2.871,2.871,0,0,1-3.712.471,4.246,4.246,0,0,1-2.578-4.116C598.834,203.477,598.959,203.307,598.693,203.348Z" transform="translate(2.055 1.019)"/><path class="c" d="M629.625,144.773a1.781,1.781,0,0,1,1.86,1.18c.988,2.093,1.969,4.187,2.964,6.276q2.329,4.894,4.671,9.781,2.838,5.946,5.676,11.892a1.944,1.944,0,0,1-1.073,2.593c-1.23.606-2.475,1.184-3.717,1.767a13.123,13.123,0,0,1-2.318,1.042,1.855,1.855,0,0,1-2.393-1.116q-1.793-3.767-3.58-7.538-2.656-5.575-5.321-11.147-2.163-4.534-4.323-9.071a1.938,1.938,0,0,1,1.031-2.8c1.818-.864,3.629-1.744,5.443-2.62A1.923,1.923,0,0,1,629.625,144.773Z" transform="translate(10.749 0.002)"/><path class="c" d="M587.946,149.6a2.6,2.6,0,0,1-.435,1.268c-1.684,3.523-3.385,7.038-5.063,10.562q-3.464,7.272-6.9,14.554c-.342.721-.717,1.43-1.033,2.162a1.964,1.964,0,0,1-2.766,1.053q-2.89-1.314-5.734-2.728a1.953,1.953,0,0,1-.89-2.892c1.783-3.7,3.544-7.422,5.317-11.131q3.186-6.67,6.377-13.338c.464-.972.966-1.931,1.361-2.932a2.08,2.08,0,0,1,3.058-1.151c1.877.9,3.764,1.783,5.636,2.7A1.92,1.92,0,0,1,587.946,149.6Z" transform="translate(0 0)"/></g></g></svg>