<svg xmlns="http://www.w3.org/2000/svg" xmlns:xlink="http://www.w3.org/1999/xlink" width="148" height="148" viewBox="0 0 148 148"><defs><style>.a{fill:#fff;}.b{fill:#093d78;stroke:rgba(0,0,0,0);}.c{filter:url(#a);}</style><filter id="a" x="0" y="0" width="148" height="148" filterUnits="userSpaceOnUse"><feOffset dy="2" input="SourceAlpha"/><feGaussianBlur stdDeviation="5" result="b"/><feFlood flood-opacity="0.122"/><feComposite operator="in" in2="b"/><feComposite in="SourceGraphic"/></filter></defs><g transform="translate(-1364 -8821)"><g class="c" transform="matrix(1, 0, 0, 1, 1364, 8821)"><circle class="a" cx="59" cy="59" r="59" transform="translate(15 13)"/></g><g transform="translate(1233.596 8497.516)"><path class="b" d="M239.5,406.182l-18.259-18.26,8.2-8.2a7.318,7.318,0,0,0,0-10.339l-10.756-10.757a7.317,7.317,0,0,0-10.339,0L188.992,377.98a6.821,6.821,0,0,0,0,9.635l11.109,11.11a7.32,7.32,0,0,0,10.339,0l8.2-8.205,18.259,18.26a1.837,1.837,0,0,0,2.6-2.6Zm-27.039-14.674-15.9-15.9,9.688-9.689,15.9,15.9Zm1.057-31.353a3.615,3.615,0,0,1,2.572,1.065l10.756,10.757a3.637,3.637,0,0,1,0,5.144l-2.1,2.1-15.9-15.9,2.1-2.1A3.612,3.612,0,0,1,213.518,360.155ZM202.7,396.126,191.59,385.017a3.144,3.144,0,0,1,0-4.441l2.373-2.373,15.9,15.9-2.021,2.021A3.643,3.643,0,0,1,202.7,396.126Z" transform="translate(-1.436 0)"/><g transform="translate(177.524 413.763)"><path class="b" d="M212.617,422.525H180.082a1.837,1.837,0,1,1,0-3.674h32.535a1.837,1.837,0,1,1,0,3.674Z" transform="translate(-178.245 -418.851)"/></g><g transform="translate(169.404 422.087)"><path class="b" d="M220.015,431.589H171.241a1.837,1.837,0,1,1,0-3.674h48.774a1.837,1.837,0,1,1,0,3.674Z" transform="translate(-169.404 -427.915)"/></g></g></g></svg>