<svg xmlns="http://www.w3.org/2000/svg" xmlns:xlink="http://www.w3.org/1999/xlink" width="126.576" height="124.5" viewBox="0 0 126.576 124.5"><defs><style>.a{fill:#fff;}.b{fill:#093d78;stroke:#093d78;}.c{fill:#00efd1;stroke:#00efd1;}.d{filter:url(#a);}</style><filter id="a" x="0" y="0" width="126.576" height="124.5" filterUnits="userSpaceOnUse"><feOffset input="SourceAlpha"/><feGaussianBlur stdDeviation="5" result="b"/><feFlood flood-color="#093d78" flood-opacity="0.122"/><feComposite operator="in" in2="b"/><feComposite in="SourceGraphic"/></filter></defs><g transform="translate(15 15)"><g class="d" transform="matrix(1, 0, 0, 1, -15, -15)"><ellipse class="a" cx="48.288" cy="47.25" rx="48.288" ry="47.25" transform="translate(15 15)"/></g><g transform="translate(20.058 19.239)"><path class="b" d="M736.741,426.126a2.717,2.717,0,0,1-2.6-1.434,2.64,2.64,0,0,1,.26-2.934c.223-.307.49-.742.971-.393.354.256.254.6.014.9a1.538,1.538,0,0,0,.05,2.313c.857.807,1.685.37,2.522-.121q3.364-1.97,6.757-3.887c.367-.209.806-.712,1.2-.173.414.562-.162.8-.547,1.025-2.5,1.45-4.993,2.9-7.506,4.323A5.266,5.266,0,0,1,736.741,426.126Z" transform="translate(-728.449 -401.981)"/><path class="b" d="M752.363,423.711c.039.352-.225.506-.46.654-1.754,1.1-3.515,2.188-5.27,3.285-.373.233-.726.4-1-.122-.232-.451.136-.621.411-.795,1.75-1.105,3.51-2.2,5.264-3.293C751.764,423.158,752.16,423.047,752.363,423.711Z" transform="translate(-731.317 -402.728)"/><path class="c" d="M749.735,466.919c-.544-.1-.963-.377-.917-.969a.875.875,0,0,1,1-.871.8.8,0,0,1,.785.84A.879.879,0,0,1,749.735,466.919Z" transform="translate(-732.297 -413.135)"/><path class="b" d="M783.143,432.569c-.466-.924-1.328-.553-2.013-.554Q755,431.98,728.87,432a8.607,8.607,0,0,0-1.391.045c-1.054.175-.693,1.046-.729,1.674-.032.566-.026,1.383.808,1.21,2.231-.461,2.948,1.107,3.687,2.612a2.784,2.784,0,0,0,2.945,1.634c3.192-.08,6.387-.031,9.581-.018.541,0,1.192-.173,1.259.751.2,2.811.442,5.6-2.349,7.495-.575.392-.943.845-1.554.113-.494-.591-.993-.394-1.475.091-1.717,1.733-3.453,3.446-5.166,5.182-.292.3-.861.615-.28,1.116.467.4.733-.1.993-.355,1.491-1.465,2.985-2.929,4.432-4.436.566-.589.966-.628,1.56-.023q3.657,3.732,7.39,7.391c.581.569.671.977.024,1.548-.695.613-1.318,1.307-1.966,1.972a.5.5,0,0,0-.019.764c.167.188.385.318.589.123,1.169-1.12,3.143-2.138,3.185-3.5.05-1.639.951-1.653,1.788-2.074,1.243-.624,2.538-1.144,3.8-1.732,4.622-2.153,8.66-4.859,10.467-10.028.556-1.593,1.163-2.932-.837-4.407,3.364,0,6.163-.165,8.931.051,2.354.185,3.9-.525,4.773-2.736a2.116,2.116,0,0,1,2.382-1.534C783.165,435.051,783.8,433.878,783.143,432.569Zm-17.46,10c-1.641,5.117-5.514,7.952-10.129,10.05-1.739.791-3.511,1.512-5.222,2.359a1.514,1.514,0,0,1-2.1-.342c-1.539-1.654-3.171-3.222-4.783-4.807-.5-.488-.944-.93-.135-1.5,2.706-1.921,3.174-4.652,2.814-7.7-.088-.749-.231-1.59,1.008-1.475,1.008.093,2.37-.457,2.406,1.343.023,1.1,0,2.2,0,3.664-.03.445-.136,1.255-.127,2.063.021,1.966,1.478,3.038,3.289,2.306,2.412-.977,4.759-2.116,7.143-3.165a2.006,2.006,0,0,0,1.005-1.331,7.944,7.944,0,0,1,2.31-3.417,1.7,1.7,0,0,1,2.365-.074C766.292,441.157,765.926,441.812,765.684,442.564Zm-15.135-2.542c-.091-.758.246-.883.872-.878,1.961.017,3.922.006,6.18.006-1.9,2.616-2.871,5.4-4.813,7.584-.431.484-.751,1.088-1.542.789-.748-.283-.784-.949-.752-1.6A35.019,35.019,0,0,0,750.549,440.022Zm12.274-.664a13.361,13.361,0,0,0-3.144,4.551c-.508,1.04-1.852,1.037-2.8,1.532-.657.341-1.359.6-2.041.889.973-1.568,1.554-3.276,2.449-4.806A4.339,4.339,0,0,1,762.823,439.358Zm11.45-1.191q-19.314-.209-38.631,0c-2.382.026-3.685-.743-4.37-3.044h47.38C777.964,437.432,776.652,438.192,774.273,438.168Zm5.963-4.245q-12.623.037-25.248.017-12.623,0-25.248,0c-.464,0-.928-.009-1.392-.024-.251-.008-.465-.11-.461-.392a.45.45,0,0,1,.433-.452c.461-.042.926-.061,1.389-.061q25.249,0,50.5.021c.649,0,1.822-.479,1.839.553C782.057,434.236,780.872,433.92,780.237,433.923Z" transform="translate(-726.718 -404.857)"/><path class="b" d="M782.968,396.916a4.65,4.65,0,0,1-1.832-.448,3.133,3.133,0,0,0-3.146.15c-1.813,1.031-3.7,1.939-5.456,3.059a5.835,5.835,0,0,1-4.76.857c-1.856-.428-3.815-.42-5.662-.875a6.181,6.181,0,0,0-5.52,1.138c-1.529,1.125-1.594,1.225.029,2.123,1.664.92,3.332,1.833,5.12,2.816-2.879,1.916-5.442,4.158-9.064,2.086-.783-.448-3.11.892-3.419,1.784-.066.188-.064.544.05.628,2.081,1.544,3.454,4.128,6.528,4.219a19.244,19.244,0,0,0,8.295-1.611c1.278-.552,1.427-.142,1.39,1-.061,1.912.011,3.828-.025,5.741-.019.978.4,1.251,1.281.987a13.829,13.829,0,0,1,2-.59c1.667-.231,2.4-1.21,2.843-2.78.792-2.784,1.834-5.5,2.719-8.254a3.186,3.186,0,0,1,1.591-1.927c2.421-1.368,4.787-2.834,7.193-4.231a4.383,4.383,0,0,0,2.08-2.462A2.411,2.411,0,0,0,782.968,396.916Zm-25.825,5.054a4.128,4.128,0,0,1,3.992-1.4,70.63,70.63,0,0,1,7.11,1.51c-1.612.938-3.221,1.881-4.838,2.811a.973.973,0,0,1-.995-.043C760.7,403.908,758.982,402.973,757.143,401.97Zm16.838,4.751c-1.274,3.73-2.451,7.5-3.837,11.183-.485,1.289-2.054,1.082-3.181,1.387-.47.127-.4-.448-.4-.761-.01-2.554,0-5.108-.006-7.663a1.061,1.061,0,0,1,.387-.922A42.945,42.945,0,0,1,772.872,406c.153-.08.321-.132.493-.2C773.925,405.865,774.195,406.094,773.981,406.721Zm8.8-5q-3.218,1.91-6.427,3.836c-.519.311-.9.515-1.425-.156a1.927,1.927,0,0,0-2.671-.324,53.379,53.379,0,0,0-6.074,4.062c-.139.1-.349.206-.383.343-.772,3.14-3.669,2.829-5.866,3.515-3.23,1.009-6.2.537-8.476-2.261-.261-.321-.985-.451-.609-1.047a1.5,1.5,0,0,1,1.4-.866,2.29,2.29,0,0,1,.829.243c2.433,1.315,4.487.586,6.732-.77,5.907-3.569,11.968-6.885,17.945-10.34,1.192-.689,2.3-1.08,3.546-.193.512.364,1.132.144,1.7.186.866.063,1.176.616,1.318,1.357A3.274,3.274,0,0,1,782.781,401.723Z" transform="translate(-732.207 -396.114)"/></g></g></svg>