<svg xmlns="http://www.w3.org/2000/svg" xmlns:xlink="http://www.w3.org/1999/xlink" width="106" height="106" viewBox="0 0 106 106"><defs><style>.a{fill:#fff;}.b{fill:#093d78;}.c{fill:#00efd1;}.d{fill:#f7caa5;}.e{filter:url(#a);}</style><filter id="a" x="0" y="0" width="106" height="106" filterUnits="userSpaceOnUse"><feOffset input="SourceAlpha"/><feGaussianBlur stdDeviation="3.5" result="b"/><feFlood flood-opacity="0.102"/><feComposite operator="in" in2="b"/><feComposite in="SourceGraphic"/></filter></defs><g transform="translate(-314.5 -2685.5)"><g class="e" transform="matrix(1, 0, 0, 1, 314.5, 2685.5)"><circle class="a" cx="42.5" cy="42.5" r="42.5" transform="translate(10.5 10.5)"/></g><g transform="translate(-1716.584 2092.823)"><path class="b" d="M2063.926,637q0,10.566,0,21.132,0,2.67,0,5.34,0,1.359-.006,2.717a4.322,4.322,0,0,0,.219,1.668,3.325,3.325,0,0,0,2.44,2.077,13.767,13.767,0,0,0,2.487.047l2.641-.007q10.749-.022,21.5-.007h5.375c1.292,0,2.651.122,3.7-.772a3.874,3.874,0,0,0,1.1-3.227q0-2.676,0-5.351,0-10.589,0-21.177v-2.53l1.035.743c.274.2.889.485.991.823a4.324,4.324,0,0,1,0,1.119q0,.8,0,1.594,0,2.906,0,5.813,0,5.859,0,11.72c0,1.943-.013,3.887-.012,5.83,0,1.572.175,3.133-.583,4.572a5.5,5.5,0,0,1-2.9,2.572,5.708,5.708,0,0,1-2.089.322q-1.459-.008-2.918-.015-11.812-.057-23.625-.013-2.918.011-5.836.025a5.383,5.383,0,0,1-3.809-1.4,5.453,5.453,0,0,1-1.724-3.41,27.125,27.125,0,0,1-.02-2.765q0-1.461,0-2.92.008-5.889,0-11.776l-.006-5.841q0-1.506,0-3.014l0-1.413a1.831,1.831,0,0,1,.157-1.069,3.036,3.036,0,0,1,.805-.617C2063.213,637.534,2063.566,637.262,2063.926,637Z"/><path class="b" d="M2092.218,625.095a4.49,4.49,0,0,1,.454-2.549,2.643,2.643,0,0,1,1.948-1.128,24.868,24.868,0,0,1,3.773-.057,4.21,4.21,0,0,1,2.4.562,2.625,2.625,0,0,1,1.094,2.1c.051,1.28-.049,2.582-.043,3.865,0,.627.01,1.254.012,1.881a11.092,11.092,0,0,0,.018,1.953c.094.488.546.723.919.989q.84.6,1.677,1.2,3.2,2.293,6.388,4.6c.344.247.829.517.946.959a1.179,1.179,0,0,1-.476,1.154,1.074,1.074,0,0,1-1.156-.064,19.281,19.281,0,0,1-1.62-1.156q-6.409-4.637-12.822-9.267-3.21-2.319-6.418-4.64l-3.207-2.322-1.527-1.107c-.526-.382-.88-.727-1.494-.325-1.095.716-2.129,1.55-3.187,2.32l-3.264,2.374q-3.225,2.348-6.453,4.691l-6.378,4.634c-2.124,1.543-4.214,3.151-6.379,4.634a1.351,1.351,0,0,1-1.2.331,1.094,1.094,0,0,1-.642-1.025c.035-.48.455-.792.811-1.053.552-.406,1.11-.8,1.666-1.207q3.218-2.332,6.437-4.663,6.4-4.635,12.8-9.275l3.179-2.308,1.514-1.1a4.475,4.475,0,0,1,1.427-.9,1.367,1.367,0,0,1,1.062.341c.565.384,1.111.8,1.665,1.2l3.2,2.314C2090.3,623.742,2091.24,624.446,2092.218,625.095Zm7.654,5.462q0-2.368,0-4.737c0-.375,0-.75,0-1.124a2.453,2.453,0,0,0-.054-.975c-.247-.517-1.289-.313-1.728-.316q-1.214-.011-2.429,0c-.479,0-1.271-.153-1.361.5a8.076,8.076,0,0,0,.027,1.1c0,.387-.043.785-.019,1.171.044.673.856,1,1.342,1.349Q2097.757,629.045,2099.872,630.557Z"/><path class="c" d="M2086.484,645.463l2.424,1.975-1.212,1.3-4.8,6.06-4.444,5.79-3.142,3.771h-.853l-.988-.943-1.167-.853-.269-.449v-.808l5.656-6.194Z"/><path class="b" d="M2071.459,661.827c-.007-.76.867-1.433,1.325-1.947l1.935-2.166,3.743-4.193c2.515-2.819,5-5.665,7.542-8.463.2-.224.356-.446.663-.282a7.622,7.622,0,0,1,1.086.906q.528.434,1.063.858c.211.168.639.378.578.7-.065.343-.557.763-.769,1.033l-.87,1.108-1.8,2.291q-3.505,4.473-7.009,8.947l-1.97,2.514c-.491.626-1.029,1.659-1.874,1.842-.878.19-1.608-.616-2.216-1.123C2072.2,663.274,2071.451,662.819,2071.459,661.827Zm16.7-14.484a7.053,7.053,0,0,0-.686-.619c-.2-.161-.461-.535-.724-.576-.3-.047-.517.3-.686.493q-.4.45-.794.9-1.62,1.83-3.254,3.647-3.234,3.612-6.459,7.231-.812.907-1.625,1.814l-.815.9c-.193.214-.5.471-.536.778-.062.542.864,1.005,1.218,1.307.506.432.977,1.074,1.556.4,1.062-1.23,2.021-2.569,3.026-3.847l3.028-3.845C2083.659,653.078,2086.021,650.281,2088.161,647.343Z"/><path class="d" d="M2084.329,639.313l2.2.988,1.122,1.3.494,1.212v.9l.269.808.853.4.494.314h1.077l.494-.314.718.314.359.359.269.808v.808l1.167.853.808.673.988-.853,1.167-1.257.449-1.392v-.718l-1.212-.808-.943-.269-.987-.224-.584-.4-.628-1.212-.853-1.3-1.661-.494-1.526-.718-1.212-.584h-1.885l-.808.269Z"/><path class="b" d="M2087.388,637.893a3.884,3.884,0,0,1,2.059.879,5.605,5.605,0,0,0,.938.5,6.575,6.575,0,0,0,1.071.215,3.731,3.731,0,0,1,2.3,2.209c.161.513.3,1.456,1.055,1.4.316-.022.535-.264.872-.17a2.527,2.527,0,0,1,.827.618c.315.272.633.538.944.814.26.23.632.5.689.874a1.024,1.024,0,0,1-.321.774c-.311.386-.656.749-.986,1.118q-.434.487-.871.972a4.251,4.251,0,0,1-.945.966c-.7.38-1.464-.558-1.953-.953a5.876,5.876,0,0,1-.948-.765c-.223-.284.014-.472.057-.785a.987.987,0,0,0-1.335-1.005c-.284.134-.47.553-.8.568s-.69-.462-.909-.65q-.515-.442-1.046-.866c-.223-.179-.823-.487-.8-.819s.442-.5.462-.869a1.552,1.552,0,0,0-.384-.913,5.293,5.293,0,0,0-1.369-1.39,4,4,0,0,0-1.982-.66c-.283-.018-.76.119-1.018.009-.4-.17-.005-.49.173-.648A6.474,6.474,0,0,1,2087.388,637.893Zm-2,1.337a6.2,6.2,0,0,1,2.662,2.191,4.487,4.487,0,0,1,.793,1.553c.036.279-.252.413-.23.681.019.227.249.364.411.493a4.533,4.533,0,0,0,.783.654c.285.126.464-.088.717-.2a1.788,1.788,0,0,1,1.276-.007,2.1,2.1,0,0,1,1.08.856,4.677,4.677,0,0,1,.316,1.162c.134.39,1.1,1.656,1.551,1.294a6.748,6.748,0,0,0,.7-.785c.259-.289.523-.572.787-.856.218-.235.642-.583.515-.95-.136-.39-.743-.774-1.05-1.022-.421-.341-.981-.132-1.482-.271-1.127-.313-1.166-1.349-1.622-2.234a2.33,2.33,0,0,0-1.1-1.066,19.007,19.007,0,0,1-1.871-.6,8.458,8.458,0,0,0-2.007-1.063A4.228,4.228,0,0,0,2085.385,639.23Z"/><path class="b" d="M2074.205,639.345c.517.44,1.165.88,1.327,1.585a3.893,3.893,0,0,1-.37,2.115c-.524,1.255-1.689,2.431-3.151,2.057a1.717,1.717,0,0,0,1.175.734c.562.039,1.121-.077,1.691-.015a4.948,4.948,0,0,1,2.728,1.184c.43.373.8.812,1.214,1.2q.342.324.7.634a4.116,4.116,0,0,1,.755.668.668.668,0,0,1-.452.856c-.191.009-.369-.23-.488-.342q-.4-.375-.8-.746a9.359,9.359,0,0,0-2.839-2.257,3.825,3.825,0,0,0-1.431-.215,4.179,4.179,0,0,1-1.692-.09,6.08,6.08,0,0,1-2.442-2.3c-.222-.3-.71-.863-.478-1.28s.909-.036,1.208.11a9.819,9.819,0,0,0,1.53.876,1.324,1.324,0,0,0,1.319-.567c.568-.652,1.268-2.155.519-2.871a5.381,5.381,0,0,0-1.273-.832c-.286-.148-1.182-.422-1.249-.812-.129-.753,2.218-.758,2.674-.735a3.673,3.673,0,0,1,2.8,1.433c.654.91.317,2.009.6,3.031a5.878,5.878,0,0,0,1.965,2.683c.437.414.867.835,1.3,1.248.308.291,1.168.773.96,1.271-.059.141-.289.449-.458.466s-.3-.163-.417-.272c-.567-.539-1.132-1.08-1.7-1.616a8.2,8.2,0,0,1-2.409-2.911,6.341,6.341,0,0,1-.375-1.615,4.764,4.764,0,0,0-.263-1.5A2.352,2.352,0,0,0,2074.205,639.345Z"/><path class="b" d="M2092.638,663.452c-1.182-.86-1.07-2.077-.518-3.285a3.14,3.14,0,0,1,2.684-1.945c-.307-.489-.742-.446-1.248-.422a4.936,4.936,0,0,1-1.563-.168,6.257,6.257,0,0,1-2.673-1.774q-.66-.649-1.337-1.283c-.236-.22-.474-.44-.714-.657a5.027,5.027,0,0,1-.77-.7c-.225-.317-.025-.552.213-.8.209-.219.257-.194.458,0,.216.207.427.428.648.634.953.886,1.863,1.83,2.836,2.693a3.87,3.87,0,0,0,2.752,1.015,2.663,2.663,0,0,1,1.6.249,4.8,4.8,0,0,1,1.221,1.115,8.6,8.6,0,0,1,.927,1.365c.236.441.114,1.107-.52.875-.841-.308-1.868-1.578-2.806-.889a2.654,2.654,0,0,0-.841,1.164c-.171.431-.465,1.175-.189,1.607a3.23,3.23,0,0,0,1.213.913c.314.17,1.223.449,1.348.82.257.764-2.275.729-2.684.684a3.3,3.3,0,0,1-2.583-1.659,3.11,3.11,0,0,1-.219-1.471,3.929,3.929,0,0,0-.291-1.484,7.966,7.966,0,0,0-2.219-2.542c-.438-.41-.871-.825-1.308-1.235-.263-.246-.526-.491-.793-.732-.188-.17-.522-.371-.493-.662.033-.332.468-.8.757-.521.437.415.867.854,1.306,1.273.512.488,1.023.979,1.549,1.453a9.776,9.776,0,0,1,1.42,1.419,5.642,5.642,0,0,1,1.044,3.1,1.866,1.866,0,0,0,.382,1.279A1.95,1.95,0,0,0,2092.638,663.452Z"/></g></g></svg>