<svg xmlns="http://www.w3.org/2000/svg" xmlns:xlink="http://www.w3.org/1999/xlink" width="148" height="148" viewBox="0 0 148 148"><defs><style>.a{fill:#fff;}.b{fill:#093d78;}.c{fill:#00efd1;}.d{filter:url(#a);}</style><filter id="a" x="0" y="0" width="148" height="148" filterUnits="userSpaceOnUse"><feOffset dy="2" input="SourceAlpha"/><feGaussianBlur stdDeviation="5" result="b"/><feFlood flood-opacity="0.122"/><feComposite operator="in" in2="b"/><feComposite in="SourceGraphic"/></filter></defs><g transform="translate(-512 -8317)"><g class="d" transform="matrix(1, 0, 0, 1, 512, 8317)"><circle class="a" cx="59" cy="59" r="59" transform="translate(15 13)"/></g><g transform="translate(-661.131 7929.005)"><g transform="translate(1218.131 457.119)"><path class="b" d="M1269.75,487.465h-46.062a5.563,5.563,0,0,1-5.557-5.556V456.945a5.563,5.563,0,0,1,5.557-5.556h46.062a5.563,5.563,0,0,1,5.557,5.556v24.964A5.563,5.563,0,0,1,1269.75,487.465Zm-46.062-33.606a3.09,3.09,0,0,0-3.087,3.086v24.964a3.09,3.09,0,0,0,3.087,3.086h46.062a3.09,3.09,0,0,0,3.087-3.086V456.945a3.09,3.09,0,0,0-3.087-3.086Z" transform="translate(-1218.131 -451.389)"/></g><g transform="translate(1231.196 431.199)"><path class="b" d="M1257.785,439.789h-26.967a2.109,2.109,0,0,1-2.107-2.107v-5.177a2.109,2.109,0,0,1,2.107-2.107h26.967a2.109,2.109,0,0,1,2.107,2.107v5.177A2.109,2.109,0,0,1,1257.785,439.789Zm-26.6-2.47h26.241v-4.451h-26.241Z" transform="translate(-1228.711 -430.399)"/></g><rect class="b" width="54.21" height="5.793" transform="translate(1218.893 466.517)"/><rect class="c" width="13.833" height="7.685" rx="1.46" transform="translate(1251.585 476.863)"/><rect class="b" width="6.503" height="4.926" rx="0.455" transform="translate(1232.431 443.777)"/><rect class="b" width="6.503" height="4.926" rx="0.455" transform="translate(1239.834 443.777)"/><rect class="b" width="6.503" height="4.926" rx="0.455" transform="translate(1247.236 443.777)"/><rect class="b" width="6.503" height="4.926" rx="0.455" transform="translate(1254.639 443.777)"/><rect class="b" width="6.503" height="4.926" rx="0.455" transform="translate(1232.431 450.044)"/><rect class="b" width="6.503" height="4.926" rx="0.455" transform="translate(1239.834 450.044)"/><rect class="b" width="6.503" height="4.926" rx="0.455" transform="translate(1247.236 450.044)"/><rect class="b" width="6.503" height="4.926" rx="0.455" transform="translate(1254.639 450.044)"/><g transform="translate(1226.939 426.995)"><path class="b" d="M1227.734,457.887h-2.47V432.831A5.842,5.842,0,0,1,1231.1,427h27.982a5.842,5.842,0,0,1,5.836,5.836v25h-2.47v-25a3.37,3.37,0,0,0-3.366-3.366H1231.1a3.37,3.37,0,0,0-3.366,3.366Z" transform="translate(-1225.264 -426.995)"/></g></g></g></svg>