<svg xmlns="http://www.w3.org/2000/svg" xmlns:xlink="http://www.w3.org/1999/xlink" width="106" height="106" viewBox="0 0 106 106"><defs><style>.a{fill:#fff;}.b{fill:#093d78;}.c{fill:#00efd1;}.d{filter:url(#a);}</style><filter id="a" x="0" y="0" width="106" height="106" filterUnits="userSpaceOnUse"><feOffset input="SourceAlpha"/><feGaussianBlur stdDeviation="3.5" result="b"/><feFlood flood-opacity="0.102"/><feComposite operator="in" in2="b"/><feComposite in="SourceGraphic"/></filter></defs><g transform="translate(-788.5 -2685.5)"><g class="d" transform="matrix(1, 0, 0, 1, 788.5, 2685.5)"><circle class="a" cx="42.5" cy="42.5" r="42.5" transform="translate(10.5 10.5)"/></g><g transform="translate(245.182 2573.248)"><path class="b" d="M591.589,186.9c-1.166,1.708-3.445,1.194-4.634-.148a3.22,3.22,0,0,1-.855-2.3c.007-.246.161-.452.144-.723a3.076,3.076,0,0,1-4.006-.217,3.362,3.362,0,0,1-1.145-3.656,3.27,3.27,0,0,1-1.4.659,3.49,3.49,0,0,1-3.884-2.57,2.99,2.99,0,0,1,.716-2.807c.54-.613,1.044-1.258,1.576-1.879.14-.164.122-.268-.012-.426-.7-.824-1.409-1.641-2.072-2.5a.454.454,0,0,1-.048-.576c.314-.582.608-1.175.893-1.772.108-.227.167-.227.329-.032.821.989,1.662,1.962,2.486,2.949.168.2.28.263.55.112A3.4,3.4,0,0,1,584.96,173a3.087,3.087,0,0,1-.391,2.746,3.172,3.172,0,0,1,3.772.546,3.133,3.133,0,0,1,1.029,3.623,2.848,2.848,0,0,1,3.568.183,3.032,3.032,0,0,1,1.272,3.624c1.731-1.006,3.693.553,4.03,1.909a1.776,1.776,0,0,1-.09,1.331c-.079.144-.045.213.073.293a3.131,3.131,0,0,0,2.354.666,2.06,2.06,0,0,0,1.407-1.268.434.434,0,0,0-.2-.49c-1.246-.922-2.483-1.856-3.723-2.786-.547-.411-1.1-.815-1.64-1.234a.968.968,0,0,1-.152-1.383.936.936,0,0,1,1.371-.305c1.393.964,2.775,1.942,4.162,2.914l3.95,2.771a1.633,1.633,0,0,0,1.856.2,1.952,1.952,0,0,0,1.067-1.9,1.467,1.467,0,0,0-.648-1.118q-2.5-1.8-4.991-3.6-1.882-1.365-3.757-2.739A1.078,1.078,0,0,1,599,175.4a1.216,1.216,0,0,1,1.559-.237c1.182.822,2.352,1.664,3.524,2.5q3.287,2.341,6.571,4.687a1.912,1.912,0,0,0,2.631-.187,1.811,1.811,0,0,0-.214-2.51c-1.813-1.284-3.609-2.593-5.415-3.887q-2.913-2.088-5.829-4.171a1.444,1.444,0,0,1-.641-1.5,1.216,1.216,0,0,1,1.905-.42c.976.679,1.943,1.372,2.91,2.064,1.143.818,2.28,1.646,3.423,2.463,1.738,1.242,3.5,2.452,5.213,3.733a2.44,2.44,0,0,0,2.917-.181,2.086,2.086,0,0,0,.724-2.259,1.778,1.778,0,0,0-.542-.871q-3.363-2.922-6.727-5.842c-2.564-2.236-5.112-4.49-7.685-6.715-.975-.842-1.926-1.706-2.812-2.638a2.07,2.07,0,0,0-1.05-.517,4.1,4.1,0,0,0-2.848.09,3.255,3.255,0,0,0-1.587,1.514,5.312,5.312,0,0,0-.3,1.246,6.984,6.984,0,0,1-1.91,3.407,5.553,5.553,0,0,1-2.793,1.683,5.461,5.461,0,0,1-3.222-.092,2.232,2.232,0,0,1-1.345-1.923,1.426,1.426,0,0,1,.187-.613,8.843,8.843,0,0,0,.87-2.468,15.688,15.688,0,0,0,.233-2.436,5.941,5.941,0,0,1,.98-3.184c.17-.275.323-.562.486-.842.058-.1.186-.193.129-.315s-.216-.069-.328-.069c-1.324,0-2.648,0-3.973,0a2.809,2.809,0,0,0-.288,0c-.285.032-.263-.093-.164-.287.393-.772.787-1.542,1.163-2.322.1-.212.253-.214.439-.214q3.738,0,7.475,0a1.007,1.007,0,0,0,.55-.126,12.648,12.648,0,0,1,4.446-1.6,14.085,14.085,0,0,1,4.452-.075,13.4,13.4,0,0,1,2.184.45,47.658,47.658,0,0,0,4.7,1.222,12.455,12.455,0,0,0,2.792.264.533.533,0,0,1,.572.36c1.208,2.545,2.43,5.082,3.646,7.622q2.206,4.61,4.414,9.22a.68.68,0,0,1,0,.644c-.371.794-.718,1.6-1.093,2.392a.437.437,0,0,0,.081.544,5.131,5.131,0,0,1,1.218,3.458,4.4,4.4,0,0,1-2.637,3.736,7.969,7.969,0,0,1-1.721.34c-.314.027-.321.165-.336.409a4.279,4.279,0,0,1-1.113,2.918,3.707,3.707,0,0,1-2.052,1.037,5.368,5.368,0,0,1-1.4.105c-.277-.023-.393.079-.472.353a5.118,5.118,0,0,1-1.587,2.568,3.545,3.545,0,0,1-3.335.562,4.81,4.81,0,0,1-1.54-.677c-.319-.212-.422-.125-.594.175a4.552,4.552,0,0,1-1.7,1.724,3.751,3.751,0,0,1-3.358.177,8.49,8.49,0,0,1-1.815-1.02.255.255,0,0,0-.416.068c-.167.22-.349.428-.528.639a1.983,1.983,0,0,1-2.564.325,2.933,2.933,0,0,1-1.781-2.844C591.687,186.993,591.773,186.876,591.589,186.9Z" transform="translate(-1.949 -0.966)"/><path class="c" d="M627.211,144.769a1.23,1.23,0,0,1,1.285.815c.682,1.446,1.361,2.893,2.048,4.336q1.609,3.381,3.227,6.757,1.961,4.108,3.921,8.216a1.343,1.343,0,0,1-.742,1.792c-.85.419-1.71.818-2.568,1.221a9.065,9.065,0,0,1-1.6.72,1.281,1.281,0,0,1-1.653-.771q-1.239-2.6-2.473-5.208-1.835-3.852-3.676-7.7-1.494-3.132-2.987-6.267a1.339,1.339,0,0,1,.712-1.934c1.256-.6,2.507-1.2,3.76-1.81A1.329,1.329,0,0,1,627.211,144.769Z" transform="translate(-10.195 -0.002)"/><path class="c" d="M580.8,148.1a1.8,1.8,0,0,1-.3.876c-1.164,2.434-2.339,4.862-3.5,7.3q-2.393,5.024-4.769,10.055c-.236.5-.5.988-.713,1.494a1.357,1.357,0,0,1-1.911.728q-2-.908-3.961-1.885a1.349,1.349,0,0,1-.615-2c1.232-2.56,2.449-5.127,3.673-7.69q2.2-4.608,4.405-9.215c.32-.672.668-1.334.94-2.026a1.437,1.437,0,0,1,2.113-.795c1.3.624,2.6,1.232,3.894,1.863A1.326,1.326,0,0,1,580.8,148.1Z"/></g></g></svg>