<svg xmlns="http://www.w3.org/2000/svg" xmlns:xlink="http://www.w3.org/1999/xlink" width="148" height="148" viewBox="0 0 148 148"><defs><style>.a{fill:#fff;}.b{fill:#00efd1;}.c{fill:#093d78;}.d{filter:url(#a);}</style><filter id="a" x="0" y="0" width="148" height="148" filterUnits="userSpaceOnUse"><feOffset dy="2" input="SourceAlpha"/><feGaussianBlur stdDeviation="5" result="b"/><feFlood flood-opacity="0.122"/><feComposite operator="in" in2="b"/><feComposite in="SourceGraphic"/></filter></defs><g transform="translate(-768 -8317)"><g class="d" transform="matrix(1, 0, 0, 1, 768, 8317)"><circle class="a" cx="59" cy="59" r="59" transform="translate(15 13)"/></g><g transform="translate(-1022.401 7996.719)"><g transform="translate(1839.163 367.042)"><ellipse class="b" cx="23.847" cy="23.847" rx="23.847" ry="23.847" transform="translate(1.392 1.391)"/><path class="c" d="M1881.936,436.195a25.239,25.239,0,1,1,25.238-25.24A25.267,25.267,0,0,1,1881.936,436.195Zm0-47.694a22.455,22.455,0,1,0,22.455,22.455A22.481,22.481,0,0,0,1881.936,388.5Z" transform="translate(-1856.696 -385.717)"/></g><g transform="translate(1855.884 381.191)"><path class="c" d="M1847.14,381.3h14.038v.03a21.73,21.73,0,0,1-1.4,2.043h-3.75a4.907,4.907,0,0,1,1.05,2.2h4c.048.01.073.03.073.059q-1.342,2.012-1.371,2.012h-2.6a5.94,5.94,0,0,1-.992,2.5,6.087,6.087,0,0,1-2.29,1.911,9.049,9.049,0,0,1-3.911.978v.03q0,.146,8.449,10.024h-3.72q-8.23-9.587-8.23-9.631v-1.941l.03-.073a12.3,12.3,0,0,0,1.707.1q4.611,0,5.734-2.992a2.411,2.411,0,0,0,.176-.9h-8.347a.051.051,0,0,1-.058-.058q1.385-2.015,1.415-2.014h6.625v-.03a3.888,3.888,0,0,0-2.2-1.794,6.85,6.85,0,0,0-2.1-.379h-3.706V383.3Q1847.1,381.3,1847.14,381.3Z" transform="translate(-1845.725 -381.299)"/></g></g></g></svg>