<svg xmlns="http://www.w3.org/2000/svg" xmlns:xlink="http://www.w3.org/1999/xlink" width="148" height="148" viewBox="0 0 148 148"><defs><style>.a{fill:#fff;}.b{fill:#093d78;}.c{filter:url(#a);}</style><filter id="a" x="0" y="0" width="148" height="148" filterUnits="userSpaceOnUse"><feOffset dy="2" input="SourceAlpha"/><feGaussianBlur stdDeviation="5" result="b"/><feFlood flood-opacity="0.122"/><feComposite operator="in" in2="b"/><feComposite in="SourceGraphic"/></filter></defs><g transform="translate(-1047 -8317)"><g class="c" transform="matrix(1, 0, 0, 1, 1047, 8317)"><circle class="a" cx="59" cy="59" r="59" transform="translate(15 13)"/></g><g transform="translate(13.489 7985.507)"><rect class="b" width="54.359" height="70.871" rx="2.857" transform="translate(1080.054 367.809)"/><g transform="translate(1083.833 388.206)"><rect class="a" width="21.156" height="21.547" rx="1.344" transform="translate(0)"/><rect class="a" width="21.156" height="21.547" rx="1.344" transform="translate(25.647)"/><rect class="a" width="21.156" height="21.547" rx="1.344" transform="translate(0 25.148)"/><rect class="a" width="21.156" height="21.547" rx="1.344" transform="translate(25.647 25.148)"/><path class="b" d="M1102.3,405.485h-4.229v-4.229a1.288,1.288,0,0,0-1.287-1.287h0a1.287,1.287,0,0,0-1.287,1.287v4.229h-4.229a1.287,1.287,0,1,0,0,2.575h4.229v4.229a1.287,1.287,0,0,0,1.287,1.287h0a1.288,1.288,0,0,0,1.287-1.287v-4.229h4.229a1.287,1.287,0,1,0,0-2.575Z" transform="translate(-1086.237 -395.999)"/><g transform="translate(28.874 31.409)"><rect class="b" width="2.782" height="14.702" rx="1.391" transform="translate(14.702 0) rotate(90)"/><rect class="b" width="2.782" height="14.702" rx="1.391" transform="translate(14.702 6.243) rotate(90)"/></g><g transform="translate(5.39 30.734)"><path class="b" d="M1099.164,440.481l2.99-2.991a1.287,1.287,0,1,0-1.821-1.82l-2.99,2.99-2.99-2.99a1.287,1.287,0,1,0-1.821,1.82l2.99,2.991-2.99,2.99a1.287,1.287,0,0,0,1.821,1.821l2.99-2.991,2.99,2.991a1.287,1.287,0,0,0,1.821-1.821Z" transform="translate(-1092.155 -435.293)"/></g><g transform="translate(29.999 4.83)"><rect class="b" width="2.575" height="13.606" rx="1.287" transform="translate(2.172 11.947) rotate(-135)"/><circle class="b" cx="2.186" cy="2.186" r="2.186"/><circle class="b" cx="2.186" cy="2.186" r="2.186" transform="translate(8.08 7.514)"/></g></g><rect class="a" width="48.614" height="13.028" rx="1.654" transform="translate(1082.927 371.432)"/></g></g></svg>