<svg xmlns="http://www.w3.org/2000/svg" xmlns:xlink="http://www.w3.org/1999/xlink" width="106" height="106" viewBox="0 0 106 106"><defs><style>.a{fill:#fff;}.b{fill:#f7caa5;}.c{fill:#00efd1;stroke:#093d78;stroke-width:2px;}.d{fill:#00acea;}.e{fill:#093d78;}.f{filter:url(#a);}</style><filter id="a" x="0" y="0" width="106" height="106" filterUnits="userSpaceOnUse"><feOffset input="SourceAlpha"/><feGaussianBlur stdDeviation="3.5" result="b"/><feFlood flood-opacity="0.102"/><feComposite operator="in" in2="b"/><feComposite in="SourceGraphic"/></filter></defs><g transform="translate(-788.5 -2430.5)"><g class="f" transform="matrix(1, 0, 0, 1, 788.5, 2430.5)"><circle class="a" cx="42.5" cy="42.5" r="42.5" transform="translate(10.5 10.5)"/></g><g transform="translate(515 859.504)"><path class="b" d="M124.988,355.618l6.614-4.946a3.453,3.453,0,0,1,4.746.447l-12.915,12.645a10.425,10.425,0,0,1-6.233,2.02l-10.843-.792a3.872,3.872,0,0,0-2.755.881l-1.916,1.556L99.85,356.939l.087-.015a10.241,10.241,0,0,1,10.28-2.852l.677.193a7.313,7.313,0,0,0,3.264.17l6.063-1.06A4.576,4.576,0,0,1,124.988,355.618Z" transform="translate(212.407 1278.331)"/><ellipse class="c" cx="12.245" cy="12.245" rx="12.245" ry="12.245" transform="translate(316.822 1598.496)"/><path class="d" d="M56.988,393.187,57.2,394.4l-6.648,1.163L48,380.973l6.648-1.163.5,2.886Z" transform="translate(257.104 1252.574)"/><path class="e" d="M219.07,207.858a.965.965,0,0,0,.965.965h3.781a1.214,1.214,0,0,1-.35.48,2.026,2.026,0,0,1-1.434.6h-2a.982.982,0,0,0-.662,1.69l4.989,4.718a.963.963,0,1,0,1.325-1.4l-3.248-3.069a3.961,3.961,0,0,0,2.391-1.165,3.853,3.853,0,0,0,1.041-1.861h1.14a.965.965,0,1,0,0-1.929h-1.142a2.667,2.667,0,0,0-.441-.965h1.583a.965.965,0,1,0,0-1.929h-6.976a.965.965,0,1,0,0,1.929h2a2.006,2.006,0,0,1,1.783.965h-3.78A.965.965,0,0,0,219.07,207.858Z" transform="translate(105.624 1400.522)"/><path class="e" d="M79.336,342.889l-5.712,4.271a5.694,5.694,0,0,0-5.186-1.78l-6.064,1.059A6.24,6.24,0,0,1,59.6,346.3l-.678-.193a11.3,11.3,0,0,0-9.915,1.835l-.172-.982a1.1,1.1,0,0,0-1.277-.9l-6.648,1.163a1.1,1.1,0,0,0-.9,1.277l2.552,14.59a1.1,1.1,0,0,0,1.277.9l6.648-1.163a1.1,1.1,0,0,0,.9-1.278l-.1-.574,1.422-1.154a2.76,2.76,0,0,1,1.97-.63l10.843.792.074,0h.069a11.6,11.6,0,0,0,6.823-2.234,1.107,1.107,0,0,0,.119-.1L85.526,345a1.1,1.1,0,0,0,.061-1.513A4.551,4.551,0,0,0,79.336,342.889ZM44.552,361.621,42.381,349.2l4.456-.783,2.13,12.29h0l.041.125Zm26.571-5.6a9.393,9.393,0,0,1-5.455,1.771h-.02l-10.8-.8a4.942,4.942,0,0,0-3.532,1.12l-.457.369-1.4-8.019a9.1,9.1,0,0,1,8.869-2.237l.678.193a8.467,8.467,0,0,0,3.756.2l6.063-1.06a3.481,3.481,0,0,1,3.617,1.7l.035.064-8.7,1.521a1.1,1.1,0,0,0,.189,2.191,1.118,1.118,0,0,0,.191-.017l9.966-1.742a1.1,1.1,0,0,0,.9-1.278,5.722,5.722,0,0,0-.246-.933l5.9-4.415.023-.018a2.344,2.344,0,0,1,2.379-.311Z" transform="translate(264 1285.239)"/></g></g></svg>