<svg xmlns="http://www.w3.org/2000/svg" xmlns:xlink="http://www.w3.org/1999/xlink" width="125.538" height="124.5" viewBox="0 0 125.538 124.5"><defs><style>.a{fill:#fff;}.b{fill:#f7caa5;}.b,.c,.d{stroke:#093d78;stroke-miterlimit:10;stroke-width:2px;}.c{fill:none;}.d{fill:#00efd1;}.e{fill:#093d78;}.f{filter:url(#a);}</style><filter id="a" x="0" y="0" width="125.538" height="124.5" filterUnits="userSpaceOnUse"><feOffset input="SourceAlpha"/><feGaussianBlur stdDeviation="5" result="b"/><feFlood flood-color="#093d78" flood-opacity="0.122"/><feComposite operator="in" in2="b"/><feComposite in="SourceGraphic"/></filter></defs><g transform="translate(15 15)"><g class="f" transform="matrix(1, 0, 0, 1, -15, -15)"><ellipse class="a" cx="47.769" cy="47.25" rx="47.769" ry="47.25" transform="translate(15 15)"/></g><g transform="translate(18.039 24.891)"><path class="b" d="M2307.617,420.914l26.745-11.547a1.85,1.85,0,0,1,1.434-.012l28.325,11.63a.3.3,0,0,1,0,.568l-28.4,11.269a2.043,2.043,0,0,1-1.547-.017l-26.554-11.181A.385.385,0,0,1,2307.617,420.914Z" transform="translate(-2304.205 -409.216)"/><path class="c" d="M2319.174,429.547v12.476a2.506,2.506,0,0,0,.739,1.79c1.78,1.752,6.935,5.713,17.149,5.713,13.053,0,14.938-6.5,14.938-6.5V430.642" transform="translate(-2306.253 -412.748)"/><ellipse class="d" cx="10.949" cy="10.949" rx="10.949" ry="10.949" transform="translate(38.921 23.796)"/><line class="c" y2="7.712" transform="translate(50.719 15.985)"/><line class="c" y2="8.729" transform="translate(4.068 12.684)"/><ellipse class="d" cx="4.068" cy="4.068" rx="4.068" ry="4.068" transform="translate(0 21.698)"/><g transform="translate(46.028 29.33)"><path class="e" d="M2359.945,444.711h6.98v.015a11.175,11.175,0,0,1-.7,1.016h-1.865a2.433,2.433,0,0,1,.522,1.1h1.988c.024,0,.037.014.037.029q-.669,1-.682,1h-1.292a2.963,2.963,0,0,1-.493,1.241,3.036,3.036,0,0,1-1.139.95,4.5,4.5,0,0,1-1.945.486v.015q0,.072,4.2,4.984h-1.85q-4.091-4.767-4.092-4.788v-.965l.015-.036a6.168,6.168,0,0,0,.849.051q2.292,0,2.851-1.487a1.188,1.188,0,0,0,.088-.45h-4.15a.026.026,0,0,1-.029-.029q.69-1,.7-1h3.294v-.015a1.933,1.933,0,0,0-1.1-.892,3.419,3.419,0,0,0-1.044-.188h-1.843v-.036Q2359.923,444.711,2359.945,444.711Z" transform="translate(-2359.241 -444.711)"/></g></g></g></svg>