<svg xmlns="http://www.w3.org/2000/svg" width="75.604" height="57.311" viewBox="0 0 75.604 57.311"><defs><style>.a{fill:#f7caa5;}.a,.b,.c{stroke:#093d78;stroke-miterlimit:10;stroke-width:2px;}.b{fill:none;}.c{fill:#00efd1;}.d{fill:#093d78;}</style></defs><g transform="translate(-2302.537 -408.205)"><path class="a" d="M2307.666,423.373l32.367-13.974a2.239,2.239,0,0,1,1.736-.015l34.279,14.075a.369.369,0,0,1,0,.687l-34.366,13.638a2.471,2.471,0,0,1-1.872-.02l-32.136-13.531A.465.465,0,0,1,2307.666,423.373Z"/><path class="b" d="M2319.174,429.547v15.1a3.033,3.033,0,0,0,.9,2.166c2.154,2.12,8.393,6.914,20.754,6.914,15.8,0,18.077-7.863,18.077-7.863v-14.99"/><circle class="c" cx="13.251" cy="13.251" r="13.251" transform="translate(2350.64 438.014)"/><line class="b" y2="9.334" transform="translate(2364.918 428.561)"/><line class="b" y2="10.564" transform="translate(2308.46 424.566)"/><circle class="c" cx="4.923" cy="4.923" r="4.923" transform="translate(2303.537 435.475)"/><path class="d" d="M2360.093,444.711h8.447v.018a13.469,13.469,0,0,1-.843,1.229h-2.257a2.949,2.949,0,0,1,.632,1.326h2.406c.029.005.044.017.044.035q-.809,1.212-.825,1.211h-1.563a3.586,3.586,0,0,1-.6,1.5,3.677,3.677,0,0,1-1.379,1.15,5.451,5.451,0,0,1-2.353.588v.018q0,.087,5.084,6.032h-2.239q-4.951-5.769-4.952-5.8v-1.168l.018-.044a7.473,7.473,0,0,0,1.027.062q2.774,0,3.45-1.8a1.445,1.445,0,0,0,.106-.545h-5.023a.031.031,0,0,1-.035-.035q.834-1.212.852-1.211h3.986v-.018a2.339,2.339,0,0,0-1.326-1.08,4.137,4.137,0,0,0-1.264-.228h-2.23v-.044Q2360.066,444.711,2360.093,444.711Z"/></g></svg>