<svg xmlns="http://www.w3.org/2000/svg" xmlns:xlink="http://www.w3.org/1999/xlink" width="148" height="148" viewBox="0 0 148 148"><defs><style>.a{fill:#fff;}.b{fill:#093d78;}.c{filter:url(#a);}</style><filter id="a" x="0" y="0" width="148" height="148" filterUnits="userSpaceOnUse"><feOffset dy="2" input="SourceAlpha"/><feGaussianBlur stdDeviation="5" result="b"/><feFlood flood-opacity="0.122"/><feComposite operator="in" in2="b"/><feComposite in="SourceGraphic"/></filter></defs><g transform="translate(-276 -7781)"><g class="c" transform="matrix(1, 0, 0, 1, 276, 7781)"><circle class="a" cx="59" cy="59" r="59" transform="translate(15 13)"/></g><g transform="translate(323 7824)"><g transform="translate(0 0)"><path class="b" d="M207.485,421.376q-8.609,0-17.217,0a6.3,6.3,0,0,1-5.072-2.212,5.206,5.206,0,0,1-1.225-3.51q0-10.892,0-21.784a5.371,5.371,0,0,1,2.333-4.531c3.365-2.536,6.69-5.125,10.032-7.691,1.934-1.485,3.84-3.008,5.814-4.439a9.263,9.263,0,0,1,10.74.058c4.507,3.385,8.955,6.849,13.426,10.282.9.689,1.785,1.39,2.684,2.077a5.014,5.014,0,0,1,1.984,4.226q0,10.892,0,21.784a5.679,5.679,0,0,1-5.517,5.7c-2.906.083-5.816.036-8.725.04q-4.626.006-9.252,0Zm-.016-3.21h5.915c3.807,0,7.613.007,11.419-.006a2.617,2.617,0,0,0,2.939-2.948c0-7.008-.011-14.016.013-21.024a2.718,2.718,0,0,0-1.173-2.372c-5.139-3.91-10.25-7.855-15.374-11.785a6.178,6.178,0,0,0-7.452-.009q-1.674,1.279-3.343,2.565-6.034,4.633-12.073,9.26a2.431,2.431,0,0,0-1.136,2.034q.017,10.951.005,21.9a2.076,2.076,0,0,0,.805,1.676,3.426,3.426,0,0,0,2.3.708Z" transform="translate(-180.3 -363.205)"/><path class="b" d="M189.543,352.328c1.545-1.014,2.857-2.119,4.218-3.156q2.769-2.11,5.52-4.243c1.8-1.393,3.156-1.418,4.969-.033q5.765,4.4,11.512,8.83t11.506,8.838a4.515,4.515,0,0,1,1.365,1.425,2.67,2.67,0,0,1-2.4,3.7,4.131,4.131,0,0,1-2.92-.972q-4.541-3.5-9.094-6.985-5.563-4.282-11.12-8.574c-1.084-.837-1.484-.835-2.579,0q-10.1,7.743-20.2,15.483a4.382,4.382,0,0,1-2.857,1.167,3.229,3.229,0,0,1-1.848-.639,2.453,2.453,0,0,1-.007-4.047c1.342-1.07,2.718-2.1,4.076-3.145.618-.477,1.226-.965,1.841-1.445a2.381,2.381,0,0,0,.962-1.972c0-2.4.029-4.8.013-7.2,0-.467.083-.631.592-.623,1.99.032,3.981.023,5.971,0,.384,0,.5.1.488.488C189.525,350.221,189.543,351.212,189.543,352.328Z" transform="translate(-174.545 -343.87)"/><path class="b" d="M250.989,424.613a1.2,1.2,0,0,1-1.044-.688,1.065,1.065,0,0,1,.254-1.285c.724-.739,1.447-1.48,2.2-2.189.322-.3.367-.5.019-.82-.741-.692-1.452-1.419-2.154-2.152a1.119,1.119,0,0,1-.116-1.668,1.132,1.132,0,0,1,1.71.04c.73.7,1.453,1.419,2.147,2.158.3.324.5.368.821.014.675-.731,1.393-1.421,2.1-2.12a1.138,1.138,0,0,1,1.708-.157,1.189,1.189,0,0,1-.1,1.76c-.724.739-1.453,1.474-2.2,2.192-.253.244-.27.4,0,.654.738.7,1.451,1.42,2.164,2.142a1.188,1.188,0,0,1,.157,1.759,1.146,1.146,0,0,1-1.753-.126c-.714-.693-1.434-1.383-2.109-2.114-.331-.358-.514-.3-.816.024-.678.729-1.4,1.415-2.1,2.125A1.451,1.451,0,0,1,250.989,424.613Z" transform="translate(-220.526 -387.576)"/><path class="b" d="M211.5,420.286c-.41,0-.821.019-1.23,0a1.119,1.119,0,0,1,0-2.237c.819-.03,1.64-.026,2.459-.008.335.007.439-.1.431-.434-.019-.761-.012-1.523,0-2.284.011-.8.441-1.278,1.13-1.286.718-.008,1.163.477,1.175,1.3.011.722.024,1.445,0,2.166-.015.4.086.555.513.536.74-.033,1.483-.018,2.225-.006a1.135,1.135,0,1,1,.01,2.257c-.761.012-1.523.02-2.284,0-.365-.011-.472.121-.462.473.021.741.013,1.483,0,2.225a1.2,1.2,0,0,1-1.167,1.338,1.164,1.164,0,0,1-1.125-1.255c-.039-.779-.029-1.562-.012-2.342.007-.327-.087-.459-.428-.438-.409.025-.82.006-1.23.006Z" transform="translate(-195.685 -386.724)"/><path class="b" d="M214.293,463.485c1.207,0,2.415,0,3.622,0a2.17,2.17,0,0,1,.8.107,1.113,1.113,0,0,1,0,2.1,1.95,1.95,0,0,1-.745.114q-3.651-.006-7.3,0c-.117,0-.234,0-.35-.007a1.15,1.15,0,1,1,.059-2.3c1.3-.018,2.609-.005,3.914-.005Z" transform="translate(-195.688 -416.927)"/><path class="b" d="M253.574,457.656c1.248,0,2.5-.009,3.744,0,.868.008,1.341.417,1.343,1.122s-.481,1.139-1.328,1.142q-3.8.012-7.605,0c-.841,0-1.357-.446-1.361-1.128s.492-1.126,1.346-1.135C251,457.646,252.286,457.656,253.574,457.656Z" transform="translate(-219.634 -413.365)"/><path class="b" d="M253.492,471.69c-1.268,0-2.535.005-3.8,0-.819-.005-1.343-.473-1.323-1.159.019-.668.519-1.1,1.323-1.1q3.832-.01,7.663,0c.847,0,1.321.44,1.306,1.157-.014.682-.489,1.093-1.306,1.1C256.066,471.7,254.779,471.689,253.492,471.69Z" transform="translate(-219.633 -420.556)"/><path class="b" d="M221.731,474.926a1.152,1.152,0,1,1-1.184-1.137A1.194,1.194,0,0,1,221.731,474.926Z" transform="translate(-201.958 -423.22)"/><path class="b" d="M220.567,455.511a1.141,1.141,0,1,1,1.165-1.144A1.168,1.168,0,0,1,220.567,455.511Z" transform="translate(-201.961 -410.664)"/></g></g></g></svg>