<svg xmlns="http://www.w3.org/2000/svg" xmlns:xlink="http://www.w3.org/1999/xlink" width="144.734" height="144.734" viewBox="0 0 144.734 144.734"><defs><style>.a{fill:#fff;}.b{fill:#093d78;}.c{fill:#00efd1;}.d{filter:url(#a);}</style><filter id="a" x="0" y="0" width="144.734" height="144.734" filterUnits="userSpaceOnUse"><feOffset input="SourceAlpha"/><feGaussianBlur stdDeviation="3.5" result="b"/><feFlood flood-opacity="0.102"/><feComposite operator="in" in2="b"/><feComposite in="SourceGraphic"/></filter></defs><g transform="translate(-505.5 -10245.5)"><g class="d" transform="matrix(1, 0, 0, 1, 505.5, 10245.5)"><circle class="a" cx="61.867" cy="61.867" r="61.867" transform="translate(10.5 10.5)"/></g><g transform="translate(-20.818 10149.247)"><path class="b" d="M592.954,190.064c-1.266,1.855-3.741,1.3-5.032-.161a3.5,3.5,0,0,1-.928-2.5c.007-.267.175-.49.156-.785a3.341,3.341,0,0,1-4.35-.235c-1.187-.9-1.582-2.171-1.243-3.97a3.551,3.551,0,0,1-1.523.716,3.791,3.791,0,0,1-4.218-2.791,3.247,3.247,0,0,1,.778-3.048c.587-.665,1.134-1.366,1.711-2.04.152-.178.133-.291-.013-.463-.762-.894-1.53-1.783-2.25-2.713a.493.493,0,0,1-.052-.626c.341-.632.66-1.276.97-1.924.118-.246.182-.246.358-.035.892,1.074,1.8,2.13,2.7,3.2.183.219.3.285.6.121a3.69,3.69,0,0,1,5.141,2.157,3.352,3.352,0,0,1-.424,2.982,3.445,3.445,0,0,1,4.1.593,3.4,3.4,0,0,1,1.117,3.934,3.093,3.093,0,0,1,3.875.2,3.293,3.293,0,0,1,1.381,3.935c1.88-1.092,4.01.6,4.377,2.073a1.929,1.929,0,0,1-.1,1.446c-.086.156-.049.231.079.318a3.4,3.4,0,0,0,2.557.723,2.237,2.237,0,0,0,1.528-1.377.471.471,0,0,0-.217-.532c-1.353-1-2.7-2.015-4.043-3.026-.594-.446-1.193-.886-1.781-1.34a1.051,1.051,0,0,1-.165-1.5,1.016,1.016,0,0,1,1.489-.332c1.512,1.047,3.014,2.109,4.519,3.165l4.289,3.009a1.773,1.773,0,0,0,2.015.215,2.12,2.12,0,0,0,1.158-2.066,1.593,1.593,0,0,0-.7-1.214q-2.713-1.953-5.42-3.915-2.044-1.482-4.08-2.975a1.171,1.171,0,0,1-.309-1.714,1.321,1.321,0,0,1,1.693-.258c1.284.893,2.554,1.807,3.827,2.714q3.57,2.543,7.136,5.09a2.077,2.077,0,0,0,2.857-.2,1.967,1.967,0,0,0-.232-2.726c-1.969-1.395-3.919-2.816-5.881-4.222q-3.164-2.267-6.331-4.529a1.568,1.568,0,0,1-.7-1.624,1.32,1.32,0,0,1,2.069-.456c1.06.738,2.11,1.49,3.16,2.242,1.241.888,2.476,1.787,3.718,2.674,1.888,1.349,3.8,2.663,5.661,4.054a2.65,2.65,0,0,0,3.168-.2,2.265,2.265,0,0,0,.786-2.453,1.931,1.931,0,0,0-.589-.946q-3.652-3.173-7.305-6.344c-2.785-2.428-5.551-4.876-8.346-7.292-1.058-.915-2.091-1.852-3.053-2.865a2.248,2.248,0,0,0-1.141-.561,4.454,4.454,0,0,0-3.093.1,3.534,3.534,0,0,0-1.724,1.644,5.773,5.773,0,0,0-.33,1.354,7.584,7.584,0,0,1-2.074,3.7,6.03,6.03,0,0,1-3.034,1.828,5.93,5.93,0,0,1-3.5-.1,2.424,2.424,0,0,1-1.461-2.089,1.549,1.549,0,0,1,.2-.666,9.606,9.606,0,0,0,.945-2.68,17.039,17.039,0,0,0,.253-2.645,6.452,6.452,0,0,1,1.064-3.458c.185-.3.351-.61.528-.915.063-.11.2-.21.14-.342s-.235-.075-.356-.075c-1.438,0-2.876,0-4.314,0a3.053,3.053,0,0,0-.313,0c-.309.035-.285-.1-.178-.311.427-.838.855-1.675,1.263-2.522.111-.23.275-.233.477-.233q4.06,0,8.118,0a1.094,1.094,0,0,0,.6-.137,13.736,13.736,0,0,1,4.828-1.737,15.3,15.3,0,0,1,4.835-.081,14.558,14.558,0,0,1,2.372.489,51.756,51.756,0,0,0,5.107,1.327,13.526,13.526,0,0,0,3.032.286.578.578,0,0,1,.621.391c1.312,2.764,2.639,5.519,3.959,8.277q2.4,5.007,4.794,10.013a.739.739,0,0,1,0,.7c-.4.862-.779,1.737-1.187,2.6a.475.475,0,0,0,.088.59,5.572,5.572,0,0,1,1.323,3.755,4.773,4.773,0,0,1-2.863,4.057,8.654,8.654,0,0,1-1.869.369c-.341.029-.349.179-.365.444a4.647,4.647,0,0,1-1.208,3.169,4.026,4.026,0,0,1-2.228,1.126,5.83,5.83,0,0,1-1.519.114c-.3-.025-.426.086-.513.383a5.558,5.558,0,0,1-1.724,2.789,3.85,3.85,0,0,1-3.621.611,5.224,5.224,0,0,1-1.673-.735c-.346-.23-.458-.136-.645.19a4.944,4.944,0,0,1-1.845,1.872,4.073,4.073,0,0,1-3.646.193,9.22,9.22,0,0,1-1.971-1.108.277.277,0,0,0-.452.074c-.181.239-.379.465-.573.694a2.154,2.154,0,0,1-2.785.353,3.186,3.186,0,0,1-1.934-3.088C593.061,190.161,593.154,190.033,592.954,190.064Z" transform="translate(-1.18 -0.585)"/><path class="c" d="M627.675,144.77a1.336,1.336,0,0,1,1.4.886c.741,1.57,1.478,3.142,2.224,4.708q1.747,3.672,3.5,7.338,2.13,4.461,4.258,8.922a1.459,1.459,0,0,1-.805,1.946c-.923.455-1.857.888-2.789,1.326a9.844,9.844,0,0,1-1.739.782,1.392,1.392,0,0,1-1.8-.837q-1.346-2.826-2.686-5.656-1.993-4.183-3.992-8.363-1.622-3.4-3.243-6.806a1.454,1.454,0,0,1,.773-2.1c1.364-.648,2.722-1.308,4.083-1.965A1.443,1.443,0,0,1,627.675,144.77Z" transform="translate(-6.17 -0.001)"/><path class="c" d="M582.17,148.392a1.952,1.952,0,0,1-.326.952c-1.264,2.643-2.54,5.28-3.8,7.924q-2.6,5.456-5.179,10.919c-.257.541-.538,1.073-.775,1.622a1.473,1.473,0,0,1-2.075.79q-2.168-.986-4.3-2.047a1.465,1.465,0,0,1-.668-2.17c1.338-2.78,2.659-5.568,3.989-8.351q2.39-5,4.784-10.007c.348-.729.725-1.449,1.021-2.2a1.561,1.561,0,0,1,2.294-.863c1.408.678,2.824,1.338,4.229,2.023A1.44,1.44,0,0,1,582.17,148.392Z" transform="translate(0 0)"/></g></g></svg>