<svg xmlns="http://www.w3.org/2000/svg" xmlns:xlink="http://www.w3.org/1999/xlink" width="124.5" height="124.5" viewBox="0 0 124.5 124.5"><defs><style>.a{fill:#fff;}.b{fill:#093d78;}.c{filter:url(#a);}</style><filter id="a" x="0" y="0" width="124.5" height="124.5" filterUnits="userSpaceOnUse"><feOffset input="SourceAlpha"/><feGaussianBlur stdDeviation="5" result="b"/><feFlood flood-color="#093d78" flood-opacity="0.122"/><feComposite operator="in" in2="b"/><feComposite in="SourceGraphic"/></filter></defs><g transform="translate(15 15)"><g class="c" transform="matrix(1, 0, 0, 1, -15, -15)"><ellipse class="a" cx="47.25" cy="47.25" rx="47.25" ry="47.25" transform="translate(15 15)"/></g><path class="b" d="M1674.579,435.754,1648.7,468.339l-.208-.109,11.2-24.44h-13.537c-.161-.631.212-.978.4-1.359,4.145-8.317,8.326-16.618,12.442-24.95a1.86,1.86,0,0,1,1.988-1.233c3.408.071,6.817.028,10.432.028-.6,1.026-1.083,1.854-1.578,2.672q-4.754,7.832-9.507,15.663c-.182.3-.59.6-.4.963.2.394.673.166,1.014.168C1665.38,435.76,1669.819,435.754,1674.579,435.754Z" transform="translate(-1612.774 -391.232)"/></g></svg>