<svg xmlns="http://www.w3.org/2000/svg" width="71.082" height="79.658" viewBox="0 0 71.082 79.658"><defs><style>.a{fill:#f7caa5;}.b{fill:#00efd1;stroke:#093d78;stroke-width:2px;}.c{fill:#00acea;}.d{fill:#093d78;}</style></defs><g transform="translate(-304 -1597.496)"><path class="a" d="M138.816,358.747l10.251-7.666a5.352,5.352,0,0,1,7.356.693l-20.02,19.6a16.16,16.16,0,0,1-9.661,3.131l-16.808-1.227a6,6,0,0,0-4.27,1.366l-2.97,2.412L99.85,360.794l.135-.024a15.873,15.873,0,0,1,15.935-4.42l1.05.3a11.335,11.335,0,0,0,5.059.263l9.4-1.642A7.093,7.093,0,0,1,138.816,358.747Z" transform="translate(216.948 1294.704)"/><ellipse class="b" cx="18.98" cy="18.98" rx="18.98" ry="18.98" transform="translate(323.875 1598.496)"/><path class="c" d="M61.932,400.546l.329,1.88-10.3,1.8L48,381.613l10.3-1.8.783,4.473Z" transform="translate(257.711 1271.214)"/><path class="d" d="M219.07,209.98a1.5,1.5,0,0,0,1.5,1.5h5.861a1.882,1.882,0,0,1-.543.745,3.14,3.14,0,0,1-2.222.937h-3.095a1.523,1.523,0,0,0-1.027,2.62l7.734,7.314a1.493,1.493,0,1,0,2.054-2.168l-5.035-4.756A6.14,6.14,0,0,0,228,214.36a5.971,5.971,0,0,0,1.614-2.884h1.767a1.5,1.5,0,1,0,0-2.99h-1.77a4.135,4.135,0,0,0-.684-1.5h2.454a1.5,1.5,0,1,0,0-2.99H220.565a1.5,1.5,0,1,0,0,2.99h3.095a3.109,3.109,0,0,1,2.764,1.5h-5.859A1.5,1.5,0,0,0,219.07,209.98Z" transform="translate(117.007 1403.836)"/><path class="d" d="M100.974,343.424l-8.854,6.621a8.826,8.826,0,0,0-8.039-2.759l-9.4,1.641a9.673,9.673,0,0,1-4.3-.223l-1.051-.3a17.508,17.508,0,0,0-15.369,2.844l-.266-1.523a1.711,1.711,0,0,0-1.98-1.39l-10.305,1.8a1.711,1.711,0,0,0-1.39,1.98l3.956,22.615a1.711,1.711,0,0,0,1.98,1.39l10.3-1.8a1.711,1.711,0,0,0,1.39-1.981l-.156-.89,2.2-1.79a4.278,4.278,0,0,1,3.053-.977l16.808,1.228c.038,0,.076,0,.114,0h.107a17.985,17.985,0,0,0,10.577-3.463,1.712,1.712,0,0,0,.185-.157l20.02-19.6a1.71,1.71,0,0,0,.094-2.345A7.055,7.055,0,0,0,100.974,343.424ZM47.057,372.459,43.69,353.213,50.6,352l3.3,19.051h0l.063.194Zm41.187-8.678a14.56,14.56,0,0,1-8.456,2.746h-.031l-16.748-1.239a7.66,7.66,0,0,0-5.474,1.737l-.709.572-2.174-12.431A14.1,14.1,0,0,1,68.4,351.7l1.05.3a13.125,13.125,0,0,0,5.822.3l9.4-1.643a5.4,5.4,0,0,1,5.607,2.639l.055.1-13.49,2.357a1.711,1.711,0,0,0,.293,3.4,1.731,1.731,0,0,0,.3-.026l15.448-2.7a1.711,1.711,0,0,0,1.39-1.981,8.871,8.871,0,0,0-.381-1.446l9.151-6.843.035-.028a3.633,3.633,0,0,1,3.687-.482Z" transform="translate(264 1301.005)"/></g></svg>