<svg xmlns="http://www.w3.org/2000/svg" width="65.983" height="64.257" viewBox="0 0 65.983 64.257"><defs><style>.a{fill:#00efd1;stroke-width:1.8px;}.a,.b,.d{stroke:#093d78;}.a,.b{stroke-miterlimit:10;}.b{fill:none;stroke-linecap:round;stroke-width:2px;}.c,.d{fill:#093d78;}.d{stroke-width:0.5px;}</style></defs><g transform="translate(-1378.062 -142.388)"><circle class="a" cx="12.315" cy="12.315" r="12.315" transform="translate(1418.515 167.718)"/><line class="b" x2="31.41" transform="translate(1397.223 152.108)"/><line class="b" x2="31.41" transform="translate(1397.223 160.732)"/><path class="c" d="M1418.4,166.745h-22.919a1.108,1.108,0,0,0,0,2.217h20.464A12.332,12.332,0,0,1,1418.4,166.745Z" transform="translate(1.74 1.503)"/><path class="c" d="M1413.9,171.819h-18.422a1.108,1.108,0,0,0,0,2.217h17.775A12.2,12.2,0,0,1,1413.9,171.819Z" transform="translate(1.74 5.052)"/><path class="d" d="M1436.261,166.726a12.381,12.381,0,0,1,2.124,1.932h.093v-25.02h-52.714v53.724h2.217V145.855h48.28Z" transform="translate(0.807 -1)"/><path class="d" d="M1437.068,189.047V192.6a6.817,6.817,0,0,1-13.633.079v-1.1l-45.123-.014v1.344A8.7,8.7,0,0,0,1387,201.6h42.484q.379.032.767.032a9.044,9.044,0,0,0,9.033-9.033v-5.014A6.787,6.787,0,0,1,1437.068,189.047ZM1387,199.386a6.482,6.482,0,0,1-6.414-5.6h40.7a8.918,8.918,0,0,0,2.984,5.6Z" transform="translate(0 4.76)"/><path class="c" d="M7.9,8.907l6.2,6.2a.766.766,0,0,1,0,1.083l-.723.723a.766.766,0,0,1-1.081,0L7.363,12,2.427,16.914a.766.766,0,0,1-1.081,0L.622,16.19a.766.766,0,0,1,0-1.083l6.2-6.2A.766.766,0,0,1,7.9,8.907Z" transform="translate(1423.467 167.123)"/></g></svg>