<svg xmlns="http://www.w3.org/2000/svg" width="24.919" height="23.996" viewBox="0 0 24.919 23.996"><defs><style>.a{fill:#ef0075;}.b{fill:#fff;}</style></defs><g transform="translate(0)"><rect class="a" width="24.919" height="23.996" rx="4" transform="translate(0 0)"/><path class="b" d="M7.848,6.062a4.025,4.025,0,1,0,4.025,4.025A4.019,4.019,0,0,0,7.848,6.062Zm0,6.642a2.617,2.617,0,1,1,2.617-2.617A2.621,2.621,0,0,1,7.848,12.7ZM12.976,5.9a.939.939,0,1,1-.939-.939A.937.937,0,0,1,12.976,5.9Zm2.666.953a4.646,4.646,0,0,0-1.268-3.289,4.676,4.676,0,0,0-3.289-1.268c-1.3-.074-5.181-.074-6.477,0A4.67,4.67,0,0,0,1.318,3.557,4.661,4.661,0,0,0,.05,6.847c-.074,1.3-.074,5.181,0,6.477a4.646,4.646,0,0,0,1.268,3.289,4.682,4.682,0,0,0,3.289,1.268c1.3.074,5.181.074,6.477,0a4.646,4.646,0,0,0,3.289-1.268,4.676,4.676,0,0,0,1.268-3.289c.074-1.3.074-5.177,0-6.473Zm-1.674,7.864a2.649,2.649,0,0,1-1.492,1.492,17.3,17.3,0,0,1-4.627.315,17.436,17.436,0,0,1-4.627-.315,2.649,2.649,0,0,1-1.492-1.492,17.3,17.3,0,0,1-.315-4.627A17.436,17.436,0,0,1,1.728,5.46,2.649,2.649,0,0,1,3.22,3.967a17.3,17.3,0,0,1,4.627-.315,17.436,17.436,0,0,1,4.627.315A2.649,2.649,0,0,1,13.967,5.46a17.3,17.3,0,0,1,.315,4.627A17.291,17.291,0,0,1,13.967,14.714Z" transform="translate(4.74 2.198)"/></g></svg>