<svg xmlns="http://www.w3.org/2000/svg" width="21.834" height="21.834" viewBox="0 0 21.834 21.834"><defs><style>.a{fill:#1e60ad;}</style></defs><path class="a" d="M20.274,2.25H1.555A1.566,1.566,0,0,0,0,3.824V22.51a1.566,1.566,0,0,0,1.555,1.574h18.72a1.57,1.57,0,0,0,1.56-1.574V3.824A1.57,1.57,0,0,0,20.274,2.25ZM6.6,20.965H3.363V10.545H6.6v10.42ZM4.981,9.122A1.876,1.876,0,1,1,6.857,7.245,1.877,1.877,0,0,1,4.981,9.122ZM18.729,20.965H15.493V15.9c0-1.209-.024-2.763-1.681-2.763-1.686,0-1.945,1.316-1.945,2.676v5.156H8.631V10.545h3.1v1.423h.044a3.409,3.409,0,0,1,3.066-1.681c3.275,0,3.884,2.159,3.884,4.966Z" transform="translate(0 -2.25)"/></svg>