<svg xmlns="http://www.w3.org/2000/svg" width="24.173" height="24.173" viewBox="0 0 24.173 24.173"><defs><style>.a{fill:#e4000d;}</style></defs><path class="a" d="M24.173,12.649A12.088,12.088,0,0,1,8.509,24.195a13.586,13.586,0,0,0,1.5-3.168c.146-.565.751-2.875.751-2.875a3.237,3.237,0,0,0,2.768,1.389c3.645,0,6.272-3.353,6.272-7.52,0-3.992-3.26-6.979-7.452-6.979-5.215,0-7.988,3.5-7.988,7.315,0,1.774.945,3.982,2.451,4.684.229.107.351.058.4-.161.039-.166.244-.989.336-1.369a.362.362,0,0,0-.083-.346,4.76,4.76,0,0,1-.892-2.758,5.23,5.23,0,0,1,5.458-5.244,4.772,4.772,0,0,1,5.049,4.918c0,3.27-1.652,5.536-3.8,5.536A1.753,1.753,0,0,1,11.5,15.432a24.287,24.287,0,0,0,1-4.026,1.518,1.518,0,0,0-1.53-1.7c-1.214,0-2.188,1.253-2.188,2.934a4.355,4.355,0,0,0,.361,1.794s-1.194,5.059-1.413,6a11.7,11.7,0,0,0-.044,3.47A12.088,12.088,0,1,1,24.173,12.649Z" transform="translate(0 -0.563)"/></svg>