<svg xmlns="http://www.w3.org/2000/svg" width="24.173" height="24.173" viewBox="0 0 24.173 24.173"><defs><style>.a{fill:#fffc00;}</style></defs><path class="a" d="M12.087.563A12.087,12.087,0,1,0,24.173,12.649,12.085,12.085,0,0,0,12.087.563Zm8.261,16.517c-.171.395-.882.682-2.183.887a5.989,5.989,0,0,0-.21.775.375.375,0,0,1-.395.288h-.01c-.3,0-.624-.141-1.257-.141a2.562,2.562,0,0,0-1.823.668,3.636,3.636,0,0,1-2.4.887,3.718,3.718,0,0,1-2.364-.887,2.57,2.57,0,0,0-1.823-.668,12.423,12.423,0,0,0-1.257.151.387.387,0,0,1-.4-.292,6.119,6.119,0,0,0-.21-.78c-.673-.1-2.183-.366-2.218-1.043a.345.345,0,0,1,.288-.361A4.881,4.881,0,0,0,7.4,13.78s0-.01.01-.015a.729.729,0,0,0,.078-.609c-.166-.385-.872-.521-1.17-.643-.77-.3-.877-.653-.829-.892a.834.834,0,0,1,1.067-.5,1.836,1.836,0,0,0,.765.2.683.683,0,0,0,.322-.068A9.638,9.638,0,0,1,7.827,7.5a4.426,4.426,0,0,1,4.1-2.646l.327,0a4.387,4.387,0,0,1,4.108,2.646,9.632,9.632,0,0,1,.185,3.758.613.613,0,0,0,.278.068,1.923,1.923,0,0,0,.716-.2.89.89,0,0,1,.663,0,.678.678,0,0,1,.507.58c0,.317-.278.59-.838.809-.068.029-.151.054-.239.083-.317.1-.8.253-.926.56a.747.747,0,0,0,.078.609s0,.01.01.015a4.881,4.881,0,0,0,3.314,2.783.374.374,0,0,1,.239.526Z" transform="translate(0 -0.563)"/></svg>