<svg xmlns="http://www.w3.org/2000/svg" width="24.919" height="23.996" viewBox="0 0 24.919 23.996"><defs><style>.a{fill:#0c99f2;}.b{fill:#fff;}</style></defs><g transform="translate(0)"><rect class="a" width="24.919" height="23.996" rx="11.998" transform="translate(0 0)"/><path class="b" d="M12.751,6.257c.009.126.009.253.009.379a8.23,8.23,0,0,1-8.287,8.287A8.231,8.231,0,0,1,0,13.616a6.026,6.026,0,0,0,.7.036,5.833,5.833,0,0,0,3.616-1.244A2.918,2.918,0,0,1,1.6,10.387a3.673,3.673,0,0,0,.55.045,3.081,3.081,0,0,0,.766-.1A2.913,2.913,0,0,1,.577,7.475V7.439a2.933,2.933,0,0,0,1.317.37,2.917,2.917,0,0,1-.9-3.9A8.279,8.279,0,0,0,7,6.961a3.288,3.288,0,0,1-.072-.667A2.915,2.915,0,0,1,11.966,4.3a5.735,5.735,0,0,0,1.849-.7A2.9,2.9,0,0,1,12.534,5.2a5.839,5.839,0,0,0,1.677-.451,6.261,6.261,0,0,1-1.461,1.506Z" transform="translate(5.48 2.944)"/></g></svg>