<svg xmlns="http://www.w3.org/2000/svg" width="26.617" height="18.715" viewBox="0 0 26.617 18.715"><defs><style>.a{fill:#fe0000;}</style></defs><path class="a" d="M27.11,7.428A3.344,3.344,0,0,0,24.757,5.06c-2.076-.56-10.4-.56-10.4-.56s-8.323,0-10.4.56A3.344,3.344,0,0,0,1.606,7.428a35.084,35.084,0,0,0-.556,6.448,35.084,35.084,0,0,0,.556,6.448,3.3,3.3,0,0,0,2.353,2.331c2.076.56,10.4.56,10.4.56s8.323,0,10.4-.56a3.3,3.3,0,0,0,2.353-2.331,35.084,35.084,0,0,0,.556-6.448,35.084,35.084,0,0,0-.556-6.448ZM11.636,17.834V9.919l6.957,3.958-6.957,3.957Z" transform="translate(-1.05 -4.5)"/></svg>