<svg xmlns="http://www.w3.org/2000/svg" xmlns:xlink="http://www.w3.org/1999/xlink" width="106" height="106" viewBox="0 0 106 106"><defs><style>.a{fill:#fff;}.b{fill:#00efd1;}.c{fill:#093d78;}.d{filter:url(#a);}</style><filter id="a" x="0" y="0" width="106" height="106" filterUnits="userSpaceOnUse"><feOffset input="SourceAlpha"/><feGaussianBlur stdDeviation="3.5" result="b"/><feFlood flood-opacity="0.102"/><feComposite operator="in" in2="b"/><feComposite in="SourceGraphic"/></filter></defs><g transform="translate(-551.5 -2961.5)"><g class="d" transform="matrix(1, 0, 0, 1, 551.5, 2961.5)"><circle class="a" cx="42.5" cy="42.5" r="42.5" transform="translate(10.5 10.5)"/></g><g transform="translate(-1254.163 2627.958)"><g transform="translate(1839.163 367.042)"><ellipse class="b" cx="18.54" cy="18.54" rx="18.54" ry="18.54" transform="translate(1.082 1.082)"/><path class="c" d="M1876.319,424.96a19.622,19.622,0,1,1,19.621-19.622A19.644,19.644,0,0,1,1876.319,424.96Zm0-37.08a17.457,17.457,0,1,0,17.457,17.457A17.477,17.477,0,0,0,1876.319,387.881Z" transform="translate(-1856.696 -385.717)"/></g><g transform="translate(1852.163 378.042)"><path class="c" d="M1846.825,381.3h10.914v.023a16.857,16.857,0,0,1-1.089,1.589h-2.915a3.815,3.815,0,0,1,.816,1.712h3.108c.037.008.057.023.057.046q-1.044,1.565-1.066,1.565h-2.02a4.618,4.618,0,0,1-.771,1.94,4.734,4.734,0,0,1-1.78,1.486,7.035,7.035,0,0,1-3.04.76v.023q0,.113,6.568,7.793h-2.892q-6.4-7.453-6.4-7.488V389.24l.023-.057a9.566,9.566,0,0,0,1.327.08q3.584,0,4.458-2.326a1.874,1.874,0,0,0,.137-.7h-6.489a.04.04,0,0,1-.045-.045q1.076-1.566,1.1-1.566h5.151V384.6a3.022,3.022,0,0,0-1.714-1.395,5.326,5.326,0,0,0-1.634-.295h-2.881v-.057Q1846.79,381.3,1846.825,381.3Z" transform="translate(-1845.725 -381.299)"/></g></g></g></svg>