<svg xmlns="http://www.w3.org/2000/svg" width="79.596" height="79.867" viewBox="0 0 79.596 79.867"><defs><style>.a{fill:#093d78;}</style></defs><g transform="translate(-10.888 -142.598)"><path class="a" d="M34.664,166.032a24.818,24.818,0,0,1,2.721,2.373,2.72,2.72,0,0,1,.716,2.02c-.1.442-1.093.892-1.729.962-6.573.722-13.155,1.366-19.733,2.039-1.5.155-2.232-.507-2.082-2,.663-6.639,1.327-13.277,2.067-19.908a2.262,2.262,0,0,1,1.05-1.674,2.437,2.437,0,0,1,1.866.718,31.444,31.444,0,0,1,2.482,2.815l1.967-1.629A39.817,39.817,0,0,1,89,186.509c-.026.243-.059.486-.1.728-.163,1.077-.388,2.227-1.827,1.963-1.238-.226-1.253-1.238-1.124-2.32a36.685,36.685,0,0,0-30.237-40.726c-11.746-1.977-22.2,1.1-31.162,9.027-2.3,2.036-2.277,2.058-4.557-.022-.167-.151-.365-.268-.759-.551L17.655,170.33l15.674-1.556a7.842,7.842,0,0,0-.65-.942c-1.974-2.058-1.97-2.387.113-4.226A25.081,25.081,0,0,1,73.9,187.682c-.065.3-.171.589-.232.889-.2,1.012-.676,1.8-1.841,1.559-1.308-.272-1.28-1.28-1.025-2.32a21.666,21.666,0,0,0-2.046-16C62.062,159.475,45.122,156.4,34.664,166.032Z" transform="translate(1.268)"/><path class="a" d="M80.767,202.06l1.59-15.844-15.529,1.543c.03.251,0,.415.063.474,2.868,2.648,2.281,3.1-.449,5.344a25.077,25.077,0,0,1-40.321-24.791c.08-.358.065-.842.292-1.043a16.968,16.968,0,0,1,1.88-1.29,5.668,5.668,0,0,1,.924,1.927,13.328,13.328,0,0,1-.491,2.692c-1.447,8.926,3.357,18.232,11.688,22.668a22.14,22.14,0,0,0,25.04-3.347,28.431,28.431,0,0,1-2.956-2.389,2.375,2.375,0,0,1-.606-1.882c.109-.434.978-.9,1.551-.959,6.635-.714,13.277-1.365,19.919-2,1.655-.159,2.242.465,2.075,2.137-.652,6.517-1.3,13.033-2.029,19.541-.077.68-.561,1.684-1.074,1.845-.536.17-1.442-.371-2-.83a29.147,29.147,0,0,1-2.443-2.543c-1.322,1.043-2.417,2.011-3.613,2.834-13.834,9.54-28.476,10.8-43.081,2.594-14.753-8.291-21.292-21.566-20.2-38.5.019-.3-.027-.706.144-.889a22.516,22.516,0,0,1,1.694-1.524c.4.644,1.106,1.268,1.151,1.936.268,3.951-.174,8.033.65,11.849,2.956,13.719,11.261,23.14,24.6,27.461,13.242,4.29,25.373,1.556,36-7.51a6.981,6.981,0,0,0,.811-.744c1.215-1.435,2.355-1.268,3.489.1A16.339,16.339,0,0,0,80.767,202.06Z" transform="translate(0 8.291)"/><path class="a" d="M26.019,22.6a6.549,6.549,0,0,1-1.713,4.536,7.393,7.393,0,0,1-4.45,2.35V32.5a.53.53,0,0,1-.551.551H16.981a.559.559,0,0,1-.551-.551V29.489a10.851,10.851,0,0,1-2.195-.534,10.571,10.571,0,0,1-3.021-1.592,9.811,9.811,0,0,1-.8-.646q-.215-.207-.3-.31a.523.523,0,0,1-.034-.706l1.773-2.324a.536.536,0,0,1,.4-.207.427.427,0,0,1,.413.155l.034.034a8.989,8.989,0,0,0,4.183,2.152,6.013,6.013,0,0,0,1.274.138,4.174,4.174,0,0,0,2.453-.74,2.411,2.411,0,0,0,1.059-2.1,1.745,1.745,0,0,0-.258-.912,3.226,3.226,0,0,0-.577-.723,4.725,4.725,0,0,0-1.007-.646q-.689-.353-1.136-.551t-1.377-.559q-.671-.275-1.059-.43t-1.059-.456q-.671-.3-1.076-.534t-.973-.611a6.062,6.062,0,0,1-.921-.732,10.729,10.729,0,0,1-.749-.844,4.211,4.211,0,0,1-.611-1,6.9,6.9,0,0,1-.362-1.145,5.975,5.975,0,0,1-.146-1.343A5.886,5.886,0,0,1,12.041,8.16a7.877,7.877,0,0,1,4.39-2.307v-3.1a.559.559,0,0,1,.551-.551h2.324a.53.53,0,0,1,.551.551v3.03a9.575,9.575,0,0,1,1.9.4,11.029,11.029,0,0,1,1.5.577,8.294,8.294,0,0,1,1.093.646q.516.362.671.5t.258.241a.5.5,0,0,1,.086.654L23.971,11.31a.469.469,0,0,1-.4.275.549.549,0,0,1-.465-.121q-.052-.052-.25-.207t-.671-.456a8.883,8.883,0,0,0-1.007-.551A7.688,7.688,0,0,0,19.9,9.8a5.743,5.743,0,0,0-1.472-.2,4.474,4.474,0,0,0-2.668.74,2.314,2.314,0,0,0-.887,2.737,1.937,1.937,0,0,0,.508.714,7.586,7.586,0,0,0,.68.568,6.063,6.063,0,0,0,.964.534q.646.3,1.041.465t1.205.473q.912.344,1.394.542t1.308.6a10.4,10.4,0,0,1,1.3.732,10.991,10.991,0,0,1,1.067.861,4.457,4.457,0,0,1,.912,1.093,6.238,6.238,0,0,1,.542,1.317,5.679,5.679,0,0,1,.224,1.618Z" transform="translate(33.698 165.553)"/></g></svg>