<svg xmlns="http://www.w3.org/2000/svg" width="174.629" height="94.789" viewBox="0 0 174.629 94.789"><defs><style>.a{fill:#ec4119;}.b{fill:#ffc000;}.c{fill:#4ea135;}.d{fill:#9fb925;}.e{fill:#9fba25;}.f{fill:#faa782;}.g{fill:#d9e294;}.h{fill:#fffffe;}</style></defs><g transform="translate(-201.282 -32.028)"><path class="a" d="M202.393,99.763a80.1,80.1,0,0,1,3.9-15.612A87.807,87.807,0,0,1,220.1,59.107c2.159-2.768,4.611-5.262,7-7.818.077-.082.244-.082.368-.12a31.686,31.686,0,0,1,4.325,4.011q7.215,7.272,14.49,14.479c2.424,2.4,4.776,4.881,7.206,7.278a2.825,2.825,0,0,1,.8,1.23,52.871,52.871,0,0,0-8.168,10.6,45.243,45.243,0,0,0-4.5,10.8,43.486,43.486,0,0,0-1.751,12.207c.018.835-.305,1.213-1.192,1.211q-18.211-.026-36.423,0c-.8,0-1.007-.327-.964-1.052.14-2.33.249-4.661.369-6.99C202,103.229,201.909,101.455,202.393,99.763Z" transform="translate(0 5.925)"/><path class="b" d="M248.1,84.092,233.253,69.266q-5.72-5.712-11.447-11.419a1.584,1.584,0,0,1-.529-.753,59.785,59.785,0,0,1,9.965-8.588A85.161,85.161,0,0,1,259.6,35.063a96.273,96.273,0,0,1,21.755-3.033,12.743,12.743,0,0,1,1.337.083,2.3,2.3,0,0,1,.423,1.781q.016,17.17,0,34.34a2.3,2.3,0,0,1-.426,1.78,10.351,10.351,0,0,1-3.186.265,47.573,47.573,0,0,0-19.018,5.07A54.175,54.175,0,0,0,248.1,84.092Z" transform="translate(6.189)"/><path class="c" d="M326.707,112.407c-5.852,0-11.7-.042-17.555.033-1.329.017-1.716-.279-1.755-1.676a46.454,46.454,0,0,0-6.6-22.8,36.8,36.8,0,0,0-3.039-4.644.956.956,0,0,1,0-1.414Q306.4,71.6,315,61.263c2.167-2.6,4.365-5.166,6.5-7.785.473-.579.625-.685,1.224-.058a82.806,82.806,0,0,1,11.656,15.64A83.744,83.744,0,0,1,342,86.1a90.188,90.188,0,0,1,4.145,24.981c.007,1.028-.245,1.37-1.342,1.359C338.772,112.377,332.739,112.407,326.707,112.407Z" transform="translate(29.764 6.49)"/><path class="d" d="M268.172,70.009q0-18.95,0-37.9a50.557,50.557,0,0,1,8.457.427,82.358,82.358,0,0,1,17.347,3.493,87.882,87.882,0,0,1,32.86,18.746c.482.431.923.78.126,1.44Q312.849,67.9,298.8,79.663a1.349,1.349,0,0,1-2.044.021,46.8,46.8,0,0,0-18.337-8.429,30.1,30.1,0,0,0-8.27-1A3.513,3.513,0,0,1,268.172,70.009Z" transform="translate(20.704 0.004)"/><path class="e" d="M333.605,50,317.587,69.245Q305.556,83.7,293.526,98.156q-8.226,9.882-16.463,19.754c-2.574,3.085-7.345,4.315-10.7,2.772A7.667,7.667,0,0,1,262.071,112c.61-3.043,2.493-5.132,4.789-7.033q17.072-14.145,34.084-28.359,12.945-10.8,25.86-21.629c1.991-1.664,3.993-3.316,5.99-4.974C333.065,49.93,333.328,49.36,333.605,50Z" transform="translate(18.763 5.47)"/><path class="f" d="M202.3,88.277a22.993,22.993,0,0,1-.736,5.179C201.618,91.7,201.52,89.927,202.3,88.277Z" transform="translate(0.089 17.411)"/><path class="g" d="M316.849,50.286c-.276-.449-.538.155-.811.009a5.92,5.92,0,0,1,1.924-1.533C317.7,49.359,317.5,49.989,316.849,50.286Z" transform="translate(35.52 5.18)"/><path class="h" d="M269.3,104.211a4.578,4.578,0,0,1-4.882-4.794,4.678,4.678,0,0,1,4.864-4.94,4.867,4.867,0,1,1,.018,9.734Z" transform="translate(19.541 19.33)"/></g></svg>