<svg xmlns="http://www.w3.org/2000/svg" width="81.338" height="103.999" viewBox="0 0 81.338 103.999"><defs><style>.a{fill:#38444d;}.a,.b,.c,.d,.e,.f,.g{stroke:#093d78;}.b{fill:#38444c;}.c{fill:#5cb8cc;}.d{fill:#e47258;}.e{fill:#fff;}.f{fill:#fefefe;}.g{fill:#fac13e;}</style></defs><g transform="translate(-441.979 -263.125)"><path class="a" d="M525.646,319.9v46.8c0,.848-.218,1.07-1.061,1.07q-28.79,0-57.577.006a1.375,1.375,0,0,1-1.112-.488c-.921-1.024-1.865-2.027-2.813-3.026-.2-.205-.2-.334.023-.5a2.588,2.588,0,0,0,.482-.448c.253-.322.433-.283.7.013.807.909,1.653,1.783,2.464,2.689a.824.824,0,0,0,.707.244q15.636,0,31.273,0,12.471,0,24.94.009c.389,0,.506-.083.506-.495q-.016-45.921,0-91.843c0-.433-.112-.546-.531-.519-.584.039-1.173,0-1.759.015-.257.007-.353-.052-.357-.336-.016-1.148-.027-1.148,1.13-1.148.675,0,1.349,0,2.024,0,.727,0,.964.245.964.983Z" transform="translate(-2.829 -1.149)"/><path class="b" d="M516.57,264.682c0-.842-.217-1.056-1.064-1.057H443.494c-.818,0-1.009.189-1.009,1v15.4q0,31.672-.006,63.346a1.377,1.377,0,0,0,.384,1.022q7.266,7.8,14.507,15.616a1.348,1.348,0,0,0,1.079.458q28.483-.013,56.966-.008c.965,0,1.155-.19,1.155-1.155V264.682Zm-59.25,93.059-12.4-13.349h.459c3.854,0,7.708.006,11.563-.009.369,0,.452.093.452.456-.014,4.162-.009,8.323-.011,12.485A.639.639,0,0,1,457.32,357.741Zm57.2,1.249q-27.558-.018-55.114,0c-.426,0-.559-.076-.557-.538.02-4.853.012-9.706.012-14.559,0-.763-.224-.984-1-.984-4.457,0-8.915-.005-13.371.009-.4,0-.539-.065-.539-.512q.019-38.4,0-76.8c0-.388.079-.509.495-.509q35.056.017,70.113,0c.442,0,.514.131.514.538q-.017,23.2-.01,46.4t.011,46.405C515.081,358.9,514.959,358.99,514.525,358.99Z" transform="translate(0 0)"/><path class="b" d="M486.262,359.92h-17.9c-.939,0-1.146-.2-1.146-1.124V325.1c0-.935.19-1.122,1.137-1.122h6.071c.769,0,.992.221.992.991v32.857c0,.573,0,.574.553.574,1.056,0,2.111-.015,3.167.008.346.008.439-.09.438-.437q-.017-6.994-.008-13.987v-7.742c0-.768.234-1,.993-1H486.8c.725,0,.965.243.965.981q0,10.82-.01,21.641c0,.447.109.566.552.55.981-.036,1.965-.027,2.947,0,.345.009.437-.087.436-.433-.013-3.959-.009-7.917-.009-11.876q0-7.633,0-15.264c0-.774.216-.991.987-.991h6.29c.7,0,.911.215.911.917q0,13.548-.01,27.1c0,.441.1.568.549.557,1.318-.034,2.639-.006,3.959-.017.273,0,.384.057.387.361.014,1.162.025,1.162-1.12,1.162Z" transform="translate(-3.42 -8.346)"/><path class="c" d="M481.152,277.474q-13.24,0-26.48.011c-.458,0-.56-.127-.549-.562q.045-1.8,0-3.606c-.011-.44.134-.527.545-.523,2.1.021,4.193.009,6.291.009q23.334,0,46.669,0c.713,0,.62-.083.623.639,0,1.174-.022,2.346.012,3.519.013.443-.134.521-.542.52Q494.436,277.466,481.152,277.474Z" transform="translate(-1.61 -1.268)"/><path class="b" d="M481.615,299.017a13.98,13.98,0,1,1-13.762-13.974A13.985,13.985,0,0,1,481.615,299.017Z" transform="translate(-1.545 -2.962)"/><path class="a" d="M503.861,286.507c3.151,0,6.3.006,9.454-.009.368,0,.463.095.455.458-.023,1.035-.006,1.036-1.05,1.036q-9.124,0-18.249.009c-.39,0-.52-.082-.507-.5.033-1,.009-1,1.013-1Z" transform="translate(-7.119 -3.163)"/><path class="a" d="M503.864,306.471c-3.151,0-6.3,0-9.454.007-.329,0-.451-.06-.444-.424.021-1.067,0-1.067,1.075-1.067q9.124,0,18.249-.009c.383,0,.494.083.482.477-.029,1.016-.009,1.017-1.025,1.017Z" transform="translate(-7.12 -5.718)"/><path class="a" d="M503.914,295.764c3.135,0,6.27.007,9.4-.009.371,0,.46.1.451.458-.024,1.031-.007,1.031-1.017,1.031q-9.141,0-18.283.009c-.406,0-.515-.108-.5-.509.028-.981.009-.981.982-.981Z" transform="translate(-7.12 -4.443)"/><path class="a" d="M503.856,314.245c3.164,0,6.329,0,9.493-.007.311,0,.427.051.421.4-.018,1.088,0,1.088-1.093,1.088q-9.075,0-18.15.009c-.421,0-.587-.066-.565-.539.044-.949.013-.95.972-.95Z" transform="translate(-7.119 -6.999)"/><path class="d" d="M450.91,359.8c1.844,0,3.568,0,5.292,0,.164,0,.237.058.236.228q-.012,2.788-.018,5.577c0,.007-.022.014-.074.046Z" transform="translate(-1.166 -13.3)"/><path class="e" d="M468.948,342.2q0-8.027-.009-16.053c0-.364.084-.461.452-.455,1.466.023,2.932.018,4.4,0,.305,0,.389.077.389.386q-.012,16.076,0,32.151c0,.327-.083.421-.414.416-1.466-.018-2.932-.021-4.4,0-.356.005-.427-.106-.427-.44Q468.956,350.2,468.948,342.2Z" transform="translate(-3.659 -8.583)"/><path class="e" d="M497.333,346.042q0-6.531-.009-13.064c0-.374.071-.494.471-.486,1.436.028,2.874.024,4.31,0,.368-.005.459.1.458.462q-.017,11.172-.009,22.344c0,1.3-.007,2.61.006,3.915,0,.284-.078.374-.367.371-1.481-.014-2.962-.019-4.442,0-.356.005-.428-.105-.427-.44Q497.342,352.595,497.333,346.042Z" transform="translate(-7.584 -9.523)"/><path class="f" d="M488.506,349.6c0,3.46-.005,6.92.008,10.381,0,.355-.077.476-.452.47-1.451-.022-2.9-.017-4.354,0-.324,0-.453-.055-.453-.425q.018-10.425,0-20.85c0-.322.072-.421.408-.416q2.221.03,4.442,0c.338,0,.408.1.407.417C488.5,342.653,488.506,346.128,488.506,349.6Z" transform="translate(-5.638 -10.39)"/><path class="g" d="M467.148,305.331c0,1.98-.009,3.96.007,5.939,0,.347-.044.488-.444.44a12.148,12.148,0,0,1-10.262-7.444,12.476,12.476,0,1,1,22.18,1.364c-.188.325-.3.394-.643.143-3.156-2.336-6.328-4.65-9.493-6.974a.863.863,0,0,0-.969-.183.756.756,0,0,0-.379.776C467.152,301.372,467.148,303.352,467.148,305.331Z" transform="translate(-1.782 -3.199)"/><path class="d" d="M470.756,303c.913.667,1.75,1.274,2.584,1.886,1.984,1.455,3.961,2.918,5.956,4.359.291.211.263.328.05.561a12.672,12.672,0,0,1-7.925,4.124c-.664.088-.665.08-.665-.57V303Z" transform="translate(-3.91 -5.445)"/><path class="c" d="M472.745,342.467c0,4.748-.007,9.5.01,14.243,0,.438-.159.549-.545.56-1.322.037-1.321.044-1.321-1.268V328.22c0-.577,0-.59.554-.573.419.013.955-.187,1.224.09.249.256.072.783.073,1.19Q472.75,335.7,472.745,342.467Z" transform="translate(-3.929 -8.845)"/><path class="c" d="M499.283,346.3q0-5.65,0-11.3c0-.573,0-.577.582-.6.293-.01.587.008.879-.005.313-.014.474.107.45.433-.006.088,0,.176,0,.264v22.424c0,.689,0,.689-.675.689-1.235,0-1.235,0-1.235-1.222Z" transform="translate(-7.855 -9.787)"/><path class="c" d="M485.264,349.842c0-2.887.006-5.774-.008-8.66,0-.359.088-.5.463-.47a9.169,9.169,0,0,0,1.1,0c.227-.008.328.076.305.305a2.069,2.069,0,0,0,0,.22q0,8.616.009,17.233c0,.429-.084.625-.549.563a3.938,3.938,0,0,0-.878,0c-.347.031-.451-.093-.448-.443.016-1.949.008-3.9.008-5.848Z" transform="translate(-5.915 -10.659)"/></g></svg>