<svg xmlns="http://www.w3.org/2000/svg" xmlns:xlink="http://www.w3.org/1999/xlink" width="144.734" height="144.734" viewBox="0 0 144.734 144.734"><defs><style>.a{fill:#fff;}.b{fill:#093d78;}.c{filter:url(#a);}</style><filter id="a" x="0" y="0" width="144.734" height="144.734" filterUnits="userSpaceOnUse"><feOffset input="SourceAlpha"/><feGaussianBlur stdDeviation="3.5" result="b"/><feFlood flood-opacity="0.102"/><feComposite operator="in" in2="b"/><feComposite in="SourceGraphic"/></filter></defs><g transform="translate(-886.5 -9946.5)"><g class="c" transform="matrix(1, 0, 0, 1, 886.5, 9946.5)"><circle class="a" cx="61.867" cy="61.867" r="61.867" transform="translate(10.5 10.5)"/></g><g transform="translate(-376.912 9489.327)"><path class="b" d="M1366.821,506.086c1.633-10.332-15.045-11.639-15.087-1.165C1351.3,514.2,1365.878,515.325,1366.821,506.086Zm-3.1-.739c-.522,5.946-9.6,4.868-8.755-1.006C1355.856,498.992,1364.063,499.934,1363.717,505.347Z" transform="translate(-27.748)"/><path class="b" d="M1364.995,558.886q-5.692-.02-11.384,0a1.7,1.7,0,0,0-1.506.766h0a1.534,1.534,0,0,0-.291,1.647h0a1.807,1.807,0,0,0,1.921,1.386q5.565.006,11.13,0a1.806,1.806,0,0,0,1.927-1.387,1.456,1.456,0,0,0-.226-1.541A1.663,1.663,0,0,0,1364.995,558.886Z" transform="translate(-27.724 -34.792)"/><path class="b" d="M1408.415,572.654q0-.761,0-1.523t0-1.528a1.882,1.882,0,1,0-3.763,0h0q0,.764,0,1.529v1.523c-.006.273-.028.546-.016.818a1.893,1.893,0,0,0,3.69.552,3.432,3.432,0,0,0,.091-1.37Z" transform="translate(-57.823 -39.811)"/><path class="b" d="M1367.851,543.8c-1.217-2.583-5.3-.605-7.489-1.4-.878-3.541-4.979-5.48-5.964-8.506,1.466-8-3.948-8.171-8.829-3.552h0c-11.169,3.253-26.865-3.753-35.706,7.094-1.086,1.067-2.657-2.3-2.912-3.161-.947-4.177,2.645-7.044,6.481-7.243,4.27-8.049-12.19-1.153-10.38,5.84h0c-.248,3.353,1.917,6.15,4.19,8.256a18.8,18.8,0,0,0,.359,18.648h0a18.288,18.288,0,0,0,8.718,7.756c.624,2.43-1.506,9.512,2.063,9.5,19.292,2.06-1.243-10.554,20.689-7.885.85,2.22-1.4,7.436,1.977,7.879,2.313-.428,8.736,1.24,9.442-1.379.52-12.512-1.69-4.8,6.366-12.521C1363.747,551.73,1369.411,563.392,1367.851,543.8Zm-1.814,8.085c-.356,2.233-1.9,2.355-5.385,2.163-2.852,1.252-5.692,9.962-10.905,10.935-4.353.04-.8,8.759-2.807,9.634-5.4.94-3.1-2.85-3.539-6.365-3.816-4.237-12.411-.75-17.891-1.833-3.582.2-2.135,5.191-2.188,7.375-8.4,4.9-.847-7.981-6.511-8.809-12.673-5.187-13.161-23.707-.848-29.631,9.934-4.64,23.61,1.612,32.564-2.983a5.252,5.252,0,0,1,2.972-2.244c-.441,10.418,2.7,3.589,7.608,15.02,2.217,2.217,7.479-1.157,7.1,2.9C1366.184,548.334,1366.15,551.171,1366.036,551.885Z" transform="translate(0 -14.632)"/></g></g></svg>