<svg xmlns="http://www.w3.org/2000/svg" xmlns:xlink="http://www.w3.org/1999/xlink" width="144.734" height="144.734" viewBox="0 0 144.734 144.734"><defs><style>.a{fill:#fff;}.b{fill:none;stroke-width:2.5px;}.b,.c{stroke:#093d78;stroke-miterlimit:10;}.c{fill:#00efd1;stroke-width:1.75px;}.d{filter:url(#a);}</style><filter id="a" x="0" y="0" width="144.734" height="144.734" filterUnits="userSpaceOnUse"><feOffset input="SourceAlpha"/><feGaussianBlur stdDeviation="3.5" result="b"/><feFlood flood-opacity="0.102"/><feComposite operator="in" in2="b"/><feComposite in="SourceGraphic"/></filter></defs><g transform="translate(-631.5 -9946.5)"><g class="d" transform="matrix(1, 0, 0, 1, 631.5, 9946.5)"><circle class="a" cx="61.867" cy="61.867" r="61.867" transform="translate(10.5 10.5)"/></g><g transform="translate(594.781 9843.796)"><rect class="b" width="57.172" height="40.544" rx="2.505" transform="translate(80.479 160.493)"/><path class="b" d="M94.907,156.747v-2.871a3.662,3.662,0,0,1,3.663-3.663h7.651a3.663,3.663,0,0,1,3.663,3.663v2.871" transform="translate(6.67 0)"/><path class="c" d="M115.094,171.9h-7.9a.4.4,0,0,1-.405-.4v-7.9a.525.525,0,0,0-.525-.525h-5.076a.525.525,0,0,0-.525.525v7.9a.4.4,0,0,1-.405.4h-7.9a.525.525,0,0,0-.525.525V177.5a.526.526,0,0,0,.525.525h7.9a.405.405,0,0,1,.405.405v7.9a.525.525,0,0,0,.525.525h5.076a.524.524,0,0,0,.525-.525v-7.9a.405.405,0,0,1,.405-.405h7.9a.525.525,0,0,0,.525-.525v-5.077A.525.525,0,0,0,115.094,171.9Z" transform="translate(5.252 5.945)"/></g></g></svg>