<svg xmlns="http://www.w3.org/2000/svg" xmlns:xlink="http://www.w3.org/1999/xlink" width="148" height="148" viewBox="0 0 148 148"><defs><style>.a{fill:#fff;}.b{fill:#093d78;}.c{filter:url(#a);}</style><filter id="a" x="0" y="0" width="148" height="148" filterUnits="userSpaceOnUse"><feOffset dy="2" input="SourceAlpha"/><feGaussianBlur stdDeviation="5" result="b"/><feFlood flood-opacity="0.122"/><feComposite operator="in" in2="b"/><feComposite in="SourceGraphic"/></filter></defs><g transform="translate(-768 -8049)"><g class="c" transform="matrix(1, 0, 0, 1, 768, 8049)"><circle class="a" cx="59" cy="59" r="59" transform="translate(15 13)"/></g><g transform="translate(801.126 7948.416)"><path class="b" d="M29.466,159.98a18.409,18.409,0,0,1,2.018,1.76,2.018,2.018,0,0,1,.531,1.5c-.076.328-.811.662-1.282.714-4.876.536-9.757,1.014-14.637,1.512-1.114.115-1.655-.376-1.544-1.486.492-4.925.985-9.848,1.533-14.767a1.678,1.678,0,0,1,.779-1.241,1.808,1.808,0,0,1,1.384.533,23.324,23.324,0,0,1,1.841,2.088l1.459-1.208A29.534,29.534,0,0,1,69.77,175.169c-.019.18-.044.361-.072.54-.121.8-.288,1.652-1.355,1.456-.919-.168-.93-.919-.834-1.721a27.211,27.211,0,0,0-22.429-30.209,26.72,26.72,0,0,0-23.114,6.7c-1.705,1.51-1.689,1.526-3.38-.016-.124-.112-.271-.2-.563-.409L16.85,163.168l11.627-1.154a5.817,5.817,0,0,0-.482-.7c-1.464-1.526-1.461-1.77.084-3.135a18.6,18.6,0,0,1,30.494,17.859c-.048.222-.127.437-.172.66-.151.751-.5,1.335-1.365,1.156-.971-.2-.95-.95-.761-1.721a16.071,16.071,0,0,0-1.517-11.87A16.368,16.368,0,0,0,29.466,159.98Z" transform="translate(-0.002 0)"/><path class="b" d="M62.721,192.865,63.9,181.112l-11.519,1.144c.022.186,0,.308.047.352,2.127,1.964,1.692,2.3-.333,3.964a18.6,18.6,0,0,1-29.908-18.388c.059-.266.048-.625.217-.774a12.586,12.586,0,0,1,1.394-.957,4.2,4.2,0,0,1,.686,1.429,9.886,9.886,0,0,1-.364,2,16.345,16.345,0,0,0,27.243,14.331,21.089,21.089,0,0,1-2.193-1.772,1.762,1.762,0,0,1-.45-1.4c.081-.322.726-.666,1.15-.712,4.922-.53,9.848-1.013,14.775-1.486,1.227-.118,1.663.345,1.539,1.585-.484,4.834-.965,9.667-1.505,14.494-.057.5-.416,1.249-.8,1.368-.4.126-1.07-.275-1.48-.616a21.618,21.618,0,0,1-1.812-1.886c-.981.774-1.793,1.491-2.68,2.1-10.261,7.077-21.122,8.012-31.955,1.924-10.943-6.15-15.794-16-14.982-28.561.014-.226-.02-.524.107-.66a16.7,16.7,0,0,1,1.256-1.13c.3.478.821.941.854,1.436.2,2.931-.129,5.958.482,8.789,2.193,10.176,8.353,17.164,18.246,20.37,9.822,3.182,18.82,1.154,26.707-5.57a5.179,5.179,0,0,0,.6-.552c.9-1.065,1.747-.941,2.588.077A12.119,12.119,0,0,0,62.721,192.865Z" transform="translate(0 -0.011)"/><g transform="translate(33.702 162.542)"><path class="b" d="M35.078,162.551H48.62v.028a20.889,20.889,0,0,1-1.351,1.97H43.65a4.717,4.717,0,0,1,1.014,2.126h3.857c.047.009.07.028.07.056q-1.294,1.943-1.322,1.942H44.763a5.746,5.746,0,0,1-.958,2.408,5.867,5.867,0,0,1-2.209,1.843,8.744,8.744,0,0,1-3.773.944v.028q0,.141,8.15,9.669H42.384q-7.939-9.248-7.938-9.29V172.4l.028-.07a11.989,11.989,0,0,0,1.647.1q4.447,0,5.531-2.886a2.337,2.337,0,0,0,.169-.873H33.77a.05.05,0,0,1-.057-.056q1.337-1.943,1.365-1.942h6.391v-.028a3.75,3.75,0,0,0-2.126-1.732,6.636,6.636,0,0,0-2.026-.366H33.742v-.07Q35.036,162.551,35.078,162.551Z" transform="translate(-33.713 -162.551)"/></g></g></g></svg>