<svg xmlns="http://www.w3.org/2000/svg" xmlns:xlink="http://www.w3.org/1999/xlink" width="127" height="125" viewBox="0 0 127 125"><defs><style>.a{fill:#fff;}.b{fill:#093d78;}.c{fill:#00efd1;}.d{fill:#fa7819;}.e{filter:url(#a);}</style><filter id="a" x="0" y="0" width="127" height="125" filterUnits="userSpaceOnUse"><feOffset input="SourceAlpha"/><feGaussianBlur stdDeviation="5" result="b"/><feFlood flood-color="#093d78" flood-opacity="0.122"/><feComposite operator="in" in2="b"/><feComposite in="SourceGraphic"/></filter></defs><g transform="translate(-278 -3960)"><g class="e" transform="matrix(1, 0, 0, 1, 278, 3960)"><ellipse class="a" cx="48.5" cy="47.5" rx="48.5" ry="47.5" transform="translate(15 15)"/></g><g transform="translate(321.231 4000.166)"><path class="b" d="M274.921,144.383a1.845,1.845,0,0,1,1.422,1.87c.179.009.344.025.508.025,1.052,0,2.1,0,3.154,0a1.7,1.7,0,0,1,1.895,1.847c.005,2.951.089,5.906-.041,8.851a13.571,13.571,0,0,1-6.975,11.559,12.784,12.784,0,0,1-5.03,1.74c-.291.038-.432.126-.431.463.017,3.327-.02,6.655.031,9.982a8.789,8.789,0,0,0,17.358,1.507,10.493,10.493,0,0,0,.241-2.1c.031-2.1,0-4.207.02-6.309a.566.566,0,0,0-.446-.641,6.356,6.356,0,0,1-4.3-6.353,6.472,6.472,0,0,1,12.938.416,6.349,6.349,0,0,1-4.34,5.95.511.511,0,0,0-.394.576c.015,2.088.023,4.175.005,6.263a12.055,12.055,0,0,1-6.385,11,11.641,11.641,0,0,1-11.91-.039,11.784,11.784,0,0,1-6.011-8.141,14.65,14.65,0,0,1-.273-2.941c-.034-2.982-.02-5.964,0-8.947,0-.449-.1-.636-.584-.725a14,14,0,0,1-11.312-11.2,16.562,16.562,0,0,1-.241-2.9c-.032-2.589-.013-5.18-.011-7.769,0-1.481.612-2.093,2.08-2.095h3.347a1.876,1.876,0,0,1,1.467-1.895h.659a1.84,1.84,0,0,1,1.371,1.709c.025,1.285.042,2.573-.006,3.858a1.658,1.658,0,0,1-1.634,1.675,1.692,1.692,0,0,1-1.816-1.531c-.024-.122-.149-.318-.235-.322-.572-.029-1.147-.015-1.722-.015-.014.166-.029.259-.029.352,0,2.165-.031,4.331.013,6.495a10.557,10.557,0,0,0,21.108.093c.042-2.2.013-4.393.013-6.589a3.285,3.285,0,0,0-.041-.354c-.6,0-1.181-.013-1.757.012a.41.41,0,0,0-.286.258,1.746,1.746,0,1,1-3.477-.326c0-1,.04-2.01-.012-3.011a2.025,2.025,0,0,1,1.412-2.3Zm10.908,22.687a2.974,2.974,0,1,0,2.983-2.971A2.922,2.922,0,0,0,285.829,167.07Z" transform="translate(-253.799 -144.383)"/><path class="c" d="M291.748,170.713a2.974,2.974,0,1,1,2.955,3A2.921,2.921,0,0,1,291.748,170.713Z" transform="translate(-259.718 -148.026)"/><g transform="translate(9.981 8.271)"><path class="d" d="M1844.447,162.643h7.385v.015a11.274,11.274,0,0,1-.737,1.075h-1.973a2.579,2.579,0,0,1,.553,1.159h2.1c.025.005.038.016.038.031q-.707,1.059-.722,1.059h-1.366a3.143,3.143,0,0,1-.522,1.312A3.213,3.213,0,0,1,1848,168.3a4.763,4.763,0,0,1-2.057.514v.016q0,.077,4.444,5.274h-1.957q-4.33-5.043-4.329-5.066v-1.021l.016-.039a6.5,6.5,0,0,0,.9.054q2.425,0,3.017-1.574a1.281,1.281,0,0,0,.092-.476h-4.391a.027.027,0,0,1-.031-.031q.729-1.059.744-1.059h3.485v-.015a2.046,2.046,0,0,0-1.16-.945,3.625,3.625,0,0,0-1.1-.2h-1.95v-.038Q1844.424,162.643,1844.447,162.643Z" transform="translate(-1843.702 -162.643)"/></g></g></g></svg>