<svg xmlns="http://www.w3.org/2000/svg" xmlns:xlink="http://www.w3.org/1999/xlink" width="125" height="125" viewBox="0 0 125 125"><defs><style>.a{fill:#fff;}.b{fill:#093d78;stroke:#093d78;stroke-width:0.35px;}.c{fill:#00efd1;}.d{filter:url(#a);}</style><filter id="a" x="0" y="0" width="125" height="125" filterUnits="userSpaceOnUse"><feOffset input="SourceAlpha"/><feGaussianBlur stdDeviation="5" result="b"/><feFlood flood-color="#093d78" flood-opacity="0.122"/><feComposite operator="in" in2="b"/><feComposite in="SourceGraphic"/></filter></defs><g transform="translate(14.848 14.535)"><g class="d" transform="matrix(1, 0, 0, 1, -14.85, -14.54)"><circle class="a" cx="47.5" cy="47.5" r="47.5" transform="translate(15 15)"/></g><g transform="translate(21.344 19.094)"><g transform="translate(0 0)"><path class="b" d="M2032.559,413.061h-4.964a1.023,1.023,0,0,0-1.022,1.022v4.9a1.023,1.023,0,0,0,1.022,1.022h4.964a1.024,1.024,0,0,0,1.022-1.022v-4.9A1.023,1.023,0,0,0,2032.559,413.061Zm-.452,5.475h-4.06v-4h4.06Z" transform="translate(-2016.277 -395.393)"/><path class="b" d="M2042.015,420.01h4.964a1.023,1.023,0,0,0,1.022-1.022v-4.9a1.023,1.023,0,0,0-1.022-1.022h-4.964a1.023,1.023,0,0,0-1.022,1.022v4.9A1.024,1.024,0,0,0,2042.015,420.01Zm.452-5.475h4.06v4h-4.06Z" transform="translate(-2022.191 -395.393)"/><path class="b" d="M2056.436,420.01h4.964a1.023,1.023,0,0,0,1.022-1.022v-4.9a1.023,1.023,0,0,0-1.022-1.022h-4.964a1.023,1.023,0,0,0-1.021,1.022v4.9A1.023,1.023,0,0,0,2056.436,420.01Zm.453-5.475h4.059v4h-4.059Z" transform="translate(-2028.107 -395.393)"/><path class="b" d="M2070.855,420.01h4.965a1.023,1.023,0,0,0,1.022-1.022v-4.9a1.023,1.023,0,0,0-1.022-1.022h-4.965a1.024,1.024,0,0,0-1.022,1.022v4.9A1.024,1.024,0,0,0,2070.855,420.01Zm.452-5.475h4.06v4h-4.06Z" transform="translate(-2034.022 -395.393)"/><path class="b" d="M2032.559,428.09h-4.964a1.023,1.023,0,0,0-1.022,1.022v4.9a1.023,1.023,0,0,0,1.022,1.022h4.964a1.024,1.024,0,0,0,1.022-1.022v-4.9A1.023,1.023,0,0,0,2032.559,428.09Zm-.452,5.475h-4.06v-4h4.06Z" transform="translate(-2016.277 -401.558)"/><path class="b" d="M2042.015,435.039h4.964a1.023,1.023,0,0,0,1.022-1.022v-4.9a1.023,1.023,0,0,0-1.022-1.022h-4.964a1.023,1.023,0,0,0-1.022,1.022v4.9A1.024,1.024,0,0,0,2042.015,435.039Zm.452-5.475h4.06v4h-4.06Z" transform="translate(-2022.191 -401.558)"/><path class="b" d="M2056.436,435.039h4.964a1.023,1.023,0,0,0,1.022-1.022v-4.9a1.023,1.023,0,0,0-1.022-1.022h-4.964a1.023,1.023,0,0,0-1.021,1.022v4.9A1.023,1.023,0,0,0,2056.436,435.039Zm.453-5.475h4.059v4h-4.059Z" transform="translate(-2028.107 -401.558)"/><path class="b" d="M2070.855,435.039h4.965a1.023,1.023,0,0,0,1.022-1.022v-4.9a1.023,1.023,0,0,0-1.022-1.022h-4.965a1.024,1.024,0,0,0-1.022,1.022v4.9A1.024,1.024,0,0,0,2070.855,435.039Zm.452-5.475h4.06v4h-4.06Z" transform="translate(-2034.022 -401.558)"/><path class="b" d="M2032.559,443.119h-4.964a1.023,1.023,0,0,0-1.022,1.022v4.9a1.023,1.023,0,0,0,1.022,1.022h4.964a1.023,1.023,0,0,0,1.022-1.022v-4.9A1.024,1.024,0,0,0,2032.559,443.119Zm-.452,5.475h-4.06v-4h4.06Z" transform="translate(-2016.277 -407.722)"/><path class="b" d="M2046.979,450.068a1.023,1.023,0,0,0,1.022-1.022v-4.9a1.023,1.023,0,0,0-1.022-1.022h-4.964a1.024,1.024,0,0,0-1.022,1.022v4.9a1.023,1.023,0,0,0,1.022,1.022Zm-4.512-5.475h4.06v4h-4.06Z" transform="translate(-2022.191 -407.722)"/><path class="b" d="M2056.436,450.068h4.964a1.023,1.023,0,0,0,1.022-1.022v-4.9a1.023,1.023,0,0,0-1.022-1.022h-4.964a1.023,1.023,0,0,0-1.021,1.022v4.9A1.023,1.023,0,0,0,2056.436,450.068Zm.453-5.475h4.059v4h-4.059Z" transform="translate(-2028.107 -407.722)"/><path class="b" d="M2070.855,450.068h4.965a1.023,1.023,0,0,0,1.022-1.022v-4.9a1.023,1.023,0,0,0-1.022-1.022h-4.965a1.024,1.024,0,0,0-1.022,1.022v4.9A1.024,1.024,0,0,0,2070.855,450.068Zm.452-5.475h4.06v4h-4.06Z" transform="translate(-2034.022 -407.722)"/><path class="b" d="M2032.559,458.149h-4.964a1.023,1.023,0,0,0-1.022,1.022v4.9a1.023,1.023,0,0,0,1.022,1.022h4.964a1.023,1.023,0,0,0,1.022-1.022v-4.9A1.024,1.024,0,0,0,2032.559,458.149Zm-.452,5.474h-4.06v-4h4.06Z" transform="translate(-2016.277 -413.888)"/><path class="b" d="M2070.855,465.1h4.965a1.023,1.023,0,0,0,1.022-1.022v-4.9a1.023,1.023,0,0,0-1.022-1.022h-4.965a1.024,1.024,0,0,0-1.022,1.022v4.9A1.023,1.023,0,0,0,2070.855,465.1Zm.452-5.474h4.06v4h-4.06Z" transform="translate(-2034.022 -413.888)"/><path class="b" d="M2058.759,434.889h-1.881V398.228h1.476a3.709,3.709,0,0,0,0-7.417h-8.489v-6.684a1.024,1.024,0,0,0-1.022-1.022H2022.5a1.023,1.023,0,0,0-1.022,1.022v6.684h-8.451a3.709,3.709,0,0,0,0,7.417h1.319v36.661h-1.724a3.505,3.505,0,0,0-3.5,3.5.945.945,0,0,0,.944.944h51.257a.946.946,0,0,0,.944-.944A3.505,3.505,0,0,0,2058.759,434.889Zm-47.971-40.37a2.236,2.236,0,0,1,2.234-2.234h45.333a2.234,2.234,0,0,1,0,4.468h-45.333A2.236,2.236,0,0,1,2010.788,394.52Zm5.028,3.709H2055.4v36.661h-13.444v-6.5a1.023,1.023,0,0,0-1.022-1.022h-10.51a1.023,1.023,0,0,0-1.022,1.022v6.5h-13.589Zm19.124,36.661h-4.06v-6.048h4.06Zm5.545,0h-4.06v-6.048h4.06Zm-29.824,2.971a2.03,2.03,0,0,1,1.957-1.5h46.142a2.031,2.031,0,0,1,1.957,1.5Z" transform="translate(-2009.116 -383.105)"/></g><g transform="translate(15.211 1.86)"><path class="c" d="M2042.956,392.29h-1.062v-2.17H2039.9v2.17h-1.065v-5.028h1.065v1.971h1.992v-1.971h1.062Z" transform="translate(-2038.837 -387.183)"/><path class="c" d="M2050.781,389.742a2.729,2.729,0,0,1-.619,1.919,2.684,2.684,0,0,1-3.549,0,2.74,2.74,0,0,1-.619-1.926,2.7,2.7,0,0,1,.621-1.917,2.319,2.319,0,0,1,1.779-.663,2.289,2.289,0,0,1,1.773.668A2.729,2.729,0,0,1,2050.781,389.742Zm-3.669,0a2.1,2.1,0,0,0,.32,1.269,1.118,1.118,0,0,0,.956.426q1.276,0,1.276-1.7t-1.27-1.7a1.125,1.125,0,0,0-.959.428A2.087,2.087,0,0,0,2047.112,389.742Z" transform="translate(-2040.688 -387.155)"/><path class="c" d="M2055.814,392.29h-1.066v-4.141h-1.365v-.887h3.8v.887h-1.366Z" transform="translate(-2042.599 -387.183)"/><path class="c" d="M2062.634,392.29h-2.9v-5.028h2.9v.874H2060.8v1.1h1.7v.873h-1.7v1.3h1.829Z" transform="translate(-2044.243 -387.183)"/><path class="c" d="M2065.248,392.29v-5.028h1.065v4.148h2.04v.88Z" transform="translate(-2045.668 -387.183)"/></g></g></g></svg>