<svg xmlns="http://www.w3.org/2000/svg" xmlns:xlink="http://www.w3.org/1999/xlink" width="125.538" height="124.5" viewBox="0 0 125.538 124.5"><defs><style>.a{fill:#fff;}.b{fill:#093d78;}.c{fill:#00efd1;}.d{filter:url(#a);}</style><filter id="a" x="0" y="0" width="125.538" height="124.5" filterUnits="userSpaceOnUse"><feOffset input="SourceAlpha"/><feGaussianBlur stdDeviation="5" result="b"/><feFlood flood-color="#093d78" flood-opacity="0.122"/><feComposite operator="in" in2="b"/><feComposite in="SourceGraphic"/></filter></defs><g transform="translate(15 15)"><g class="d" transform="matrix(1, 0, 0, 1, -15, -15)"><ellipse class="a" cx="47.769" cy="47.25" rx="47.769" ry="47.25" transform="translate(15 15)"/></g><g transform="translate(20.518 19.305)"><path class="b" d="M1661.525,411.136a.752.752,0,0,1-.7-.448,15.741,15.741,0,0,0-2-2.84c-.319-.356-.24-.532.062-.826,1.3-1.269,2.578-2.564,3.863-3.85.963-.964.963-.964-.009-1.886a9.642,9.642,0,0,0-13.41-.207.685.685,0,0,1-.746.206,14.729,14.729,0,0,0-3.417-.6c-.511-.022-.622-.235-.616-.718.028-2.08.014-4.162.01-6.244,0-.236.109-.49-.343-.522a9.818,9.818,0,0,0-10.652,9.265.851.851,0,0,1-.487.814,15.493,15.493,0,0,0-2.84,2c-.295.26-.451.256-.729-.029-1.346-1.379-2.719-2.733-4.082-4.1-.791-.792-.791-.792-1.565.023a9.632,9.632,0,0,0-.324,13.6.642.642,0,0,1,.176.693,15.463,15.463,0,0,0-.611,3.481c-.023.434-.165.578-.625.572-2.125-.029-4.25-.011-6.375-.015-.281,0-.458-.014-.477.394a9.793,9.793,0,0,0,9.379,10.614.652.652,0,0,1,.627.349,16.053,16.053,0,0,0,2.08,2.941c.268.3.224.458-.045.723-1.514,1.491-3.007,3-4.505,4.51-.168.169-.463.282-.133.606a13.5,13.5,0,0,0,2.673,2.211,9.678,9.678,0,0,0,11.4-1.218c.2-.18.349-.421.721-.309a16.254,16.254,0,0,0,3.673.655c.367.024.457.178.449.531-.023,1.073-.008,2.147-.008,3.22,0,1.1.008,2.191-.006,3.286,0,.292.048.4.384.422a9.791,9.791,0,0,0,10.621-9.364.759.759,0,0,1,.463-.691,15.687,15.687,0,0,0,2.789-1.957c.361-.323.546-.3.879.038,1.45,1.492,2.944,2.941,4.4,4.433.328.338.512.335.8-.02.4-.492.877-.921,1.268-1.42a9.619,9.619,0,0,0-.465-12.469.893.893,0,0,1-.242-.979,14.354,14.354,0,0,0,.569-3.29c.023-.463.181-.607.668-.6,2.1.033,4.206.014,6.309.014.254,0,.479.072.505-.364A9.806,9.806,0,0,0,1661.525,411.136Zm.107,8.359c-.493-.007-.629.116-.611.612a16.989,16.989,0,0,1-1.043,6.764.882.882,0,0,0,.36,1.2,6.264,6.264,0,0,1,2.558,4.951,7.137,7.137,0,0,1-.981,3.956c-.206.368-.34.33-.607.059-1.384-1.4-2.79-2.787-4.173-4.192-.26-.264-.4-.355-.7-.021a16.532,16.532,0,0,1-5.525,4.036,1,1,0,0,0-.691,1.237c.552,3.544-2.261,6.847-5.649,7.433v-1.941c0-1.468-.016-2.936.009-4.4.008-.437-.077-.609-.562-.592a17.232,17.232,0,0,1-7.134-1.169c-.414-.167-.549.1-.727.336a6.493,6.493,0,0,1-5.156,2.709,7.129,7.129,0,0,1-3.891-.979c-.341-.193-.368-.32-.078-.6,1.407-1.381,2.784-2.792,4.2-4.169.309-.3.309-.463,0-.755a17.117,17.117,0,0,1-4-5.476,1,1,0,0,0-1.233-.7,6.741,6.741,0,0,1-7.11-4.425c-.133-.367-.234-.746-.382-1.223h1.195c1.753,0,3.505-.016,5.258.012.444.007.548-.133.534-.552a17.184,17.184,0,0,1,1.166-7.135c.2-.493-.163-.635-.417-.82a6.244,6.244,0,0,1-2.479-3.888,7.076,7.076,0,0,1,.824-5.062c.227-.41.371-.344.651-.059,1.351,1.375,2.729,2.724,4.075,4.1.317.326.489.415.845.015a16.265,16.265,0,0,1,5.485-3.978.952.952,0,0,0,.654-1.193,6.8,6.8,0,0,1,5.472-7.45.848.848,0,0,1,.181.01c0,2.029.025,4.061-.016,6.093-.012.632.1.858.8.828a16.382,16.382,0,0,1,6.567,1.032.868.868,0,0,0,1.2-.344,6.781,6.781,0,0,1,8.734-1.7c.5.269.55.435.117.851-1.389,1.336-2.727,2.725-4.1,4.074-.267.262-.281.4,0,.654a16.624,16.624,0,0,1,4.065,5.585.958.958,0,0,0,1.2.641,6.808,6.808,0,0,1,7.387,5.3c.024.1.04.209.067.355C1665.834,419.507,1663.732,419.524,1661.631,419.494Z" transform="translate(-1615.617 -393.172)"/><path class="c" d="M1659.563,425.464l-12.229,15.4-.1-.052,5.293-11.547h-6.4c-.077-.3.1-.462.189-.642,1.959-3.93,3.934-7.852,5.879-11.788a.879.879,0,0,1,.939-.583c1.61.034,3.221.013,4.929.013-.286.485-.512.876-.746,1.262q-2.246,3.7-4.492,7.4c-.086.143-.279.282-.191.455s.318.078.479.079C1655.217,425.467,1657.314,425.464,1659.563,425.464Z" transform="translate(-1625.112 -400.356)"/></g></g></svg>