<svg xmlns="http://www.w3.org/2000/svg" width="155.523" height="113.784" viewBox="0 0 155.523 113.784"><defs><style>.a{fill:#ea4537;}.b{fill:#eeb217;}.c{fill:#1fb4d1;}.d,.h,.l{fill:#b77830;}.d,.f{opacity:0.9;}.e{fill:#378660;}.f{fill:#b13051;}.g{fill:#ef6a4e;}.i{fill:#0d2d55;}.j{fill:#5cb067;}.k{fill:#1a819f;}.l{opacity:0.62;}.m{fill:#003c70;}</style></defs><g transform="translate(-160.859 -363.282)"><path class="a" d="M189.071,407.112a3.664,3.664,0,0,1-.392,2.215c-3.981,8.705-7.279,17.688-10.786,26.587a11.568,11.568,0,0,1-1.142,2.153c-2.31,3.481-4.5,7.047-6.959,10.422a10.014,10.014,0,0,0-1.9,5.691c-.023.482.311,1.324-.708,1.353,1.675-17.782,8.068-33.553,20.031-46.942C187.739,408.006,188.15,407.222,189.071,407.112Z" transform="translate(-0.9 -6.239)"/><path class="b" d="M218.177,370.587a39.939,39.939,0,0,1,9.309-4.01A71.973,71.973,0,0,1,252.4,363.36a90.941,90.941,0,0,1,25.292,4.934c1.264.431,2.13.591,2.447-1.019.06-.3.153-.809.6-.762.221.023.441.378.6.623q2.065,3.133,4.1,6.284c.286.443.833,1.052-.268,1.149-2.636.235-5.275.425-7.958.636a1.487,1.487,0,0,1-.059-.48c.69-2.342.687-2.329-1.569-3.2-10.969-4.253-22.276-6.642-34.1-6.1A68.928,68.928,0,0,0,219.3,370.16C218.927,370.306,218.552,370.444,218.177,370.587Z" transform="translate(-8.159)"/><path class="c" d="M256.917,381.088c-.222,8.152-.362,16.307-.692,24.454-.235,5.8-.419,11.608-.623,17.411-.082,2.34-.238,5.369-.278,7.711-.31-1.213-1.54-4.914-1.534-5.11,0-.378-.046-.649-.049-1.027q0-21.873,0-43.747C254.8,380.906,255.905,380.485,256.917,381.088Z" transform="translate(-13.22 -2.487)"/><path class="d" d="M223.642,385.412a26.47,26.47,0,0,1-.378,5.477c-.3,2.81-1.588,4.028-4.336,4.6-.621.13-1.16.184-1.42.916-.288.813.316,1.116.721,1.516,1.814,1.792,3.651,3.558,5.48,5.335-1.034.244-2.065.5-3.1.728-2.071.456-2.958-.08-3.851-2.123a4.694,4.694,0,0,0-1.133-1.224c-1.053-1.034-2.144-2.032-3.166-3.1a1.157,1.157,0,0,1,.56-1.978c4.172-1.286,4.765-2.032,5.094-6.362.042-.556.121-1.108.184-1.662A28.731,28.731,0,0,1,223.642,385.412Z" transform="translate(-7.292 -3.15)"/><path class="e" d="M338.578,463.6l.36-.246a.609.609,0,0,1,.117.258Z" transform="translate(-25.297 -14.244)"/><path class="a" d="M197.024,435.784q4.2,3.191,8.4,6.377a2.249,2.249,0,0,1,.839,1.391q1.507,6.312,3.084,12.606c.147.587.093,1.254.89,1.63.49.232.294,1.037.15,1.56s-.677.347-1.055.347q-12.629,0-25.258-.028c-.571-.785.266-2.15-1.1-2.618-1.1-.376-1.039-.914-.38-1.8,3.283-4.4,6.468-8.875,9.749-13.279A57.741,57.741,0,0,1,197.024,435.784Z" transform="translate(-3.026 -10.32)"/><path class="f" d="M213.522,426.218l2.751,3.64c.089.353.25.627.675.6l-.005-.005c-.159.687.358,1.113.644,1.618.786,1.389,1.6,2.762,2.4,4.141.083.5.134,1.009.256,1.5,1.241,4.992,2.532,9.973,3.716,14.978a2.723,2.723,0,0,0,2.13,2.435,2.068,2.068,0,0,1,1.84,1.91,1.74,1.74,0,0,1-.277.117l-5.411-.117c.28-.886.033-1.529-.92-1.713-1.885-.364-2.492-1.628-2.894-3.379-1.208-5.264-2.611-10.484-3.913-15.727a3.781,3.781,0,0,0-.943-1.71c-3.084-3.33-6.138-6.69-9.242-10a1.8,1.8,0,0,1-.566-2.024c.588-1.721.564-3.643,1.707-5.185a13.476,13.476,0,0,0,2.457,2.889c1.642,1.71,2.944,3.75,4.916,5.142l.022-.006a.522.522,0,0,0,.4.538l-.008-.01Z" transform="translate(-6.091 -7.689)"/><path class="a" d="M230.644,460.178a2.068,2.068,0,0,0-1.84-1.91,2.723,2.723,0,0,1-2.13-2.435c-1.184-5.005-2.475-9.986-3.716-14.978-.122-.491-.172-1-.256-1.5,2.377,2.076,4.51,4.4,6.7,6.663,4.237,4.381,8.327,9.095,12.829,13.219-.353.284-.611,1.027-.962,1.31-.1-.018-.6-.325-.717-.272Z" transform="translate(-8.803 -10.829)"/><path class="f" d="M196.122,435.36a57.732,57.732,0,0,0-4.679,6.186c-3.281,4.4-6.466,8.878-9.749,13.279-.66.884-.72,1.423.38,1.8,1.367.467.53,1.833,1.1,2.618-1.427.015-2.855,0-4.28.054-.878.037-1.4-.2-1.263-1.18a1.261,1.261,0,0,0-1-1.488c-1.263-.386-.886-.974-.327-1.736q6.471-8.806,12.9-17.645c.961-1.317,1.925-2.631,2.859-3.968.364-.521.669-.644,1.2-.189C194.187,433.88,195.165,434.607,196.122,435.36Z" transform="translate(-2.125 -9.897)"/><path class="d" d="M213.148,424.142c-1.972-1.392-3.275-3.432-4.916-5.142a13.478,13.478,0,0,1-2.457-2.889c1.165-2.146,2.321-4.3,3.5-6.434.165-.3.424-1.048.781-.576.99,1.31,2.789.948,3.816,2.063-1.126,1.978-2.281,3.94-3.365,5.942a2.729,2.729,0,0,0,.328,2.861C211.655,421.329,212.835,422.5,213.148,424.142Z" transform="translate(-6.393 -6.5)"/><g transform="translate(203.838 377.971)"><path class="b" d="M219.154,432.646h0l-.005,0Z" transform="translate(-212.135 -387.844)"/><path class="b" d="M245.5,418.159c.632,2.106,2.124,6.981,2.2,7.348,0-.31-.052-.661-.056-1.027h.008q0-21.873-.005-43.747a13.781,13.781,0,0,0-5.684-.051c-1.413.121-2.836.178-4.239.377a57.125,57.125,0,0,0-14.243,3.642,26.469,26.469,0,0,1-.378,5.477c-.3,2.81-1.588,4.028-4.336,4.6-.621.13-1.16.184-1.42.916-.288.813.316,1.116.721,1.516,1.814,1.792,3.651,3.558,5.48,5.335.289,1.175.648,2.5,1.061,3.927-1.292.394-2.582.8-3.851,1.257-2.224.81-4.254,1.157-6.144-.627-1.126,1.978-2.281,3.94-3.365,5.942a2.728,2.728,0,0,0,.328,2.861c.816,1.363,2,2.533,2.309,4.175l.021-.005c.346.02.4.258.4.537l-.008-.01.259.366,2.75,3.639a.649.649,0,0,1,.676.6c2.325,1.925,4.117,4.351,6.133,6.562,5.361,5.875,10.651,11.815,15.973,17.725.272.3.764.746,1.056,1.03.1-.079.01-.335.107-.414,1.415.072,4.18.281,4.494,1.276C245.656,445.439,244.865,418.03,245.5,418.159Z" transform="translate(-210.971 -380.409)"/></g><path class="g" d="M241.72,458.283c-4.5-4.124-8.592-8.838-12.829-13.219-2.19-2.265-4.323-4.587-6.7-6.663-.8-1.38-1.617-2.753-2.4-4.142-.286-.505-.8-.931-.644-1.618,2.328,1.925,4.12,4.353,6.138,6.566,5.361,5.875,10.651,11.815,15.973,17.725.272.3.764.746,1.056,1.03C242.267,458.254,241.948,458.224,241.72,458.283Z" transform="translate(-8.292 -9.873)"/><path class="g" d="M219.043,432.547c-.425.022-.586-.251-.675-.6A.648.648,0,0,1,219.043,432.547Z" transform="translate(-8.186 -9.773)"/><path class="h" d="M214.8,427.194a.522.522,0,0,1-.4-.538C214.744,426.677,214.8,426.915,214.8,427.194Z" transform="translate(-7.621 -9.021)"/><path class="h" d="M215.118,427.637l-.259-.366Z" transform="translate(-7.686 -9.108)"/><path class="i" d="M187.064,473.082c0-.406-.03-.814.009-1.216s-.246-1.005.537-.994a.9.9,0,0,1,.987.931c.037.86.036,1.723.022,2.584a.96.96,0,0,1-1.037,1.057c-.895-.013-.425-.738-.5-1.148A6.587,6.587,0,0,1,187.064,473.082Z" transform="translate(-3.724 -15.314)"/><path class="i" d="M253.159,451.617c.713-.018,1.425-.05,2.138-.051q28.992-.019,57.984-.034l.477.012c2.6.046,2.6.046,2.6,2.675,0,7.817-.019,15.634.021,23.451.006,1.1-.132,1.573-1.443,1.572q-76.33-.058-152.66-.005c-1.169,0-1.425-.321-1.418-1.445q.073-12.415,0-24.83c-.008-1.166.315-1.5,1.45-1.426,1.318.082,2.649-.034,3.975-.064,1.02-.029.685-.871.708-1.353a10.014,10.014,0,0,1,1.9-5.691c2.455-3.376,4.649-6.941,6.959-10.422a11.568,11.568,0,0,0,1.142-2.153c3.507-8.9,6.8-17.881,10.786-26.587a3.663,3.663,0,0,0,.392-2.215,7.707,7.707,0,0,0,1.655-2.539,25.173,25.173,0,0,1-3.353-.083,7.159,7.159,0,0,0-5.258,1.974c-1.835,1.9-3.894,3.6-5.9,5.335a1.305,1.305,0,0,0-.52,1.588,1.106,1.106,0,0,1-.151,1.273c-.614.666-.959,2.092-1.7,1.991a8.958,8.958,0,0,1-3.211-1.661c-.592-.377.006-.8.16-1.181,1.389-3.411,4.391-5.576,6.486-8.427,3.533-4.8,8.793-6.273,14-7.975a19.576,19.576,0,0,0,2.184-.7,5.106,5.106,0,0,1,5.576.292c.464.338,1.05.619,1.634-.006.646-.691-.08-1.01-.337-1.4-2.581-3.925-1.835-9.357,1.585-11.861,1.927-1.411,4.07-1.112,6.193-.977,2.479.158,2.38.231,3.128,2.6a16.61,16.61,0,0,1,.661,5.274c-.063.554-.142,1.106-.184,1.662-.329,4.33-.923,5.076-5.094,6.362a1.157,1.157,0,0,0-.56,1.978c1.021,1.064,2.112,2.061,3.166,3.1a4.693,4.693,0,0,1,1.133,1.224c.893,2.043,1.78,2.579,3.851,2.123,1.037-.228,2.068-.485,3.1-.728,1.6-.308,3.2-.607,4.8-.925a2.674,2.674,0,0,0,2.089-3.277c-.359-1.7-.71-3.393-1.068-5.089-.37-1.755,1.224-1.208,1.956-1.637.889-.52.875.371,1.014.815.791,2.528,1.54,5.069,2.3,7.6q.583,1.7,1.167,3.392c.79,3.453,3.434,11.727,3.666,12.5q3.96,13.142,7.968,26.269a47.522,47.522,0,0,0,2.124,6.667,2.759,2.759,0,0,1-.854.231c-2.558-.172-5.046.763-7.452,1.665-1.417-6.661-2.853-13.958-4.245-20.623q-2.529-12.1-4.983-24.225c-.256-1.269-.628-1.647-1.983-1.164-3.063,1.089-6.234,1.874-9.288,2.985-2.224.811-4.254,1.157-6.144-.627-1.027-1.115-2.826-.753-3.816-2.063-.358-.472-.617.279-.781.576-1.183,2.136-2.339,4.288-3.5,6.435-1.142,1.54-1.118,3.462-1.707,5.184a1.8,1.8,0,0,0,.566,2.024c3.1,3.311,6.158,6.671,9.242,10a3.781,3.781,0,0,1,.943,1.71c1.3,5.243,2.706,10.463,3.913,15.727.4,1.751,1.009,3.016,2.894,3.379.953.184,1.2.827.92,1.713l5.41.117a1.716,1.716,0,0,0,.278-.117l9.908.1ZM194,427.64c-.956-.754-1.935-1.48-2.859-2.271-.533-.455-.839-.332-1.2.189-.933,1.337-1.9,2.652-2.859,3.968q-6.441,8.828-12.9,17.645c-.559.762-.937,1.35.327,1.736a1.261,1.261,0,0,1,1,1.488c-.134.982.385,1.217,1.263,1.18,1.425-.058,2.853-.039,4.279-.054q12.629.018,25.259.028c.378,0,.911.173,1.055-.346s.34-1.328-.15-1.56c-.8-.376-.744-1.042-.89-1.63q-1.58-6.294-3.084-12.606a2.25,2.25,0,0,0-.839-1.391Q198.189,430.842,194,427.64Zm80.81,35.687" transform="translate(0 -2.176)"/><path class="j" d="M319.093,422.917a52.648,52.648,0,0,0-9.389-13.163,6.657,6.657,0,0,0-2.321-2.172q-9.385,9.55-18.768,19.1c-7.156,7.27-14.341,14.513-21.47,21.809A42.208,42.208,0,0,0,263,452.844a12.14,12.14,0,0,1,4.95,2.9c.628-.018,1.256-.044,1.883-.045q28.992-.019,57.984-.034l.36-.246A81.77,81.77,0,0,0,319.093,422.917Z" transform="translate(-14.539 -6.306)"/><path class="k" d="M305,402.163a69.141,69.141,0,0,0-26.753-16.985,64.543,64.543,0,0,0-21.064-4.034c-.222,8.151-.362,16.307-.692,24.454-.235,5.8-.419,11.608-.623,17.411-.081,2.34-.218,4.68-.257,7.023a7.657,7.657,0,0,0,.168,1.314c.238.793.478,1.585.714,2.369.2.57.4,1.141.567,1.72.431,1.527.883,3.048,1.343,4.567,1.271,4.154,2.3,7.444,2.736,8.6.051.1.1.195.154.292.085.021.319.08.657.184a42.126,42.126,0,0,1,4.142-4.357c7.129-7.3,14.313-14.539,21.47-21.809q9.393-9.539,18.768-19.1A4.971,4.971,0,0,0,305,402.163Z" transform="translate(-13.487 -2.543)"/><path class="l" d="M251.289,453.712a5.344,5.344,0,0,1-.766-1.833c-1.417-6.661-2.853-13.318-4.245-19.983q-2.529-12.1-4.982-24.225l-1.6-7.565c-.359-1.7-.784-3.38-1.068-5.09-.221-1.335,1.128-1.454,1.957-1.637.716-.158.874.371,1.013.815.792,2.527,1.54,5.069,2.3,7.6.389,1.13,4.6,15.119,4.834,15.888,2.639,8.761,9.173,30.781,10.09,32.938a12.529,12.529,0,0,1,5.654,3.088" transform="translate(-11.067 -4.28)"/><circle class="m" cx="11.743" cy="11.743" r="11.743" transform="translate(228.547 446.1)"/></g></svg>