<svg xmlns="http://www.w3.org/2000/svg" xmlns:xlink="http://www.w3.org/1999/xlink" width="148" height="148" viewBox="0 0 148 148"><defs><style>.a{fill:#fff;}.b,.c,.d{fill:#093d78;stroke:#093d78;stroke-miterlimit:10;}.c,.d{stroke-linecap:round;stroke-linejoin:round;}.c{stroke-width:1.5px;}.d{stroke-width:0.5px;}.e{fill:#00efd1;}.f{filter:url(#a);}</style><filter id="a" x="0" y="0" width="148" height="148" filterUnits="userSpaceOnUse"><feOffset dy="2" input="SourceAlpha"/><feGaussianBlur stdDeviation="5" result="b"/><feFlood flood-opacity="0.122"/><feComposite operator="in" in2="b"/><feComposite in="SourceGraphic"/></filter></defs><g transform="translate(-721 -8821)"><g class="f" transform="matrix(1, 0, 0, 1, 721, 8821)"><circle class="a" cx="59" cy="59" r="59" transform="translate(15 13)"/></g><g transform="translate(-1060.668 8507.9)"><g transform="translate(1831.45 369.133)"><path class="b" d="M1865.711,412.644h-21.062a13.242,13.242,0,0,1-13.194-13.178c-.279-13.307,11.7-32.291,18.711-32.719h10.775c2.961,0,6.776,2.958,10.466,8.115,5.359,7.489,10.118,22.467,7.936,28.87C1876.726,412.177,1873.1,412.644,1865.711,412.644Zm-15.477-44.452c-2.786.19-7.167,4.539-10.912,10.836-4.143,6.963-6.542,14.593-6.421,20.407a11.806,11.806,0,0,0,11.748,11.763h21.062c4.453,0,8.356-1.761,10.759-5.546a14.419,14.419,0,0,0,2.132-5.576,19.963,19.963,0,0,0-.207-5.478c-.614-5.666-4.334-13.547-8.163-18.9-3.365-4.7-6.838-7.509-9.29-7.509Z" transform="translate(-1831.45 -366.745)"/></g><g transform="translate(1842.356 353.329)"><path class="c" d="M1861.517,367.388h-15.08l-5.407-6.425c-.158-.229-.921-1.411-.352-2.286s1.9-.624,2.331-.539l.165.031c2.671.515,4.6.889,6.2-.033a18.949,18.949,0,0,0,2.013-1.393,6.074,6.074,0,0,1,2.484-1.4l.1-.015.1.015a6.084,6.084,0,0,1,2.484,1.4,19.035,19.035,0,0,0,2.012,1.394c1.6.921,3.533.548,6.2.033l.163-.031c.435-.085,1.76-.34,2.332.539s-.193,2.058-.352,2.286l-.041.053Zm-14.407-1.446h13.735l4.907-5.829a2.1,2.1,0,0,0,.279-.614,2.457,2.457,0,0,0-.812.059l-.165.031c-2.866.554-5.129.99-7.2-.2a19.884,19.884,0,0,1-2.168-1.5,1.884,1.884,0,0,0-3.422,0,20.028,20.028,0,0,1-2.168,1.5c-2.069,1.19-4.333.753-7.2.2l-.163-.031a2.459,2.459,0,0,0-.812-.059,2.112,2.112,0,0,0,.278.613Z" transform="translate(-1840.47 -355.329)"/></g><g transform="translate(1849.746 369.267)"><path class="d" d="M1848.028,377.171l-1.447-.015c0-.3.122-7.5,4.073-10.3l.838,1.18C1848.144,370.413,1848.028,377.1,1848.028,377.171Z" transform="translate(-1846.581 -366.856)"/></g><g transform="translate(1857.112 369.267)"><path class="d" d="M1856.137,377.171c0-.066-.116-6.758-3.464-9.135l.838-1.18c3.95,2.805,4.071,10,4.074,10.3Z" transform="translate(-1852.673 -366.856)"/></g><path class="e" d="M10.615,17.414a3.033,3.033,0,1,0,3.033,3.033A3.033,3.033,0,0,0,10.615,17.414Zm0-9.1A3.033,3.033,0,1,0,7.582,5.283,3.033,3.033,0,0,0,10.615,8.316Zm9.1,2.275H1.516A1.517,1.517,0,0,0,0,12.107v1.516a1.517,1.517,0,0,0,1.516,1.516h18.2a1.517,1.517,0,0,0,1.516-1.516V12.107A1.517,1.517,0,0,0,19.713,10.59Z" transform="translate(1845.249 383.473)"/></g></g></svg>