<svg xmlns="http://www.w3.org/2000/svg" xmlns:xlink="http://www.w3.org/1999/xlink" width="106" height="106" viewBox="0 0 106 106"><defs><style>.a{fill:#fff;}.b{clip-path:url(#c);}.c{fill:#00477b;}.d{clip-path:url(#d);}.e{clip-path:url(#e);}.f{filter:url(#a);}</style><filter id="a" x="0" y="0" width="106" height="106" filterUnits="userSpaceOnUse"><feOffset input="SourceAlpha"/><feGaussianBlur stdDeviation="3.5" result="b"/><feFlood flood-opacity="0.102"/><feComposite operator="in" in2="b"/><feComposite in="SourceGraphic"/></filter><clipPath id="c"><rect width="14.883" height="6.503"/></clipPath><clipPath id="d"><rect width="17.074" height="6.885"/></clipPath><clipPath id="e"><path d="M50,48.214l-.522-3.209L46.8,32H91.727V45.631L80.6,45.562V50.6l11.127.1v8.1H80.6V64.27l11.127.278V79.987H50V73.032l1.445-2.475Z" transform="translate(-46.8 -32)"/></clipPath></defs><g transform="translate(-1488.5 -1440.5)"><g class="f" transform="matrix(1, 0, 0, 1, 1488.5, 1440.5)"><circle class="a" cx="42.5" cy="42.5" r="42.5" transform="translate(10.5 10.5)"/></g><g transform="translate(1489.79 1439.4)"><g transform="translate(58.915 50.707)"><g class="b"><g transform="translate(3.303 1.669)"><path class="c" d="M151.276,96.491v5.286h-5.286V96.491h5.286m0-1.391h-5.286a1.4,1.4,0,0,0-1.391,1.391v5.286a1.4,1.4,0,0,0,1.391,1.391h5.286a1.4,1.4,0,0,0,1.391-1.391V96.491a1.373,1.373,0,0,0-1.391-1.391Z" transform="translate(-144.6 -95.1)"/></g></g></g><g transform="translate(57.872 36.589)"><g class="d" transform="translate(0 0)"><g transform="translate(4.347 2.434)"><path class="c" d="M151.276,58.091v5.286h-5.286V58.091h5.286m0-1.391h-5.286a1.4,1.4,0,0,0-1.391,1.391v5.286a1.4,1.4,0,0,0,1.391,1.391h5.286a1.4,1.4,0,0,0,1.391-1.391V58.091a1.4,1.4,0,0,0-1.391-1.391Z" transform="translate(-144.6 -56.7)"/></g></g></g><g transform="translate(60.55 42.64)"><g transform="translate(0)"><path class="c" d="M152.562,68.839v4.277H141.539V68.839h11.023m0-1.739H141.539a1.722,1.722,0,0,0-1.739,1.739v4.277a1.722,1.722,0,0,0,1.739,1.739h11.023a1.722,1.722,0,0,0,1.739-1.739V68.839a1.722,1.722,0,0,0-1.739-1.739Z" transform="translate(-139.8 -67.1)"/></g></g><g transform="translate(60.55 56.097)"><g transform="translate(0)"><path class="c" d="M152.562,107.539v4.277H141.539v-4.277h11.023m0-1.739H141.539a1.722,1.722,0,0,0-1.739,1.739v4.277a1.722,1.722,0,0,0,1.739,1.739h11.023a1.722,1.722,0,0,0,1.739-1.739v-4.277a1.722,1.722,0,0,0-1.739-1.739Z" transform="translate(-139.8 -105.8)"/></g></g><g transform="translate(62.219 65.695)"><g transform="translate(0 0)"><path class="c" d="M151.276,134.791v5.286h-5.286v-5.286h5.286m0-1.391h-5.286a1.4,1.4,0,0,0-1.391,1.391v5.286a1.4,1.4,0,0,0,1.391,1.391h5.286a1.4,1.4,0,0,0,1.391-1.391v-5.286a1.4,1.4,0,0,0-1.391-1.391Z" transform="translate(-144.6 -133.4)"/></g></g><g transform="translate(50.291 67.538)"><rect class="c" width="4.764" height="8.554"/></g><g transform="translate(48.657 39.024)"><g transform="translate(0 0)"><path class="c" d="M112.276,58.091v5.286h-5.286V58.091h5.286m0-1.391h-5.286a1.4,1.4,0,0,0-1.391,1.391v5.286a1.4,1.4,0,0,0,1.391,1.391h5.286a1.4,1.4,0,0,0,1.391-1.391V58.091a1.4,1.4,0,0,0-1.391-1.391Z" transform="translate(-105.6 -56.7)"/></g></g><g transform="translate(30.227 29.6)"><path class="c" d="M95.406,31.686v3.095H54.686V31.686H95.406m0-2.086H54.686A2.093,2.093,0,0,0,52.6,31.686v3.095a2.093,2.093,0,0,0,2.086,2.086H95.406a2.093,2.093,0,0,0,2.086-2.086V31.686A2.093,2.093,0,0,0,95.406,29.6Z" transform="translate(-52.6 -29.6)"/></g><g transform="translate(48.657 52.376)"><path class="c" d="M112.276,96.491v5.286h-5.286V96.491h5.286m0-1.391h-5.286a1.4,1.4,0,0,0-1.391,1.391v5.286a1.4,1.4,0,0,0,1.391,1.391h5.286a1.4,1.4,0,0,0,1.391-1.391V96.491a1.373,1.373,0,0,0-1.391-1.391Z" transform="translate(-105.6 -95.1)"/></g><g transform="translate(28.21 30.435)"><g class="e" transform="translate(0 0)"><path class="c" d="M100.256,87.506H66.143A1.025,1.025,0,0,1,65.1,86.463V45.743A1.025,1.025,0,0,1,66.143,44.7h34.113a1.025,1.025,0,0,1,1.043,1.043v40.72A1.025,1.025,0,0,1,100.256,87.506ZM67.186,85.42H99.213V46.786H67.186Z" transform="translate(-58.736 -40.284)"/></g></g></g></g></svg>