<svg xmlns="http://www.w3.org/2000/svg" width="13.592" height="13.589" viewBox="0 0 13.592 13.589"><defs><style>.a{fill:#fff;}</style></defs><path class="a" d="M6.792,5.548a3.484,3.484,0,1,0,3.484,3.484A3.478,3.478,0,0,0,6.792,5.548Zm0,5.749A2.265,2.265,0,1,1,9.057,9.032,2.269,2.269,0,0,1,6.792,11.3Zm4.439-5.892a.813.813,0,1,1-.813-.813A.811.811,0,0,1,11.231,5.406Zm2.308.825a4.022,4.022,0,0,0-1.1-2.847,4.048,4.048,0,0,0-2.847-1.1c-1.122-.064-4.485-.064-5.607,0A4.042,4.042,0,0,0,1.14,3.38a4.035,4.035,0,0,0-1.1,2.847c-.064,1.122-.064,4.485,0,5.607a4.022,4.022,0,0,0,1.1,2.847,4.053,4.053,0,0,0,2.847,1.1c1.122.064,4.485.064,5.607,0a4.021,4.021,0,0,0,2.847-1.1,4.048,4.048,0,0,0,1.1-2.847c.064-1.122.064-4.482,0-5.6Zm-1.449,6.807A2.293,2.293,0,0,1,10.8,14.329a14.976,14.976,0,0,1-4.006.273,15.093,15.093,0,0,1-4.006-.273,2.293,2.293,0,0,1-1.292-1.292,14.976,14.976,0,0,1-.273-4.006,15.093,15.093,0,0,1,.273-4.006A2.293,2.293,0,0,1,2.787,3.735a14.976,14.976,0,0,1,4.006-.273,15.093,15.093,0,0,1,4.006.273,2.293,2.293,0,0,1,1.292,1.292,14.976,14.976,0,0,1,.273,4.006A14.967,14.967,0,0,1,12.089,13.038Z" transform="translate(0.005 -2.238)"/></svg>