<svg xmlns="http://www.w3.org/2000/svg" xmlns:xlink="http://www.w3.org/1999/xlink" width="144.734" height="144.734" viewBox="0 0 144.734 144.734"><defs><style>.a{fill:#fff;}.b{fill:none;}.b,.c{stroke:#093d78;stroke-miterlimit:10;stroke-width:2.5px;}.c{fill:#00efd1;}.d{filter:url(#a);}</style><filter id="a" x="0" y="0" width="144.734" height="144.734" filterUnits="userSpaceOnUse"><feOffset input="SourceAlpha"/><feGaussianBlur stdDeviation="3.5" result="b"/><feFlood flood-opacity="0.102"/><feComposite operator="in" in2="b"/><feComposite in="SourceGraphic"/></filter></defs><g transform="translate(-1396.5 -9946.5)"><g class="d" transform="matrix(1, 0, 0, 1, 1396.5, 9946.5)"><circle class="a" cx="61.867" cy="61.867" r="61.867" transform="translate(10.5 10.5)"/></g><g transform="translate(-490.146 9772.249)"><path class="b" d="M1952.213,231.932h-1.908a15.16,15.16,0,0,0-15.159,15.159v15.793h46.794V247.091a15.16,15.16,0,0,0-15.159-15.159h-1.907" transform="translate(0 4.317)"/><path class="c" d="M1952.4,233.474l-3.468,16.031a.934.934,0,0,0,.253.861l5.783,5.783a.209.209,0,0,0,.3,0l5.389-5.389a1.88,1.88,0,0,0,.512-1.709l-3.254-15.726" transform="translate(3.672 4.688)"/><circle class="b" cx="11.341" cy="11.341" r="11.341" transform="translate(1947.188 215.751)"/><line class="b" x1="17.067" transform="translate(1950.009 272.268)"/><line class="b" x2="28.181" transform="translate(1944.452 277.335)"/></g></g></svg>