<svg xmlns="http://www.w3.org/2000/svg" xmlns:xlink="http://www.w3.org/1999/xlink" width="148" height="148" viewBox="0 0 148 148"><defs><style>.a{fill:#fff;}.b{fill:#00efd1;}.b,.c,.e{stroke:#093d78;}.b,.c{stroke-miterlimit:10;stroke-width:2px;}.c{fill:none;stroke-linecap:round;}.d,.e{fill:#093d78;}.e{stroke-width:0.5px;}.f{filter:url(#a);}</style><filter id="a" x="0" y="0" width="148" height="148" filterUnits="userSpaceOnUse"><feOffset dy="2" input="SourceAlpha"/><feGaussianBlur stdDeviation="5" result="b"/><feFlood flood-opacity="0.122"/><feComposite operator="in" in2="b"/><feComposite in="SourceGraphic"/></filter></defs><g transform="translate(-417 -5850)"><g class="f" transform="matrix(1, 0, 0, 1, 417, 5850)"><circle class="a" cx="59" cy="59" r="59" transform="translate(15 13)"/></g><g transform="translate(-915.312 5751.361)"><circle class="b" cx="10.85" cy="10.85" r="10.85" transform="translate(1411.662 162.085)"/><line class="c" x2="26.671" transform="translate(1394.37 152.773)"/><line class="c" x2="26.671" transform="translate(1394.37 158.305)"/><path class="d" d="M1414.776,166.745h-19.461a.941.941,0,0,0,0,1.882h17.376A10.469,10.469,0,0,1,1414.776,166.745Z" transform="translate(-0.946 -2.907)"/><path class="d" d="M1410.958,171.819h-15.643a.941.941,0,0,0,0,1.882h15.093A10.35,10.35,0,0,1,1410.958,171.819Z" transform="translate(-0.946 -1.66)"/><path class="e" d="M1428.642,163.243a10.513,10.513,0,0,1,1.8,1.64h.079V143.638h-44.76v45.618h1.882V145.52h41Z" transform="translate(-0.439 -3)"/><path class="e" d="M1428.2,188.826v3.019a5.788,5.788,0,0,1-11.576.067v-.932l-38.314-.012v1.142a7.386,7.386,0,0,0,7.378,7.378h36.074q.322.027.651.027a7.679,7.679,0,0,0,7.67-7.67v-4.257A5.763,5.763,0,0,1,1428.2,188.826Zm-42.513,8.779a5.5,5.5,0,0,1-5.446-4.755H1414.8a7.573,7.573,0,0,0,2.534,4.755Z" transform="translate(0 -2.589)"/><path class="d" d="M6.772,8.874l5.264,5.264a.65.65,0,0,1,0,.919l-.614.614a.65.65,0,0,1-.918,0L6.312,11.5,2.12,15.672a.65.65,0,0,1-.918,0l-.614-.614a.65.65,0,0,1,0-.919L5.852,8.874A.65.65,0,0,1,6.772,8.874Z" transform="translate(1416.2 161.358)"/></g></g></svg>