<svg xmlns="http://www.w3.org/2000/svg" xmlns:xlink="http://www.w3.org/1999/xlink" width="106" height="106" viewBox="0 0 106 106"><defs><style>.a{fill:#fff;}.b{fill:#00efd1;stroke-width:1.5px;}.b,.c{stroke:#093d78;stroke-miterlimit:10;}.c{fill:none;stroke-linecap:round;stroke-width:2px;}.d{fill:#093d78;}.e{filter:url(#a);}</style><filter id="a" x="0" y="0" width="106" height="106" filterUnits="userSpaceOnUse"><feOffset input="SourceAlpha"/><feGaussianBlur stdDeviation="3.5" result="b"/><feFlood flood-opacity="0.102"/><feComposite operator="in" in2="b"/><feComposite in="SourceGraphic"/></filter></defs><g transform="translate(-540.5 -1695.5)"><g class="e" transform="matrix(1, 0, 0, 1, 540.5, 1695.5)"><circle class="a" cx="42.5" cy="42.5" r="42.5" transform="translate(10.5 10.5)"/></g><g transform="translate(-810.312 1580.362)"><circle class="b" cx="9.905" cy="9.905" r="9.905" transform="translate(1408.757 162.304)"/><line class="c" x2="24.347" transform="translate(1392.971 155.629)"/><line class="c" x2="24.347" transform="translate(1392.971 159.988)"/><path class="d" d="M1413,166.745h-17.765a.859.859,0,0,0,0,1.718H1411.1A9.559,9.559,0,0,1,1413,166.745Z" transform="translate(-2.263 -3.256)"/><path class="d" d="M1409.513,171.819h-14.28a.859.859,0,0,0,0,1.718h13.778A9.457,9.457,0,0,1,1409.513,171.819Z" transform="translate(-2.263 -3.971)"/><path class="d" d="M1424.906,161.535a9.6,9.6,0,0,1,1.646,1.5h.072V143.638h-40.86v41.644h1.718V145.356h37.424Z" transform="translate(-1.05 0)"/><path class="d" d="M1423.856,188.719v2.756a5.284,5.284,0,0,1-10.568.061v-.85l-34.976-.011v1.042a6.743,6.743,0,0,0,6.735,6.735h32.931q.294.024.594.025a7.01,7.01,0,0,0,7-7v-3.887A5.261,5.261,0,0,1,1423.856,188.719Zm-38.809,8.014a5.024,5.024,0,0,1-4.972-4.341h31.548a6.913,6.913,0,0,0,2.313,4.341Z" transform="translate(0 -6.193)"/><path class="d" d="M6.216,15.062l4.806-4.806a.593.593,0,0,0,0-.839l-.56-.56a.593.593,0,0,0-.838,0L5.8,12.665,1.97,8.856a.593.593,0,0,0-.838,0l-.56.56a.593.593,0,0,0,0,.839l4.806,4.806A.593.593,0,0,0,6.216,15.062Z" transform="translate(1412.865 160.883)"/></g></g></svg>