<svg xmlns="http://www.w3.org/2000/svg" xmlns:xlink="http://www.w3.org/1999/xlink" width="144.734" height="144.734" viewBox="0 0 144.734 144.734"><defs><style>.a{fill:#fff;}.b,.d,.e,.g{fill:#093d78;}.b,.c,.d,.e{stroke:#093d78;}.b,.e{stroke-miterlimit:10;}.c{fill:#00efd1;}.e{stroke-width:0.5px;}.f{fill:#fa7819;}.h{filter:url(#a);}</style><filter id="a" x="0" y="0" width="144.734" height="144.734" filterUnits="userSpaceOnUse"><feOffset input="SourceAlpha"/><feGaussianBlur stdDeviation="3.5" result="b"/><feFlood flood-opacity="0.102"/><feComposite operator="in" in2="b"/><feComposite in="SourceGraphic"/></filter></defs><g transform="translate(-1141.5 -9946.5)"><g class="h" transform="matrix(1, 0, 0, 1, 1141.5, 9946.5)"><circle class="a" cx="61.867" cy="61.867" r="61.867" transform="translate(10.5 10.5)"/></g><g transform="translate(-649.45 9628.671)"><g transform="translate(1831.45 369.788)"><path class="b" d="M1867.338,414.824h-22.062a13.871,13.871,0,0,1-13.821-13.8c-.292-13.939,12.251-33.825,19.6-34.273h11.286c3.1,0,7.1,3.1,10.964,8.5,5.614,7.845,10.1,19.3,7.815,26C1878.05,410.253,1875.076,414.824,1867.338,414.824Zm-16.212-46.563c-2.918.2-7.507,4.755-11.431,11.351-4.339,7.294-6.852,15.286-6.725,21.376a12.367,12.367,0,0,0,12.306,12.321h22.062c6.86,0,9.447-4.048,12.347-12.55,2.1-6.157-2.356-17.286-7.612-24.632-3.525-4.924-7.162-7.865-9.731-7.865Z" transform="translate(-1831.45 -366.745)"/></g><g transform="translate(1863.426 393.818)"><circle class="c" cx="14.867" cy="14.867" r="14.867" transform="translate(0.868 0.867)"/><path class="d" d="M1872.432,417.188a15.735,15.735,0,1,1,15.735-15.736A15.753,15.753,0,0,1,1872.432,417.188Zm0-29.735a14,14,0,1,0,14,14A14.016,14.016,0,0,0,1872.432,387.452Z" transform="translate(-1856.696 -385.717)"/></g><g transform="translate(1842.874 354.329)"><path class="b" d="M1862.517,367.961h-15.8l-5.664-6.731c-.166-.239-.965-1.478-.369-2.4s1.987-.654,2.442-.565l.172.033c2.8.54,4.819.931,6.5-.034a19.842,19.842,0,0,0,2.109-1.459,6.363,6.363,0,0,1,2.6-1.465l.109-.015.109.015a6.373,6.373,0,0,1,2.6,1.464,20.012,20.012,0,0,0,2.108,1.46c1.679.965,3.7.574,6.5.034l.171-.033c.456-.089,1.844-.356,2.443.565s-.2,2.156-.368,2.4l-.043.056Zm-15.091-1.515h14.387l5.14-6.106a2.194,2.194,0,0,0,.292-.643,2.572,2.572,0,0,0-.851.062l-.172.033c-3,.58-5.373,1.037-7.54-.209a20.857,20.857,0,0,1-2.271-1.567,1.973,1.973,0,0,0-3.584,0,20.972,20.972,0,0,1-2.271,1.567c-2.167,1.246-4.538.789-7.541.209l-.171-.033a2.576,2.576,0,0,0-.851-.062,2.218,2.218,0,0,0,.292.642Z" transform="translate(-1840.47 -355.329)"/></g><g transform="translate(1850.615 369.929)"><path class="e" d="M1848.1,377.661l-1.516-.015c0-.319.128-7.852,4.267-10.79l.878,1.236C1848.219,370.582,1848.1,377.591,1848.1,377.661Z" transform="translate(-1846.581 -366.856)"/></g><g transform="translate(1858.33 369.929)"><path class="e" d="M1856.3,377.661c0-.07-.122-7.079-3.629-9.569l.878-1.236c4.138,2.938,4.265,10.471,4.267,10.79Z" transform="translate(-1852.673 -366.856)"/></g><g transform="translate(1847.973 387.437)"><path class="f" d="M1847.1,381.3h13.628v.029a21.027,21.027,0,0,1-1.36,1.984h-3.641a4.766,4.766,0,0,1,1.019,2.138h3.881c.047.01.071.029.071.057q-1.3,1.954-1.331,1.954h-2.523a5.771,5.771,0,0,1-.963,2.423,5.911,5.911,0,0,1-2.224,1.855,8.785,8.785,0,0,1-3.8.949v.029q0,.142,8.2,9.732h-3.612q-7.989-9.307-7.99-9.35v-1.884l.029-.071a11.949,11.949,0,0,0,1.657.1q4.476,0,5.567-2.9a2.334,2.334,0,0,0,.171-.878h-8.1a.05.05,0,0,1-.056-.056q1.345-1.956,1.374-1.955h6.432v-.029a3.774,3.774,0,0,0-2.14-1.742,6.651,6.651,0,0,0-2.04-.368h-3.6v-.071Q1847.056,381.3,1847.1,381.3Z" transform="translate(-1845.725 -381.299)"/></g><g transform="translate(1871.557 402.259)"><path class="g" d="M1877.683,398.7a.643.643,0,0,1-.374-.12l-6.614-4.765-6.563,4.764a.64.64,0,0,1-.751-1.036l6.937-5.036a.643.643,0,0,1,.751,0l6.989,5.036a.64.64,0,0,1-.375,1.159Z" transform="translate(-1863.116 -392.382)"/><g transform="translate(9.423 0.08)"><path class="g" d="M1873.845,396.205h-1.281v-2.48h-.728v.977h-1.281v-1.036a1.223,1.223,0,0,1,1.222-1.221h.845a1.223,1.223,0,0,1,1.222,1.221Z" transform="translate(-1870.556 -392.445)"/></g><g transform="translate(1.759 5.677)"><path class="g" d="M1874.895,396.894v6.8a.22.22,0,0,1-.22.22h-8.765a.157.157,0,0,1-.157-.156v-6.9l-1.247.9v6a1.406,1.406,0,0,0,1.4,1.4h8.765a1.47,1.47,0,0,0,1.468-1.469v-5.907Z" transform="translate(-1864.505 -396.864)"/></g><g transform="translate(5.528 8.287)"><path class="g" d="M1870.338,404.283h-1.616a1.242,1.242,0,0,1-1.241-1.241v-2.875a1.242,1.242,0,0,1,1.241-1.241h1.616a1.243,1.243,0,0,1,1.242,1.241v2.875A1.243,1.243,0,0,1,1870.338,404.283Zm-1.616-4.4a.28.28,0,0,0-.281.281v2.875a.281.281,0,0,0,.281.281h1.616a.281.281,0,0,0,.281-.281v-2.875a.281.281,0,0,0-.281-.281Z" transform="translate(-1867.481 -398.925)"/></g></g></g></g></svg>