<svg xmlns="http://www.w3.org/2000/svg" xmlns:xlink="http://www.w3.org/1999/xlink" width="106" height="106" viewBox="0 0 106 106"><defs><style>.a{fill:#fff;}.b{fill:#093d78;fill-rule:evenodd;}.c{filter:url(#a);}</style><filter id="a" x="0" y="0" width="106" height="106" filterUnits="userSpaceOnUse"><feOffset input="SourceAlpha"/><feGaussianBlur stdDeviation="3.5" result="b"/><feFlood flood-opacity="0.102"/><feComposite operator="in" in2="b"/><feComposite in="SourceGraphic"/></filter></defs><g transform="translate(-1262.5 -2961.5)"><g class="c" transform="matrix(1, 0, 0, 1, 1262.5, 2961.5)"><circle class="a" cx="42.5" cy="42.5" r="42.5" transform="translate(10.5 10.5)"/></g><path class="b" d="M47.6,3A4.329,4.329,0,0,1,51.93,7.328V37.62A4.329,4.329,0,0,1,47.6,41.948H4.328A4.329,4.329,0,0,1,0,37.62V7.328A4.329,4.329,0,0,1,4.328,3Zm2.164,17.31H2.164V37.62a2.165,2.165,0,0,0,2.164,2.164H47.6a2.165,2.165,0,0,0,2.164-2.164ZM17.31,31.129v2.164H6.491V31.129ZM45.439,26.8v2.164H38.948V26.8ZM23.8,26.8v2.164H6.491V26.8ZM2.164,13.819v4.327h47.6V13.819Zm47.6-2.164V7.328A2.165,2.165,0,0,0,47.6,5.164H4.328A2.165,2.165,0,0,0,2.164,7.328v4.328Z" transform="translate(1289.761 2993.071)"/></g></svg>