<svg xmlns="http://www.w3.org/2000/svg" width="50.344" height="55.487" viewBox="0 0 50.344 55.487"><defs><style>.a,.c{fill:#093d78;}.a,.e{stroke:#093d78;}.a{stroke-miterlimit:10;stroke-width:0.5px;}.b{fill:#00efd1;}.d{fill:#f7caa5;}.e{fill:none;stroke-linecap:round;stroke-linejoin:round;stroke-width:1.25px;}</style></defs><g transform="translate(-1831.199 -355.077)"><path class="a" d="M1859.785,404.7h-17.419a10.951,10.951,0,0,1-10.912-10.9c-.231-11.005,9.673-26.706,15.475-27.06h8.911c2.449,0,5.6,2.446,8.656,6.711,4.432,6.194,7.975,15.235,6.17,20.53C1868.242,401.1,1865.894,404.7,1859.785,404.7Zm-12.8-36.763c-2.3.157-5.927,3.754-9.025,8.962-3.426,5.759-5.41,12.069-5.31,16.877a9.764,9.764,0,0,0,9.716,9.728h17.419c5.416,0,7.459-3.2,9.748-9.909,1.657-4.861-1.86-13.648-6.01-19.448-2.783-3.888-5.655-6.21-7.683-6.21Z"/><circle class="b" cx="11.738" cy="11.738" r="11.738" transform="translate(1857.381 386.402)"/><path class="c" d="M1869.12,410.564a12.423,12.423,0,1,1,12.423-12.424A12.438,12.438,0,0,1,1869.12,410.564Zm0-23.477a11.053,11.053,0,1,0,11.053,11.053A11.066,11.066,0,0,0,1869.12,387.087Z"/><path class="a" d="M1857.877,365.3h-12.472l-4.472-5.314c-.131-.189-.762-1.167-.291-1.891s1.569-.516,1.928-.446l.136.026c2.209.426,3.8.735,5.13-.027a15.674,15.674,0,0,0,1.665-1.152,5.023,5.023,0,0,1,2.054-1.157l.086-.012.086.012a5.032,5.032,0,0,1,2.054,1.156,15.777,15.777,0,0,0,1.664,1.153c1.326.762,2.922.453,5.131.027l.135-.026c.36-.07,1.456-.281,1.929.446s-.16,1.7-.291,1.891l-.034.044Zm-11.915-1.2h11.359l4.058-4.821a1.737,1.737,0,0,0,.231-.508,2.032,2.032,0,0,0-.672.049l-.136.026c-2.37.458-4.242.819-5.953-.165a16.458,16.458,0,0,1-1.793-1.237,1.558,1.558,0,0,0-2.83,0,16.554,16.554,0,0,1-1.793,1.237c-1.711.984-3.583.623-5.954.165l-.135-.026a2.034,2.034,0,0,0-.672-.049,1.747,1.747,0,0,0,.23.507Z"/><path class="a" d="M1847.778,375.387l-1.2-.012c0-.252.1-6.2,3.369-8.519l.693.976C1847.874,369.8,1847.778,375.332,1847.778,375.387Z"/><path class="a" d="M1855.538,375.387c0-.055-.1-5.589-2.865-7.555l.693-.976c3.267,2.32,3.367,8.267,3.369,8.519Z"/><path class="d" d="M1846.729,381.3h9.961v.021a15.4,15.4,0,0,1-.994,1.45h-2.661a3.483,3.483,0,0,1,.745,1.563h2.837c.034.007.052.021.052.042q-.952,1.428-.973,1.428h-1.844a4.216,4.216,0,0,1-.7,1.771,4.321,4.321,0,0,1-1.625,1.356,6.421,6.421,0,0,1-2.775.694v.021q0,.1,5.995,7.113h-2.64q-5.84-6.8-5.84-6.834v-1.377l.021-.052a8.732,8.732,0,0,0,1.211.073q3.272,0,4.069-2.123a1.71,1.71,0,0,0,.125-.642h-5.923a.036.036,0,0,1-.041-.041q.983-1.43,1-1.429h4.7v-.021a2.759,2.759,0,0,0-1.564-1.273,4.861,4.861,0,0,0-1.491-.269h-2.63v-.052Q1846.7,381.3,1846.729,381.3Z"/><g transform="translate(1874.541 379.853)"><path class="e" d="M16.182,26.318V25.045A2.545,2.545,0,0,0,13.636,22.5H8.545A2.545,2.545,0,0,0,6,25.045v1.273" transform="translate(-16.091 -2.409)"/><path class="e" d="M17.577,7.289A2.789,2.789,0,1,1,14.789,4.5,2.789,2.789,0,0,1,17.577,7.289Z" transform="translate(-19.789 8.211)"/></g></g></svg>