<svg xmlns="http://www.w3.org/2000/svg" width="14.847" height="10.279" viewBox="0 0 14.847 10.279"><defs><style>.a{fill:#fff;}</style></defs><g transform="translate(-3.375 -7.875)"><path class="a" d="M18.1,10.336l-3.84,3.912a.069.069,0,0,0,0,.1l2.687,2.862a.463.463,0,0,1,0,.657.465.465,0,0,1-.657,0l-2.677-2.852a.073.073,0,0,0-.1,0l-.653.664a2.874,2.874,0,0,1-2.049.864,2.931,2.931,0,0,1-2.091-.889l-.628-.639a.073.073,0,0,0-.1,0L5.309,17.866a.465.465,0,0,1-.657,0,.463.463,0,0,1,0-.657L7.34,14.347a.076.076,0,0,0,0-.1L3.5,10.336a.07.07,0,0,0-.121.05v7.827a1.145,1.145,0,0,0,1.142,1.142H17.08a1.145,1.145,0,0,0,1.142-1.142V10.386A.071.071,0,0,0,18.1,10.336Z" transform="translate(0 -1.201)"/><path class="a" d="M11.218,14.41a1.94,1.94,0,0,0,1.4-.585l5.6-5.7a1.122,1.122,0,0,0-.707-.25H4.932a1.114,1.114,0,0,0-.707.25l5.6,5.7A1.941,1.941,0,0,0,11.218,14.41Z" transform="translate(-0.419 0)"/></g></svg>