<svg xmlns="http://www.w3.org/2000/svg" xmlns:xlink="http://www.w3.org/1999/xlink" width="106" height="106" viewBox="0 0 106 106"><defs><style>.a{fill:#fff;}.b{fill:#093d78;}.c{fill:#00efd1;}.d{filter:url(#a);}</style><filter id="a" x="0" y="0" width="106" height="106" filterUnits="userSpaceOnUse"><feOffset input="SourceAlpha"/><feGaussianBlur stdDeviation="3.5" result="b"/><feFlood flood-opacity="0.102"/><feComposite operator="in" in2="b"/><feComposite in="SourceGraphic"/></filter></defs><g transform="translate(-314.5 -2961.5)"><g class="d" transform="matrix(1, 0, 0, 1, 314.5, 2961.5)"><circle class="a" cx="42.5" cy="42.5" r="42.5" transform="translate(10.5 10.5)"/></g><g transform="translate(92.201 2845.617)"><path class="b" d="M275.509,144.383a1.9,1.9,0,0,1,1.462,1.922c.184.01.353.025.522.025,1.081,0,2.161,0,3.242,0a1.746,1.746,0,0,1,1.948,1.9c.005,3.033.091,6.07-.042,9.1a13.949,13.949,0,0,1-7.169,11.881A13.139,13.139,0,0,1,270.3,171c-.3.039-.444.129-.442.475.017,3.42-.021,6.84.032,10.26a9.034,9.034,0,0,0,17.841,1.549,10.782,10.782,0,0,0,.248-2.155c.032-2.161,0-4.324.021-6.485a.582.582,0,0,0-.458-.659,6.533,6.533,0,0,1-4.419-6.53,6.653,6.653,0,0,1,13.3.428A6.526,6.526,0,0,1,291.96,174a.525.525,0,0,0-.405.592c.016,2.146.023,4.292.005,6.437A12.39,12.39,0,0,1,285,192.33a11.965,11.965,0,0,1-12.242-.04,12.112,12.112,0,0,1-6.178-8.367,15.053,15.053,0,0,1-.281-3.023c-.035-3.065-.021-6.13,0-9.2,0-.462-.1-.653-.6-.745a14.394,14.394,0,0,1-11.626-11.508,17.027,17.027,0,0,1-.248-2.981c-.033-2.662-.013-5.324-.011-7.986,0-1.522.629-2.151,2.138-2.153h3.441a1.929,1.929,0,0,1,1.508-1.948h.678a1.891,1.891,0,0,1,1.409,1.757c.026,1.321.043,2.645-.006,3.965a1.7,1.7,0,0,1-1.68,1.722,1.739,1.739,0,0,1-1.867-1.574c-.024-.126-.153-.327-.241-.331-.588-.03-1.179-.016-1.77-.016-.015.171-.029.266-.029.362,0,2.225-.032,4.451.014,6.676a10.85,10.85,0,0,0,21.695.1c.043-2.257.013-4.515.014-6.773a3.385,3.385,0,0,0-.043-.363c-.62,0-1.214-.013-1.806.012a.421.421,0,0,0-.294.265,1.8,1.8,0,1,1-3.574-.335c0-1.032.041-2.066-.012-3.1a2.081,2.081,0,0,1,1.451-2.367ZM286.72,167.7a3.056,3.056,0,1,0,3.066-3.054A3,3,0,0,0,286.72,167.7Z" transform="translate(0)"/><path class="c" d="M291.748,170.8a3.056,3.056,0,1,1,3.037,3.083A3,3,0,0,1,291.748,170.8Z" transform="translate(-5.027 -3.095)"/></g></g></svg>