<svg xmlns="http://www.w3.org/2000/svg" xmlns:xlink="http://www.w3.org/1999/xlink" width="148" height="148" viewBox="0 0 148 148"><defs><style>.a{fill:#fff;}.b{fill:#093d78;}.c{fill:#deb28e;}.d{fill:#00efd1;}.e{filter:url(#a);}</style><filter id="a" x="0" y="0" width="148" height="148" filterUnits="userSpaceOnUse"><feOffset dy="2" input="SourceAlpha"/><feGaussianBlur stdDeviation="5" result="b"/><feFlood flood-opacity="0.122"/><feComposite operator="in" in2="b"/><feComposite in="SourceGraphic"/></filter></defs><g transform="translate(-768 -7781)"><g class="e" transform="matrix(1, 0, 0, 1, 768, 7781)"><circle class="a" cx="59" cy="59" r="59" transform="translate(15 13)"/></g><g transform="translate(517.514 7683.426)"><path class="b" d="M342.687,201.574H307a5.791,5.791,0,0,1-5.785-5.785V146.576A5.791,5.791,0,0,1,307,140.791h35.691a5.792,5.792,0,0,1,5.786,5.785v49.213A5.792,5.792,0,0,1,342.687,201.574ZM307,142.662a3.919,3.919,0,0,0-3.914,3.914v49.213A3.919,3.919,0,0,0,307,199.7h35.691a3.919,3.919,0,0,0,3.914-3.914V146.576a3.919,3.919,0,0,0-3.914-3.914Z"/><rect class="b" width="36.743" height="25.228" rx="1.012" transform="translate(306.494 145.788)"/><rect class="b" width="7.469" height="5.438" rx="1" transform="translate(306.494 174.527)"/><rect class="b" width="7.469" height="5.438" rx="1" transform="translate(316.252 174.527)"/><rect class="b" width="7.469" height="5.438" rx="1" transform="translate(326.01 174.527)"/><rect class="b" width="7.469" height="5.438" rx="1" transform="translate(335.768 174.527)"/><rect class="b" width="7.469" height="5.438" rx="1" transform="translate(306.494 182.129)"/><rect class="b" width="7.469" height="5.438" rx="1" transform="translate(316.252 182.129)"/><rect class="b" width="7.469" height="5.438" rx="1" transform="translate(326.01 182.129)"/><rect class="c" width="7.469" height="13.04" rx="1" transform="translate(335.768 182.129)"/><rect class="b" width="7.469" height="5.438" rx="1" transform="translate(306.494 189.731)"/><rect class="b" width="7.469" height="5.438" rx="1" transform="translate(316.252 189.731)"/><rect class="b" width="7.469" height="5.438" rx="1" transform="translate(326.01 189.731)"/><path class="d" d="M336.738,158.43l-10.888-8.3a1.486,1.486,0,0,0-1.944-.127l-3.538,2.7V150.4H317.5v4.48l-4.508,3.438a1.49,1.49,0,1,0,1.806,2.37l.648-.494v6.069a.836.836,0,0,0,.836.836h17.009a.837.837,0,0,0,.837-.836v-6.08l.8.612a1.49,1.49,0,1,0,1.806-2.37Z"/></g></g></svg>