<svg xmlns="http://www.w3.org/2000/svg" xmlns:xlink="http://www.w3.org/1999/xlink" width="106" height="106" viewBox="0 0 106 106"><defs><style>.a{fill:#fff;}.b{fill:#093d78;fill-rule:evenodd;}.c{filter:url(#a);}</style><filter id="a" x="0" y="0" width="106" height="106" filterUnits="userSpaceOnUse"><feOffset input="SourceAlpha"/><feGaussianBlur stdDeviation="3.5" result="b"/><feFlood flood-opacity="0.102"/><feComposite operator="in" in2="b"/><feComposite in="SourceGraphic"/></filter></defs><g transform="translate(-1262.5 -2430.5)"><g class="c" transform="matrix(1, 0, 0, 1, 1262.5, 2430.5)"><circle class="a" cx="42.5" cy="42.5" r="42.5" transform="translate(10.5 10.5)"/></g><g transform="translate(1279.199 2476.399)"><path class="b" d="M6.554,1.571C3.6,1.411,2.791,3.235,2.8,6.054c.009,2.743-.01,5.487.005,8.229l3.744.025Zm0,0" transform="translate(0 -0.704)"/><path class="b" d="M45.329,14.225h3.745l.012-.208c0-2.683-.005-5.366.006-8.048.011-2.864-.882-4.446-3.765-4.528Zm0,0" transform="translate(-31.211 -0.617)"/><path class="b" d="M27.683,12.589l.019-11.1H24.016v11.1h3.667Zm0,0" transform="translate(-15.57 -0.654)"/><path class="b" d="M135.862,1.441c-3.012.081-3.776,1.77-3.763,4.74.011,2.681-.014,5.363.006,8.044h3.759Zm0,0" transform="translate(-94.893 -0.617)"/><path class="b" d="M174.657,14.258h3.748c.01-2.773-.005-5.51.005-8.248.01-2.873-.8-4.525-3.754-4.508Zm0,0" transform="translate(-126.127 -0.662)"/><path class="b" d="M152.858,12.592h3.63l0-11.1h-3.649Zm0,0" transform="translate(-110.113 -0.657)"/><path class="b" d="M211.219,4.047V.744c-2.683-.28-6.511-.061-9.318-.062-3.4,0-5.859-.259-5.975,3.436Zm0,0" transform="translate(-141.738 0)"/><path class="b" d="M211.219,40.641v-3.3l-15.293-.082c.129,3.686,2.628,3.426,5.975,3.426C204.858,40.684,208.326,40.849,211.219,40.641Zm0,0" transform="translate(-141.738 -26.903)"/><path class="b" d="M196,22.521h11.316l.006-3.428H196Zm0,0" transform="translate(-141.789 -13.572)"/><path class="b" d="M66.277,4.162l15.234-.043V.769C78.638.562,75.17.73,72.232.729,68.868.729,66.4.486,66.277,4.162Zm0,0" transform="translate(-46.586 -0.047)"/><path class="b" d="M66.34,40.637q4.64,0,9.281,0c3.4,0,5.773.34,5.892-3.373l-15.235-.053Zm0,0" transform="translate(-46.586 -26.868)"/><path class="b" d="M66.375,18.985l.3-.021,7.833-.027c.391.005.775.007,1.152.007,3.151,0,5.519-.213,5.9,2.786l-.011.608q-4.64,0-9.281,0C68.87,22.338,66.5,22.677,66.375,18.985Zm0,0" transform="translate(-46.658 -13.457)"/></g></g></svg>