<svg xmlns="http://www.w3.org/2000/svg" xmlns:xlink="http://www.w3.org/1999/xlink" width="164" height="164" viewBox="0 0 164 164"><defs><style>.a{fill:#fff;}.b{fill:#093d78;}.c{fill:#fdfdfd;}.d{filter:url(#a);}</style><filter id="a" x="0" y="0" width="164" height="164" filterUnits="userSpaceOnUse"><feOffset dy="2" input="SourceAlpha"/><feGaussianBlur stdDeviation="3" result="b"/><feFlood flood-opacity="0.251"/><feComposite operator="in" in2="b"/><feComposite in="SourceGraphic"/></filter></defs><g transform="translate(-693 -11582)"><g class="d" transform="matrix(1, 0, 0, 1, 693, 11582)"><circle class="a" cx="73" cy="73" r="73" transform="translate(9 7)"/></g><g transform="translate(342.903 11340.939)"><path class="b" d="M433.709,357.66c2.453.439,4.333-.883,6.111-2.194,1.377-1.016,1.768-.573,2.252.788,1.5,4.234,1.409,4.464-2.941,5.233-20.3,3.588-40.394-9.09-46.347-29.242a41.833,41.833,0,0,1,23.744-50.082c23.974-10.362,53.284,6.454,56.841,32.489a40.293,40.293,0,0,1-3.164,22.575c-.4.878-.355,2.668-2.387,1.7-1.764-.841-1.032-1.842-.532-2.948a35.515,35.515,0,0,0,3.062-10.783c.177-1.6-.3-2.2-1.94-2.161-3.248.081-6.5.113-9.749-.016-1.856-.074-2.573.564-2.492,2.416a20.365,20.365,0,0,1-.364,3.32c-.112.9-.348,1.541-1.533,1.181-.908-.276-1.792-.343-1.626-1.67.2-1.593,1.2-3.658.132-4.69-1.37-1.327-3.692-.554-5.572-.475-4.52.19-9.085-.742-13.56.512-.393,5.281-.727,10.562.16,15.829.5.033,1.009.086,1.514.094,1.2.018,2.174.1,2.1,1.79-.065,1.548-.939,1.547-2.016,1.439a2.327,2.327,0,0,0-1.712.453A58.21,58.21,0,0,0,433.709,357.66Z"/><path class="b" d="M498.921,373.5c-3.229,1.115-5.742,2.083-8.318,2.838-1.706.5-1.9,1.086-.743,2.437,2.243,2.621,4.3,5.4,6.583,7.988,1.205,1.368,1.2,2.156-.287,3.351-3.384,2.712-3.312,2.8-6.186-.609-1.833-2.173-3.714-4.307-5.485-6.528-.954-1.2-1.571-1.4-2.29.178-.588,1.288-1.355,2.494-2.05,3.732-.684,1.221-1.376,2.437-2.428,4.3L467.744,357Z" transform="translate(-29.891 -30.395)"/><path class="c" d="M478.226,318.862c-.6-2.478-.986-3.652-3.716-3.619-3.045.037-6.173.556-9.214.792-1.037.08-3.6.13-3.8.117q-.916-.06-1.086.661c-.062.263-.214,4.087-.257,5.371-.1,3.066-.408,6.76.2,9.779.527,2.6,1.807,2,4.232,1.981,3.277-.022,6.563,0,9.84.052,3.839.063,5.784.742,5.557-3.77A62.187,62.187,0,0,0,478.226,318.862Z" transform="translate(-26.867 -14.11)"/><path class="c" d="M443.528,319.9c.07-3.85-1.258-3.892-4.882-4.143-2.637-.182-7.884-1.49-10.305-.714-3.829,1.228-3.986,12.03-4.122,15.411-.119,2.948.437,3.3,3.5,3.431,3.013.132,6.075-.065,9.1-.054,3.276.013,6.492,1.2,6.778-2.917C443.848,327.294,443.462,323.538,443.528,319.9Z" transform="translate(-12.912 -13.938)"/><path class="c" d="M441.587,350.9c-2.909-.222-11.811-.243-13.554-.289-1.4-.037-2.683.091-3.29.672-.658.629-.7,2.055-.519,3.594.232,1.965,1.416,8.63,2,10.608a4.745,4.745,0,0,0,1.474,2.593,4.629,4.629,0,0,0,2.9.425c1.535-.139,8.111-.538,10.158-.86a3.553,3.553,0,0,0,2.694-1.349,4.907,4.907,0,0,0,.418-2.155c.038-1.961-.082-8.762-.21-10.382C443.536,352.265,443.042,351.01,441.587,350.9Z" transform="translate(-12.883 -27.901)"/><path class="c" d="M510.508,328.893a47.419,47.419,0,0,0-.991-4.717,43.641,43.641,0,0,0-2.88-7.581,11.7,11.7,0,0,0-2.228-3.676,3.739,3.739,0,0,0-2.9-.8,46.532,46.532,0,0,0-5.749.847c-2.438.459-1.443,2.666-1.038,4.412.68,2.924,1.132,5.924,1.581,8.891.271,1.8-.806,4.619.7,6.033,1.643,1.542,4.285.292,6.237.507,1.559,0,3.12-.071,4.678-.006.8.033,2.017.254,2.582-.5C511.15,331.429,510.659,329.841,510.508,328.893Z" transform="translate(-40.198 -12.886)"/><path class="c" d="M397.708,332.468a33.384,33.384,0,0,0,9.386.22c3.52-.437,2.935-2.246,3.214-5.334a46.282,46.282,0,0,1,1.443-9.312c.621-2.028,1.646-3.681-.406-5.153-1.207-.865-5.172-1.338-6.613-1.247-2.714.17-3.476,2.571-4.574,4.826S393.521,331.617,397.708,332.468Z" transform="translate(-1.976 -12.701)"/><path class="c" d="M411.362,369.328c1.8-.193,2-1.368,1.733-2.74-.224-1.139-1.834-8.972-2.5-11.689-1.253-5.127-6.294-3.97-10.636-3.863-3.151.078-3.376,1.426-2.795,4.332a41.329,41.329,0,0,0,2.607,8.385c.707,1.624,1.793,4.89,3.367,5.937C405.385,371.185,408.936,369.588,411.362,369.328Z" transform="translate(-2.268 -27.997)"/><path class="c" d="M460.594,300.315c.185,1.741,11.394.34,12.946.029,2.043-.409,2.309-.327,1.7-2.38a21.727,21.727,0,0,0-3.137-5.377c-1.729-2.488-6.627-8.47-10.29-7.749-1.62.318-1.272.7-1.393,2.407-.089,1.263-.156,2.528-.186,3.794A71.483,71.483,0,0,0,460.594,300.315Z" transform="translate(-26.955 -2.23)"/><path class="c" d="M438.329,300.748c1.523.084,5.138.926,6.5.315,1.645-.737,1.3-2.177,1.291-3.79,0-1.645,1.095-11.444-.581-12.4-2.136-1.216-6.905,3.315-8.141,4.593a35.583,35.583,0,0,0-6.522,10.452A53.862,53.862,0,0,0,438.329,300.748Z" transform="translate(-15.514 -2.187)"/><path class="c" d="M446.788,384.4c-.356-1.812-12.059-1.2-13.549-.2-2.841,1.9,5.213,10.126,7,11.492.936.716,4.165,3.307,5.551,2.746,1.74-.706,1.091-4.589,1.072-5.99C446.828,389.877,447.281,386.911,446.788,384.4Z" transform="translate(-16.2 -40.63)"/><path class="c" d="M420.751,386.326c-.63-.564-1.579-.323-2.341-.25a24.081,24.081,0,0,0-6.4,1.4,37.457,37.457,0,0,0,16.94,11.092,40.751,40.751,0,0,1-6.915-9.816A8.056,8.056,0,0,0,420.751,386.326Z" transform="translate(-8.154 -41.69)"/><path class="c" d="M419.512,300.876c.729-.3.951-1.2,1.238-1.856a49.163,49.163,0,0,1,6.43-10.584,36.665,36.665,0,0,0-15.951,11.071q3,.583,5.994,1.166A4.3,4.3,0,0,0,419.512,300.876Z" transform="translate(-7.851 -3.657)"/><path class="c" d="M494.634,298.157c-.651-.967-4.91-4.12-6.093-4.97a23.623,23.623,0,0,0-8.078-3.905,44.884,44.884,0,0,1,5.586,9.4,3.75,3.75,0,0,0,1.82,2.331c1.023.4,2.034-.073,3.038-.268C492.241,300.486,496.311,300.641,494.634,298.157Z" transform="translate(-34.851 -3.986)"/></g></g></svg>