<svg xmlns="http://www.w3.org/2000/svg" width="56.7" height="87.05" viewBox="0 0 56.7 87.05"><defs><style>.a{fill:#093d78;}.b{fill:#fefefe;}.c{fill:#fdfdfe;}.d{fill:#fa7819;}</style></defs><g transform="translate(-1833.134 -144.788)"><path class="a" d="M1833.316,188.33q0-20.43,0-40.861c0-2.461.19-2.652,2.657-2.652,11.26,0,22.521.016,33.781-.028a3.831,3.831,0,0,1,3,1.287q8.057,8.249,16.208,16.4a3.171,3.171,0,0,1,1.04,2.464q-.038,32.264-.012,64.528c0,.9.058,1.8-.961,2.226-.977.409-1.663-.142-2.349-.73-1.219-1.046-2.46-2.88-3.686-2.875s-2.493,1.81-3.678,2.894a2.172,2.172,0,0,1-3.361-.047c-1.184-1.07-2.294-2.942-3.687-2.861-1.228.071-2.4,1.767-3.522,2.826-1.212,1.148-2.259,1.124-3.514,0-1.189-1.058-2.253-2.981-3.682-2.853-1.252.112-2.4,1.788-3.516,2.861-1.227,1.186-2.3,1.1-3.5-.035-1.121-1.058-2.283-2.711-3.533-2.814-1.285-.106-2.406,1.707-3.52,2.762-1.27,1.2-2.383,1.263-3.669.016-1.1-1.067-2.349-2.762-3.525-2.757s-2.357,1.767-3.533,2.762c-.724.61-1.4,1.282-2.5.776-1.148-.526-.927-1.514-.927-2.433Q1833.312,208.761,1833.316,188.33Z" transform="translate(-0.168 0)"/><path class="b" d="M1885.241,224.352c-.135.021-.217.06-.253.033-3.523-2.5-3.576-2.556-6.816.506-1.26,1.19-2.047,1.358-3.415.062-3.911-3.7-3.446-3.625-7.355.028-1.249,1.168-1.951,1.235-3.253.028-4.116-3.816-3.41-3.754-7.487.04-1.369,1.272-2.068.988-3.251-.111-3.9-3.615-3.416-3.664-7.365.044-1.255,1.179-1.978,1.246-3.261.019-3.215-3.075-3.287-3-7.139-.612a3.355,3.355,0,0,1-.174-1.941q-.024-36.525-.051-73.048c0-1.772.342-2.407,2.283-2.384,9.307.111,18.616.092,27.924.011,1.636-.013,2.03.492,2,2.05-.1,4.45,0,8.9-.052,13.354-.022,1.824.77,2.545,2.558,2.526,4.586-.049,9.173.011,13.76-.038,1.113-.013,1.522.285,1.521,1.47q-.052,28.733-.033,57.467A1.809,1.809,0,0,1,1885.241,224.352Z" transform="translate(1.332 1.294)"/><path class="c" d="M1869.4,160.226c-3.476,0-6.772-.014-10.068.009-.847,0-1.4-.107-1.385-1.181.047-3.4.017-6.8.017-10.12C1861.751,152.672,1865.49,156.365,1869.4,160.226Z" transform="translate(14.419 2.408)"/><path class="a" d="M1858.208,192.159q-8.093,0-16.183,0a7.2,7.2,0,0,1-1.8-.13,1.741,1.741,0,0,1,.171-3.416,8.411,8.411,0,0,1,1.413-.046q16.589,0,33.177,0c.269,0,.539,0,.808,0,1.157-.016,2.044.413,2.1,1.666.065,1.372-.868,1.9-2.088,1.921-2.427.036-4.855.011-7.283.011Q1863.368,192.161,1858.208,192.159Z" transform="translate(3.35 25.418)"/><path class="d" d="M33.944,3.477A16.182,16.182,0,0,0,27.582,2.25c-6.731,0-13.461,3.407-20.192,3.407a16.58,16.58,0,0,1-5.063-.75,1.868,1.868,0,0,0-.566-.089A1.739,1.739,0,0,0,0,6.557V23.893A1.738,1.738,0,0,0,1.03,25.5a16.173,16.173,0,0,0,6.361,1.228c6.731,0,13.461-3.407,20.192-3.407a16.58,16.58,0,0,1,5.063.75,1.869,1.869,0,0,0,.566.089,1.739,1.739,0,0,0,1.762-1.738V5.088A1.74,1.74,0,0,0,33.944,3.477ZM2.623,7.727a19.017,19.017,0,0,0,3.427.488,3.5,3.5,0,0,1-3.427,2.816Zm0,15.574V20.69A3.5,3.5,0,0,1,6.1,24.045,13.2,13.2,0,0,1,2.623,23.3Zm14.864-3.564c-2.415,0-4.372-2.349-4.372-5.246s1.957-5.246,4.372-5.246,4.372,2.349,4.372,5.246S19.9,19.737,17.487,19.737ZM32.35,21.255a18.789,18.789,0,0,0-2.968-.461A3.49,3.49,0,0,1,32.35,18.1Zm0-12.9A3.49,3.49,0,0,1,29.3,4.989a13.136,13.136,0,0,1,3.05.692Z" transform="translate(1844.518 172.899)"/></g></svg>