<svg xmlns="http://www.w3.org/2000/svg" xmlns:xlink="http://www.w3.org/1999/xlink" width="148" height="148" viewBox="0 0 148 148"><defs><style>.a{fill:#fff;}.b{fill:#093d78;fill-rule:evenodd;}.c{filter:url(#a);}</style><filter id="a" x="0" y="0" width="148" height="148" filterUnits="userSpaceOnUse"><feOffset dy="2" input="SourceAlpha"/><feGaussianBlur stdDeviation="5" result="b"/><feFlood flood-opacity="0.122"/><feComposite operator="in" in2="b"/><feComposite in="SourceGraphic"/></filter></defs><g transform="translate(-1505 -8049)"><g class="c" transform="matrix(1, 0, 0, 1, 1505, 8049)"><circle class="a" cx="59" cy="59" r="59" transform="translate(15 13)"/></g><path class="b" d="M65.933,3a6,6,0,0,1,5.994,5.994V50.951a6,6,0,0,1-5.994,5.994H5.994A6,6,0,0,1,0,50.951V8.994A6,6,0,0,1,5.994,3Zm3,23.976H3V50.951a3,3,0,0,0,3,3H65.933a3,3,0,0,0,3-3ZM23.976,41.96v3H8.991v-3Zm38.96-5.994v3H53.945v-3Zm-29.97,0v3H8.991v-3ZM3,17.985v5.994H68.93V17.985Zm65.933-3V8.994a3,3,0,0,0-3-3H5.994a3,3,0,0,0-3,3v5.994Z" transform="translate(1543 8091)"/></g></svg>