<svg xmlns="http://www.w3.org/2000/svg" xmlns:xlink="http://www.w3.org/1999/xlink" width="144.734" height="144.734" viewBox="0 0 144.734 144.734"><defs><style>.a{fill:#fff;}.b{fill:#093d78;}.c{filter:url(#a);}</style><filter id="a" x="0" y="0" width="144.734" height="144.734" filterUnits="userSpaceOnUse"><feOffset input="SourceAlpha"/><feGaussianBlur stdDeviation="3.5" result="b"/><feFlood flood-opacity="0.102"/><feComposite operator="in" in2="b"/><feComposite in="SourceGraphic"/></filter></defs><g transform="translate(-1015.5 -10245.5)"><g class="c" transform="matrix(1, 0, 0, 1, 1015.5, 10245.5)"><circle class="a" cx="61.867" cy="61.867" r="61.867" transform="translate(10.5 10.5)"/></g><path class="b" d="M185.281,80.181a4.1,4.1,0,0,0-4.543,1.5,13.674,13.674,0,0,1-4.185,3.633c-.3.167-.425.168-.567-.182-.267-.66-.6-1.295-.9-1.942q-1.975-4.241-3.951-8.5a6.246,6.246,0,0,1,3.338,1.113c.809.592,1.56,1.264,2.384,1.834a4.442,4.442,0,0,0,5.208-.247,4.537,4.537,0,0,0,1.419-4.982,6.757,6.757,0,0,0-2.377-2.821A15.711,15.711,0,0,0,170.1,65.7c-1.88.073-3.755.3-5.632.461q-6.732.572-13.466,1.148A3.261,3.261,0,0,1,147.34,65c-.4-1.068-.784-2.144-1.173-3.216-.255-.7-.251-.684.5-.787,3.362-.46,6.726-.918,10.086-1.4a8.157,8.157,0,0,1,6.018,1.294c.759.522,1.467,1.117,2.236,1.621a4.107,4.107,0,0,0,5.011-6.483c-.559-.508-1.183-.946-1.786-1.4A16.337,16.337,0,0,0,157.845,51.2a41.362,41.362,0,0,0-4.934.577c-3.058.425-6.118.844-9.17,1.3-.489.073-.714.008-.89-.49-1.635-4.609-3.3-9.21-4.953-13.812a7.568,7.568,0,0,0-.8-1.713,5.1,5.1,0,0,0-2.887-1.9h-1.476c-.032.025-.061.068-.1.073a4.591,4.591,0,0,0-3.268,6.353c3.18,8.623,6.27,17.279,9.34,25.943a12.567,12.567,0,0,0,6.879,7.726c.327.145.347.277.2.589q-2.135,4.54-4.231,9.1c-.159.347-.287.337-.583.166a13.6,13.6,0,0,1-3.9-3.5,4.058,4.058,0,0,0-4.393-1.465,4.45,4.45,0,0,0-2.535,7.079,21.016,21.016,0,0,0,8.108,6.587A44,44,0,0,0,154.523,98a54.97,54.97,0,0,0,11.834-.328A42.058,42.058,0,0,0,179.8,93.722a20.768,20.768,0,0,0,7.972-6.562A4.441,4.441,0,0,0,185.281,80.181ZM173.42,86.14c.209.44.17.627-.311.756a15.568,15.568,0,0,0-1.68.561c-.3.119-.417.021-.542-.246q-2.709-5.849-5.441-11.69c-.161-.343-.184-.5.283-.506.571-.005,1.141-.085,1.835-.143.5-.247.672.172.887.636Q170.914,80.836,173.42,86.14Zm-5.154,2.117a45.89,45.89,0,0,1-11.727.894,44.276,44.276,0,0,1-6.874-.862c-.362-.073-.5-.155-.3-.572q2.663-5.644,5.274-11.31a.733.733,0,0,1,.694-.472q3.306-.273,6.61-.565a.44.44,0,0,1,.52.286q2.884,6.214,5.782,12.423A.588.588,0,0,1,168.266,88.257ZM149.912,55c2.268-.313,4.537-.627,6.81-.9a13.281,13.281,0,0,1,9.738,2.674c.48.35.956.706,1.422,1.071a1.378,1.378,0,1,1-1.632,2.174,24.519,24.519,0,0,0-3.081-2.115,11.338,11.338,0,0,0-7.1-1.019c-3.053.456-6.113.869-9.17,1.3-.465.065-.937.1-1.394.209-.388.088-.593.008-.716-.391-.217-.7-.48-1.385-.75-2.153C146.029,55.553,147.968,55.263,149.912,55Zm-8.329,12.273q-4.849-13.427-9.671-26.864a1.738,1.738,0,0,1,.965-2.377,1.79,1.79,0,0,1,2.3,1.358q4.738,13.174,9.477,26.348a6.257,6.257,0,0,0,7.088,4.333c2.582-.3,5.179-.473,7.77-.7,2.631-.233,5.263-.449,7.892-.7a16.57,16.57,0,0,1,8.042.692,16.761,16.761,0,0,1,5.06,3.4,1.472,1.472,0,0,1,.46,1.167,1.641,1.641,0,0,1-.922,1.481,1.564,1.564,0,0,1-1.736-.121c-.591-.439-1.14-.934-1.726-1.38a9.708,9.708,0,0,0-7.077-1.983c-3.036.3-6.079.521-9.119.785q-4.5.391-8.994.8A9.5,9.5,0,0,1,141.583,67.269ZM144.1,86.013c1.416-2.979,2.824-5.962,4.17-8.972.3-.676.639-.923,1.355-.785a9.038,9.038,0,0,0,2.033,0c-.416.9-.807,1.745-1.2,2.589-1.264,2.712-2.544,5.417-3.781,8.14-.2.432-.378.47-.763.307a11.829,11.829,0,0,0-1.494-.532C143.948,86.635,143.879,86.47,144.1,86.013Zm41.373-.4a16.841,16.841,0,0,1-5.576,4.91,36.038,36.038,0,0,1-11.732,4.061,47.411,47.411,0,0,1-8.132.789,49.121,49.121,0,0,1-17.225-2.626,24.323,24.323,0,0,1-8.478-4.9,13.756,13.756,0,0,1-2.028-2.379,1.681,1.681,0,0,1,.381-2.344,1.6,1.6,0,0,1,2.3.293c2.362,3.282,5.767,4.975,9.432,6.281a40.912,40.912,0,0,0,9.922,2.07,48.2,48.2,0,0,0,10.607-.145,33.5,33.5,0,0,0,14.031-4.539A13.123,13.123,0,0,0,182.8,83.5a1.585,1.585,0,0,1,1.66-.694,1.66,1.66,0,0,1,1.363,1.256A1.776,1.776,0,0,1,185.47,85.614Z" transform="translate(928.973 10251.831)"/></g></svg>