<svg xmlns="http://www.w3.org/2000/svg" width="57.73" height="65.749" viewBox="0 0 57.73 65.749"><defs><style>.a{fill:#00acea;}.b{fill:#f7caa5;}.c{fill:#00efd1;}.d{fill:#083863;}</style></defs><g transform="translate(-40 -10.001)"><path class="a" d="M397.5,20.135l-.191-1.09L403.285,18l2.294,13.112L399.6,32.158l-.454-2.594Z" transform="translate(-308.84 -7.007)"/><path class="b" d="M157.8,45.835l-5.944,4.445a3.1,3.1,0,0,1-4.265-.4L159.2,38.514a9.369,9.369,0,0,1,5.6-1.815l9.745.712a3.48,3.48,0,0,0,2.476-.792l1.722-1.4,1.649,9.429-.078.014a9.2,9.2,0,0,1-9.239,2.563l-.609-.174a6.572,6.572,0,0,0-2.933-.152l-5.449.952A4.112,4.112,0,0,1,157.8,45.835Z" transform="translate(-90.081 -22.092)"/><path class="b" d="M122.442,355.042l5.944-4.445a3.1,3.1,0,0,1,4.265.4l-11.607,11.364a9.369,9.369,0,0,1-5.6,1.815l-9.745-.712a3.48,3.48,0,0,0-2.476.792l-1.722,1.4-1.649-9.429.078-.014a9.2,9.2,0,0,1,9.239-2.563l.609.174a6.573,6.573,0,0,0,2.933.153l5.449-.952A4.112,4.112,0,0,1,122.442,355.042Z" transform="translate(-52.43 -293.036)"/><circle class="c" cx="10.438" cy="10.438" r="10.438" transform="translate(58.427 32.437)"/><path class="a" d="M56.078,391.833l.191,1.09-5.975,1.045L48,380.855l5.975-1.045.454,2.594Z" transform="translate(-7.008 -319.21)"/><path class="d" d="M175.24,186.67a11.43,11.43,0,1,0-11.43-11.43,11.43,11.43,0,0,0,11.43,11.43Zm0-20.876a9.446,9.446,0,1,1-9.446,9.446A9.446,9.446,0,0,1,175.24,165.794Z" transform="translate(-106.375 -132.365)"/><path class="d" d="M219.07,207.968a.992.992,0,0,0,.992.992h3.888a1.248,1.248,0,0,1-.36.494,2.083,2.083,0,0,1-1.474.622h-2.053a1.01,1.01,0,0,0-.681,1.738l5.13,4.852a.991.991,0,0,0,1.362-1.438l-3.34-3.155a4.074,4.074,0,0,0,2.459-1.2,3.962,3.962,0,0,0,1.071-1.914h1.172a.992.992,0,0,0,0-1.984h-1.174a2.743,2.743,0,0,0-.454-.992h1.628a.992.992,0,0,0,0-1.984h-7.174a.992.992,0,0,0,0,1.984h2.053a2.063,2.063,0,0,1,1.834.992h-3.887A.992.992,0,0,0,219.07,207.968Z" transform="translate(-154.784 -167.57)"/><path class="d" d="M75.353,342.791l-5.134,3.839a5.117,5.117,0,0,0-4.661-1.6l-5.449.952a5.608,5.608,0,0,1-2.49-.129l-.609-.174a10.151,10.151,0,0,0-8.911,1.649l-.154-.883a.992.992,0,0,0-1.148-.806l-5.975,1.045a.992.992,0,0,0-.806,1.148l2.294,13.112a.992.992,0,0,0,1.148.806l5.975-1.045a.992.992,0,0,0,.806-1.148l-.09-.516L51.425,358a2.48,2.48,0,0,1,1.77-.567l9.745.712.066,0h.062a10.428,10.428,0,0,0,6.132-2.008,1,1,0,0,0,.107-.091l11.607-11.364a.992.992,0,0,0,.055-1.359A4.09,4.09,0,0,0,75.353,342.791ZM44.091,359.625,42.14,348.467l4-.7,1.915,11.046h0l.036.113Zm23.88-5.031a8.442,8.442,0,0,1-4.9,1.592h-.018l-9.71-.718a4.441,4.441,0,0,0-3.174,1.007l-.411.331L48.5,349.6a8.177,8.177,0,0,1,7.971-2.011l.609.174a7.609,7.609,0,0,0,3.376.176l5.449-.952a3.129,3.129,0,0,1,3.251,1.53l.032.057-7.821,1.367a.992.992,0,0,0,.17,1.969,1,1,0,0,0,.172-.015l8.957-1.566a.992.992,0,0,0,.806-1.148,5.143,5.143,0,0,0-.221-.838l5.306-3.967.021-.016a2.106,2.106,0,0,1,2.138-.279Z" transform="translate(0 -286.016)"/><path class="d" d="M178.5,10.822a.992.992,0,0,0-1.148-.806l-5.975,1.045a.992.992,0,0,0-.806,1.148l.09.516-1.278,1.038a2.48,2.48,0,0,1-1.77.566l-9.745-.712-.066,0a10.439,10.439,0,0,0-6.194,2.007,1,1,0,0,0-.107.091L139.889,27.078a.992.992,0,0,0-.055,1.359,4.09,4.09,0,0,0,5.617.538l5.135-3.84a5.1,5.1,0,0,0,4.66,1.6l5.449-.952a5.612,5.612,0,0,1,2.49.129l.609.174a10.152,10.152,0,0,0,8.911-1.649l.154.883a.992.992,0,0,0,1.148.806l5.975-1.045a.992.992,0,0,0,.806-1.148ZM164.338,24.179l-.609-.174a7.605,7.605,0,0,0-3.376-.176l-5.449.952a3.129,3.129,0,0,1-3.251-1.53l-.032-.057,7.821-1.367a.992.992,0,0,0-.342-1.954l-8.957,1.566a.992.992,0,0,0-.806,1.149,5.143,5.143,0,0,0,.221.838l-5.306,3.967-.021.016a2.108,2.108,0,0,1-2.138.284l10.737-10.521a8.442,8.442,0,0,1,4.9-1.592h.018l9.711.718a4.436,4.436,0,0,0,3.173-1.007l.411-.331,1.261,7.207A8.176,8.176,0,0,1,164.338,24.179ZM174.66,24l-1.915-11.046h0l-.036-.113,4.012-.7L178.676,23.3Z" transform="translate(-83.074 0)"/></g></svg>