<svg xmlns="http://www.w3.org/2000/svg" width="90.196" height="54.358" viewBox="0 0 90.196 54.358"><defs><style>.a,.d{fill:#093d78;}.a{stroke:#093d78;}.b{fill:#f7caa5;}.c{fill:#00efd1;}</style></defs><g transform="translate(-228.117 -73.33)"><g transform="translate(241.98 82.738)"><path class="a" d="M256.534,83.389H240.418a1.269,1.269,0,1,1,0-2.538h16.117a1.269,1.269,0,1,1,0,2.538Z" transform="translate(-239.149 -80.851)"/></g><g transform="translate(236.108 92.012)"><path class="a" d="M257.374,90.7H235.79a1.269,1.269,0,0,1,0-2.538h21.584a1.269,1.269,0,1,1,0,2.538Z" transform="translate(-234.521 -88.16)"/></g><path class="a" d="M282.187,90.212l-6.8-6.8a1.269,1.269,0,0,0-1.794,1.794l4.323,4.324H261.035a1.269,1.269,0,1,0,0,2.538h17.5L273.6,97.008a1.269,1.269,0,1,0,1.794,1.794l6.8-6.8A1.267,1.267,0,0,0,282.187,90.212Z" transform="translate(8.374 2.477)"/><g transform="translate(228.617 101.366)"><path class="a" d="M258.961,98.07H229.886a1.269,1.269,0,1,1,0-2.538h29.075a1.269,1.269,0,1,1,0,2.538Z" transform="translate(-228.617 -95.532)"/></g><g transform="translate(292.76 88.245)"><path class="b" d="M4.485,1.781h9.25l9.819,14.231v14.8l-19.069.573L3.2,30.808V14.731Z"/><path class="a" d="M300.869,118.381H280.439a1.269,1.269,0,1,1,0-2.538h20.431a.816.816,0,0,0,.816-.816V101.839a.818.818,0,0,0-.14-.458l-8.985-13.293a.816.816,0,0,0-.676-.359h-9.016a1.269,1.269,0,1,1,0-2.538h9.016a3.35,3.35,0,0,1,2.779,1.476l8.985,13.295a3.349,3.349,0,0,1,.575,1.878v13.188A3.358,3.358,0,0,1,300.869,118.381Z" transform="translate(-279.17 -85.191)"/></g><g transform="translate(244.207 73.83)"><path class="a" d="M291.359,121.435H243.444a2.546,2.546,0,0,1-2.54-2.545V109.6a1.269,1.269,0,1,1,2.538,0v9.29l47.917.008V76.374l-47.916-.006,0,1.4a1.269,1.269,0,1,1-2.538,0v-1.4a2.545,2.545,0,0,1,2.54-2.544h47.915a2.544,2.544,0,0,1,2.539,2.544V118.89A2.545,2.545,0,0,1,291.359,121.435Z" transform="translate(-240.904 -73.83)"/></g><g transform="translate(256.173 112.643)"><circle class="c" cx="6.253" cy="6.253" r="6.253" transform="translate(1.269 1.269)"/><path class="d" d="M257.858,119.464a7.522,7.522,0,1,1,7.522-7.522A7.531,7.531,0,0,1,257.858,119.464Zm0-12.507a4.985,4.985,0,1,0,4.984,4.985A4.991,4.991,0,0,0,257.858,106.958Z" transform="translate(-250.335 -104.42)"/></g></g></svg>