<svg xmlns="http://www.w3.org/2000/svg" xmlns:xlink="http://www.w3.org/1999/xlink" width="106" height="106" viewBox="0 0 106 106"><defs><style>.a{fill:#fff;}.b{fill:none;}.b,.c{stroke:#093d78;stroke-miterlimit:10;stroke-width:2px;}.c{fill:#00efd1;}.d{filter:url(#a);}</style><filter id="a" x="0" y="0" width="106" height="106" filterUnits="userSpaceOnUse"><feOffset input="SourceAlpha"/><feGaussianBlur stdDeviation="3.5" result="b"/><feFlood flood-opacity="0.102"/><feComposite operator="in" in2="b"/><feComposite in="SourceGraphic"/></filter></defs><g transform="translate(-551.5 -2430.5)"><g class="d" transform="matrix(1, 0, 0, 1, 551.5, 2430.5)"><circle class="a" cx="42.5" cy="42.5" r="42.5" transform="translate(10.5 10.5)"/></g><g transform="translate(-1349.146 2243.25)"><path class="b" d="M1948.619,231.932h-1.506a11.967,11.967,0,0,0-11.967,11.967v12.467h36.94V243.9a11.967,11.967,0,0,0-11.967-11.967h-1.506"/><path class="c" d="M1951.663,233.443l-2.738,12.655a.738.738,0,0,0,.2.68l4.565,4.565a.165.165,0,0,0,.234,0l4.254-4.254a1.484,1.484,0,0,0,.4-1.349l-2.569-12.414"/><circle class="b" cx="8.953" cy="8.953" r="8.953" transform="translate(1944.652 215.751)"/><line class="b" x1="13.473" transform="translate(1946.879 260.366)"/><line class="b" x2="22.247" transform="translate(1942.492 264.366)"/></g></g></svg>