<svg xmlns="http://www.w3.org/2000/svg" width="60.976" height="80.097" viewBox="0 0 60.976 80.097"><defs><style>.a{fill:#093d78;}.b{fill:#fefefe;}.c{fill:#00efd1;}</style></defs><g transform="translate(-454.947 -143.704)"><path class="a" d="M455.874,190.611q0-16.138-.012-32.277a2.322,2.322,0,0,1,.7-1.759q5.428-5.616,10.8-11.281a2,2,0,0,1,1.582-.686q23.126.02,46.254.011c1.283,0,1.608.333,1.608,1.646,0,11.967.029,60.412,0,72.379,0,.819.11,4.571-.08,5.915-.483.336-10.775-.012-10.976-.012H457.6c-1.525,0-1.726-.2-1.726-1.746Z" transform="translate(-0.915 -0.904)"/><path class="b" d="M457.246,188.676c0-9.963.013-19.925-.024-29.886,0-.909.268-1.082,1.107-1.068,2.909.052,5.819.022,8.73.019,1.118,0,1.433-.321,1.434-1.452,0-3.191.016-6.381-.013-9.571,0-.589.153-.744.742-.744q21.281.026,42.562,0c.527,0,.713.115.713.685q-.027,17.042,0,34.085c0,.576,0,40.709,0,38.97-.2-.062-7.717,0-8.341,0q-23.044-.029-46.087,0c-.751,0-.838-.258-.836-.906Q457.261,203.745,457.246,188.676Z" transform="translate(0.907 0.907)"/><path class="b" d="M458.143,155.157l7.708-7.983c.237.049.19.211.191.336q0,3.519,0,7.038c0,.3.077.62-.424.617C463.2,155.15,460.778,155.157,458.143,155.157Z" transform="translate(1.343 1.474)"/><path class="a" d="M471.155,159.117a13.114,13.114,0,0,0-2.165,2.05c-.147.169-.286.345-.433.512a.964.964,0,0,1-1.47.216c-.563-.465-.48-1.012-.043-1.545a18.207,18.207,0,0,1,11.706-6.758,18.8,18.8,0,1,1-15.719,21.078,17.973,17.973,0,0,1,.418-7.156c.175-.686.495-1.141,1.269-1.013.642.108.875.672.672,1.535a16.8,16.8,0,1,0,32.942,6.385c.085-.739-.364-.529-.694-.529-4.533-.009-9.064.024-13.6-.015-3.542-.031-2.495.573-4.524-2.393-2.621-3.83-5.2-7.692-7.792-11.54C471.544,159.673,471.353,159.4,471.155,159.117Z" transform="translate(5.187 4.406)"/><path class="a" d="M484.7,185.423h-11.33a5.135,5.135,0,0,1-.847-.025,1.121,1.121,0,0,1-.015-2.217,4.051,4.051,0,0,1,.752-.025h22.847c.189,0,.38-.012.567.007a1.126,1.126,0,0,1,.015,2.25c-.25.023-.5.01-.756.01Z" transform="translate(7.873 19.711)"/><path class="a" d="M484.708,191.124H473.379a5.367,5.367,0,0,1-.848-.023,1.122,1.122,0,0,1-.033-2.217,3.79,3.79,0,0,1,.752-.027H496.1a4.366,4.366,0,0,1,.66.015,1.065,1.065,0,0,1,1.014,1.148,1.054,1.054,0,0,1-.981,1.084,4.753,4.753,0,0,1-.754.02Z" transform="translate(7.873 23.458)"/><path class="a" d="M460.964,168.833c0,2.682-.006,5.363,0,8.045a1.1,1.1,0,0,1-.776,1.233c-.67.194-1.231-.325-1.239-1.171-.013-1.788,0-3.576,0-5.363q0-5.28,0-10.558a1.288,1.288,0,0,1,.431-1.2.967.967,0,0,1,1.034-.075,1.057,1.057,0,0,1,.555,1.047c-.009,1.564,0,3.128,0,4.692Z" transform="translate(3.487 9.824)"/><path class="a" d="M469.622,183.16c.534,0,1.069-.013,1.6,0a1.076,1.076,0,0,1,1.17,1.1,1.048,1.048,0,0,1-1.107,1.15c-1.13.035-2.262.036-3.391,0a1.029,1.029,0,0,1-1.072-1.085,1.055,1.055,0,0,1,1.1-1.15C468.49,183.132,469.057,183.161,469.622,183.16Z" transform="translate(4.758 19.711)"/><path class="a" d="M469.705,188.863c.534,0,1.069-.027,1.6.007a1.121,1.121,0,0,1-.008,2.24q-1.693.055-3.39,0a1.035,1.035,0,0,1-1.084-1.075,1.054,1.054,0,0,1,1.092-1.162C468.509,188.831,469.108,188.863,469.705,188.863Z" transform="translate(4.758 23.457)"/><path class="a" d="M460.947,157.791a3.379,3.379,0,0,1-.007.669.965.965,0,0,1-.935.817.936.936,0,0,1-.9-.5,3.45,3.45,0,0,1,.06-2.274.955.955,0,0,1,.963-.377C460.767,156.218,460.973,156.629,460.947,157.791Z" transform="translate(3.483 8.161)"/><path class="a" d="M465.159,188.852c.8-.007,1.326.292,1.389,1.1.053.688-.476,1.152-1.27,1.17-.843.02-1.452-.447-1.4-1.143A1.136,1.136,0,0,1,465.159,188.852Z" transform="translate(2.821 23.458)"/><path class="a" d="M465.1,185.423a1.173,1.173,0,0,1-1.225-1.231c.066-.691.66-1.1,1.513-1.036a1.1,1.1,0,0,1,1.162,1.183C466.551,185.05,465.961,185.47,465.1,185.423Z" transform="translate(2.818 19.711)"/><path class="c" d="M478.506,154.731a16.716,16.716,0,0,1,10.4,3.655c.521.406.661.641.119,1.2q-5.076,5.189-10.072,10.459c-.459.483-.627.358-.941-.112q-4.029-6.035-8.106-12.036c-.353-.52-.246-.713.253-1A16.784,16.784,0,0,1,478.506,154.731Z" transform="translate(8.426 5.046)"/><path class="c" d="M477.1,169.364c.527-.558.9-.963,1.286-1.361q4.305-4.473,8.614-8.945c.267-.275.462-.63.887-.1a16.709,16.709,0,0,1,3.814,9.83c.018.34.009.586-.456.585C486.609,169.359,481.972,169.364,477.1,169.364Z" transform="translate(11.925 6.915)"/></g></svg>