<svg xmlns="http://www.w3.org/2000/svg" xmlns:xlink="http://www.w3.org/1999/xlink" width="148" height="148" viewBox="0 0 148 148"><defs><style>.a{fill:#fff;}.b{fill:#093d78;}.c{fill:#fefefe;}.d{fill:#fdfdfe;}.e{fill:#fa7819;}.f{filter:url(#a);}</style><filter id="a" x="0" y="0" width="148" height="148" filterUnits="userSpaceOnUse"><feOffset dy="2" input="SourceAlpha"/><feGaussianBlur stdDeviation="5" result="b"/><feFlood flood-opacity="0.122"/><feComposite operator="in" in2="b"/><feComposite in="SourceGraphic"/></filter></defs><g transform="translate(-721 -6088)"><g class="f" transform="matrix(1, 0, 0, 1, 721, 6088)"><circle class="a" cx="59" cy="59" r="59" transform="translate(15 13)"/></g><g transform="translate(-1055.896 5987.288)"><path class="b" d="M1833.311,172.8q0-13.144,0-26.29c0-1.584.122-1.707,1.71-1.707,7.244,0,14.49.01,21.734-.018a2.465,2.465,0,0,1,1.929.828q5.184,5.307,10.428,10.554a2.041,2.041,0,0,1,.669,1.586q-.025,20.759-.008,41.517c0,.577.038,1.156-.618,1.432-.629.263-1.07-.092-1.511-.47-.784-.673-1.583-1.853-2.372-1.85s-1.6,1.165-2.367,1.862a1.4,1.4,0,0,1-2.162-.031c-.762-.689-1.476-1.893-2.372-1.841-.79.046-1.545,1.137-2.266,1.818a1.442,1.442,0,0,1-2.261,0c-.765-.68-1.449-1.918-2.369-1.836-.806.072-1.547,1.15-2.262,1.841a1.417,1.417,0,0,1-2.255-.022c-.721-.68-1.469-1.744-2.273-1.81-.827-.068-1.548,1.1-2.265,1.777a1.476,1.476,0,0,1-2.361.01c-.71-.687-1.511-1.777-2.268-1.774s-1.516,1.137-2.273,1.777c-.466.393-.9.825-1.611.5-.739-.339-.6-.974-.6-1.565Q1833.309,185.948,1833.311,172.8Z" transform="translate(-0.168 0)"/><path class="c" d="M1867.473,196.773c-.087.013-.14.039-.163.021-2.267-1.608-2.3-1.645-4.385.325-.811.766-1.317.874-2.2.04-2.516-2.383-2.217-2.332-4.732.018-.8.752-1.255.794-2.093.018-2.648-2.455-2.194-2.415-4.817.025-.881.819-1.33.636-2.092-.071-2.509-2.326-2.2-2.358-4.738.028-.808.759-1.272.8-2.1.012-2.069-1.978-2.115-1.93-4.593-.394a2.158,2.158,0,0,1-.112-1.249q-.015-23.5-.033-47c0-1.14.22-1.549,1.469-1.534,5.988.071,11.978.059,17.966.007,1.053-.008,1.306.316,1.284,1.319-.064,2.863,0,5.728-.034,8.592-.014,1.174.5,1.637,1.646,1.625,2.95-.032,5.9.007,8.853-.024.716-.008.979.183.978.946q-.034,18.487-.021,36.974A1.165,1.165,0,0,1,1867.473,196.773Z" transform="translate(0.044 0.038)"/><path class="d" d="M1865.316,156.2c-2.236,0-4.357-.009-6.477.006-.545,0-.9-.069-.891-.76.031-2.187.011-4.375.011-6.511Z" transform="translate(0.428 0.071)"/><path class="b" d="M1851.319,190.874q-5.207,0-10.412,0a4.63,4.63,0,0,1-1.16-.083,1.12,1.12,0,0,1,.11-2.2,5.413,5.413,0,0,1,.909-.03h21.346c.173,0,.347,0,.52,0,.745-.01,1.315.265,1.354,1.072.042.883-.558,1.225-1.343,1.236-1.561.023-3.123.007-4.686.007Z" transform="translate(0.103 0.746)"/><path class="e" d="M21.839,3.04a10.412,10.412,0,0,0-4.093-.79c-4.33,0-8.661,2.192-12.991,2.192A10.667,10.667,0,0,1,1.5,3.959,1.2,1.2,0,0,0,1.134,3.9,1.119,1.119,0,0,0,0,5.021V16.175a1.118,1.118,0,0,0,.662,1.036A10.406,10.406,0,0,0,4.755,18c4.33,0,8.661-2.192,12.991-2.192A10.667,10.667,0,0,1,21,16.291a1.2,1.2,0,0,0,.364.057A1.119,1.119,0,0,0,22.5,15.23V4.076A1.119,1.119,0,0,0,21.839,3.04ZM1.688,5.774a12.235,12.235,0,0,0,2.205.314A2.253,2.253,0,0,1,1.688,7.9Zm0,10.02v-1.68a2.249,2.249,0,0,1,2.24,2.159A8.494,8.494,0,0,1,1.688,15.794ZM11.251,13.5a3.133,3.133,0,0,1-2.813-3.375A3.133,3.133,0,0,1,11.251,6.75a3.133,3.133,0,0,1,2.813,3.375A3.133,3.133,0,0,1,11.251,13.5Zm9.563.977a12.089,12.089,0,0,0-1.91-.3,2.245,2.245,0,0,1,1.91-1.733Zm0-8.3a2.246,2.246,0,0,1-1.962-2.164,8.452,8.452,0,0,1,1.962.445Z" transform="translate(1840.458 162.072)"/></g></g></svg>