<svg xmlns="http://www.w3.org/2000/svg" xmlns:xlink="http://www.w3.org/1999/xlink" width="148" height="148" viewBox="0 0 148 148"><defs><style>.a{fill:#fff;}.b{fill:#093d78;}.c{fill:#fefefe;}.d{fill:#00efd1;}.e{filter:url(#a);}</style><filter id="a" x="0" y="0" width="148" height="148" filterUnits="userSpaceOnUse"><feOffset dy="2" input="SourceAlpha"/><feGaussianBlur stdDeviation="5" result="b"/><feFlood flood-opacity="0.122"/><feComposite operator="in" in2="b"/><feComposite in="SourceGraphic"/></filter></defs><g transform="translate(-512 -7781)"><g class="e" transform="matrix(1, 0, 0, 1, 512, 7781)"><circle class="a" cx="59" cy="59" r="59" transform="translate(15 13)"/></g><g transform="translate(96.495 7674.757)"><path class="b" d="M455.872,181.952q0-13.1-.01-26.2a1.885,1.885,0,0,1,.567-1.428q4.406-4.559,8.77-9.158a1.625,1.625,0,0,1,1.284-.557q18.774.017,37.548.009c1.041,0,1.305.27,1.305,1.336q0,14.572-.016,29.144c0,.665.2.788.812.784,5.253-.023,10.507-.015,15.762-.012a3.718,3.718,0,0,1,4.04,4.058q0,14.957,0,29.915a3.672,3.672,0,0,1-4,4q-10.3,0-20.6,0a3.679,3.679,0,0,1-3.975-3.836c-.013-.387-.1-.562-.508-.51a4.077,4.077,0,0,1-.49,0H457.273c-1.238,0-1.4-.166-1.4-1.417Z" transform="translate(-0.915 -0.904)"/><path class="c" d="M457.241,180.638c0-8.088.011-16.175-.019-24.261,0-.738.218-.879.9-.867,2.361.042,4.723.018,7.087.016.907,0,1.163-.261,1.164-1.179,0-2.591.013-5.18-.011-7.769,0-.478.124-.6.6-.6q17.276.021,34.551,0c.428,0,.579.093.579.556q-.022,13.835,0,27.67c0,.467-.157.571-.582.552-.68-.03-1.363-.02-2.044,0a3.557,3.557,0,0,0-3.509,3.539c-.023,4.249-.011,8.5-.006,12.745,0,.654.329,1.052.837,1.009.587-.048.8-.432.8-.985-.006-1.045.032-2.092-.014-3.135-.028-.6.118-.794.764-.79,6.315.026,12.629.016,18.944.016,1.408,0,2.817.017,4.225-.01.447-.008.626.072.625.58-.018,6.725-.008,13.449-.014,20.174a1.967,1.967,0,0,1-2.163,2.154q-10.085.007-20.172,0a1.982,1.982,0,0,1-2.194-2.194c-.007-3.5,0-7,0-10.5a1.491,1.491,0,0,0-.086-.736.766.766,0,0,0-.833-.459.774.774,0,0,0-.705.79c-.02.5-.008,1-.008,1.5,0,2.249-.017,4.5.012,6.746.007.514-.133.637-.64.637q-18.707-.023-37.413,0c-.61,0-.68-.209-.679-.735Q457.254,192.872,457.241,180.638Z" transform="translate(0.308 0.309)"/><path class="c" d="M503.234,180.543c-3.861,0-7.722-.01-11.582.012-.526,0-.687-.122-.679-.667.035-2.09.01-4.179.016-6.269a1.977,1.977,0,0,1,2.177-2.206q10.117-.007,20.235,0a1.92,1.92,0,0,1,2.117,2.11c.01,2.135-.017,4.27.017,6.4.008.53-.159.629-.65.626C511,180.534,507.117,180.543,503.234,180.543Z" transform="translate(6.906 5.281)"/><path class="c" d="M458.143,153.655l6.257-6.481c.192.039.154.171.155.273q0,2.857,0,5.713c0,.241.062.5-.344.5C462.247,153.649,460.282,153.655,458.143,153.655Z" transform="translate(0.489 0.544)"/><path class="b" d="M469.592,158.037a10.647,10.647,0,0,0-1.757,1.664c-.12.137-.232.28-.351.416a.782.782,0,0,1-1.193.176c-.457-.378-.39-.821-.035-1.254a14.781,14.781,0,0,1,9.5-5.486A15.264,15.264,0,1,1,463,170.664a14.59,14.59,0,0,1,.34-5.809c.142-.557.4-.926,1.031-.822.521.087.71.545.545,1.246a13.642,13.642,0,1,0,26.742,5.184c.069-.6-.3-.429-.563-.429-3.68-.007-7.358.019-11.037-.012-2.875-.025-2.025.465-3.673-1.943-2.128-3.109-4.218-6.244-6.325-9.368C469.907,158.488,469.752,158.268,469.592,158.037Z" transform="translate(1.408 1.756)"/><path class="b" d="M481.04,184.79h-8.174a3.709,3.709,0,0,1-.611-.018.809.809,0,0,1-.011-1.6,2.923,2.923,0,0,1,.543-.018h16.482c.136,0,.274-.008.409,0a.812.812,0,0,1,.011,1.623c-.18.017-.363.007-.545.007Z" transform="translate(3.112 7.577)"/><path class="b" d="M481.046,190.491h-8.172a3.868,3.868,0,0,1-.612-.017.809.809,0,0,1-.024-1.6,2.735,2.735,0,0,1,.543-.019h16.483a3.152,3.152,0,0,1,.476.011.768.768,0,0,1,.732.828.76.76,0,0,1-.708.782,3.429,3.429,0,0,1-.544.014Z" transform="translate(3.112 8.691)"/><path class="b" d="M496.008,187.6c-.68,0-1.362,0-2.042,0a.833.833,0,0,1-.926-.93c0-1.248-.007-2.5,0-3.744a.831.831,0,0,1,.946-.91c1.362,0,2.723-.011,4.085,0,.662.007.952.3.959.961q.02,1.84,0,3.677c-.008.654-.3.93-.978.943S496.69,187.6,496.008,187.6Z" transform="translate(7.31 7.354)"/><path class="b" d="M507.529,187.6c-.68,0-1.362,0-2.042,0a.834.834,0,0,1-.932-.925q-.009-1.872,0-3.744a.831.831,0,0,1,.94-.916c1.362,0,2.723-.01,4.085,0,.665.006.956.294.965.955q.02,1.84,0,3.677c-.007.656-.3.935-.972.949S508.211,187.6,507.529,187.6Z" transform="translate(9.561 7.354)"/><path class="b" d="M496.029,199.346c-.659,0-1.316.008-1.975,0-.713-.011-1.005-.286-1.013-.978-.012-1.225-.006-2.451,0-3.676a.83.83,0,0,1,.927-.929q2.077-.009,4.153,0a.83.83,0,0,1,.913.942c0,1.225.011,2.451,0,3.676-.007.665-.3.948-.96.962C497.39,199.358,496.709,199.346,496.029,199.346Z" transform="translate(7.309 9.65)"/><path class="b" d="M507.576,193.759c.681,0,1.362,0,2.043,0a.833.833,0,0,1,.928.928q.009,1.874,0,3.745a.832.832,0,0,1-.943.912c-1.362,0-2.723.011-4.085,0-.664-.007-.953-.3-.96-.96q-.022-1.84,0-3.677c.008-.654.3-.931.977-.944S506.9,193.759,507.576,193.759Z" transform="translate(9.56 9.65)"/><path class="b" d="M501.759,182.015c.681,0,1.363,0,2.043,0a.832.832,0,0,1,.93.925q.011,1.872,0,3.745a.833.833,0,0,1-.942.915c-1.362,0-2.723.011-4.085,0-.664-.007-.955-.3-.962-.958q-.02-1.84,0-3.677c.008-.655.3-.934.974-.947S501.079,182.015,501.759,182.015Z" transform="translate(8.423 7.354)"/><path class="b" d="M501.708,193.758c.659,0,1.316-.007,1.975,0,.756.01,1.042.277,1.048,1.011.011,1.2.013,2.405,0,3.608-.007.665-.3.956-.958.964-1.362.013-2.723.006-4.085,0a.831.831,0,0,1-.946-.91c-.01-1.248-.007-2.5,0-3.744a.832.832,0,0,1,.927-.93C500.346,193.754,501.028,193.758,501.708,193.758Z" transform="translate(8.424 9.65)"/><path class="b" d="M496.047,193.418c-.681,0-1.363.011-2.043,0-.664-.014-.954-.3-.961-.959q-.022-1.838,0-3.677c.008-.654.3-.938.974-.944q2.008-.018,4.017,0c.7.006.991.292,1,.993q.018,1.8,0,3.609c-.007.695-.3.968-1.01.98C497.363,193.426,496.7,193.418,496.047,193.418Z" transform="translate(7.309 8.49)"/><path class="b" d="M507.562,193.418c-.681,0-1.363.011-2.043,0-.664-.014-.954-.3-.961-.959q-.022-1.838,0-3.677c.007-.654.3-.938.974-.944q2.008-.018,4.017,0c.7.006.991.292,1,.993q.018,1.8,0,3.609c-.007.695-.3.968-1.01.98C508.878,193.426,508.22,193.418,507.562,193.418Z" transform="translate(9.56 8.49)"/><path class="b" d="M501.709,193.417c-.681,0-1.362,0-2.043,0a.833.833,0,0,1-.927-.93c0-1.248-.007-2.5,0-3.744a.83.83,0,0,1,.945-.91c1.362,0,2.723-.011,4.085,0,.662.007.952.3.959.962q.022,1.838,0,3.676c-.008.654-.306.93-.979.943S502.389,193.417,501.709,193.417Z" transform="translate(8.424 8.491)"/><path class="b" d="M460.584,167.1c0,2.177,0,4.354,0,6.531a.891.891,0,0,1-.63,1c-.544.158-1-.264-1.005-.95-.011-1.451,0-2.9,0-4.354q0-4.286,0-8.57a1.046,1.046,0,0,1,.35-.976.785.785,0,0,1,.839-.061.858.858,0,0,1,.451.85c-.007,1.27,0,2.539,0,3.809Z" transform="translate(0.646 2.978)"/><path class="b" d="M468.842,183.157c.385,0,.771-.01,1.155,0a.776.776,0,0,1,.844.791.756.756,0,0,1-.8.83c-.815.025-1.632.026-2.446,0a.743.743,0,0,1-.773-.783.761.761,0,0,1,.8-.83C468.026,183.137,468.435,183.158,468.842,183.157Z" transform="translate(2.185 7.577)"/><path class="b" d="M468.9,188.859c.385,0,.771-.019,1.155,0a.808.808,0,0,1-.006,1.616q-1.221.039-2.446,0a.747.747,0,0,1-.782-.776.76.76,0,0,1,.788-.838C468.039,188.837,468.472,188.859,468.9,188.859Z" transform="translate(2.185 8.691)"/><path class="b" d="M460.569,157.474a2.741,2.741,0,0,1-.006.543.783.783,0,0,1-.759.663.76.76,0,0,1-.733-.408,2.8,2.8,0,0,1,.049-1.846.775.775,0,0,1,.782-.306C460.423,156.2,460.59,156.531,460.569,157.474Z" transform="translate(0.644 2.29)"/><path class="b" d="M464.8,188.852c.579,0,.956.21,1,.795.038.5-.343.831-.916.844-.608.014-1.047-.323-1.01-.825A.819.819,0,0,1,464.8,188.852Z" transform="translate(1.609 8.691)"/><path class="b" d="M464.758,184.79a.846.846,0,0,1-.883-.888c.048-.5.476-.79,1.091-.747a.791.791,0,0,1,.838.854C465.8,184.521,465.379,184.824,464.758,184.79Z" transform="translate(1.608 7.577)"/><path class="b" d="M503.016,172.892q4.462,0,8.924,0c.926,0,1.173.245,1.176,1.161q.005,1.974,0,3.951c0,.911-.251,1.156-1.18,1.156q-8.993,0-17.985,0c-.88,0-1.137-.257-1.141-1.127q-.007-2.01,0-4.019c0-.869.259-1.12,1.146-1.121Q498.487,172.888,503.016,172.892Z" transform="translate(7.265 5.571)"/><path class="d" d="M476.849,154.731a13.57,13.57,0,0,1,8.444,2.967c.423.33.537.52.1.971q-4.121,4.212-8.176,8.49c-.373.392-.509.29-.764-.091q-3.271-4.9-6.58-9.771c-.287-.422-.2-.579.206-.809A13.624,13.624,0,0,1,476.849,154.731Z" transform="translate(2.748 2.021)"/><path class="d" d="M477.1,167.354c.428-.453.733-.782,1.044-1.1q3.495-3.631,6.992-7.261c.216-.224.375-.512.72-.082a13.564,13.564,0,0,1,3.1,7.98c.014.276.007.476-.371.475C484.82,167.35,481.055,167.354,477.1,167.354Z" transform="translate(4.195 2.794)"/><path class="c" d="M495.675,185.7c-1.27,0-1.27,0-1.27-1.2,0-1.115,0-1.115,1.218-1.115,1.371,0,1.371,0,1.371,1.3,0,1.014,0,1.014-.98,1.014Z" transform="translate(7.577 7.622)"/><path class="c" d="M507.22,185.7c-1.3,0-1.3,0-1.3-1.31a1.584,1.584,0,0,0,0-.271c-.1-.577.1-.825.721-.747a7.756,7.756,0,0,0,1.424,0c.368-.021.488.122.451.469a5.125,5.125,0,0,0,0,.543C508.514,185.7,508.514,185.7,507.22,185.7Z" transform="translate(9.824 7.618)"/><path class="c" d="M495.7,197.446c-1.291,0-1.291,0-1.291-1.315a2.135,2.135,0,0,0,0-.338c-.084-.525.109-.73.656-.674a7.773,7.773,0,0,0,1.425,0c.44-.037.565.142.514.543a3.693,3.693,0,0,0,0,.475C497,197.446,497,197.446,495.7,197.446Z" transform="translate(7.574 9.915)"/><path class="c" d="M507.268,195.126c1.241,0,1.241,0,1.241,1.161s0,1.156-1.246,1.156c-1.344,0-1.344,0-1.344-1.262C505.92,195.126,505.92,195.126,507.268,195.126Z" transform="translate(9.828 9.918)"/><path class="c" d="M501.489,185.7c-1.384,0-1.384,0-1.383-1.358,0-.959,0-.959,1.035-.959,1.694,0,1.661,0,1.707,1.595.017.611-.158.821-.748.727A4,4,0,0,0,501.489,185.7Z" transform="translate(8.692 7.622)"/><path class="c" d="M501.515,195.13c1.32,0,1.32,0,1.32,1.219,0,1.1,0,1.1-1.1,1.1-1.628,0-1.6,0-1.641-1.592-.017-.6.147-.826.745-.73A4.274,4.274,0,0,0,501.515,195.13Z" transform="translate(8.689 9.913)"/><path class="c" d="M495.673,191.65c-1.268,0-1.268,0-1.268-1.271,0-1.182,0-1.182,1.152-1.182,1.437,0,1.437,0,1.437,1.441C496.994,191.65,496.994,191.65,495.673,191.65Z" transform="translate(7.577 8.759)"/><path class="c" d="M507.247,191.65c-1.327,0-1.327,0-1.327-1.279,0-1.174,0-1.174,1.3-1.174s1.292,0,1.292,1.246C508.509,191.65,508.509,191.65,507.247,191.65Z" transform="translate(9.828 8.759)"/><path class="c" d="M501.478,191.65c-1.372,0-1.372,0-1.372-1.166,0-1.288,0-1.288,1.387-1.288,1.339,0,1.339,0,1.339,1.267C502.832,191.65,502.832,191.65,501.478,191.65Z" transform="translate(8.692 8.759)"/><path class="d" d="M502.559,177.262c-2.587,0-5.175-.017-7.762.013-.525.006-.662-.151-.628-.648a14.718,14.718,0,0,0,0-1.837c-.023-.417.1-.546.53-.537,1.292.028,2.587.01,3.88.01,3.95,0,7.9.012,11.848-.013.552,0,.7.161.66.683a13.434,13.434,0,0,0,0,1.769c.026.442-.114.574-.564.57C507.87,177.251,505.215,177.262,502.559,177.262Z" transform="translate(7.53 5.837)"/></g></g></svg>