<svg xmlns="http://www.w3.org/2000/svg" xmlns:xlink="http://www.w3.org/1999/xlink" width="148" height="148" viewBox="0 0 148 148"><defs><style>.a{fill:#fff;}.b{fill:#093d78;}.c{fill:#fefefe;}.d{fill:#fdfdfe;}.e{fill:#fa7819;}.f{filter:url(#a);}</style><filter id="a" x="0" y="0" width="148" height="148" filterUnits="userSpaceOnUse"><feOffset dy="2" input="SourceAlpha"/><feGaussianBlur stdDeviation="5" result="b"/><feFlood flood-opacity="0.122"/><feComposite operator="in" in2="b"/><feComposite in="SourceGraphic"/></filter></defs><g transform="translate(-417 -6088)"><g class="f" transform="matrix(1, 0, 0, 1, 417, 6088)"><circle class="a" cx="59" cy="59" r="59" transform="translate(15 13)"/></g><g transform="translate(-1361.302 5986.212)"><path class="b" d="M1833.311,173.89q0-13.655,0-27.311c0-1.645.127-1.773,1.776-1.773,7.526,0,15.052.011,22.578-.019a2.56,2.56,0,0,1,2,.86q5.385,5.514,10.833,10.964a2.119,2.119,0,0,1,.7,1.647q-.025,21.565-.008,43.129c0,.6.039,1.2-.642,1.488-.653.274-1.112-.1-1.57-.488-.815-.7-1.644-1.925-2.464-1.922s-1.666,1.21-2.459,1.935a1.451,1.451,0,0,1-2.246-.032c-.792-.715-1.533-1.966-2.464-1.912-.821.048-1.6,1.181-2.354,1.889a1.5,1.5,0,0,1-2.349,0c-.795-.707-1.505-1.993-2.461-1.907-.837.075-1.607,1.195-2.35,1.912a1.472,1.472,0,0,1-2.342-.023c-.749-.707-1.526-1.812-2.361-1.881-.859-.071-1.608,1.141-2.353,1.846a1.534,1.534,0,0,1-2.452.011c-.738-.713-1.57-1.846-2.356-1.843s-1.575,1.181-2.361,1.846c-.484.408-.935.857-1.673.519-.767-.352-.619-1.012-.619-1.626Q1833.309,187.546,1833.311,173.89Z" transform="translate(0)"/><path class="c" d="M1868.717,198.705c-.09.014-.145.04-.169.022-2.355-1.67-2.39-1.708-4.556.338-.842.8-1.368.908-2.282.041-2.614-2.475-2.3-2.423-4.916.019-.835.781-1.3.825-2.174.019-2.751-2.551-2.279-2.509-5,.026-.915.851-1.382.66-2.173-.074-2.606-2.416-2.283-2.449-4.922.03-.839.788-1.322.833-2.18.013-2.149-2.055-2.2-2.005-4.771-.409a2.243,2.243,0,0,1-.116-1.3q-.016-24.412-.034-48.824c0-1.184.228-1.609,1.526-1.593,6.221.074,12.443.061,18.664.007,1.094-.008,1.357.329,1.334,1.37-.067,2.974,0,5.95-.035,8.926-.015,1.219.515,1.7,1.709,1.688,3.065-.033,6.131.007,9.2-.025.744-.008,1.017.19,1.016.983q-.035,19.2-.022,38.41A1.213,1.213,0,0,1,1868.717,198.705Z" transform="translate(0.119 0.126)"/><path class="d" d="M1865.6,156.482c-2.323,0-4.526-.01-6.729.006-.566,0-.935-.072-.925-.789.032-2.272.011-4.545.011-6.764C1860.49,151.433,1862.989,153.9,1865.6,156.482Z" transform="translate(1.394 0.234)"/><path class="b" d="M1851.8,190.964q-5.409,0-10.817,0a4.81,4.81,0,0,1-1.2-.087,1.163,1.163,0,0,1,.114-2.283,5.625,5.625,0,0,1,.945-.031h22.175c.18,0,.36,0,.54,0,.773-.011,1.366.276,1.406,1.114.043.917-.58,1.272-1.4,1.284-1.622.024-3.245.007-4.868.007Q1855.25,190.965,1851.8,190.964Z" transform="translate(0.316 2.475)"/><path class="e" d="M8.741,14.737a2.5,2.5,0,1,0,2.5,2.5A2.5,2.5,0,0,0,8.741,14.737Zm0-7.492a2.5,2.5,0,1,0-2.5-2.5A2.5,2.5,0,0,0,8.741,7.245Zm7.492,1.873H1.249A1.249,1.249,0,0,0,0,10.367v1.249a1.249,1.249,0,0,0,1.249,1.249H16.234a1.249,1.249,0,0,0,1.249-1.249V10.367A1.249,1.249,0,0,0,16.234,9.118Z" transform="translate(1843.085 161.71)"/></g></g></svg>