<svg xmlns="http://www.w3.org/2000/svg" xmlns:xlink="http://www.w3.org/1999/xlink" width="164" height="164" viewBox="0 0 164 164"><defs><style>.a{fill:#fff;}.b{fill:#f7caa5;}.b,.c,.d{stroke:#093d78;stroke-miterlimit:10;stroke-width:4px;}.c{fill:none;}.d{fill:#00efd1;}.e{filter:url(#a);}</style><filter id="a" x="0" y="0" width="164" height="164" filterUnits="userSpaceOnUse"><feOffset dy="2" input="SourceAlpha"/><feGaussianBlur stdDeviation="3" result="b"/><feFlood flood-opacity="0.251"/><feComposite operator="in" in2="b"/><feComposite in="SourceGraphic"/></filter></defs><g transform="translate(-1405 -11582)"><g class="e" transform="matrix(1, 0, 0, 1, 1405, 11582)"><circle class="a" cx="73" cy="73" r="73" transform="translate(9 7)"/></g><g transform="translate(1436 11631)"><path class="b" d="M2307.784,429.184l45.653-19.71a3.158,3.158,0,0,1,2.448-.021l48.349,19.852a.52.52,0,0,1-.006.969l-48.472,19.236a3.486,3.486,0,0,1-2.641-.028L2307.789,430.4A.656.656,0,0,1,2307.784,429.184Z" transform="translate(-2301.96 -409.216)"/><path class="c" d="M2319.174,429.547v21.3a4.278,4.278,0,0,0,1.262,3.055c3.038,2.99,11.838,9.752,29.273,9.752,22.281,0,25.5-11.09,25.5-11.09V431.416" transform="translate(-2297.119 -400.871)"/><line class="c" y2="14.9" transform="translate(6.943 21.65)"/><ellipse class="d" cx="6.943" cy="6.943" rx="6.943" ry="6.943" transform="translate(0 37.037)"/></g></g></svg>