<svg xmlns="http://www.w3.org/2000/svg" xmlns:xlink="http://www.w3.org/1999/xlink" width="127" height="125" viewBox="0 0 127 125"><defs><style>.a{fill:#fff;}.b{fill:#00efd1;}.c{fill:#093d78;}.d{filter:url(#a);}</style><filter id="a" x="0" y="0" width="127" height="125" filterUnits="userSpaceOnUse"><feOffset input="SourceAlpha"/><feGaussianBlur stdDeviation="5" result="b"/><feFlood flood-color="#093d78" flood-opacity="0.122"/><feComposite operator="in" in2="b"/><feComposite in="SourceGraphic"/></filter></defs><g transform="translate(-278 -3691)"><g class="d" transform="matrix(1, 0, 0, 1, 278, 3691)"><ellipse class="a" cx="48.5" cy="47.5" rx="48.5" ry="47.5" transform="translate(15 15)"/></g><g transform="translate(313.999 3729.21)"><path class="b" d="M2561.63,426.021a3.062,3.062,0,0,1,3.117-1.6c1.064.068,2.137-.023,3.2.024a2.333,2.333,0,1,1-.064,4.655c-.975.022-1.958-.074-2.924.023a3.437,3.437,0,0,1-3.332-1.425Z" transform="translate(-2561.63 -398.876)"/><path class="c" d="M2589.035,449.911c-1.58,0-3.161.024-4.741-.008-1.272-.025-1.615-.551-1.055-1.692,2.452-4.988,4.944-9.956,7.393-14.946a1.5,1.5,0,0,1,1.537-.922c3.067.017,6.136-.012,9.2.015,1.414.012,1.759.576,1.133,1.852-2.41,4.908-4.857,9.8-7.255,14.71a1.533,1.533,0,0,1-1.614,1.005C2592.1,449.878,2590.568,449.911,2589.035,449.911Z" transform="translate(-2566.396 -400.647)"/><path class="c" d="M2571.266,449.91c-1.487,0-2.975.014-4.462,0s-1.822-.5-1.2-1.779c2.435-4.947,4.9-9.88,7.329-14.829a1.508,1.508,0,0,1,1.521-.959c3.114.02,6.229-.014,9.343.019,1.3.014,1.635.6,1.043,1.811-2.424,4.951-4.881,9.886-7.3,14.839a1.463,1.463,0,0,1-1.535.912C2574.428,449.884,2572.847,449.91,2571.266,449.91Z" transform="translate(-2562.451 -400.647)"/><path class="c" d="M2606.688,449.911c-1.534,0-3.068.016-4.6,0-1.386-.019-1.74-.513-1.152-1.713,2.444-4.994,4.929-9.968,7.378-14.96a1.414,1.414,0,0,1,1.418-.888c3.162.011,6.323-.02,9.485.018,1.233.015,1.581.614,1.027,1.742-2.451,4.992-4.94,9.964-7.39,14.956a1.368,1.368,0,0,1-1.421.859C2609.85,449.891,2608.269,449.911,2606.688,449.911Z" transform="translate(-2570.342 -400.647)"/><path class="c" d="M2592.761,406.566a16.174,16.174,0,0,1,16.121,16.181c0,1.042-.272,1.4-1.317,1.277-.917-.1-2.053.272-2.724-.151-.656-.413-.152-1.623-.27-2.479a11.979,11.979,0,0,0-11.218-10.541,11.846,11.846,0,0,0-12.338,9.686c-.1.5-.065,1.025-.174,1.52-.14.638.384,1.7-.3,1.852a12.7,12.7,0,0,1-3.743.006c-.369-.033-.247-.64-.255-.99A16.182,16.182,0,0,1,2592.761,406.566Z" transform="translate(-2564.956 -394.893)"/><path class="b" d="M2626.648,429.1c-.741,0-1.484.039-2.222-.011a2.3,2.3,0,0,1-2.2-2.25,2.162,2.162,0,0,1,1.949-2.316,31.755,31.755,0,0,1,4.847-.009,2.2,2.2,0,0,1,2,2.417,2.31,2.31,0,0,1-2.289,2.163C2628.039,429.135,2627.342,429.1,2626.648,429.1Z" transform="translate(-2575.156 -398.88)"/><path class="b" d="M2619.334,401.215a2.155,2.155,0,0,1,2.088,1.223,2.081,2.081,0,0,1-.243,2.475,39.362,39.362,0,0,1-3.362,3.34,2.068,2.068,0,0,1-2.92-.115,2.042,2.042,0,0,1-.435-2.887,21.532,21.532,0,0,1,3.732-3.739A1.9,1.9,0,0,1,2619.334,401.215Z" transform="translate(-2573.33 -393.699)"/><path class="b" d="M2573.534,401.212c1.452-.037,5.307,3.7,5.326,5.167a2.241,2.241,0,0,1-1.315,2.133,2.078,2.078,0,0,1-2.472-.305c-1.129-1.038-2.214-2.128-3.251-3.256a2.28,2.28,0,0,1,1.713-3.739Z" transform="translate(-2563.78 -393.698)"/><path class="b" d="M2594.631,395.8c0-.65-.028-1.3,0-1.951a2.213,2.213,0,0,1,2.254-2.313,2.188,2.188,0,0,1,2.318,2.242c.052,1.439.054,2.882-.006,4.319a2.184,2.184,0,0,1-2.241,2.178,2.214,2.214,0,0,1-2.321-2.246C2594.6,397.291,2594.632,396.546,2594.631,395.8Z" transform="translate(-2568.994 -391.539)"/></g></g></svg>