<svg xmlns="http://www.w3.org/2000/svg" xmlns:xlink="http://www.w3.org/1999/xlink" width="125" height="125" viewBox="0 0 125 125"><defs><style>.a{fill:#fff;}.b{fill:#093d78;}.c{fill:#f7caa5;}.d{fill:#00efd1;}.e{filter:url(#a);}</style><filter id="a" x="0" y="0" width="125" height="125" filterUnits="userSpaceOnUse"><feOffset input="SourceAlpha"/><feGaussianBlur stdDeviation="5" result="b"/><feFlood flood-color="#093d78" flood-opacity="0.122"/><feComposite operator="in" in2="b"/><feComposite in="SourceGraphic"/></filter></defs><g transform="translate(14.848 14.575)"><g class="e" transform="matrix(1, 0, 0, 1, -14.85, -14.58)"><circle class="a" cx="47.5" cy="47.5" r="47.5" transform="translate(15 15)"/></g><g transform="translate(18.865 21.157)"><path class="b" d="M2487.965,405.956a13.6,13.6,0,0,0-16.138,3.108,12.6,12.6,0,0,0-2.435,3.9,1.428,1.428,0,0,0,2.548,1.263,10.925,10.925,0,0,0,.5-.971,10.348,10.348,0,0,1,7.554-5.568,1.316,1.316,0,0,1,.479-.114c3.689-.8,8.39,1.331,10.586,4.937a10.065,10.065,0,0,1,1.427,7.667h0c-.094,1.048.3,1.818,1.4,1.877,1.077.058,1.376-.757,1.541-1.679A13.63,13.63,0,0,0,2487.965,405.956Z" transform="translate(-2442.441 -394.798)"/><path class="c" d="M2482.155,408.291c3.751-1.11,8.773,1.06,11.064,4.823a10.067,10.067,0,0,1,1.427,7.667c-1.879.52-2.595-1.326-2.707-2.209-.585-4.6-2.987-7.014-7.573-7.586C2481.434,410.62,2481.276,408.879,2482.155,408.291Z" transform="translate(-2444.596 -395.396)"/><path class="d" d="M2464.765,408.737c-.012,1.077-.832,1.791-1.73,1.515a7.94,7.94,0,0,1-2.93-1.668,1.277,1.277,0,0,1-.188-1.581,1.172,1.172,0,0,1,1.273-.754,6.824,6.824,0,0,1,3.337,1.848C2464.708,408.265,2464.721,408.61,2464.765,408.737Z" transform="translate(-2440.783 -395.088)"/><path class="d" d="M2498.615,397.777a7.109,7.109,0,0,1-1.938,3.185,1.234,1.234,0,0,1-1.585-.055,1.256,1.256,0,0,1-.516-1.5,11,11,0,0,1,1.543-2.741,1.347,1.347,0,0,1,1.666-.34C2498.32,396.532,2498.607,396.967,2498.615,397.777Z" transform="translate(-2446.821 -393.344)"/><path class="d" d="M2472.057,401.433a1.319,1.319,0,0,1-1.231-.635c-.468-.751-.924-1.515-1.319-2.305a1.266,1.266,0,0,1,.533-1.777,1.346,1.346,0,0,1,1.936.331,13.277,13.277,0,0,1,1.382,2.405A1.433,1.433,0,0,1,2472.057,401.433Z" transform="translate(-2442.451 -393.39)"/><path class="d" d="M2482.884,395.252c-.014-1.779.374-2.467,1.4-2.5,1.076-.039,1.516.692,1.515,2.522a12.591,12.591,0,0,1-.026,1.457,1.441,1.441,0,0,1-2.875-.017A14.489,14.489,0,0,1,2482.884,395.252Z" transform="translate(-2444.802 -392.746)"/><path class="d" d="M2504.458,409.878a1.3,1.3,0,0,1-1.146-.909,1.283,1.283,0,0,1,.437-1.634,25.414,25.414,0,0,1,2.533-1.449,1.245,1.245,0,0,1,1.541.381,1.4,1.4,0,0,1,.19,1.6A7.735,7.735,0,0,1,2504.458,409.878Z" transform="translate(-2448.332 -395.005)"/><path class="b" d="M2491.18,446.163q-3.7-11.284-7.507-22.536a6.122,6.122,0,0,0-6-4.323q-18.414-.025-36.827,0a3.851,3.851,0,0,0-3.817,5.247,41.557,41.557,0,0,0,1.786,5.307,14.054,14.054,0,0,1,.337,11.386c-.987,2.652-1.514,5.476-2.241,8.224a1.411,1.411,0,0,0,.969,1.935c.955.279,1.537-.264,1.85-1.137.068-.19.116-.389.168-.585q1.808-6.767,3.622-13.533a2.7,2.7,0,0,0-.078-1.658q-1.775-5.187-3.485-10.4c-.473-1.429-.151-1.868,1.357-1.869q17.987-.007,35.974,0a3.418,3.418,0,0,1,3.729,2.675c.522,1.53.981,3.082,1.467,4.625h0c.42,1.17.832,2.344,1.265,3.51.228.611.092.924-.607.894-.562-.023-1.126-.022-1.69-.032h0c-2.682.011-5.365,0-8.047.05-.728.015-.985-.309-1.183-.921-.723-2.242-1.483-4.472-2.229-6.706-.039-.116-.077-.231-.117-.346-.524-1.537-1.185-2.065-2.152-1.72s-1.137,1.136-.61,2.717c.669,2,1.32,4.013,2.026,6,.271.764.114.982-.707.973-3.17-.037-6.341-.043-9.511,0a1.206,1.206,0,0,1-1.368-1.009c-.773-2.438-1.6-4.859-2.427-7.281-.421-1.238-1.117-1.715-2.01-1.418s-1.161,1.1-.75,2.349c.657,2.006,1.337,4.006,2,6.01.44,1.325.438,1.328-.908,1.33-1.869,0-3.74.013-5.608,0-1.017-.009-1.8.284-1.881,1.429-.072.955.636,1.479,1.926,1.5.285,0,.569,0,.853,0q8.537,0,17.073,0,7.315.01,14.631.045c1.216-.016,2.432,0,3.646-.058a1.071,1.071,0,0,1,1.235.862c.989,3.044,2.029,6.072,3.022,9.115.407,1.249.04,1.728-1.307,1.736-2.879.017-5.758-.013-8.636.019a1.14,1.14,0,0,1-1.319-.923c-.4-1.4-.868-2.782-1.309-4.171h0c-.391-1.1-.8-2.2-1.171-3.305-.322-.963-.871-1.58-1.966-1.3-.876.224-1.176,1.063-.824,2.2.441,1.427.908,2.846,1.365,4.268.288.8.567,1.6.866,2.389.26.684-.037.851-.674.836-1.619-.037-3.238-.04-4.858-.055h0c-1.544.017-3.089-.01-4.63.066a1.241,1.241,0,0,1-1.476-1.032c-.755-2.443-1.609-4.857-2.415-7.285-.2-.594-.418-1.166-1.076-1.379a1.381,1.381,0,0,0-1.469.322,1.6,1.6,0,0,0-.291,1.813c.727,2.2,1.445,4.4,2.213,6.582.265.754.126.99-.7.977-2.641-.042-5.284,0-7.926-.023a3.385,3.385,0,0,1-3.426-2.425,15.317,15.317,0,0,0-.652-1.7,1.332,1.332,0,0,0-1.773-.64,1.363,1.363,0,0,0-.9,1.556,6.742,6.742,0,0,0,6.639,6.138q18.352.034,36.705,0A3.854,3.854,0,0,0,2491.18,446.163Z" transform="translate(-2436.8 -397.357)"/><g transform="translate(31.725 32.168)"><path class="c" d="M2496.553,450.513c-.992-3.043-2.033-6.071-3.022-9.115a1.072,1.072,0,0,0-1.235-.862c-1.214.057-2.43.042-3.646.058a22.04,22.04,0,0,1-4.669,6.58c.44,1.389.911,2.77,1.309,4.171a1.14,1.14,0,0,0,1.319.923c2.878-.032,5.757,0,8.636-.019C2496.592,452.241,2496.96,451.763,2496.553,450.513Z" transform="translate(-2476.719 -433.215)"/><path class="c" d="M2479.859,450.824c-.117.516-.529.765-.916,1.054-1.161.868-2.542,1.338-3.751,2.115,1.62.016,3.239.018,4.858.055.636.015.933-.152.674-.836C2480.426,452.421,2480.147,451.621,2479.859,450.824Z" transform="translate(-2475.193 -435.002)"/><path class="c" d="M2493.132,435.186c-.434-1.166-.844-2.34-1.265-3.51-.553,1.408-.382,2.987-1.032,4.372.563.01,1.127.009,1.69.032C2493.224,436.11,2493.36,435.8,2493.132,435.186Z" transform="translate(-2477.91 -431.676)"/></g></g></g></svg>