<svg xmlns="http://www.w3.org/2000/svg" width="61.815" height="81.199" viewBox="0 0 61.815 81.199"><defs><style>.a{fill:#093d78;}.b{fill:#fefefe;}.c{fill:#00efd1;}</style></defs><g transform="translate(-454.947 -143.704)"><path class="a" d="M455.874,191.244q0-16.36-.012-32.721a2.354,2.354,0,0,1,.708-1.784q5.5-5.694,10.951-11.436a2.029,2.029,0,0,1,1.6-.7q23.445.021,46.891.011c1.3,0,1.63.338,1.63,1.668,0,12.132.029,61.243,0,73.375,0,.83.111,4.634-.081,6-.49.341-10.923-.012-11.127-.012H457.624c-1.546,0-1.75-.207-1.75-1.77Z" transform="translate(-0.915 -0.904)"/><path class="b" d="M457.246,189.263c0-10.1.013-20.2-.024-30.3,0-.921.272-1.1,1.123-1.082,2.949.052,5.9.022,8.85.019,1.133,0,1.453-.325,1.454-1.472,0-3.235.016-6.469-.013-9.7,0-.6.155-.754.752-.754q21.574.027,43.147,0c.534,0,.723.116.723.694q-.027,17.277,0,34.554c0,.584,0,41.269,0,39.506-.2-.063-7.823,0-8.456,0q-23.361-.029-46.721,0c-.761,0-.849-.261-.848-.918Q457.262,204.54,457.246,189.263Z" transform="translate(0.951 0.951)"/><path class="b" d="M458.143,155.267l7.814-8.093c.24.049.193.213.194.34q0,3.567,0,7.135c0,.3.078.629-.43.626C463.268,155.26,460.814,155.267,458.143,155.267Z" transform="translate(1.405 1.542)"/><path class="a" d="M471.27,159.2a13.3,13.3,0,0,0-2.195,2.078c-.149.172-.29.349-.439.52a.977.977,0,0,1-1.49.219c-.57-.472-.487-1.026-.043-1.566A18.458,18.458,0,0,1,478.97,153.6a19.062,19.062,0,1,1-15.936,21.368,18.221,18.221,0,0,1,.424-7.254c.178-.7.5-1.157,1.287-1.027.651.109.887.681.681,1.556a17.036,17.036,0,1,0,33.4,6.473c.087-.749-.369-.536-.7-.536-4.6-.009-9.189.024-13.783-.015-3.591-.031-2.529.581-4.586-2.426-2.657-3.883-5.267-7.8-7.9-11.7C471.664,159.759,471.47,159.485,471.27,159.2Z" transform="translate(5.367 4.6)"/><path class="a" d="M484.88,185.454H473.394a5.205,5.205,0,0,1-.858-.025,1.137,1.137,0,0,1-.015-2.248,4.107,4.107,0,0,1,.763-.025h23.161c.191,0,.385-.012.575.007a1.141,1.141,0,0,1,.015,2.281c-.254.024-.511.01-.766.01Z" transform="translate(8.21 20.525)"/><path class="a" d="M484.888,191.155H473.4a5.441,5.441,0,0,1-.86-.023,1.137,1.137,0,0,1-.034-2.248,3.842,3.842,0,0,1,.763-.027h23.163a4.428,4.428,0,0,1,.669.015,1.079,1.079,0,0,1,1.028,1.164,1.068,1.068,0,0,1-.995,1.1,4.818,4.818,0,0,1-.764.02Z" transform="translate(8.21 24.402)"/><path class="a" d="M460.991,168.959c0,2.719-.006,5.437,0,8.156a1.113,1.113,0,0,1-.787,1.25c-.679.2-1.248-.33-1.256-1.187-.013-1.812,0-3.625,0-5.437q0-5.352,0-10.7a1.306,1.306,0,0,1,.437-1.218.98.98,0,0,1,1.048-.076,1.072,1.072,0,0,1,.563,1.061c-.009,1.585,0,3.171,0,4.756Z" transform="translate(3.59 10.178)"/><path class="a" d="M469.661,183.16c.541,0,1.084-.013,1.623,0a1.09,1.09,0,0,1,1.186,1.112,1.062,1.062,0,0,1-1.122,1.166c-1.146.035-2.293.037-3.437,0a1.043,1.043,0,0,1-1.087-1.1,1.07,1.07,0,0,1,1.119-1.166C468.513,183.131,469.088,183.162,469.661,183.16Z" transform="translate(4.987 20.525)"/><path class="a" d="M469.745,188.863c.541,0,1.083-.027,1.623.007a1.136,1.136,0,0,1-.009,2.271q-1.716.055-3.437,0a1.049,1.049,0,0,1-1.1-1.09,1.068,1.068,0,0,1,1.107-1.178C468.532,188.831,469.14,188.863,469.745,188.863Z" transform="translate(4.987 24.401)"/><path class="a" d="M460.974,157.814a3.425,3.425,0,0,1-.008.678.978.978,0,0,1-.948.829.949.949,0,0,1-.915-.509,3.5,3.5,0,0,1,.061-2.305.968.968,0,0,1,.976-.382C460.792,156.219,461,156.636,460.974,157.814Z" transform="translate(3.586 8.444)"/><path class="a" d="M465.177,188.852c.813-.007,1.344.3,1.408,1.117.054.7-.482,1.168-1.287,1.186-.855.02-1.471-.454-1.419-1.159A1.152,1.152,0,0,1,465.177,188.852Z" transform="translate(2.983 24.402)"/><path class="a" d="M465.118,185.455a1.189,1.189,0,0,1-1.242-1.248c.067-.7.669-1.11,1.534-1.05a1.111,1.111,0,0,1,1.178,1.2C466.588,185.077,465.99,185.5,465.118,185.455Z" transform="translate(2.98 20.525)"/><path class="c" d="M478.627,154.731a16.946,16.946,0,0,1,10.545,3.705c.529.412.67.649.121,1.212q-5.146,5.26-10.21,10.6c-.466.49-.636.363-.954-.113q-4.085-6.118-8.217-12.2c-.358-.527-.249-.723.257-1.011A17.015,17.015,0,0,1,478.627,154.731Z" transform="translate(8.745 5.267)"/><path class="c" d="M477.1,169.511c.534-.566.915-.976,1.3-1.379q4.365-4.535,8.732-9.068c.27-.279.469-.639.9-.1a16.939,16.939,0,0,1,3.867,9.965c.018.345.009.594-.463.593C486.74,169.506,482.039,169.511,477.1,169.511Z" transform="translate(12.394 7.216)"/></g></svg>