<svg xmlns="http://www.w3.org/2000/svg" xmlns:xlink="http://www.w3.org/1999/xlink" width="106" height="106" viewBox="0 0 106 106"><defs><style>.a{fill:#fff;}.b,.c{fill:#093d78;stroke:#093d78;stroke-miterlimit:10;stroke-width:0.5px;}.c{stroke-linecap:round;stroke-linejoin:round;}.d{fill:#fa7819;}.e{filter:url(#a);}</style><filter id="a" x="0" y="0" width="106" height="106" filterUnits="userSpaceOnUse"><feOffset input="SourceAlpha"/><feGaussianBlur stdDeviation="3.5" result="b"/><feFlood flood-opacity="0.102"/><feComposite operator="in" in2="b"/><feComposite in="SourceGraphic"/></filter></defs><g transform="translate(-1476.5 -2685.5)"><g class="e" transform="matrix(1, 0, 0, 1, 1476.5, 2685.5)"><circle class="a" cx="42.5" cy="42.5" r="42.5" transform="translate(10.5 10.5)"/></g><g transform="translate(-322.45 2358.671)"><path class="b" d="M1859.785,404.7h-17.419a10.951,10.951,0,0,1-10.912-10.9c-.231-11.005,9.673-26.706,15.475-27.06h8.911c2.449,0,5.6,2.446,8.656,6.711,4.432,6.194,8.368,18.581,6.563,23.876C1868.894,404.319,1865.894,404.7,1859.785,404.7Zm-12.8-36.763c-2.3.157-5.927,3.754-9.025,8.962-3.426,5.759-5.41,12.069-5.31,16.877a9.764,9.764,0,0,0,9.716,9.728h17.419a10.052,10.052,0,0,0,8.9-4.586,11.924,11.924,0,0,0,1.763-4.612,16.5,16.5,0,0,0-.171-4.53c-.507-4.686-3.585-11.2-6.751-15.629-2.783-3.888-5.655-6.21-7.683-6.21Z"/><path class="b" d="M1857.877,365.3h-12.472l-4.472-5.314c-.131-.189-.762-1.167-.291-1.891s1.569-.516,1.928-.446l.136.026c2.209.426,3.8.735,5.13-.027a15.674,15.674,0,0,0,1.665-1.152,5.023,5.023,0,0,1,2.054-1.157l.086-.012.086.012a5.032,5.032,0,0,1,2.054,1.156,15.777,15.777,0,0,0,1.664,1.153c1.326.762,2.922.453,5.131.027l.135-.026c.36-.07,1.456-.281,1.929.446s-.16,1.7-.291,1.891l-.034.044Zm-11.915-1.2h11.359l4.058-4.821a1.737,1.737,0,0,0,.231-.508,2.032,2.032,0,0,0-.672.049l-.136.026c-2.37.458-4.242.819-5.953-.165a16.458,16.458,0,0,1-1.793-1.237,1.558,1.558,0,0,0-2.83,0,16.554,16.554,0,0,1-1.793,1.237c-1.711.984-3.583.623-5.954.165l-.135-.026a2.034,2.034,0,0,0-.672-.049,1.747,1.747,0,0,0,.23.507Z"/><path class="c" d="M1847.778,375.387l-1.2-.012c0-.252.1-6.2,3.369-8.519l.693.976C1847.874,369.8,1847.778,375.332,1847.778,375.387Z"/><path class="c" d="M1855.538,375.387c0-.055-.1-5.589-2.865-7.555l.693-.976c3.267,2.32,3.367,8.267,3.369,8.519Z"/><path class="d" d="M219.07,209.047a1.262,1.262,0,0,0,1.262,1.262h4.946a1.588,1.588,0,0,1-.458.628,2.65,2.65,0,0,1-1.876.791h-2.612a1.285,1.285,0,0,0-.866,2.211l6.526,6.172a1.26,1.26,0,1,0,1.733-1.829l-4.249-4.014a5.182,5.182,0,0,0,3.128-1.524,5.04,5.04,0,0,0,1.362-2.434h1.491a1.262,1.262,0,1,0,0-2.523h-1.493a3.489,3.489,0,0,0-.577-1.262h2.071a1.262,1.262,0,1,0,0-2.523h-9.125a1.262,1.262,0,1,0,0,2.523h2.612a2.624,2.624,0,0,1,2.333,1.262h-4.945A1.262,1.262,0,0,0,219.07,209.047Z" transform="translate(1626.799 177.85)"/></g></g></svg>