<svg xmlns="http://www.w3.org/2000/svg" xmlns:xlink="http://www.w3.org/1999/xlink" width="148" height="148" viewBox="0 0 148 148"><defs><style>.a{fill:#fff;}.b,.e{fill:none;}.b,.c,.d,.e{stroke:#093d78;stroke-linecap:round;stroke-miterlimit:10;}.b,.c{stroke-width:2.5px;}.c{fill:#00efd1;}.d{fill:#f7caa5;}.d,.e{stroke-width:2px;}.f{filter:url(#a);}</style><filter id="a" x="0" y="0" width="148" height="148" filterUnits="userSpaceOnUse"><feOffset dy="2" input="SourceAlpha"/><feGaussianBlur stdDeviation="5" result="b"/><feFlood flood-opacity="0.122"/><feComposite operator="in" in2="b"/><feComposite in="SourceGraphic"/></filter></defs><g transform="translate(-1364 -6088)"><g class="f" transform="matrix(1, 0, 0, 1, 1364, 6088)"><circle class="a" cx="59" cy="59" r="59" transform="translate(15 13)"/></g><g transform="translate(300.342 5988.015)"><path class="b" d="M1125.407,202.328a41.751,41.751,0,0,0-.225-5.814,4.525,4.525,0,0,0-.973-2.32c-.222-.248-.522-.461-.813-.722-3.221-2.9-8.6-8.082-8.87-8.311a4.463,4.463,0,0,1-1.032-5.9l5.357-8.9a3.261,3.261,0,0,1,4.482-1.069h0a3.262,3.262,0,0,1,1.316,4.416l-4.153,7.214a.281.281,0,0,0,.042.336l7.284,7.434a.939.939,0,0,0,1.259.074l1.027-.827" transform="translate(-0.743 2.352)"/><path class="b" d="M1146.962,202.328a41.716,41.716,0,0,1,.225-5.814,4.527,4.527,0,0,1,.974-2.32c.222-.248.524-.461.813-.722,3.221-2.9,8.6-8.082,8.87-8.311a4.465,4.465,0,0,0,1.033-5.9l-5.357-8.9a3.263,3.263,0,0,0-4.483-1.069h0a3.262,3.262,0,0,0-1.316,4.416l4.153,7.214a.279.279,0,0,1-.042.336l-7.284,7.434a.939.939,0,0,1-1.259.074l-1.027-.827" transform="translate(3.659 2.352)"/><circle class="c" cx="8.883" cy="8.883" r="8.883" transform="translate(1128.69 168.099)"/><path class="d" d="M1120.467,148.809l3.293-2.3a.524.524,0,0,1,.794.255l2.015,5.7a.544.544,0,0,0,.751.308l1.529-.743a.57.57,0,0,1,.807.394l2.7,12.583a.1.1,0,0,1-.182.08l-5.25-7.3a.669.669,0,0,0-.944-.147l-.653.487a.606.606,0,0,1-.905-.219l-4.134-8.387A.562.562,0,0,1,1120.467,148.809Z" transform="translate(0.862 -1.476)"/><path class="d" d="M1147.537,146.231l3.7,1.552a.524.524,0,0,1,.21.808l-3.74,4.752a.544.544,0,0,0,.141.8l1.446.894a.571.571,0,0,1,.1.892l-9.189,9.009a.1.1,0,0,1-.166-.11l3.364-8.344a.67.67,0,0,0-.381-.876l-.76-.291a.606.606,0,0,1-.3-.883l4.875-7.979A.562.562,0,0,1,1147.537,146.231Z" transform="translate(2.478 -1.494)"/><line class="e" x2="4.332" y2="3.624" transform="translate(1114.272 156.549)"/><line class="e" x2="2.142" y2="1.792" transform="translate(1108.434 151.793)"/><line class="e" x1="4.332" y2="3.624" transform="translate(1156.75 156.531)"/><line class="e" x1="2.142" y2="1.792" transform="translate(1164.553 151.793)"/><line class="e" x2="0.182" y2="5.645" transform="translate(1137.087 143.997)"/><line class="e" x2="0.09" y2="2.792" transform="translate(1136.997 135.985)"/></g></g></svg>