<svg xmlns="http://www.w3.org/2000/svg" width="60.865" height="75.373" viewBox="0 0 60.865 75.373"><defs><style>.a,.b,.c{fill:#093d78;stroke:#093d78;stroke-miterlimit:10;}.a{stroke-width:1.5px;}.c{stroke-linecap:round;stroke-linejoin:round;}.d{fill:#fa7819;}</style></defs><g transform="translate(-1830.699 -353.824)"><g transform="translate(1831.45 372.234)"><path class="a" d="M1873.41,422.958h-25.8a16.217,16.217,0,0,1-16.159-16.14c-.342-16.3,14.324-39.548,22.916-40.072l.053,0h13.143c3.626,0,8.3,3.622,12.818,9.938,6.563,9.172,12.392,27.516,9.719,35.357C1886.9,422.386,1882.457,422.958,1873.41,422.958Zm-18.955-54.441c-3.412.233-8.777,5.559-13.365,13.271-5.073,8.528-8.011,17.872-7.863,24.992a14.459,14.459,0,0,0,14.388,14.406h25.8c5.454,0,10.234-2.157,13.176-6.792a17.659,17.659,0,0,0,2.61-6.829,24.42,24.42,0,0,0-.254-6.709c-.751-6.94-5.308-16.591-10-23.144-4.121-5.758-8.374-9.2-11.377-9.2Z" transform="translate(-1831.45 -366.745)"/></g><g transform="translate(1844.807 354.329)"><path class="b" d="M1866.247,370.1h-18.469l-6.622-7.869c-.194-.28-1.128-1.728-.431-2.8s2.324-.764,2.855-.66l.2.039c3.271.631,5.635,1.088,7.6-.04a23.2,23.2,0,0,0,2.466-1.706,7.438,7.438,0,0,1,3.042-1.713l.127-.018.127.018a7.448,7.448,0,0,1,3.042,1.712,23.386,23.386,0,0,0,2.464,1.707c1.964,1.128,4.327.671,7.6.04l.2-.039c.533-.1,2.156-.416,2.856.66s-.237,2.52-.431,2.8l-.051.065Zm-17.644-1.771h16.821l6.009-7.139a2.569,2.569,0,0,0,.342-.752,3.009,3.009,0,0,0-1,.073l-.2.038c-3.51.678-6.282,1.213-8.815-.244a24.389,24.389,0,0,1-2.655-1.832,2.307,2.307,0,0,0-4.191,0,24.528,24.528,0,0,1-2.655,1.832c-2.534,1.457-5.306.923-8.817.244l-.2-.038a3.011,3.011,0,0,0-1-.073,2.593,2.593,0,0,0,.341.751Z" transform="translate(-1840.47 -355.329)"/></g><g transform="translate(1853.857 372.399)"><path class="c" d="M1848.354,379.489l-1.772-.018c0-.373.149-9.18,4.989-12.615l1.026,1.445C1848.5,371.213,1848.354,379.408,1848.354,379.489Z" transform="translate(-1846.581 -366.856)"/></g><g transform="translate(1862.878 372.399)"><path class="c" d="M1856.915,379.489c0-.081-.142-8.276-4.242-11.188l1.026-1.445c4.838,3.436,4.986,12.242,4.989,12.615Z" transform="translate(-1852.673 -366.856)"/></g><path class="d" d="M219.07,211.474a1.868,1.868,0,0,0,1.868,1.868h7.324a2.352,2.352,0,0,1-.679.93,3.924,3.924,0,0,1-2.777,1.171h-3.868a1.9,1.9,0,0,0-1.283,3.274l9.664,9.14a1.866,1.866,0,0,0,2.566-2.709l-6.292-5.944a7.673,7.673,0,0,0,4.632-2.257,7.463,7.463,0,0,0,2.017-3.6h2.208a1.868,1.868,0,1,0,0-3.737H232.24a5.166,5.166,0,0,0-.855-1.868h3.067a1.868,1.868,0,1,0,0-3.737H220.938a1.868,1.868,0,1,0,0,3.737h3.868a3.885,3.885,0,0,1,3.455,1.868h-7.322A1.868,1.868,0,0,0,219.07,211.474Z" transform="translate(1633.732 190.602)"/></g></svg>