<svg xmlns="http://www.w3.org/2000/svg" xmlns:xlink="http://www.w3.org/1999/xlink" width="106" height="106" viewBox="0 0 106 106"><defs><style>.a{fill:#fff;}.b{fill:#093d78;}.c{fill:#00efd1;}.d{fill:#fdfdfd;}.e{fill:none;stroke:#f7caa5;stroke-linecap:round;stroke-miterlimit:10;stroke-width:2px;}.f{filter:url(#a);}</style><filter id="a" x="0" y="0" width="106" height="106" filterUnits="userSpaceOnUse"><feOffset input="SourceAlpha"/><feGaussianBlur stdDeviation="3.5" result="b"/><feFlood flood-opacity="0.102"/><feComposite operator="in" in2="b"/><feComposite in="SourceGraphic"/></filter></defs><g transform="translate(-551.5 -2685.5)"><g class="f" transform="matrix(1, 0, 0, 1, 551.5, 2685.5)"><circle class="a" cx="42.5" cy="42.5" r="42.5" transform="translate(10.5 10.5)"/></g><g transform="translate(-136.184 2566.762)"><path class="b" d="M736.535,145.578a2.389,2.389,0,0,1,1.911-1.223,23.414,23.414,0,0,1,4.72,0,2.356,2.356,0,0,1,1.947,1.336c.17.334,1.076,2.6,1.078,2.622.029.25.251.293.457.342a54.09,54.09,0,0,1,6.44,2.68.591.591,0,0,0,.666.027c.694-.324,1.408-.606,2.108-.918a2.493,2.493,0,0,1,2.882.437l2.341,2.074a5.779,5.779,0,0,1,1.352,1.782,2.452,2.452,0,0,1-.025,1.932c-.285.676-.556,1.359-.869,2.021a.98.98,0,0,0,.077,1.1c.284.446.492.933.748,1.4a23.469,23.469,0,0,1,1.706,4.515c.077.281.152.558.464.675.53.25,1.081.449,1.627.658a4.231,4.231,0,0,1,1.63.968,2.966,2.966,0,0,1,.622,1.707v4.424a2.7,2.7,0,0,1-2.033,2.467c-.559.235-1.122.462-1.689.676a.912.912,0,0,0-.606.681c-.121.466-.247.931-.406,1.386a23.673,23.673,0,0,1-2.119,4.694.893.893,0,0,0-.061.908c.317.7.623,1.409.906,2.126a2.353,2.353,0,0,1,.211.828c0,.055,0,.109,0,.164a3.212,3.212,0,0,1-1.069,2.221,29.389,29.389,0,0,1-2.813,2.732,2.775,2.775,0,0,1-1.878.677,5.481,5.481,0,0,1-2.156-.772,2.149,2.149,0,0,0-2.414.072,16.931,16.931,0,0,1-4.019,1.761c-.439.151-.885.281-1.334.391a1.009,1.009,0,0,0-.791.7c-.185.54-.431,1.057-.62,1.6a2.669,2.669,0,0,1-2.577,2.045h-4.424a2.7,2.7,0,0,1-2.488-2.12c-.242-.617-.47-1.24-.751-1.841a.907.907,0,0,0-.626-.371,23.69,23.69,0,0,1-4.55-1.715c-.458-.261-.95-.461-1.394-.749a.98.98,0,0,0-1.1-.077c-.679.318-1.374.608-2.072.886a2.492,2.492,0,0,1-2.533-.357,7.314,7.314,0,0,1-1.13-.987c-.379-.438-1.814-2.048-2.138-2.427a2.393,2.393,0,0,1-.428-2.645c.315-.757.626-1.515.97-2.259a.593.593,0,0,0-.048-.694c-.02-.024-1.568-3.1-1.858-3.858a19.733,19.733,0,0,1-.823-2.657c-.041-.181-.122-.325-.307-.353-.026,0-2.121-.85-2.334-.938a2.532,2.532,0,0,1-1.659-2.346,30.6,30.6,0,0,1-.006-4.184,2.6,2.6,0,0,1,1.769-2.442c.179-.071,1.273-.673,1.682-.8a1.05,1.05,0,0,0,.8-.8,54.12,54.12,0,0,1,2.805-6.265c.15-.239.033-.409-.043-.6a23.993,23.993,0,0,1-1.18-2.99,1.813,1.813,0,0,1,.413-1.791,12.573,12.573,0,0,1,1.691-1.879,12.3,12.3,0,0,1,1.841-1.654,1.811,1.811,0,0,1,1.791-.411,25.355,25.355,0,0,1,3.04,1.2c.183.072.337.157.549.024a54.683,54.683,0,0,1,6.315-2.806.985.985,0,0,0,.665-.58C735.414,147.965,736.341,145.91,736.535,145.578Z"/><path class="c" d="M766.562,171.128c-.141-2.209.154-1.661-1.7-2.459a1.013,1.013,0,0,0-.208-.045,9.8,9.8,0,0,0-1.53-.621,1.345,1.345,0,0,1-.8-1.058,17.86,17.86,0,0,0-1.465-4.247,6.278,6.278,0,0,0-.732-1.448,6.347,6.347,0,0,0-.52-.932,1.552,1.552,0,0,1-.131-1.845c.264-.506.463-1.047.689-1.572.634-1.474.633-1.474-.532-2.606a.147.147,0,0,0-.049-.022,6.162,6.162,0,0,0-1.086-1.091,8.508,8.508,0,0,0-.847-.808.918.918,0,0,0-1.2-.178c-.867.413-1.769.753-2.65,1.137a1.129,1.129,0,0,1-1.118-.078,5.5,5.5,0,0,0-1.061-.609,8.55,8.55,0,0,0-1.553-.816,20.039,20.039,0,0,0-4.439-1.52,1.286,1.286,0,0,1-.87-.559l-.626-1.512c-.186-.5-.374-1-.558-1.506a.825.825,0,0,0-.816-.566,25.51,25.51,0,0,0-3.929,0,.865.865,0,0,0-.839.615c-.354.919-.732,1.829-1.087,2.747a1.159,1.159,0,0,1-.886.77,12.824,12.824,0,0,0-2.462.73,16.142,16.142,0,0,0-4.133,1.94,1.959,1.959,0,0,1-2.378.059c-.678-.358-1.414-.6-2.117-.914a.718.718,0,0,0-.838.129,25.938,25.938,0,0,0-2.927,2.928.716.716,0,0,0-.125.839c.286.636.513,1.3.836,1.917a2.2,2.2,0,0,1-.077,2.714,16.3,16.3,0,0,0-1.848,3.993,11.917,11.917,0,0,0-.717,2.412,1.22,1.22,0,0,1-.834.956c-.906.339-1.8.715-2.7,1.068a.808.808,0,0,0-.6.733,23.925,23.925,0,0,0,0,4.147.7.7,0,0,0,.469.654l1.353.513,1.751.721a1.292,1.292,0,0,1,.559.87,18.749,18.749,0,0,0,1.491,4.333,7.734,7.734,0,0,0,.847,1.654,3.4,3.4,0,0,0,.528.922,1.3,1.3,0,0,1,.106,1.411c-.263.564-.495,1.144-.741,1.717-.694,1.621-.694,1.621.642,2.829a6,6,0,0,0,1.091,1.085,6.158,6.158,0,0,0,.735.7.907.907,0,0,0,1.2.183c.838-.4,1.71-.731,2.561-1.108a1.225,1.225,0,0,1,1.268.084,5.528,5.528,0,0,0,1.209.686,6.038,6.038,0,0,0,1.449.733,18,18,0,0,0,4.246,1.466,1.352,1.352,0,0,1,1.058.8,9.885,9.885,0,0,0,.619,1.535c.17.45.338.9.509,1.351a.727.727,0,0,0,.708.473,27.164,27.164,0,0,0,3.87.023,1.008,1.008,0,0,0,1.016-.761c.309-.858.688-1.69,1-2.545a1.261,1.261,0,0,1,1-.858,11.1,11.1,0,0,0,2.7-.847,14.885,14.885,0,0,0,4-1.91,1.694,1.694,0,0,1,2-.041c.734.371,1.513.65,2.265.987a.79.79,0,0,0,.933-.147,28.362,28.362,0,0,0,2.82-2.813.853.853,0,0,0,.15-1.029c-.385-.847-.728-1.713-1.113-2.561a1.367,1.367,0,0,1-.028-1.285c-.014-.018-.027-.033-.04-.048a.261.261,0,0,1,.04.048,16.114,16.114,0,0,0,2.137-4.351,11.892,11.892,0,0,0,.837-2.691,1.284,1.284,0,0,1,.906-1.02c.89-.326,1.762-.7,2.647-1.044a.86.86,0,0,0,.6-.847A20,20,0,0,0,766.562,171.128Zm-14.768,17.739a.534.534,0,0,0-.1-.009,1.9,1.9,0,0,0-.63.3,20.189,20.189,0,0,1-5.618,2.28,42.048,42.048,0,0,1-4.366.623.6.6,0,0,0-.135.066,5.02,5.02,0,0,0-1.556-.211.336.336,0,0,0-.312.138.249.249,0,0,0-.1-.1,2.377,2.377,0,0,0-.627-.142,19.3,19.3,0,0,1-4.28-.993,3.555,3.555,0,0,0-.972-.3c-.032.011-.061.025-.093.037a2.169,2.169,0,0,0-1.471-.657l.011-.02a1.049,1.049,0,0,0-.486-.4,17.968,17.968,0,0,1-3.452-2.428.972.972,0,0,0-.513-.271h-.009a2.319,2.319,0,0,0-1.1-1.09c0-.01,0-.018,0-.028a1.42,1.42,0,0,0-.356-.589,17.649,17.649,0,0,1-2.374-3.349.806.806,0,0,0-.391-.418,2.23,2.23,0,0,0-.682-1.428c.015-.037.029-.076.041-.116a1.591,1.591,0,0,0-.137-.516,18.685,18.685,0,0,1-1.23-4.878,1.1,1.1,0,0,0-.161-.507.336.336,0,0,0-.085-.059,2.336,2.336,0,0,0-.08-1.858,1.006,1.006,0,0,0,.08-.157c.054-.427.124-.853.145-1.282a19.86,19.86,0,0,1,1.573-6.614c.32-.781.827-1.468,1.07-2.281-.005-.027-.012-.05-.018-.071.2-.036.266-.226.363-.375a21.582,21.582,0,0,1,2.628-3.336,22.081,22.081,0,0,1,3.765-3.036c.135-.088.3-.154.329-.332a.475.475,0,0,0,.08.014,1.259,1.259,0,0,0,.546-.209,20.044,20.044,0,0,1,7-2.323c.869-.127,1.751-.106,2.616-.257.039-.032.076-.065.115-.1a2.4,2.4,0,0,0,1.9.1.261.261,0,0,0,.075.09,1.316,1.316,0,0,0,.563.16,19.154,19.154,0,0,1,4.677,1.168,1.948,1.948,0,0,0,.668.19c.032-.012.06-.027.091-.041a2.165,2.165,0,0,0,1.438.689c.1.234.318.326.518.441a18.809,18.809,0,0,1,3.217,2.3,1.248,1.248,0,0,0,.632.379h.005a1.981,1.981,0,0,0,1.039,1l0,.007a.787.787,0,0,0,.277.558,18.4,18.4,0,0,1,2.513,3.576.763.763,0,0,0,.388.419c-.038.451.256.795.408,1.183.053.134.07.333.244.383a.694.694,0,0,0-.017.1,27.07,27.07,0,0,1,1.17,4.244,7.308,7.308,0,0,0,.266,1.532.377.377,0,0,0,.1.078,2.516,2.516,0,0,0,.07,1.861.659.659,0,0,0-.079.162,9.624,9.624,0,0,0-.144,1.012,19.434,19.434,0,0,1-2.52,8.55,3.766,3.766,0,0,0-.531,1.053q.02.045.039.081c-.235.007-.3.217-.406.366a20.788,20.788,0,0,1-5.262,5.262C752.013,188.59,751.816,188.656,751.794,188.867Z"/><path class="b" d="M733.066,190.622l-1.552-.722a24.739,24.739,0,0,1-4.388-3.049l-1.211-1.2a25.514,25.514,0,0,1-3.042-4.29l-.737-1.531a23.2,23.2,0,0,1-1.355-4.852c-.056-.39-.117-.78-.175-1.17l-.1-1.944a20.985,20.985,0,0,1,1.828-8.315c.315-.678.666-1.339,1-2.008a22.962,22.962,0,0,1,3.718-4.562,26.7,26.7,0,0,1,3.422-2.576,22.327,22.327,0,0,1,6.064-2.346,27.591,27.591,0,0,1,4.258-.483l1.943.1a23.986,23.986,0,0,1,6.021,1.532l1.532.741a25.628,25.628,0,0,1,4.279,3.041l1.078,1.075a25.1,25.1,0,0,1,3.174,4.52l.749,1.617a23.188,23.188,0,0,1,1.235,4.549c.066.462.123.924.185,1.386l.091,1.944a22.054,22.054,0,0,1-1.393,7.089,27.267,27.267,0,0,1-1.85,3.688,21.18,21.18,0,0,1-5.358,5.548c-.233.162-.46.335-.691.5a21.77,21.77,0,0,1-6.723,2.757,28.4,28.4,0,0,1-4.056.484l-1.944-.088A23.273,23.273,0,0,1,733.066,190.622Z"/><path class="d" d="M749.089,168.683c0-1.508,0-1.5-1.5-1.433-.243.011-.349.059-.347.328.016,2.185.021,4.37.029,6.556v2.05c.087.385.131.394.547.1a3.491,3.491,0,0,1,4.124-.146,2.3,2.3,0,0,0,1.411.343c.272.008.331-.11.33-.352-.008-1.311-.01-2.623,0-3.934,0-.251-.054-.349-.325-.337-.592.025-1.185.017-1.777.023a3.22,3.22,0,0,1-1.731-.33,2.045,2.045,0,0,1-.768-1.8C749.11,169.4,749.089,169.042,749.089,168.683Z"/><path class="d" d="M746.322,178.377c-.237-.16-.658-.048-1-.052a1.712,1.712,0,0,0-.213.023h-2.051c-1.612-.009-3.224-.019-4.836-.021-.112,0-.321-.081-.272.181a3.778,3.778,0,0,1-.391,2.531h2.91a15.583,15.583,0,0,0,2.05,0H746.8a4.287,4.287,0,0,1-.495-1.764C746.282,178.96,746.572,178.547,746.322,178.377Z"/><path class="d" d="M753.534,167.749a.69.69,0,0,0-.656-.466c-.569-.037-1.142-.015-1.712-.029-.246-.006-.24.149-.238.317q.012,1.178.022,2.355c.013.03.026.088.04.088.825.009,1.651.013,2.476.018.118,0,.229-.022.214-.168A6.324,6.324,0,0,0,753.534,167.749Z"/><path class="d" d="M748.155,179.294a1.8,1.8,0,0,0,2.026,1.737,1.683,1.683,0,0,0,1.615-1.609,1.8,1.8,0,0,0-1.73-2.032A1.877,1.877,0,0,0,748.155,179.294Z"/><path class="d" d="M759.2,171.616a2.461,2.461,0,0,0-.048-.652,15.443,15.443,0,0,0-1.1-5.461,5.928,5.928,0,0,0-.638-1.521,15.522,15.522,0,0,0-3.019-4.525,5.991,5.991,0,0,0-1.079-1.091,15.56,15.56,0,0,0-4.385-3.025,7.373,7.373,0,0,0-1.666-.727,16.684,16.684,0,0,0-6.365-1.181,10.757,10.757,0,0,0-2.392.141.714.714,0,0,0-.236.045,4.724,4.724,0,0,0-.535.041,18.252,18.252,0,0,0-12.845,8.9,16.623,16.623,0,0,0-2.344,7.028.081.081,0,0,0-.016.091l0,0a11.417,11.417,0,0,0-.145,2.55,1.535,1.535,0,0,0,.046.447,15.687,15.687,0,0,0,1.169,5.68,6.252,6.252,0,0,0,.665,1.525c.462,1.185.462,1.185,1.7,1.185h5.16a3.858,3.858,0,0,1-.39-2.552c.068-.286-.2-.185-.326-.187-.752-.01-1.506,0-2.259-.006-.85-.005-1.158-.313-1.176-1.166.169-.3.343-.6.729-.65.128-.018.2-.083.194-.209-.033-.886.039-1.773,0-2.659a3.313,3.313,0,0,0-.065-.766c-.441-.186-.84-.427-.851-.972a.862.862,0,0,1,.726-.922.207.207,0,0,0,.186-.222,7.411,7.411,0,0,0-.065-1.582,12.49,12.49,0,0,0-2.422-.075c-.795-.027-.981-.142-1.229-.9.044-.6.439-.846.961-.97a15.917,15.917,0,0,0,2.049,0,1.128,1.128,0,0,0,.646-.028c.139-.156.062-.343.065-.514.016-.9.019-1.8.027-2.7a2.846,2.846,0,0,1,2.716-2.279h11.763c.518.007,1.036.019,1.555.019,2.008,0,2.9.729,3.3,2.69-.064,1-.064,1,.921.99.088,0,.176-.015.265-.023,1.306.008,2.612.04,3.917.016a3.157,3.157,0,0,1,2.581,1.063,3.416,3.416,0,0,1,.572,1.52.654.654,0,0,0,.036.261q-.081,3.645,0,7.29c-.087.5-.133.983.532,1.14.077.018.136.108.2.165.34.938-.038,1.468-1.052,1.479-.178,0-.355.016-.532.024h0c-.354,0-.778-.121-1.041.033-.2.118.025.576,0,.885-.015.195-.016.391-.024.586l-.4,1.215c1.094,0,2.153,0,3.211,0a.38.38,0,0,0,.389-.211,17.361,17.361,0,0,0,2.086-6.054.7.7,0,0,0,.056-.311A13.049,13.049,0,0,0,759.2,171.616Z"/><path class="d" d="M730.82,176.475c.4-.007.866.165,1.208-.1a3.772,3.772,0,0,1,3.9-.5,2.635,2.635,0,0,0,1.965.617c2.319-.038,4.639-.026,6.958,0,.448.005.568-.12.566-.567-.018-3.7-.01-7.408-.012-11.112a.779.779,0,0,0-.075-.521h0a.7.7,0,0,0-.614-.643h0c-.174-.139-.38-.08-.571-.08-1.936-.005-3.873,0-5.81,0q-3.712,0-7.424,0c-.742,0-1.023.222-1.126.853-.012.842-.014,1.684-.042,2.525-.01.288.125.315.355.312.717-.01,1.435-.008,2.152,0,.829.006,1.123.287,1.184,1.116a1.132,1.132,0,0,1-1.212.733,11.12,11.12,0,0,0-2.419.066.788.788,0,0,0-.053.469c-.012,1.42-.01,1.42,1.436,1.269a12.834,12.834,0,0,0,2.047,0c.358.011.716.02,1.073.036a.921.921,0,1,1-.055,1.838c-1.021.03-2.043.028-3.064.04-1.478-.152-1.5-.13-1.435,1.313a.58.58,0,0,0,.027.1c-.01.394-.028.787-.029,1.181C729.75,176.481,729.753,176.494,730.82,176.475Z"/><path class="d" d="M755.35,182.915c-.108,0-.216-.01-.323-.01q-14.232,0-28.464.006c-.1,0-.254-.106-.329.069a5.2,5.2,0,0,0,1.146,1.421,5.89,5.89,0,0,0,1.1,1.088,15.309,15.309,0,0,0,4.537,3.014,5.74,5.74,0,0,0,1.412.61,15.854,15.854,0,0,0,5.663,1.113,1.758,1.758,0,0,0,.617.041,12.217,12.217,0,0,0,2.7-.2.764.764,0,0,0,.313-.058,3.082,3.082,0,0,0,.374-.024,18.318,18.318,0,0,0,9.956-5.387,6.338,6.338,0,0,0,1.294-1.613h0a.316.316,0,0,0,.026-.047A.048.048,0,0,0,755.35,182.915ZM738.406,183l0,0,0,0Z"/><path class="d" d="M733.973,177.469a1.818,1.818,0,0,0-.73,3.211,1.814,1.814,0,0,0,2.524-2.574A1.61,1.61,0,0,0,733.973,177.469Z"/><line class="e" x2="9.807" transform="translate(735.857 186.128)"/></g></g></svg>