<svg xmlns="http://www.w3.org/2000/svg" width="58.498" height="73" viewBox="0 0 58.498 73"><defs><style>.a{fill:#093d78;}.b{fill:#f7caa5;}.c{fill:#00efd1;}</style></defs><g transform="translate(-134.477 -76.781)"><path class="a" d="M160.051,135.677q-11.317,0-22.635,0c-2.79,0-3.378-.808-2.66-3.554.892-3.406,3.691-5.378,7.839-5.391,10.354-.033,20.708-.088,31.059.027,1.987.022,2.34-.564,2.331-2.391-.071-14.685-.036-29.37-.038-44.056,0-3.421.088-3.519,3.484-3.518,2.89,0,5.781-.036,8.669.02A4.6,4.6,0,1,1,188.157,86c-2.219-.1-2.709.583-2.689,2.747.13,14.527.11,29.055.128,43.583,0,3.293-.072,3.351-3.391,3.352Q171.127,135.679,160.051,135.677Zm-21.92-3.313c1.032,0,1.734,0,2.438,0,13.163,0,26.326-.057,39.488.051,2.122.018,2.432-.673,2.419-2.57-.1-13.725-.082-27.449-.105-41.174-.008-5.567-.014-5.583,5.387-5.912.968-.059,1.868-.2,1.886-1.333.018-1.094-.855-1.462-1.824-1.475-2.007-.026-4.026.129-6.016-.049-2.049-.184-2.71.337-2.692,2.57.118,14.767.061,29.537.059,44.3,0,3.171-.006,3.175-3.268,3.176q-16.494,0-32.987-.011C141.063,129.938,139.423,130.241,138.131,132.364Z"/><path class="a" d="M155.383,105.427c-4.967,0-9.936-.06-14.9.029-1.95.035-2.8-.681-2.762-2.644.06-3.043.068-6.089,0-9.132-.042-2,.9-2.639,2.795-2.63q14.783.072,29.565,0c2.021-.011,2.948.663,2.864,2.79-.115,2.88-.127,5.771-.01,8.651.088,2.149-.637,3.031-2.892,2.973C165.161,105.34,160.27,105.427,155.383,105.427Zm-.019-11.035h-8.658c-5.839,0-5.776,0-5.771,5.883,0,1.513.423,1.868,1.88,1.853,7.054-.074,14.11-.033,21.164-.033,5.9,0,5.849,0,5.789-5.855-.014-1.48-.412-1.917-1.9-1.883C163.7,94.457,159.532,94.391,155.364,94.392Z" transform="translate(0.633 2.787)"/><path class="a" d="M155.383,119.515c-4.967,0-9.936-.059-14.9.029-1.95.035-2.8-.68-2.762-2.643.06-3.043.068-6.09,0-9.133-.042-2,.9-2.638,2.795-2.63q14.783.072,29.565,0c2.021-.011,2.948.663,2.864,2.79-.115,2.881-.127,5.771-.01,8.651.088,2.149-.637,3.031-2.892,2.974C165.161,119.429,160.27,119.515,155.383,119.515Zm-.019-11.035h-8.658c-5.839,0-5.776,0-5.771,5.883,0,1.512.423,1.867,1.88,1.852,7.054-.073,14.11-.032,21.164-.032,5.9,0,5.849,0,5.789-5.855-.014-1.48-.412-1.919-1.9-1.883C163.7,108.545,159.532,108.48,155.364,108.48Z" transform="translate(0.633 5.539)"/><path class="a" d="M169.107,139.943a6.4,6.4,0,1,1,.235-12.8,6.4,6.4,0,0,1-.235,12.8Zm3.206-6.359a3.249,3.249,0,0,0-3.12-3.292,3.254,3.254,0,0,0-.072,6.506A3.226,3.226,0,0,0,172.313,133.584Z" transform="translate(5.506 9.838)"/><path class="a" d="M151.425,133.455a6.251,6.251,0,0,1-6.25,6.482,6.4,6.4,0,1,1-.189-12.8A6.3,6.3,0,0,1,151.425,133.455Zm-3.233.084a3.348,3.348,0,0,0-3.2-3.233,3.236,3.236,0,0,0,.03,6.471A3.238,3.238,0,0,0,148.192,133.539Z" transform="translate(0.798 9.836)"/><path class="b" d="M154.838,93.851c4.168,0,8.339.066,12.506-.035,1.487-.035,1.885.4,1.9,1.883.06,5.856.115,5.855-5.789,5.855-7.055,0-14.111-.041-21.164.033-1.457.016-1.878-.339-1.88-1.853,0-5.883-.068-5.883,5.771-5.883Q150.508,93.853,154.838,93.851Z" transform="translate(1.159 3.327)"/><path class="b" d="M154.86,115.659c-4.248,0-8.5-.033-12.742.022-1.173.014-1.653-.214-1.7-1.554-.208-6.171-.258-6.169,5.979-6.169,6.972,0,13.945.037,20.917-.031,1.412-.013,1.926.271,1.944,1.822.069,5.911.133,5.911-5.744,5.911Z" transform="translate(1.148 6.083)"/><path class="c" d="M171.777,133.07a3.226,3.226,0,0,1-3.192,3.214,3.254,3.254,0,0,1,.072-6.506A3.249,3.249,0,0,1,171.777,133.07Z" transform="translate(6.043 10.352)"/><path class="c" d="M147.665,133.021a3.238,3.238,0,0,1-3.171,3.238,3.236,3.236,0,1,1,3.171-3.238Z" transform="translate(1.324 10.354)"/></g></svg>