<svg xmlns="http://www.w3.org/2000/svg" width="59.57" height="75.488" viewBox="0 0 59.57 75.488"><defs><style>.a{fill:#093d78;stroke:#093d78;stroke-width:0.5px;}</style></defs><g transform="translate(-210.208 -229.608)"><path class="a" d="M261.294,258.078c-3.088-4.6-7.311-4.576-12.164-2.326,0-1.876.046-3.383-.008-4.891a6.2,6.2,0,0,0-6.352-6.365c-2.5-.054-5,.092-7.488-.041-2.4-.13-3.261,1.109-3.424,3.24a9.076,9.076,0,0,0,1.006,4.419,3.6,3.6,0,0,1-1.055,4.649,3.375,3.375,0,0,1-4.495.008,3.646,3.646,0,0,1-.973-4.888,11.757,11.757,0,0,0,.83-1.83c1.133-3.982-.065-5.566-4.175-5.571-2.017,0-4.034-.024-6.048.008-4.037.07-6.466,2.432-6.487,6.433q-.065,11.232,0,22.468c.022,3.907,2.377,6.354,6.211,6.379q13.106.081,26.212,0a6.081,6.081,0,0,0,6.238-6.157c.068-1.434.011-2.874.011-4.516,6.008,2.017,9.187,1.456,11.749-1.871A7.9,7.9,0,0,0,261.294,258.078Zm-2.443,8.09a5.387,5.387,0,0,1-6.5,1.627c-6.138-2.556-5.59-1.345-5.525,3.879.062,4.95-.946,5.934-5.815,5.945-3.741.011-7.485,0-11.229.005-4.126,0-8.255.052-12.378-.014-3.429-.057-4.739-1.331-4.763-4.714q-.081-10.8.005-21.593c.03-3.242,1.358-4.476,4.576-4.527,1.919-.033,3.852.133,5.755-.038,2.161-.2,2.537.762,1.99,2.529-.225.721-.569,1.407-.851,2.112a6.006,6.006,0,0,0,1.871,7.2,5.816,5.816,0,0,0,6.983.125,6.036,6.036,0,0,0,2.1-7.157c-.2-.537-.55-1.019-.721-1.562-.789-2.508-.266-3.2,2.383-3.218,1.919-.011,3.841-.046,5.758.005,2.977.079,4.272,1.431,4.34,4.473.03,1.247,0,2.494.005,3.741.016,2.825.916,3.5,3.687,2.659,1.177-.358,2.212-1.071,3.522-1.122a5.828,5.828,0,0,1,4.8,9.64Z" transform="translate(0 25.033)"/><path class="a" d="M265.093,236.342c-.035-3.969-2.527-6.457-6.487-6.485q-12.809-.085-25.616,0c-3.915.027-6.417,2.551-6.6,6.468-.065,1.41-.011,2.825-.011,4.3-6.124-2.033-9.28-1.488-11.793,1.933a8.1,8.1,0,0,0-.176,9.4c2.4,3.494,5.568,4.107,11.969,2.228,0,1.472-.035,2.9.008,4.316.125,4.161,2.462,6.566,6.62,6.723,2.4.092,4.8-.022,7.195.054,2.489.081,3.413-1.187,3.467-3.516a11.754,11.754,0,0,0-1.071-4.408,3.524,3.524,0,0,1,1.377-4.546,3.413,3.413,0,0,1,4.267.176,3.5,3.5,0,0,1,1.079,4.6,11.9,11.9,0,0,0-1.084,2.933c-.6,3.6.371,4.693,4.034,4.706,2.112.005,4.224.046,6.333-.014,4.1-.119,6.449-2.386,6.487-6.43Q265.188,247.568,265.093,236.342Zm-2.128,22.29c-.035,2.9-1.632,4.354-4.525,4.457-1.917.071-3.852-.141-5.747.057-2.4.252-2.554-1.017-2.131-2.752a17.223,17.223,0,0,1,.9-2.093,6.087,6.087,0,0,0-1.944-7.2,5.948,5.948,0,0,0-9.03,7.065c.2.534.531,1.027.691,1.57.778,2.662.23,3.359-2.589,3.367-1.822.005-3.644.057-5.463-.011-2.876-.108-4.367-1.621-4.465-4.484a40.01,40.01,0,0,1,.014-4.6c.179-2.163-1.1-2.462-2.689-2.153-1.2.236-2.321.87-3.511,1.2a5.835,5.835,0,1,1,.22-11.291c5.923,1.833,5.923,1.833,5.959-4.324.022-4.01,1.307-5.308,5.308-5.322,4.026-.011,8.052,0,12.08,0,4.121,0,8.244-.035,12.365.011,2.952.035,4.514,1.42,4.552,4.359Q263.1,247.558,262.964,258.632Z" transform="translate(4.388 0)"/></g></svg>