<svg xmlns="http://www.w3.org/2000/svg" xmlns:xlink="http://www.w3.org/1999/xlink" width="144.734" height="144.734" viewBox="0 0 144.734 144.734"><defs><style>.a{fill:#fff;}.b{fill:#093d78;}.c{filter:url(#a);}</style><filter id="a" x="0" y="0" width="144.734" height="144.734" filterUnits="userSpaceOnUse"><feOffset input="SourceAlpha"/><feGaussianBlur stdDeviation="3.5" result="b"/><feFlood flood-opacity="0.102"/><feComposite operator="in" in2="b"/><feComposite in="SourceGraphic"/></filter></defs><g transform="translate(-376.5 -9946.5)"><g class="c" transform="matrix(1, 0, 0, 1, 376.5, 9946.5)"><circle class="a" cx="61.867" cy="61.867" r="61.867" transform="translate(10.5 10.5)"/></g><g transform="translate(347.825 9933.185)"><path class="b" d="M122.219,109.567c-.594.025-1.193.012-1.787,0-.66,0-1.544.231-1.915-.1-.429-.384-.136-1.284-.132-1.961a22.409,22.409,0,0,0-4.912-14.333c-1.358-1.713-2.852-3.307-4.322-4.921a2.643,2.643,0,0,1-.025-3.942c1.156-1.28,2.308-2.555,3.447-3.847a22.849,22.849,0,0,0,5.09-9.515,26.672,26.672,0,0,0,.706-7.48c-.012-.4.078-.533.5-.516,1.077.033,2.163-.008,3.241.021.409.012.524-.095.512-.508-.025-1.391-.008-2.778-.012-4.169a2.305,2.305,0,0,0-2.469-2.481q-4.167-.006-8.339,0-15.1,0-30.189,0a2.254,2.254,0,0,0-2.423,2.171c-.029,1.523,0,3.047-.017,4.57-.008.384.157.421.466.413.665-.017,1.325-.021,1.986,0,.57.017,1.309-.239,1.659.1s.107,1.09.1,1.655a22.485,22.485,0,0,0,4.59,14.18c1.412,1.866,3.018,3.567,4.595,5.3a2.679,2.679,0,0,1,.041,4.091q-1.622,1.8-3.228,3.6a22.983,22.983,0,0,0-5.515,10.737,27.02,27.02,0,0,0-.462,6.316c.012.537-.153.66-.66.644-1.011-.041-2.031.012-3.042-.025-.454-.017-.541.14-.533.553.025,1.346.008,2.7.008,4.041a2.332,2.332,0,0,0,2.584,2.568H105.4q7.412,0,14.828,0a2.287,2.287,0,0,0,2.374-2.175c.033-1.519,0-3.042.017-4.566C122.623,109.67,122.545,109.554,122.219,109.567Zm-7.166-.1c-.322.293-1.09.1-1.659.1q-12.941.006-25.879,0c-.892,0-.875,0-.892-.921A20.5,20.5,0,0,1,88.955,98.14,22.759,22.759,0,0,1,92.1,93.822c.991-1.1,1.986-2.188,2.968-3.294a6.108,6.108,0,0,0-.029-8.545c-1.5-1.7-3.113-3.315-4.491-5.123a18.972,18.972,0,0,1-3.9-11.753c0-.7-.322-1.631.116-2.027.376-.347,1.3-.111,1.977-.111q6.087-.006,12.178,0c4.524,0,9.045.012,13.569-.021.619,0,.694.19.7.739a21.083,21.083,0,0,1-2.374,10.77,31.044,31.044,0,0,1-4.442,5.738c-.549.6-1.1,1.2-1.639,1.816a6.087,6.087,0,0,0,.025,8.541c1.313,1.49,2.683,2.931,3.951,4.454a19.055,19.055,0,0,1,4.446,12.756C115.151,108.349,115.424,109.129,115.052,109.467Z" transform="translate(0 0)"/><path class="b" d="M91.984,77.021c-2.646,0-5.292,0-7.942,0a1.928,1.928,0,0,1-1.833-1.176,1.4,1.4,0,0,1,.305-1.754c3.051-2.939,6.114-5.862,9.164-8.8.219-.211.355-.239.586-.017q4.6,4.434,9.214,8.851a1.383,1.383,0,0,1,.268,1.7,1.856,1.856,0,0,1-1.754,1.185c-2.382.008-4.764,0-7.146,0Z" transform="translate(8.922 29.111)"/><path class="b" d="M89.2,69.812a13.114,13.114,0,0,0-4.012-5.371c-.615-.537-1.2-1.1-1.8-1.651a1.323,1.323,0,0,1-.343-1.565,1.284,1.284,0,0,1,1.255-.908q4.892-.025,9.784,0a1.432,1.432,0,0,1,.958,2.423c-.71.66-1.416,1.325-2.134,1.973A15.115,15.115,0,0,0,90.711,67,9.2,9.2,0,0,0,89.2,69.812Z" transform="translate(11.718 14.045)"/></g></g></svg>