<svg xmlns="http://www.w3.org/2000/svg" xmlns:xlink="http://www.w3.org/1999/xlink" width="126.576" height="124.5" viewBox="0 0 126.576 124.5"><defs><style>.a{fill:#fff;}.b{fill:#093d78;}.c{fill:#f7caa5;}.d{fill:#00efd1;}.e{filter:url(#a);}</style><filter id="a" x="0" y="0" width="126.576" height="124.5" filterUnits="userSpaceOnUse"><feOffset input="SourceAlpha"/><feGaussianBlur stdDeviation="5" result="b"/><feFlood flood-color="#093d78" flood-opacity="0.122"/><feComposite operator="in" in2="b"/><feComposite in="SourceGraphic"/></filter></defs><g transform="translate(15 15)"><g class="e" transform="matrix(1, 0, 0, 1, -15, -15)"><ellipse class="a" cx="48.288" cy="47.25" rx="48.288" ry="47.25" transform="translate(15 15)"/></g><g transform="translate(19.9 21.784)"><path class="b" d="M1515.8,425.1l-10.222-8.093-10.222-8.093-10.222,8.093-10.222,8.093h17.368v12.871h6.1V425.1Z" transform="translate(-1474.913 -397.39)"/><path class="b" d="M1523.56,440.877a2.585,2.585,0,0,0-3.635.382l-9.63,12.664c-.027.033-.044.071-.069.1-.042,0-.083-.012-.125-.012h-28.327a2.585,2.585,0,0,0,0,5.169h3.377v3.05h3.05v-3.05h19.488v3.05h3.05v-3.05h1.947l11.256-14.672A2.585,2.585,0,0,0,1523.56,440.877Z" transform="translate(-1476.881 -411.831)"/><ellipse class="c" cx="7.993" cy="7.993" rx="7.993" ry="7.993" transform="translate(36.772 3.739)"/><path class="d" d="M1574.424,408.076v-1.256l1.426.628,1.426.628-1.426.628-1.426.628Z" transform="translate(-1520.699 -396.425)"/><path class="d" d="M1538.986,408.076v-1.256l-1.426.628-1.426.628,1.426.628,1.426.628Z" transform="translate(-1503.082 -396.425)"/><path class="d" d="M1556.757,390.419h1.256l-.628-1.426-.628-1.426-.628,1.426-.628,1.426Z" transform="translate(-1511.993 -387.568)"/><path class="d" d="M1556.757,425.722h1.256l-.628,1.426-.628,1.426-.628-1.426-.628-1.426Z" transform="translate(-1511.993 -405.123)"/><path class="d" d="M1568.811,420.239l.888-.888.564,1.452.564,1.452-1.452-.564-1.453-.564Z" transform="translate(-1517.708 -402.191)"/><path class="d" d="M1544.5,395.931l-.888.888-.564-1.452-.564-1.452,1.452.564,1.453.564Z" transform="translate(-1506.004 -390.488)"/><path class="d" d="M1544.5,420.239l-.888-.888-.564,1.452-.564,1.452,1.452-.564,1.453-.564Z" transform="translate(-1506.004 -402.191)"/><path class="d" d="M1568.811,395.931l.888.888.564-1.452.564-1.452-1.452.564-1.453.564Z" transform="translate(-1517.708 -390.488)"/></g></g></svg>