<svg xmlns="http://www.w3.org/2000/svg" xmlns:xlink="http://www.w3.org/1999/xlink" width="123.461" height="124.5" viewBox="0 0 123.461 124.5"><defs><style>.a{fill:#fff;}.b{fill:#093d78;}.c{fill:#00efd1;}.d{fill:#fdfdfd;}.e{fill:none;stroke:#f7caa5;stroke-linecap:round;stroke-miterlimit:10;stroke-width:2px;}.f{filter:url(#a);}</style><filter id="a" x="0" y="0" width="123.461" height="124.5" filterUnits="userSpaceOnUse"><feOffset input="SourceAlpha"/><feGaussianBlur stdDeviation="5" result="b"/><feFlood flood-color="#093d78" flood-opacity="0.122"/><feComposite operator="in" in2="b"/><feComposite in="SourceGraphic"/></filter></defs><g transform="translate(15 15)"><g class="f" transform="matrix(1, 0, 0, 1, -15, -15)"><ellipse class="a" cx="46.731" cy="47.25" rx="46.731" ry="47.25" transform="translate(15 15)"/></g><g transform="translate(20.714 20.957)"><path class="b" d="M735.061,145.493a2.238,2.238,0,0,1,1.79-1.146,21.937,21.937,0,0,1,4.422,0A2.207,2.207,0,0,1,743.1,145.6c.159.313,1.008,2.434,1.01,2.457.027.234.235.274.428.32a50.662,50.662,0,0,1,6.033,2.511.554.554,0,0,0,.624.025c.65-.3,1.319-.568,1.975-.86a2.335,2.335,0,0,1,2.7.409l2.193,1.943a5.415,5.415,0,0,1,1.267,1.67,2.3,2.3,0,0,1-.023,1.81c-.267.633-.521,1.273-.814,1.893a.918.918,0,0,0,.072,1.03c.266.418.461.874.7,1.307a21.98,21.98,0,0,1,1.6,4.23c.072.263.142.523.435.632.5.234,1.013.421,1.524.616a3.964,3.964,0,0,1,1.527.907,2.778,2.778,0,0,1,.583,1.6v4.145a2.526,2.526,0,0,1-1.9,2.311c-.524.22-1.051.433-1.582.633a.854.854,0,0,0-.568.638c-.113.437-.231.872-.38,1.3a22.178,22.178,0,0,1-1.985,4.4.837.837,0,0,0-.057.851c.3.657.584,1.32.849,1.992a2.2,2.2,0,0,1,.2.776c0,.052,0,.1,0,.154a3.009,3.009,0,0,1-1,2.081,27.525,27.525,0,0,1-2.635,2.56,2.6,2.6,0,0,1-1.76.634,5.135,5.135,0,0,1-2.02-.723,2.013,2.013,0,0,0-2.262.067,15.864,15.864,0,0,1-3.765,1.65c-.411.141-.829.263-1.25.366a.946.946,0,0,0-.741.659c-.173.506-.4.99-.581,1.5A2.5,2.5,0,0,1,741.073,196h-4.145a2.524,2.524,0,0,1-2.331-1.986c-.227-.578-.44-1.162-.7-1.725a.85.85,0,0,0-.586-.348,22.2,22.2,0,0,1-4.263-1.607c-.429-.245-.89-.432-1.306-.7a.918.918,0,0,0-1.031-.072c-.636.3-1.287.57-1.941.83a2.335,2.335,0,0,1-2.373-.334,6.85,6.85,0,0,1-1.059-.925c-.355-.41-1.7-1.919-2-2.274a2.242,2.242,0,0,1-.4-2.478c.3-.709.586-1.419.909-2.116a.555.555,0,0,0-.045-.65c-.019-.022-1.469-2.9-1.741-3.615a18.478,18.478,0,0,1-.771-2.489c-.038-.17-.114-.3-.288-.331-.024,0-1.987-.8-2.187-.879a2.372,2.372,0,0,1-1.554-2.2,28.684,28.684,0,0,1-.005-3.92,2.435,2.435,0,0,1,1.657-2.288c.168-.067,1.193-.631,1.576-.747a.984.984,0,0,0,.754-.753,50.712,50.712,0,0,1,2.628-5.87c.141-.224.031-.383-.04-.561a22.491,22.491,0,0,1-1.105-2.8,1.7,1.7,0,0,1,.387-1.678,11.774,11.774,0,0,1,1.584-1.76,11.519,11.519,0,0,1,1.725-1.55,1.7,1.7,0,0,1,1.678-.385,23.764,23.764,0,0,1,2.848,1.124c.171.067.316.147.514.023a51.227,51.227,0,0,1,5.916-2.629.923.923,0,0,0,.623-.543C734.011,147.73,734.879,145.8,735.061,145.493Z" transform="translate(-713.184 -144.238)"/><path class="c" d="M763.308,169.548c-.132-2.07.144-1.556-1.591-2.3a.947.947,0,0,0-.195-.042,9.184,9.184,0,0,0-1.433-.582,1.26,1.26,0,0,1-.75-.991,16.732,16.732,0,0,0-1.372-3.979,5.886,5.886,0,0,0-.686-1.357,5.949,5.949,0,0,0-.487-.873,1.454,1.454,0,0,1-.123-1.729c.247-.474.434-.981.646-1.473.594-1.381.593-1.381-.5-2.441a.138.138,0,0,0-.046-.021,5.772,5.772,0,0,0-1.017-1.022,7.968,7.968,0,0,0-.794-.757.86.86,0,0,0-1.124-.167c-.812.387-1.657.705-2.483,1.065a1.057,1.057,0,0,1-1.047-.073,5.158,5.158,0,0,0-.994-.571,8.01,8.01,0,0,0-1.455-.764,18.772,18.772,0,0,0-4.159-1.424,1.205,1.205,0,0,1-.815-.524L742.3,148.1c-.174-.47-.35-.94-.523-1.411a.774.774,0,0,0-.765-.53,23.9,23.9,0,0,0-3.681,0,.81.81,0,0,0-.786.576c-.332.861-.686,1.714-1.018,2.574a1.086,1.086,0,0,1-.83.721,12.017,12.017,0,0,0-2.307.684,15.122,15.122,0,0,0-3.872,1.818,1.836,1.836,0,0,1-2.228.055c-.635-.335-1.325-.564-1.983-.856a.672.672,0,0,0-.785.121,24.3,24.3,0,0,0-2.742,2.743.671.671,0,0,0-.117.786c.268.6.481,1.219.783,1.8a2.057,2.057,0,0,1-.072,2.543,15.27,15.27,0,0,0-1.731,3.741,11.169,11.169,0,0,0-.672,2.26,1.143,1.143,0,0,1-.781.9c-.849.318-1.684.67-2.528,1a.757.757,0,0,0-.565.687,22.4,22.4,0,0,0,0,3.885.651.651,0,0,0,.439.613l1.268.481,1.641.675a1.21,1.21,0,0,1,.524.815,17.566,17.566,0,0,0,1.4,4.059,7.242,7.242,0,0,0,.794,1.55,3.187,3.187,0,0,0,.495.864,1.216,1.216,0,0,1,.1,1.322c-.246.528-.464,1.072-.694,1.609-.65,1.519-.65,1.519.6,2.65a5.616,5.616,0,0,0,1.022,1.017,5.763,5.763,0,0,0,.689.656.849.849,0,0,0,1.126.171c.785-.378,1.6-.685,2.4-1.038a1.148,1.148,0,0,1,1.188.079,5.18,5.18,0,0,0,1.133.643,5.657,5.657,0,0,0,1.358.687,16.865,16.865,0,0,0,3.978,1.373,1.266,1.266,0,0,1,.991.749,9.249,9.249,0,0,0,.58,1.438c.159.422.317.844.477,1.266a.681.681,0,0,0,.663.443,25.451,25.451,0,0,0,3.626.022.944.944,0,0,0,.952-.713c.29-.8.645-1.583.94-2.384a1.181,1.181,0,0,1,.933-.8,10.4,10.4,0,0,0,2.529-.794,13.947,13.947,0,0,0,3.745-1.789,1.587,1.587,0,0,1,1.872-.038c.688.348,1.418.609,2.122.925a.74.74,0,0,0,.874-.138,26.575,26.575,0,0,0,2.642-2.635.8.8,0,0,0,.141-.964c-.361-.794-.682-1.6-1.043-2.4a1.281,1.281,0,0,1-.026-1.2c-.013-.017-.025-.031-.038-.045a.241.241,0,0,1,.038.045,15.1,15.1,0,0,0,2-4.076,11.141,11.141,0,0,0,.784-2.521,1.2,1.2,0,0,1,.849-.956c.834-.305,1.651-.66,2.48-.978a.805.805,0,0,0,.564-.794A18.738,18.738,0,0,0,763.308,169.548Zm-13.836,16.619a.5.5,0,0,0-.091-.008,1.778,1.778,0,0,0-.59.278,18.915,18.915,0,0,1-5.263,2.136,39.4,39.4,0,0,1-4.09.584.564.564,0,0,0-.126.062,4.7,4.7,0,0,0-1.458-.2.315.315,0,0,0-.292.129.234.234,0,0,0-.094-.089,2.228,2.228,0,0,0-.587-.133,18.08,18.08,0,0,1-4.01-.93,3.331,3.331,0,0,0-.911-.279c-.03.01-.057.023-.087.035a2.032,2.032,0,0,0-1.378-.616l.01-.019a.982.982,0,0,0-.455-.379,16.835,16.835,0,0,1-3.234-2.275.911.911,0,0,0-.481-.254h-.008a2.172,2.172,0,0,0-1.032-1.021c0-.009,0-.017,0-.026a1.331,1.331,0,0,0-.333-.552,16.537,16.537,0,0,1-2.224-3.138.755.755,0,0,0-.366-.392,2.09,2.09,0,0,0-.639-1.338c.014-.035.027-.071.038-.109a1.492,1.492,0,0,0-.128-.483,17.5,17.5,0,0,1-1.152-4.57,1.032,1.032,0,0,0-.151-.475.315.315,0,0,0-.08-.055,2.189,2.189,0,0,0-.075-1.741.946.946,0,0,0,.075-.147c.051-.4.116-.8.136-1.2a18.608,18.608,0,0,1,1.474-6.2c.3-.732.775-1.375,1-2.137,0-.025-.011-.047-.017-.066.191-.034.249-.212.34-.351a20.22,20.22,0,0,1,2.462-3.125,20.688,20.688,0,0,1,3.527-2.844c.126-.082.276-.144.308-.311a.44.44,0,0,0,.075.013,1.179,1.179,0,0,0,.512-.2,18.779,18.779,0,0,1,6.555-2.176c.814-.119,1.64-.1,2.451-.241.037-.03.071-.061.108-.092a2.245,2.245,0,0,0,1.781.1.245.245,0,0,0,.07.084,1.233,1.233,0,0,0,.528.15,17.945,17.945,0,0,1,4.382,1.094,1.826,1.826,0,0,0,.626.178c.03-.011.056-.025.085-.038a2.029,2.029,0,0,0,1.347.645c.093.219.3.305.485.413a17.626,17.626,0,0,1,3.014,2.157,1.169,1.169,0,0,0,.592.355h0a1.855,1.855,0,0,0,.973.938l0,.007a.738.738,0,0,0,.26.523,17.237,17.237,0,0,1,2.354,3.35.715.715,0,0,0,.363.393c-.036.423.24.745.382,1.108.05.126.065.312.229.359a.649.649,0,0,0-.016.092,25.368,25.368,0,0,1,1.1,3.976,6.844,6.844,0,0,0,.249,1.435.355.355,0,0,0,.093.073,2.357,2.357,0,0,0,.066,1.744.619.619,0,0,0-.074.152,9.046,9.046,0,0,0-.135.948,18.206,18.206,0,0,1-2.361,8.01,3.528,3.528,0,0,0-.5.987c.012.028.024.053.037.076-.22.007-.283.2-.38.343a19.476,19.476,0,0,1-4.93,4.93C749.677,185.907,749.493,185.969,749.472,186.167Z" transform="translate(-713.3 -144.355)"/><path class="b" d="M732.273,188.158l-1.454-.676a23.175,23.175,0,0,1-4.111-2.857l-1.135-1.12a23.907,23.907,0,0,1-2.85-4.019l-.69-1.434a21.735,21.735,0,0,1-1.27-4.546c-.052-.365-.11-.731-.164-1.1l-.1-1.821a19.659,19.659,0,0,1,1.713-7.79c.3-.635.624-1.254.937-1.881a21.509,21.509,0,0,1,3.483-4.274,25.023,25.023,0,0,1,3.206-2.413,20.919,20.919,0,0,1,5.681-2.2,25.849,25.849,0,0,1,3.989-.452l1.82.1a22.475,22.475,0,0,1,5.641,1.435l1.435.694a24.009,24.009,0,0,1,4.009,2.849l1.01,1.007a23.512,23.512,0,0,1,2.974,4.235l.7,1.515a21.73,21.73,0,0,1,1.157,4.262c.062.433.115.866.173,1.3l.085,1.821a20.664,20.664,0,0,1-1.3,6.642,25.558,25.558,0,0,1-1.733,3.455,19.844,19.844,0,0,1-5.02,5.2c-.218.152-.431.314-.647.471a20.4,20.4,0,0,1-6.3,2.583,26.606,26.606,0,0,1-3.8.453l-1.821-.082A21.8,21.8,0,0,1,732.273,188.158Z" transform="translate(-713.646 -144.701)"/><g transform="translate(8.605 8.603)"><path class="d" d="M748.972,168.591c0-1.413,0-1.406-1.4-1.343-.228.01-.327.055-.325.307.015,2.047.02,4.094.027,6.142v1.921c.081.361.123.369.512.1a3.271,3.271,0,0,1,3.864-.137,2.158,2.158,0,0,0,1.322.321c.255.007.31-.1.309-.33-.007-1.228-.009-2.457,0-3.686,0-.235-.051-.327-.3-.316-.555.023-1.11.016-1.665.022a3.017,3.017,0,0,1-1.622-.309,1.916,1.916,0,0,1-.72-1.685C748.992,169.265,748.972,168.927,748.972,168.591Z" transform="translate(-723.939 -154.292)"/><path class="d" d="M745.769,178.372c-.222-.15-.616-.045-.936-.049a1.606,1.606,0,0,0-.2.022h-1.922c-1.51-.008-3.02-.018-4.531-.02-.1,0-.3-.076-.255.17a3.539,3.539,0,0,1-.366,2.371h2.726a14.6,14.6,0,0,0,1.921,0h4.011a4.017,4.017,0,0,1-.464-1.653C745.731,178.918,746,178.531,745.769,178.372Z" transform="translate(-723.328 -154.99)"/><path class="d" d="M753.37,167.718a.647.647,0,0,0-.615-.437c-.533-.035-1.07-.014-1.6-.027-.231-.006-.225.14-.223.3q.011,1.1.021,2.206c.012.028.024.082.037.082.773.008,1.547.012,2.32.017.111,0,.214-.021.2-.157A5.925,5.925,0,0,0,753.37,167.718Z" transform="translate(-724.172 -154.293)"/><path class="d" d="M748.155,179.174a1.69,1.69,0,0,0,1.9,1.627,1.576,1.576,0,0,0,1.513-1.507,1.687,1.687,0,0,0-1.621-1.9A1.758,1.758,0,0,0,748.155,179.174Z" transform="translate(-723.997 -154.933)"/><path class="d" d="M756.874,170.467a2.3,2.3,0,0,0-.045-.611,14.469,14.469,0,0,0-1.028-5.116,5.553,5.553,0,0,0-.6-1.425,14.544,14.544,0,0,0-2.828-4.239,5.609,5.609,0,0,0-1.011-1.022,14.575,14.575,0,0,0-4.108-2.834,6.908,6.908,0,0,0-1.561-.681,15.631,15.631,0,0,0-5.963-1.106,10.079,10.079,0,0,0-2.241.132.67.67,0,0,0-.221.042,4.43,4.43,0,0,0-.5.038,17.1,17.1,0,0,0-12.034,8.336,15.576,15.576,0,0,0-2.2,6.584.076.076,0,0,0-.015.085l0,0a10.694,10.694,0,0,0-.136,2.389,1.439,1.439,0,0,0,.043.419,14.7,14.7,0,0,0,1.1,5.321,5.856,5.856,0,0,0,.623,1.429c.433,1.11.433,1.11,1.6,1.11h4.834a3.615,3.615,0,0,1-.365-2.391c.064-.268-.185-.173-.305-.175-.7-.009-1.411,0-2.117-.006-.8,0-1.085-.293-1.1-1.092.159-.281.321-.559.683-.609.12-.017.186-.078.182-.2-.031-.83.036-1.661,0-2.491a3.1,3.1,0,0,0-.061-.718c-.413-.174-.787-.4-.8-.911a.807.807,0,0,1,.68-.864.194.194,0,0,0,.174-.208,6.936,6.936,0,0,0-.061-1.482,11.7,11.7,0,0,0-2.269-.07c-.745-.025-.919-.133-1.151-.842.041-.559.411-.793.9-.909a14.913,14.913,0,0,0,1.92,0,1.058,1.058,0,0,0,.605-.026c.13-.146.058-.321.061-.482.015-.841.018-1.683.025-2.525a2.666,2.666,0,0,1,2.545-2.135H741.15c.485.007.971.018,1.457.018,1.881,0,2.718.683,3.092,2.52-.06.94-.06.941.863.928.082,0,.165-.014.248-.022,1.224.007,2.447.037,3.67.015a2.958,2.958,0,0,1,2.418,1,3.2,3.2,0,0,1,.536,1.424.616.616,0,0,0,.034.245q-.076,3.415,0,6.83c-.082.471-.125.921.5,1.068.072.017.127.1.19.155.319.879-.036,1.375-.986,1.386-.167,0-.333.015-.5.023h0c-.332,0-.729-.113-.975.031-.189.111.023.54,0,.829-.014.183-.015.366-.023.549l-.378,1.138c1.025,0,2.017,0,3.008,0a.356.356,0,0,0,.364-.2,16.267,16.267,0,0,0,1.954-5.672.651.651,0,0,0,.052-.291A12.232,12.232,0,0,0,756.874,170.467Z" transform="translate(-722.369 -153.42)"/><path class="d" d="M730.752,175.66c.379-.007.811.155,1.132-.089a3.534,3.534,0,0,1,3.658-.467,2.469,2.469,0,0,0,1.841.578c2.173-.036,4.346-.024,6.519,0,.42,0,.532-.112.53-.531-.017-3.47-.009-6.94-.011-10.411a.731.731,0,0,0-.07-.488h0a.651.651,0,0,0-.575-.6h0c-.163-.13-.356-.075-.535-.075-1.814,0-3.629,0-5.443,0q-3.478,0-6.955,0c-.7,0-.958.208-1.055.8-.011.789-.013,1.578-.039,2.366-.009.27.117.3.333.292.672-.009,1.344-.007,2.016,0,.777.006,1.052.269,1.109,1.046a1.061,1.061,0,0,1-1.136.687,10.418,10.418,0,0,0-2.266.062.738.738,0,0,0-.05.439c-.011,1.33-.01,1.33,1.345,1.189a12.026,12.026,0,0,0,1.918,0c.335.01.671.019,1.005.034a.863.863,0,1,1-.051,1.722c-.957.028-1.914.026-2.871.037-1.385-.142-1.407-.122-1.344,1.23a.537.537,0,0,0,.025.1c-.009.369-.026.737-.027,1.106C729.749,175.665,729.752,175.678,730.752,175.66Z" transform="translate(-722.834 -154.06)"/><path class="d" d="M753.512,182.913c-.1,0-.2-.009-.3-.009q-13.334,0-26.667.006c-.1,0-.238-.1-.308.065a4.867,4.867,0,0,0,1.074,1.331,5.514,5.514,0,0,0,1.033,1.019,14.343,14.343,0,0,0,4.251,2.824,5.38,5.38,0,0,0,1.323.572,14.854,14.854,0,0,0,5.306,1.043,1.647,1.647,0,0,0,.578.038,11.446,11.446,0,0,0,2.533-.191.716.716,0,0,0,.293-.054,2.889,2.889,0,0,0,.35-.022,17.162,17.162,0,0,0,9.328-5.047,5.936,5.936,0,0,0,1.212-1.511h0a.291.291,0,0,0,.024-.044A.045.045,0,0,0,753.512,182.913ZM737.638,183l0,0,0,0Z" transform="translate(-722.613 -155.28)"/><path class="d" d="M733.881,177.465a1.7,1.7,0,0,0-.684,3.008,1.7,1.7,0,0,0,2.365-2.412A1.508,1.508,0,0,0,733.881,177.465Z" transform="translate(-723.009 -154.934)"/></g><line class="e" x2="9.188" transform="translate(21.242 39.246)"/></g></g></svg>