<svg xmlns="http://www.w3.org/2000/svg" width="15.27" height="12.409" viewBox="0 0 15.27 12.409"><defs><style>.a{fill:#fff;}</style></defs><path class="a" d="M17.84,6.286a6.263,6.263,0,0,1-1.8.493,3.142,3.142,0,0,0,1.377-1.733,6.271,6.271,0,0,1-1.989.76,3.136,3.136,0,0,0-5.338,2.857A8.894,8.894,0,0,1,3.634,5.391,3.136,3.136,0,0,0,4.6,9.573a3.12,3.12,0,0,1-1.419-.392c0,.013,0,.026,0,.039A3.135,3.135,0,0,0,5.7,12.292a3.138,3.138,0,0,1-1.415.054,3.136,3.136,0,0,0,2.926,2.176,6.285,6.285,0,0,1-3.891,1.341,6.354,6.354,0,0,1-.747-.044A8.909,8.909,0,0,0,16.286,8.313q0-.2-.009-.405A6.364,6.364,0,0,0,17.84,6.286Z" transform="translate(-2.571 -4.817)"/></svg>