<svg xmlns="http://www.w3.org/2000/svg" xmlns:xlink="http://www.w3.org/1999/xlink" width="144.734" height="144.734" viewBox="0 0 144.734 144.734"><defs><style>.a{fill:#fff;}.b{fill:#00efd1;stroke-width:1.8px;}.b,.c,.e{stroke:#093d78;}.b,.c{stroke-miterlimit:10;}.c{fill:none;stroke-linecap:round;stroke-width:2px;}.d,.e{fill:#093d78;}.e{stroke-width:0.5px;}.f{filter:url(#a);}</style><filter id="a" x="0" y="0" width="144.734" height="144.734" filterUnits="userSpaceOnUse"><feOffset input="SourceAlpha"/><feGaussianBlur stdDeviation="3.5" result="b"/><feFlood flood-opacity="0.102"/><feComposite operator="in" in2="b"/><feComposite in="SourceGraphic"/></filter></defs><g transform="translate(-760.5 -10245.5)"><g class="f" transform="matrix(1, 0, 0, 1, 760.5, 10245.5)"><circle class="a" cx="61.867" cy="61.867" r="61.867" transform="translate(10.5 10.5)"/></g><g transform="translate(-577.225 10144.432)"><circle class="b" cx="11.902" cy="11.902" r="11.902" transform="translate(1417.167 166.877)"/><line class="c" x2="30.357" transform="translate(1396.589 151.79)"/><line class="c" x2="30.357" transform="translate(1396.589 160.125)"/><path class="d" d="M1417.6,166.745h-22.15a1.071,1.071,0,0,0,0,2.142h19.778A11.921,11.921,0,0,1,1417.6,166.745Z" transform="translate(1.143 0.644)"/><path class="d" d="M1413.25,171.819h-17.8a1.071,1.071,0,0,0,0,2.142h17.179A11.8,11.8,0,0,1,1413.25,171.819Z" transform="translate(1.143 3.904)"/><path class="e" d="M1434.568,165.952a11.968,11.968,0,0,1,2.052,1.867h.09V143.638h-50.946v51.923h2.142V145.78h46.661Z" transform="translate(0.53 -1)"/><path class="e" d="M1435.1,189v3.436a6.588,6.588,0,0,1-13.176.076v-1.06l-43.61-.014v1.3a8.407,8.407,0,0,0,8.4,8.4h41.059q.367.031.741.031a8.74,8.74,0,0,0,8.73-8.73v-4.846A6.56,6.56,0,0,1,1435.1,189Zm-48.388,9.993a6.264,6.264,0,0,1-6.2-5.413h39.335a8.619,8.619,0,0,0,2.884,5.413Z" transform="translate(0 3.093)"/><path class="d" d="M7.653,8.9l5.992,5.992a.74.74,0,0,1,0,1.046l-.7.7a.74.74,0,0,1-1.045,0L7.129,11.89,2.359,16.638a.74.74,0,0,1-1.045,0l-.7-.7a.74.74,0,0,1,0-1.046L6.606,8.9A.74.74,0,0,1,7.653,8.9Z" transform="translate(1421.939 166.011)"/></g></g></svg>