<svg xmlns="http://www.w3.org/2000/svg" xmlns:xlink="http://www.w3.org/1999/xlink" width="106" height="106" viewBox="0 0 106 106"><defs><style>.a{fill:#fff;}.b{fill:none;}.b,.c{stroke:#093d78;stroke-linecap:round;stroke-miterlimit:10;stroke-width:2px;}.c{fill:#00efd1;}.d{fill:#093d78;}.e{filter:url(#a);}</style><filter id="a" x="0" y="0" width="106" height="106" filterUnits="userSpaceOnUse"><feOffset input="SourceAlpha"/><feGaussianBlur stdDeviation="3.5" result="b"/><feFlood flood-opacity="0.102"/><feComposite operator="in" in2="b"/><feComposite in="SourceGraphic"/></filter></defs><g transform="translate(-1025.5 -2685.5)"><g class="e" transform="matrix(1, 0, 0, 1, 1025.5, 2685.5)"><circle class="a" cx="42.5" cy="42.5" r="42.5" transform="translate(10.5 10.5)"/></g><g transform="translate(763.824 1122.788)"><path class="b" d="M1126.113,204.207a44.1,44.1,0,0,0-.238-6.141,4.778,4.778,0,0,0-1.028-2.45c-.234-.262-.552-.487-.859-.763-3.4-3.058-9.081-8.536-9.367-8.777a4.713,4.713,0,0,1-1.09-6.227l5.657-9.4a3.444,3.444,0,0,1,4.733-1.129h0a3.445,3.445,0,0,1,1.39,4.664l-4.386,7.619a.3.3,0,0,0,.044.355l7.693,7.851a.991.991,0,0,0,1.33.078l1.085-.874" transform="translate(-823.64 1430.581)"/><path class="b" d="M1147.225,204.207a44.082,44.082,0,0,1,.237-6.141,4.782,4.782,0,0,1,1.028-2.45c.234-.262.553-.487.859-.763,3.4-3.058,9.081-8.536,9.367-8.777a4.715,4.715,0,0,0,1.091-6.227l-5.657-9.4a3.446,3.446,0,0,0-4.734-1.129h0a3.445,3.445,0,0,0-1.39,4.664l4.386,7.619a.3.3,0,0,1-.044.355l-7.693,7.851a.991.991,0,0,1-1.33.078l-1.085-.874" transform="translate(-819.452 1430.581)"/><ellipse class="c" cx="9.381" cy="9.381" rx="9.381" ry="9.381" transform="translate(305.668 1597.212)"/><path class="d" d="M6.216,8.857l4.806,4.806a.593.593,0,0,1,0,.839l-.56.561a.593.593,0,0,1-.838,0L5.8,11.255,1.97,15.064a.593.593,0,0,1-.838,0L.572,14.5a.593.593,0,0,1,0-.839L5.377,8.857A.593.593,0,0,1,6.216,8.857Z" transform="translate(309.703 1613.745)"/></g></g></svg>