<svg xmlns="http://www.w3.org/2000/svg" xmlns:xlink="http://www.w3.org/1999/xlink" width="148" height="148" viewBox="0 0 148 148"><defs><style>.a{fill:#fff;}.b{fill:none;stroke-width:2.5px;}.b,.c{stroke:#093d78;stroke-linecap:round;stroke-miterlimit:10;}.c{fill:#00efd1;stroke-width:2px;}.d{fill:#093d78;}.e{filter:url(#a);}</style><filter id="a" x="0" y="0" width="148" height="148" filterUnits="userSpaceOnUse"><feOffset dy="2" input="SourceAlpha"/><feGaussianBlur stdDeviation="5" result="b"/><feFlood flood-opacity="0.122"/><feComposite operator="in" in2="b"/><feComposite in="SourceGraphic"/></filter></defs><g transform="translate(-1364 -5850)"><g class="e" transform="matrix(1, 0, 0, 1, 1364, 5850)"><circle class="a" cx="59" cy="59" r="59" transform="translate(15 13)"/></g><g transform="translate(1115.824 4301.788)"><path class="b" d="M1129.873,214.214a56.58,56.58,0,0,0-.305-7.877,6.13,6.13,0,0,0-1.319-3.143c-.3-.336-.708-.624-1.1-.979-4.364-3.922-11.649-10.95-12.016-11.259a6.046,6.046,0,0,1-1.4-7.988l7.257-12.063a4.418,4.418,0,0,1,6.072-1.448h0a4.419,4.419,0,0,1,1.783,5.982l-5.626,9.773a.381.381,0,0,0,.057.456l9.868,10.07a1.272,1.272,0,0,0,1.706.1l1.392-1.121" transform="translate(-823.64 1431.2)"/><path class="b" d="M1148.63,214.214a56.54,56.54,0,0,1,.3-7.877,6.135,6.135,0,0,1,1.319-3.143c.3-.336.709-.624,1.1-.979,4.363-3.922,11.649-10.95,12.016-11.259a6.048,6.048,0,0,0,1.4-7.988l-6.5-10.813-.752-1.25a4.42,4.42,0,0,0-6.073-1.448h0a4.419,4.419,0,0,0-1.783,5.982l5.626,9.773a.379.379,0,0,1-.057.456l-9.868,10.07a1.272,1.272,0,0,1-1.706.1l-1.392-1.121" transform="translate(-809.942 1431.2)"/><ellipse class="c" cx="12.034" cy="12.034" rx="12.034" ry="12.034" transform="translate(310.332 1597.212)"/><path class="d" d="M7.862,8.906l6.165,6.165a.761.761,0,0,1,0,1.077l-.719.719a.761.761,0,0,1-1.075,0L7.324,11.982,2.415,16.868a.761.761,0,0,1-1.075,0l-.719-.719a.761.761,0,0,1,0-1.077L6.785,8.906A.761.761,0,0,1,7.862,8.906Z" transform="translate(315.62 1620.876)"/></g></g></svg>