<svg xmlns="http://www.w3.org/2000/svg" xmlns:xlink="http://www.w3.org/1999/xlink" width="106" height="106" viewBox="0 0 106 106"><defs><style>.a{fill:none;}.b{fill:#b9e8f6;}.c{clip-path:url(#c);}.d{fill:#093d78;}.e{filter:url(#a);}</style><filter id="a" x="0" y="0" width="106" height="106" filterUnits="userSpaceOnUse"><feOffset input="SourceAlpha"/><feGaussianBlur stdDeviation="3.5" result="b"/><feFlood flood-opacity="0.149"/><feComposite operator="in" in2="b"/><feComposite in="SourceGraphic"/></filter><clipPath id="c"><rect class="a" width="45.661" height="8.661"/></clipPath></defs><g transform="translate(-1476.5 -1971.5)"><g class="e" transform="matrix(1, 0, 0, 1, 1476.5, 1971.5)"><circle class="b" cx="42.5" cy="42.5" r="42.5" transform="translate(10.5 10.5)"/></g><g class="c" transform="translate(1507 2020)"><g transform="translate(-6 -16.5)"><path class="d" d="M14,20.5a4,4,0,1,1-4-4A4,4,0,0,1,14,20.5Z" transform="translate(0)"/></g><g transform="translate(12 -16.5)"><path class="d" d="M14,20.5a4,4,0,1,1-4-4A4,4,0,0,1,14,20.5Z" transform="translate(0)"/></g><g transform="translate(30 -16.5)"><path class="d" d="M14,20.5a4,4,0,1,1-4-4A4,4,0,0,1,14,20.5Z" transform="translate(0)"/></g></g></g></svg>