<svg xmlns="http://www.w3.org/2000/svg" width="76.019" height="76.019" viewBox="0 0 76.019 76.019"><defs><style>.a{fill:#02509c;}</style></defs><g transform="translate(0)"><path class="a" d="M76.019,31.879H73.264L69.157,34.04a6.1,6.1,0,0,0-1.461-.6L62.53,32.146v-.587a8.61,8.61,0,0,0,3.68-7.036V22.379a8.809,8.809,0,0,0-8.319-8.888c-.233-.006-.462,0-.693.014l1.339-3.135L52.044,3.878,48.217,6.369a20.74,20.74,0,0,0-4.59-1.9L42.682,0H33.338l-.945,4.467a20.716,20.716,0,0,0-4.59,1.9L23.975,3.879l-6.487,6.487L18.8,13.5c-.05,0-.1-.011-.148-.013A8.586,8.586,0,0,0,9.809,22.07v2.452a8.607,8.607,0,0,0,3.678,7.035v.589l-3.369.842L4.01,29.427H0V54.833l12.062,4.02h2.349l.293-1.027,3.7,2.219a3.817,3.817,0,0,0,3.681,3.7,3.817,3.817,0,0,0,3.678,3.678A3.817,3.817,0,0,0,29.44,71.1,3.813,3.813,0,0,0,35.4,74.128l1.086.959a3.733,3.733,0,0,0,2.467.932h.227a3.733,3.733,0,0,0,3.726-3.683,3.73,3.73,0,0,0,3.678-3.678,3.729,3.729,0,0,0,3.678-3.682,3.77,3.77,0,0,0,3.683-3.762,3.591,3.591,0,0,0-.019-.368L76.019,49.8Zm-12.261-9.5v2.143a6.154,6.154,0,0,1-3.069,5.306l-.613.354,0,3.88,6.126,1.53-13.484,7.1v-3.3a6.1,6.1,0,0,0-1.756-4.273l4.208-1.051V30.179l-.612-.354a6.148,6.148,0,0,1-3.066-5.3V22.07a6.13,6.13,0,0,1,6.32-6.127,6.339,6.339,0,0,1,5.941,6.436Zm-23.9,19.347-5.55-1.774a15.141,15.141,0,0,0-7.857-.358l-.7.156v-.363a3.676,3.676,0,0,1,2.786-3.569l7.023-1.755V30.179l-.612-.354a6.148,6.148,0,0,1-3.066-5.3V22.07a6.13,6.13,0,0,1,6.32-6.127,6.339,6.339,0,0,1,5.941,6.436v2.143a6.154,6.154,0,0,1-3.069,5.306l-.613.354,0,3.88,7.022,1.755a3.676,3.676,0,0,1,2.786,3.569v4.594l-.3.159h-.751l-7.538-2.154a7.729,7.729,0,0,0-1.82-.26ZM26.023,18.351a13.478,13.478,0,0,1,23.922-.1,8.527,8.527,0,0,0-.9,3.818v2.452a8.607,8.607,0,0,0,3.678,7.035v.589l-4.9,1.228-4.906-1.228v-.587a8.61,8.61,0,0,0,3.68-7.036V22.379a8.809,8.809,0,0,0-8.319-8.888,8.584,8.584,0,0,0-8.846,8.579v2.452A8.607,8.607,0,0,0,33.1,31.557v.589l-4.9,1.228-4.906-1.228v-.587a8.61,8.61,0,0,0,3.68-7.036V22.379a9.037,9.037,0,0,0-.951-4.028Zm-5.639-7.415L24.3,7.018l3.448,2.244.66-.4a18.3,18.3,0,0,1,5.309-2.2l.754-.181.853-4.023h5.369l.851,4.021.754.18a18.314,18.314,0,0,1,5.309,2.2l.66.4,3.448-2.244,3.912,3.914-1.391,3.256a8.57,8.57,0,0,0-2.588,1.721c-.05.049-.093.1-.142.152a15.923,15.923,0,0,0-27.043.074,8.648,8.648,0,0,0-2.7-1.918ZM15.939,34.062V30.179l-.612-.354a6.148,6.148,0,0,1-3.066-5.3V22.07a6.13,6.13,0,0,1,6.32-6.127,6.339,6.339,0,0,1,5.941,6.436v2.143a6.154,6.154,0,0,1-3.069,5.306l-.613.354,0,3.88,4.207,1.051A6.1,6.1,0,0,0,23.3,39.386v.908l-3.824.85.1-.347.047-2.266-6.466-3.772ZM2.452,31.879h.894l8.818,5.143-4.449,17.8L2.452,53.065ZM12.46,56.4l-2.413-.8,4.323-17.288,2.8,1.631v.35L12.563,56.4Zm8.384,3.53a1.384,1.384,0,0,1,.4-.972L23.4,56.8a1.375,1.375,0,0,1,1.945,1.945L23.191,60.9a1.375,1.375,0,0,1-2.347-.972Zm3.678,3.678a1.384,1.384,0,0,1,.4-.972l2.155-2.155a1.375,1.375,0,0,1,1.945,1.945l-2.155,2.155a1.375,1.375,0,0,1-2.347-.972ZM28.2,67.288a1.384,1.384,0,0,1,.4-.972l2.155-2.155A1.375,1.375,0,0,1,32.7,66.1L30.547,68.26a1.375,1.375,0,0,1-2.347-.972Zm5.053,5.053a1.375,1.375,0,0,1-.972-2.347l2.155-2.155a1.375,1.375,0,0,1,1.945,1.945l-2.155,2.155A1.384,1.384,0,0,1,33.253,72.341Zm5.929,1.226h-.227a1.271,1.271,0,0,1-.845-.32l-.917-.809.921-.921a3.812,3.812,0,0,0,.772-1.139L40,71.305a1.279,1.279,0,0,1-.819,2.261Zm11-11.035h-.212a1.315,1.315,0,0,1-.844-.307l-6.649-5.541L40.9,58.569l6.457,5.38a1.28,1.28,0,0,1-.82,2.261h-.268a1.279,1.279,0,0,1-.818-.3l-6.66-5.549-1.571,1.885,6.457,5.38a1.278,1.278,0,0,1-.819,2.259,2.025,2.025,0,0,1-1.29-.467L38.834,67.14A3.814,3.814,0,0,0,35.542,65a3.817,3.817,0,0,0-3.678-3.678,3.817,3.817,0,0,0-3.678-3.678,3.818,3.818,0,0,0-6.518-2.571l-2.155,2.155a3.779,3.779,0,0,0-.344.42L15.4,55.385l3.3-11.556,8.277-1.84a12.631,12.631,0,0,1,6.578.3l1.806.578-6.123,3.062A4.087,4.087,0,0,0,26.974,49.6v.242a4.106,4.106,0,0,0,6.22,3.521l4.566-2.738a2.531,2.531,0,0,1,2.94.283l10.36,9.323a1.32,1.32,0,0,1-.882,2.3ZM73.567,48.286,52.91,58.616c-.067-.071-.137-.139-.211-.2L42.341,49.088a4.934,4.934,0,0,0-5.844-.565L31.93,51.261a1.654,1.654,0,0,1-2.5-1.42V49.6a1.645,1.645,0,0,1,.915-1.48l6.839-3.42A5.329,5.329,0,0,1,41,44.345l7.705,2.2,1.866.047,22.993-12.1Zm0,0"/></g></svg>