<svg xmlns="http://www.w3.org/2000/svg" xmlns:xlink="http://www.w3.org/1999/xlink" width="125.538" height="124.5" viewBox="0 0 125.538 124.5"><defs><style>.a{fill:#fff;}.b{fill:#093d78;}.c{fill:#00efd1;}.d{filter:url(#a);}</style><filter id="a" x="0" y="0" width="125.538" height="124.5" filterUnits="userSpaceOnUse"><feOffset input="SourceAlpha"/><feGaussianBlur stdDeviation="5" result="b"/><feFlood flood-color="#093d78" flood-opacity="0.122"/><feComposite operator="in" in2="b"/><feComposite in="SourceGraphic"/></filter></defs><g transform="translate(-973.418 -4228.703)"><g class="d" transform="matrix(1, 0, 0, 1, 973.42, 4228.7)"><ellipse class="a" cx="47.769" cy="47.25" rx="47.769" ry="47.25" transform="translate(15 15)"/></g><g transform="translate(1010.678 4270.181)"><path class="b" d="M1045.453,466.259v-7.6a4.785,4.785,0,0,0-4.785-4.785H1028.2v-3.459a1.212,1.212,0,0,0-1.212-1.212H1022.5v-1.882a3,3,0,0,0,.851-.736h8.478a3.077,3.077,0,1,0,0-3.609h-8.478a2.9,2.9,0,0,0-4.6,0h-8.478a3.077,3.077,0,1,0,0,3.609h8.478a3.01,3.01,0,0,0,.85.736V449.2h-4.476a1.221,1.221,0,0,0-1.221,1.221v3.45h-11.393a.637.637,0,0,0-.637.637V462.8a.646.646,0,0,0,.646.646h12.251a7.149,7.149,0,0,0,12.56,0h5.944a4.456,4.456,0,0,1,.518,1.776c.026.292.049.548.069.778a1.536,1.536,0,0,0,.4,3.018h10.261a1.534,1.534,0,0,0,.929-2.759Z" transform="translate(-1001.871 -441.704)"/><path class="c" d="M1070.6,505.6a5.3,5.3,0,0,1-10.608,0c0-2.93,5.3-12.03,5.3-12.03S1070.6,502.669,1070.6,505.6Z" transform="translate(-1027.775 -462.34)"/></g></g></svg>