<svg xmlns="http://www.w3.org/2000/svg" xmlns:xlink="http://www.w3.org/1999/xlink" width="124.5" height="124.5" viewBox="0 0 124.5 124.5"><defs><style>.a{fill:#fff;}.b{fill:#093d78;}.c{fill:#00efd1;}.d{filter:url(#a);}</style><filter id="a" x="0" y="0" width="124.5" height="124.5" filterUnits="userSpaceOnUse"><feOffset input="SourceAlpha"/><feGaussianBlur stdDeviation="5" result="b"/><feFlood flood-color="#093d78" flood-opacity="0.122"/><feComposite operator="in" in2="b"/><feComposite in="SourceGraphic"/></filter></defs><g transform="translate(15 15)"><g class="d" transform="matrix(1, 0, 0, 1, -15, -15)"><ellipse class="a" cx="47.25" cy="47.25" rx="47.25" ry="47.25" transform="translate(15 15)"/></g><g transform="translate(28.36 15.173)"><path class="b" d="M1341.618,461.764c-.295.425-.6,1.346-1.3,1.064-.107-.043-1.348-.671-1.8-.949-.5-.313-.8-.8-.339-1.9,1.859-4.41,8.415-13.049,8.95-12.921C1347.6,447.175,1344.355,457.822,1341.618,461.764Z" transform="translate(-1312.379 -447.06)"/><path class="b" d="M1295.829,494.687c.515.054,1.467-.127,1.56.631.015.115.062,1.5.034,2.031-.031.592-.313,1.086-1.5,1.21-4.759.495-15.489-1.09-15.634-1.621C1280.163,496.471,1291.057,494.187,1295.829,494.687Z" transform="translate(-1274.968 -477.916)"/><path class="b" d="M1294.412,504.392c-.751-.925-1.373-.968-1.833-.594a5.582,5.582,0,0,1-2.37.85c-.783.038-.815.943-.852,1.865q-.534,13.057-1.155,26.11c-.166,3.621-.452,7.239-.52,10.861-.028,1.484-.519,1.855-1.934,1.793-2.484-.109-2.488-.022-2.489-2.428,0-3.392-.046-6.784.019-10.175.031-1.6-.594-2.156-2.185-2.13-4.618.074-9.24.064-13.859,0-1.5-.019-2.115.5-2.1,2.034q.081,6.578,0,13.157c-.024,1.635.673,2.113,2.221,2.1q12.368-.072,24.736,0c1.206.007,1.6-.266,1.533-1.543-.48-9.05-.887-18.1-1.315-27.155-.148-3.118-.434-9.011-.505-10.946-.01-.289-.007-.5,0-.6,2.745,4.388,9.5,11.1,9.794,10.762C1301.966,517.957,1297.428,508.106,1294.412,504.392Z" transform="translate(-1265.135 -483.731)"/><path class="b" d="M1275.447,466.764c.339-.84,11.886-1.062,17.364-1.188.058,0,.117,0,.175,0,.57.024,1.315-.095,1.3.75-.013,1-.877.747-1.456.736-4.546-.081-9.09-.2-13.636-.293C1278,466.742,1276.8,466.764,1275.447,466.764Z" transform="translate(-1271.826 -459.072)"/><path class="b" d="M1267.023,475.47c1.7,0,13.071.182,17.219.25.646.011,1.619.271,1.595-.786-.02-.895-.909-.712-1.523-.7C1279,474.366,1267.413,474.481,1267.023,475.47Z" transform="translate(-1266.36 -464.677)"/><path class="b" d="M1284.444,458c.9,0,12.387.341,17.3.5.64.021,1.432.112,1.465-.8.024-.655-.593-.778-1.158-.764C1296.376,457.08,1284.567,457.42,1284.444,458Z" transform="translate(-1277.664 -453.472)"/><path class="c" d="M1331.943,494.422a1.814,1.814,0,0,1,1.862-1.9,1.924,1.924,0,1,1-.006,3.843A1.851,1.851,0,0,1,1331.943,494.422Z" transform="translate(-1308.483 -476.558)"/><path class="c" d="M1286.83,592.714l2.222.211c-1.148,2.065-2.548,4.569-3.8,6.819a40.437,40.437,0,0,1,.683-4.953l-1.974-.09,1.369-6.253,2.97.415S1287.13,592.01,1286.83,592.714Z" transform="translate(-1277.352 -538.797)"/></g></g></svg>