<svg xmlns="http://www.w3.org/2000/svg" xmlns:xlink="http://www.w3.org/1999/xlink" width="106" height="106" viewBox="0 0 106 106"><defs><style>.a{fill:#fff;}.b,.e{fill:none;}.b,.c,.d,.e{stroke:#093d78;stroke-miterlimit:10;stroke-width:2px;}.c{fill:#00efd1;}.d{fill:#f7caa5;}.e{stroke-linecap:round;}.f{filter:url(#a);}</style><filter id="a" x="0" y="0" width="106" height="106" filterUnits="userSpaceOnUse"><feOffset input="SourceAlpha"/><feGaussianBlur stdDeviation="3.5" result="b"/><feFlood flood-opacity="0.102"/><feComposite operator="in" in2="b"/><feComposite in="SourceGraphic"/></filter></defs><g transform="translate(-540.5 -1440.5)"><g class="f" transform="matrix(1, 0, 0, 1, 540.5, 1440.5)"><circle class="a" cx="42.5" cy="42.5" r="42.5" transform="translate(10.5 10.5)"/></g><g transform="translate(573.069 1472)"><g transform="translate(-1921.296 -147.587)"><path class="b" d="M1957.3,159.769h1.386a11.011,11.011,0,0,1,11.012,11.011v11.472h-27.558" transform="translate(-2.069 -1.292)"/><path class="b" d="M1935.384,168.62a11.015,11.015,0,0,1,10.8-8.851h1.355" transform="translate(-1.53 -1.292)"/><path class="c" d="M1951.443,161.271l-2.519,11.645a.678.678,0,0,0,.184.625l4.2,4.2a.152.152,0,0,0,.215,0l3.914-3.914a1.365,1.365,0,0,0,.372-1.241l-2.364-11.423" transform="translate(-2.609 -1.403)"/><circle class="b" cx="8.238" cy="8.238" r="8.238" transform="translate(1942.383 143.587)"/><path class="d" d="M1916.227,174.06V193.1c0,2.626,5.27,4.755,11.77,4.755s11.77-2.129,11.77-4.755V174.06" transform="translate(0 -2.433)"/><ellipse class="d" cx="11.77" cy="4.755" rx="11.77" ry="4.755" transform="translate(1916.227 166.872)"/><path class="b" d="M1939.766,181.3c0,2.626-5.27,4.755-11.77,4.755s-11.77-2.129-11.77-4.755" transform="translate(0 -3.012)"/><path class="b" d="M1939.766,188c0,2.626-5.27,4.755-11.77,4.755s-11.77-2.129-11.77-4.755" transform="translate(0 -3.546)"/><line class="e" x1="12.397" transform="translate(1955.229 188.147)"/><line class="e" x1="20.47" transform="translate(1947.155 195.424)"/></g></g></g></svg>