<svg xmlns="http://www.w3.org/2000/svg" xmlns:xlink="http://www.w3.org/1999/xlink" width="148" height="148" viewBox="0 0 148 148"><defs><style>.a{fill:#fff;}.b{fill:#093d78;}.c{fill:#deb28e;}.d{filter:url(#a);}</style><filter id="a" x="0" y="0" width="148" height="148" filterUnits="userSpaceOnUse"><feOffset dy="2" input="SourceAlpha"/><feGaussianBlur stdDeviation="5" result="b"/><feFlood flood-opacity="0.122"/><feComposite operator="in" in2="b"/><feComposite in="SourceGraphic"/></filter></defs><g transform="translate(-1505 -7781)"><g class="d" transform="matrix(1, 0, 0, 1, 1505, 7781)"><circle class="a" cx="59" cy="59" r="59" transform="translate(15 13)"/></g><g transform="translate(1430.053 7682.911)"><path class="b" d="M177.619,197.913l-2.949-1.7v2.019H168.3V161.624a1.538,1.538,0,0,0-1.538-1.538H160.5a1.538,1.538,0,0,0-1.538,1.538v36.605h-6.481V172.311a1.537,1.537,0,0,0-1.537-1.538h-6.262a1.537,1.537,0,0,0-1.537,1.538v25.918h-5.657V181.208a1.539,1.539,0,0,0-1.538-1.538h-6.261a1.538,1.538,0,0,0-1.538,1.538v17.021h-6.412V145.51h2.018l-1.7-2.949-1.7-2.949-1.7,2.949-1.7,2.949h2.018V197.9a2.909,2.909,0,0,0,.019.325h-.019A2.773,2.773,0,0,0,121.739,201H174.67v2.019l2.949-1.7,2.949-1.7Z"/><path class="b" d="M163.867,147.506l-10.843.714,2.23,3.3L131.3,167.86a1.357,1.357,0,0,0-.356,1.886h0a1.357,1.357,0,0,0,1.886.357l23.949-16.338L159.1,157.2Z" transform="translate(-2 0.001)"/><circle class="c" cx="8.418" cy="8.418" r="8.418" transform="translate(164.55 137.089)"/><g transform="translate(0 -2)"><path class="a" d="M170.231,142.783h6.087v.013a9.461,9.461,0,0,1-.608.886h-1.626a2.116,2.116,0,0,1,.456.955h1.733c.021,0,.032.013.032.025q-.582.873-.595.873h-1.126a2.579,2.579,0,0,1-.43,1.082,2.627,2.627,0,0,1-.994.829,3.917,3.917,0,0,1-1.7.424v.013q0,.063,3.663,4.347h-1.613q-3.568-4.158-3.569-4.176v-.842l.013-.031a5.491,5.491,0,0,0,.74.044q2,0,2.487-1.3a1.061,1.061,0,0,0,.076-.393h-3.62a.022.022,0,0,1-.025-.025q.6-.873.614-.873H173.1v-.013a1.685,1.685,0,0,0-.955-.778,2.967,2.967,0,0,0-.911-.164H169.63v-.032Q170.212,142.783,170.231,142.783Z"/></g></g></g></svg>