<svg xmlns="http://www.w3.org/2000/svg" width="16.588" height="11.663" viewBox="0 0 16.588 11.663"><defs><style>.a{fill:#fff;}</style></defs><path class="a" d="M17.291,6.325a2.084,2.084,0,0,0-1.467-1.476A49.256,49.256,0,0,0,9.344,4.5a49.256,49.256,0,0,0-6.481.349A2.084,2.084,0,0,0,1.4,6.325a21.865,21.865,0,0,0-.347,4.019A21.865,21.865,0,0,0,1.4,14.362a2.053,2.053,0,0,0,1.467,1.452,49.256,49.256,0,0,0,6.481.349,49.256,49.256,0,0,0,6.481-.349,2.053,2.053,0,0,0,1.467-1.452,21.865,21.865,0,0,0,.347-4.019,21.865,21.865,0,0,0-.347-4.019ZM7.647,12.81V7.877l4.335,2.466L7.647,12.81Z" transform="translate(-1.05 -4.5)"/></svg>